<svg width="126" height="133" viewBox="0 0 126 133" fill="none" xmlns="http://www.w3.org/2000/svg">
<path d="M45.6592 33.8141C46.7019 33.0922 48.3863 32.6912 50.3113 32.3704C49.1082 33.3329 47.504 34.0548 45.6592 33.8141Z" fill="url(#paint0_linear_354_15512)"/>
<path d="M76.636 10.4583C76.636 10.4583 61.9842 4.5823 52.8268 6.71902C50.1559 7.32952 31.6885 16.8685 28.0256 17.3263C24.3626 17.7842 25.8888 23.7365 34.4357 22.3629C43.0589 20.913 76.636 10.4583 76.636 10.4583Z" fill="url(#paint1_linear_354_15512)"/>
<path d="M50.6902 10.1531C48.1719 12.9766 44.8905 19.0052 42.7538 23.355C38.5566 26.4837 34.2069 29.5362 32.2991 30.2993C28.102 31.9782 26.2705 28.2389 26.9573 27.5521C27.7204 26.8653 35.5042 18.3184 35.5042 18.3184C35.5042 18.3184 41.9906 13.2818 44.8142 11.8319C45.9588 11.2214 48.2482 10.6109 50.6902 10.1531Z" fill="url(#paint2_linear_354_15512)"/>
<path d="M125.094 12.9002V26.1021L60.2287 30.9861L58.2446 23.8128C58.2446 23.8128 53.9712 25.339 52.8265 25.8732C52.8265 25.8732 50.3845 30.5282 48.7057 32.0544C48.7057 32.0544 47.6373 38.9225 47.4847 39.4566C47.4084 39.7619 47.8663 42.2038 47.2558 44.5695C46.8742 46.0194 46.1111 47.393 44.5086 48.3088C44.4322 48.3088 44.4322 48.3851 44.3559 48.3851C39.9299 50.6744 40.3877 29.3072 40.693 28.0862C40.9219 26.8652 48.8583 10.382 52.445 8.7031C55.8027 7.17687 69.2335 9.3899 71.6755 9.3899C74.1174 9.3899 93.8058 13.9686 98.2319 13.2818C100.903 12.8239 114.944 12.8239 125.094 12.9002Z" fill="url(#paint3_linear_354_15512)"/>
<path d="M51.9112 65.9367C59.1603 65.9367 65.0368 60.0602 65.0368 52.8111C65.0368 45.5621 59.1603 39.6855 51.9112 39.6855C44.6622 39.6855 38.7856 45.5621 38.7856 52.8111C38.7856 60.0602 44.6622 65.9367 51.9112 65.9367Z" fill="#FFE585"/>
<path d="M51.9111 62.1212C57.0529 62.1212 61.2211 57.953 61.2211 52.8112C61.2211 47.6694 57.0529 43.5012 51.9111 43.5012C46.7693 43.5012 42.6011 47.6694 42.6011 52.8112C42.6011 57.953 46.7693 62.1212 51.9111 62.1212Z" fill="#FF9E6E"/>
<path opacity="0.45" d="M45.73 58.5345C42.6775 54.4137 43.5933 48.5377 47.7141 45.4852C49.6219 44.1116 51.8349 43.5774 53.9716 43.73C51.4533 43.1195 48.6298 43.6537 46.3405 45.2563C42.2197 48.3087 41.3039 54.1084 44.3564 58.3055C46.0352 60.5949 48.5535 61.8922 51.1481 62.0448C49.0877 61.5869 47.1036 60.366 45.73 58.5345Z" fill="#FF622F"/>
<path d="M51.3135 48.6581C51.6709 47.8832 52.7722 47.8832 53.1296 48.6581L54.0713 50.6996C54.2169 51.0154 54.5162 51.2329 54.8616 51.2738L57.0942 51.5385C57.9415 51.639 58.2819 52.6864 57.6554 53.2658L56.0048 54.7922C55.7494 55.0283 55.6351 55.3801 55.7029 55.7213L56.141 57.9264C56.3073 58.7633 55.4164 59.4107 54.6718 58.9939L52.71 57.8957C52.4065 57.7259 52.0366 57.7259 51.7331 57.8957L49.7713 58.9939C49.0267 59.4107 48.1357 58.7633 48.3021 57.9264L48.7402 55.7213C48.808 55.3801 48.6937 55.0283 48.4383 54.7922L46.7877 53.2658C46.1612 52.6864 46.5015 51.639 47.3489 51.5385L49.5815 51.2738C49.9269 51.2329 50.2262 51.0154 50.3718 50.6996L51.3135 48.6581Z" fill="#FFE585"/>
<path d="M125.094 26.1021V32.9701L104.49 32.7412C100.369 32.6648 96.2484 33.428 92.3565 34.8779C87.7778 36.633 81.7492 38.9224 78.8494 40.296C73.7365 42.738 55.9559 48.6139 51.6825 50.6744C47.409 52.7348 44.5092 52.2006 44.2803 49.5297C44.2803 49.1481 44.3566 48.7666 44.5092 48.3087C44.8908 47.164 45.8828 45.943 47.2564 44.5694C49.0879 42.8143 51.6062 40.9065 54.1245 39.3039C59.2373 36.0225 59.3899 34.8016 59.3899 34.8016C59.3899 34.8016 60.382 32.207 60.3057 30.986L125.094 26.1021Z" fill="url(#paint4_linear_354_15512)"/>
<path d="M80.9091 132.768H24.7438C22.9123 132.768 21.4624 131.318 21.4624 129.486V79.7312H84.1905V129.486C84.1905 131.241 82.7406 132.768 80.9091 132.768Z" fill="#0BBF90"/>
<path d="M72.5148 72.7283H33.1381L21.4624 80.0542H84.1905L72.5148 72.7283Z" fill="#41CEAA"/>
<path d="M64.9598 76.6966L62.1363 74.9414H43.5163L40.769 76.6966H64.9598Z" fill="#045842"/>
<path d="M64.9599 99.0557C61.9074 96.0032 56.9472 96.0032 53.8947 99.0557L52.8263 100.124L51.758 99.0557C50.2317 97.5295 48.2476 96.7664 46.1872 96.7664C44.2031 96.7664 42.219 97.5295 40.6165 99.0557C37.564 102.108 37.564 107.068 40.6165 110.121L41.6848 111.189L52.75 122.254L63.8152 111.189L64.8836 110.121C66.4098 108.595 67.1729 106.611 67.1729 104.55C67.2492 102.566 66.4861 100.582 64.9599 99.0557Z" fill="white"/>
<path d="M108.153 66.013C106.169 64.0289 103.04 64.0289 101.056 66.013L100.369 66.6998L99.6821 66.013C98.69 65.0209 97.3927 64.5631 96.1717 64.5631C94.8745 64.5631 93.5772 65.0209 92.6614 66.013C90.6773 67.9971 90.6773 71.1258 92.6614 73.1099L93.3482 73.7967L100.445 80.8937L107.542 73.7967L108.229 73.1099C109.221 72.1179 109.679 70.8206 109.679 69.5996C109.603 68.3023 109.145 67.005 108.153 66.013Z" fill="url(#paint5_linear_354_15512)"/>
<path d="M23.2941 45.0273C20.6232 42.3564 16.2734 42.3564 13.6025 45.0273L12.6868 45.9431L11.7711 45.0273C10.3974 43.6537 8.64228 43.0432 6.88712 43.0432C5.13195 43.0432 3.37678 43.7301 2.00318 45.0273C-0.667726 47.6982 -0.667726 52.048 2.00318 54.7189L2.91892 55.6346L12.6105 65.3262L22.302 55.6346L23.2178 54.7189C24.5914 53.3453 25.2019 51.5901 25.2019 49.835C25.2019 48.0798 24.6677 46.401 23.2941 45.0273Z" fill="url(#paint6_linear_354_15512)"/>
<path d="M99.9107 1.68234C98.0029 -0.225446 94.8741 -0.225446 92.89 1.68234L92.2032 2.36914L91.5164 1.68234C90.5244 0.690292 89.3034 0.232422 88.0061 0.232422C86.7088 0.232422 85.4878 0.690292 84.4958 1.68234C82.588 3.59013 82.588 6.7189 84.4958 8.703L85.1826 9.3898L92.2032 16.4105L99.2239 9.3898L99.9107 8.703C100.903 7.71095 101.361 6.48997 101.361 5.19267C101.361 3.97169 100.903 2.67439 99.9107 1.68234Z" fill="url(#paint7_linear_354_15512)"/>
<defs>
<linearGradient id="paint0_linear_354_15512" x1="49.3175" y1="34.0857" x2="46.4508" y2="31.9385" gradientUnits="userSpaceOnUse">
<stop stop-color="#F4C49D"/>
<stop offset="1" stop-color="#F9DAC5"/>
</linearGradient>
<linearGradient id="paint1_linear_354_15512" x1="52.9215" y1="15.9005" x2="33.1563" y2="11.3649" gradientUnits="userSpaceOnUse">
<stop stop-color="#F4C49D"/>
<stop offset="1" stop-color="#F9DAC5"/>
</linearGradient>
<linearGradient id="paint2_linear_354_15512" x1="40.0424" y1="20.4399" x2="35.1976" y2="18.0272" gradientUnits="userSpaceOnUse">
<stop stop-color="#F4C49D"/>
<stop offset="1" stop-color="#F9DAC5"/>
</linearGradient>
<linearGradient id="paint3_linear_354_15512" x1="112.961" y1="52.2874" x2="44.0872" y2="0.699693" gradientUnits="userSpaceOnUse">
<stop stop-color="#F4C49D"/>
<stop offset="1" stop-color="#F9DAC5"/>
</linearGradient>
<linearGradient id="paint4_linear_354_15512" x1="112.027" y1="58.906" x2="53.6777" y2="15.2016" gradientUnits="userSpaceOnUse">
<stop stop-color="#F4C49D"/>
<stop offset="1" stop-color="#F9DAC5"/>
</linearGradient>
<linearGradient id="paint5_linear_354_15512" x1="100.426" y1="64.5249" x2="100.426" y2="80.8937" gradientUnits="userSpaceOnUse">
<stop stop-color="#057054"/>
<stop offset="0.989583" stop-color="#396F61"/>
</linearGradient>
<linearGradient id="paint6_linear_354_15512" x1="12.6009" y1="43.0242" x2="12.6009" y2="65.3262" gradientUnits="userSpaceOnUse">
<stop stop-color="#057054"/>
<stop offset="0.989583" stop-color="#396F61"/>
</linearGradient>
<linearGradient id="paint7_linear_354_15512" x1="92.2128" y1="0.232422" x2="92.2128" y2="16.4105" gradientUnits="userSpaceOnUse">
<stop stop-color="#057054"/>
<stop offset="0.989583" stop-color="#396F61"/>
</linearGradient>
</defs>
</svg>
