<svg width="20" height="20" viewBox="0 0 20 20" fill="none" xmlns="http://www.w3.org/2000/svg">
<path d="M7.36844 0H0V1.5607L7.36844 6.38828V0Z" fill="#10198D"/>
<path d="M0 5.33582V7.36839H3.1023L0 5.33582Z" fill="#10198D"/>
<path d="M0 12.6316V14.6641L3.1023 12.6316H0Z" fill="#10198D"/>
<path d="M19.9998 1.5607V0H12.6313V6.38828L19.9998 1.5607Z" fill="#10198D"/>
<path d="M19.9998 14.6641V12.6316H16.8975L19.9998 14.6641Z" fill="#10198D"/>
<path d="M12.6313 13.6117V20H19.9998V18.4393L12.6313 13.6117Z" fill="#10198D"/>
<path d="M19.9998 7.36839V5.33582L16.8975 7.36839H19.9998Z" fill="#10198D"/>
<path d="M0 18.4393V20H7.36844V13.6117L0 18.4393Z" fill="#10198D"/>
<path d="M20.0002 18.4393V16.8796L13.4558 12.6316H15.3893L20.0002 15.6246V14.6642L16.8979 12.6316H20.0002V11.579H11.5791V20H12.6317V13.6118L20.0002 18.4393Z" fill="white"/>
<path d="M0 11.579V12.6316H3.1023L0 14.6642V16.1408L5.40605 12.6316H7.33949L0 17.3958V18.4393L7.36844 13.6118V20H8.42105V11.579H0Z" fill="white"/>
<path d="M8.42105 0H7.36844V6.38828L0 1.5607V3.26871L6.31578 7.36844H4.38234L0 4.52371V5.33586L3.1023 7.36844H0V8.42105H8.42105V0Z" fill="white"/>
<path d="M20.0002 8.42105V7.36844H16.8979L20.0002 5.33586V3.84039L14.5652 7.36844H12.6317L20.0002 2.58535V1.5607L12.6317 6.38828V0H11.5791V8.42105H20.0002Z" fill="white"/>
<path d="M20 11.5789V8.42105H11.5789V0H8.42105V8.42105H0V11.5789H8.42105V20H11.5789V11.5789H20Z" fill="#FF0210"/>
<path d="M5.40605 12.6316L0 16.1407V17.3958L7.33949 12.6316H5.40605Z" fill="#FF0210"/>
<path d="M13.4556 12.6316L19.9999 16.8796V15.6246L15.389 12.6316H13.4556Z" fill="#FF0210"/>
<path d="M6.31578 7.3684L0 3.26868V4.52368L4.38234 7.3684H6.31578Z" fill="#FF0210"/>
<path d="M14.5648 7.36842L19.9998 3.84037V2.58533L12.6313 7.36842H14.5648Z" fill="#FF0210"/>
</svg>
