<svg width="335" height="366" viewBox="0 0 335 366" fill="none" xmlns="http://www.w3.org/2000/svg">
<path d="M46.6193 223.71C87.1452 200.288 152.847 200.288 193.372 223.71C227.722 243.563 232.941 273.868 209.056 296.906L298.226 347.788C303.661 350.929 303.661 356.021 298.226 359.163L290.213 363.794C284.777 366.936 276.115 366.692 270.864 363.252L192.975 308.739C152.421 331.935 87.0159 331.867 46.6201 308.522C6.09568 285.102 6.09534 247.13 46.6193 223.71Z" fill="#E2E2E0"/>
<path d="M205.418 238.952C205.418 249.91 197.374 260.594 182.77 269.034C166.617 278.369 144.951 283.51 121.762 283.51C98.5709 283.51 76.9036 278.369 60.7529 269.034C46.1495 260.594 38.1056 249.91 38.1056 238.952C38.1056 227.993 46.147 217.308 60.7529 208.868C76.9036 199.533 98.5709 194.392 121.762 194.392C144.952 194.392 166.62 199.533 182.77 208.868C197.376 217.308 205.418 227.993 205.418 238.952ZM29.1484 238.951V264.184C29.1484 277.881 38.1901 291.579 56.2733 302.03C92.4413 322.932 151.08 322.932 187.248 302.03C205.332 291.579 214.373 277.881 214.374 264.184V238.951C214.374 225.253 205.332 211.555 187.248 201.104C151.081 180.201 92.4422 180.201 56.2741 201.104C38.1901 211.555 29.1493 225.253 29.1484 238.951Z" fill="#AD58B2"/>
<path d="M121.306 312.152C108.016 312.152 95.2384 310.568 84.881 307.145C58.3456 298.376 47.7256 282.238 45.5662 269.387C48.6906 271.994 52.2624 274.477 56.2798 276.798C74.3646 287.25 98.0663 292.475 121.768 292.475C145.47 292.475 169.171 287.25 187.255 276.798C205.089 266.492 214.128 253.028 214.374 239.519V264.183C214.374 271.954 211.464 279.724 205.644 286.903L205.643 286.902C210.873 280.45 213.752 273.519 214.281 266.539C213.206 273.011 210.809 278.292 203.275 285.547L195.526 281.111L195.523 281.109L195.507 281.1L195.506 281.103C195.02 280.829 194.46 280.687 193.845 280.687C192.969 280.687 191.983 280.975 190.938 281.584C187.369 283.666 184.488 288.703 184.496 292.842C184.496 292.848 184.496 292.855 184.496 292.861C184.505 294.942 185.244 296.395 186.432 297.065L186.43 297.067L187.632 297.755C171.694 306.833 145.648 312.151 121.306 312.152ZM187.896 301.652C188.976 301.015 190.025 300.365 191.039 299.706C190.025 300.365 188.977 301.015 187.896 301.652ZM182.817 269.01C182.819 269.009 182.821 269.008 182.822 269.007C182.82 269.008 182.819 269.009 182.817 269.01ZM182.858 268.987C182.86 268.985 182.863 268.983 182.866 268.982C182.863 268.983 182.86 268.985 182.858 268.987ZM182.902 268.961C182.903 268.96 182.904 268.959 182.905 268.958C182.904 268.959 182.903 268.96 182.902 268.961ZM183.116 268.836H183.117H183.116ZM183.284 268.738C183.286 268.736 183.287 268.736 183.289 268.735C183.287 268.735 183.285 268.737 183.284 268.738ZM183.412 268.662C183.415 268.661 183.416 268.66 183.419 268.658C183.417 268.659 183.414 268.661 183.412 268.662ZM183.449 268.64C183.454 268.637 183.459 268.634 183.465 268.631C183.458 268.634 183.455 268.637 183.449 268.64ZM183.489 268.617C183.494 268.614 183.499 268.61 183.504 268.608C183.499 268.611 183.494 268.614 183.489 268.617ZM183.526 268.594C183.532 268.591 183.539 268.587 183.545 268.584C183.538 268.588 183.533 268.591 183.526 268.594ZM183.562 268.573C183.578 268.565 183.591 268.556 183.606 268.547C183.593 268.555 183.576 268.565 183.562 268.573ZM183.617 268.541C183.626 268.536 183.637 268.529 183.647 268.523C183.636 268.53 183.627 268.535 183.617 268.541ZM183.652 268.52C183.662 268.514 183.673 268.507 183.683 268.502C183.673 268.507 183.662 268.514 183.652 268.52ZM183.687 268.499C188.259 265.776 192.158 262.828 195.336 259.721C198.013 257.105 200.182 254.377 201.811 251.572C202.352 250.645 202.833 249.71 203.255 248.769C200.054 255.946 193.378 262.727 183.687 268.499ZM29.168 237.846C29.6414 224.519 38.6762 211.274 56.274 201.104C66.9072 194.959 79.4812 190.62 92.857 188.088C92.8578 188.088 92.8586 188.089 92.8586 188.089C79.4853 190.621 66.9113 194.959 56.2798 201.104C47.1292 206.392 40.2955 212.51 35.7754 219.04C31.5986 225.07 29.3954 231.448 29.168 237.846ZM101.574 186.708V186.707C108.217 185.853 114.988 185.426 121.761 185.426H121.764C114.988 185.426 108.219 185.853 101.574 186.708Z" fill="#0BBF90"/>
<path d="M187.299 302.001C187.308 301.995 187.316 301.99 187.325 301.986C187.316 301.99 187.308 301.995 187.299 302.001Z" fill="#C171BF"/>
<path d="M187.352 301.97C187.36 301.966 187.37 301.959 187.378 301.955C187.369 301.96 187.36 301.965 187.352 301.97Z" fill="#C171BF"/>
<path d="M187.402 301.94C187.411 301.935 187.42 301.93 187.429 301.926C187.419 301.931 187.412 301.935 187.402 301.94Z" fill="#C171BF"/>
<path d="M187.453 301.911C187.462 301.905 187.473 301.9 187.482 301.894C187.472 301.9 187.463 301.905 187.453 301.911Z" fill="#C171BF"/>
<path d="M187.504 301.882C187.515 301.875 187.524 301.87 187.534 301.863C187.524 301.869 187.514 301.876 187.504 301.882Z" fill="#C171BF"/>
<path d="M187.555 301.852C187.565 301.847 187.576 301.84 187.586 301.834C187.576 301.84 187.565 301.847 187.555 301.852Z" fill="#C171BF"/>
<path d="M187.605 301.822C187.616 301.815 187.625 301.81 187.637 301.804C187.627 301.81 187.615 301.817 187.605 301.822Z" fill="#C171BF"/>
<path d="M187.656 301.794C187.667 301.787 187.679 301.781 187.69 301.774C187.678 301.781 187.668 301.787 187.656 301.794Z" fill="#C171BF"/>
<path d="M187.705 301.765C187.717 301.757 187.729 301.751 187.741 301.743C187.73 301.75 187.717 301.757 187.705 301.765Z" fill="#C171BF"/>
<path d="M187.756 301.735C187.769 301.727 187.78 301.721 187.793 301.713C187.78 301.721 187.768 301.727 187.756 301.735Z" fill="#C171BF"/>
<path d="M187.803 301.707C187.816 301.699 187.827 301.692 187.84 301.685C187.828 301.692 187.815 301.699 187.803 301.707Z" fill="#C171BF"/>
<path d="M187.855 301.677C187.869 301.669 187.881 301.662 187.895 301.654C187.881 301.662 187.869 301.669 187.855 301.677Z" fill="#C171BF"/>
<path d="M29.1484 238.913C29.1484 238.91 29.1484 238.908 29.1484 238.905C29.1484 238.908 29.1484 238.91 29.1484 238.913ZM29.1488 238.873C29.1488 238.871 29.1488 238.87 29.1488 238.868C29.1488 238.87 29.1488 238.872 29.1488 238.873ZM29.149 238.791C29.149 238.79 29.149 238.789 29.149 238.788C29.149 238.789 29.149 238.79 29.149 238.791ZM29.1568 238.229C29.1568 238.228 29.1568 238.227 29.1568 238.226C29.1568 238.227 29.1568 238.228 29.1568 238.229ZM29.1578 238.19C29.1578 238.189 29.1578 238.188 29.1581 238.186C29.1578 238.188 29.1578 238.189 29.1578 238.19ZM29.1597 238.111C29.16 238.108 29.16 238.106 29.16 238.103C29.16 238.106 29.16 238.108 29.1597 238.111ZM29.161 238.072C29.161 238.069 29.161 238.068 29.161 238.065C29.161 238.068 29.161 238.069 29.161 238.072ZM29.1624 238.03C29.1624 238.026 29.1624 238.022 29.1626 238.019C29.1624 238.022 29.1624 238.025 29.1624 238.03ZM29.1633 237.994C29.1633 237.989 29.1636 237.985 29.1636 237.98C29.1636 237.985 29.1633 237.989 29.1633 237.994ZM29.1643 237.958C29.1646 237.952 29.1646 237.948 29.1649 237.942C29.1646 237.948 29.1646 237.953 29.1643 237.958ZM29.1659 237.912C29.1662 237.905 29.1662 237.898 29.1665 237.891C29.1662 237.899 29.1662 237.904 29.1659 237.912ZM29.1668 237.879C29.1672 237.871 29.1675 237.865 29.1678 237.857C29.1675 237.865 29.1672 237.871 29.1668 237.879Z" fill="#C171BF"/>
<path d="M121.761 317.707C98.0591 317.707 74.3573 312.481 56.2733 302.03C38.1901 291.579 29.1484 277.881 29.1484 264.183C29.1484 277.881 38.1901 291.579 56.2733 302.03C74.3573 312.481 98.0591 317.707 121.761 317.707C145.463 317.707 169.164 312.481 187.248 302.03C187.265 302.02 187.282 302.01 187.299 302.001C187.282 302.01 187.265 302.02 187.248 302.03C169.164 312.481 145.463 317.707 121.761 317.707ZM187.326 301.985C187.334 301.98 187.342 301.976 187.351 301.97C187.342 301.975 187.334 301.98 187.326 301.985ZM187.377 301.955C187.385 301.95 187.394 301.945 187.402 301.941C187.393 301.946 187.386 301.95 187.377 301.955ZM187.429 301.925C187.436 301.92 187.445 301.915 187.453 301.911C187.445 301.916 187.437 301.92 187.429 301.925ZM187.483 301.894C187.489 301.89 187.497 301.886 187.503 301.882C187.496 301.886 187.49 301.89 187.483 301.894ZM187.533 301.864C187.542 301.86 187.546 301.856 187.554 301.852C187.547 301.856 187.54 301.861 187.533 301.864ZM187.585 301.834C187.592 301.83 187.598 301.827 187.604 301.822C187.598 301.827 187.592 301.83 187.585 301.834ZM187.636 301.804C187.643 301.8 187.648 301.798 187.655 301.794C187.648 301.797 187.643 301.801 187.636 301.804ZM187.689 301.774C187.694 301.77 187.699 301.768 187.703 301.765C187.699 301.768 187.693 301.771 187.689 301.774ZM187.739 301.744C187.744 301.741 187.749 301.738 187.754 301.736C187.749 301.738 187.744 301.741 187.739 301.744ZM187.791 301.713C187.794 301.711 187.799 301.709 187.802 301.707C187.799 301.709 187.794 301.711 187.791 301.713ZM187.841 301.684C187.844 301.682 187.849 301.68 187.852 301.677C187.849 301.68 187.844 301.682 187.841 301.684ZM187.893 301.653C187.894 301.653 187.895 301.653 187.896 301.652C187.895 301.653 187.894 301.653 187.893 301.653ZM45.2135 256.515C45.1323 256.418 45.0511 256.32 44.9708 256.223C45.0511 256.32 45.1323 256.417 45.2135 256.515ZM44.97 256.222C44.9625 256.213 44.9551 256.204 44.9484 256.195C44.9551 256.203 44.9625 256.213 44.97 256.222ZM44.9418 256.188C44.9377 256.183 44.9327 256.177 44.9285 256.172C44.9327 256.177 44.9377 256.182 44.9418 256.188Z" fill="#CD83C8"/>
<path d="M29.1484 238.79C29.1494 238.603 29.152 238.417 29.1562 238.23C29.152 238.417 29.1494 238.603 29.1484 238.79Z" fill="#CD83C8"/>
<path d="M29.1582 238.227C29.1585 238.216 29.1589 238.203 29.1592 238.192C29.1589 238.203 29.1585 238.216 29.1582 238.227Z" fill="#CD83C8"/>
<path d="M29.1602 238.186C29.1605 238.161 29.1611 238.137 29.1617 238.111C29.1611 238.136 29.1605 238.162 29.1602 238.186Z" fill="#CD83C8"/>
<path d="M29.1602 238.104C29.1605 238.094 29.1608 238.084 29.1611 238.073C29.1608 238.083 29.1605 238.095 29.1602 238.104Z" fill="#CD83C8"/>
<path d="M29.1621 238.067C29.1624 238.055 29.1631 238.043 29.1634 238.032C29.1631 238.043 29.1624 238.055 29.1621 238.067Z" fill="#CD83C8"/>
<path d="M29.168 237.944C29.1683 237.934 29.1686 237.924 29.169 237.914C29.1686 237.924 29.1683 237.934 29.168 237.944Z" fill="#CD83C8"/>
<path d="M121.761 317.707C98.0591 317.707 74.3573 312.481 56.2733 302.03C38.1901 291.579 29.1484 277.881 29.1484 264.183V238.951C29.1484 238.938 29.1484 238.927 29.1484 238.914C29.1484 238.911 29.1484 238.909 29.1484 238.906C29.1484 238.895 29.1488 238.885 29.1488 238.874C29.1488 238.873 29.1488 238.87 29.1488 238.869C29.1488 238.843 29.1488 238.817 29.149 238.792C29.149 238.791 29.149 238.79 29.149 238.789C29.15 238.603 29.1526 238.416 29.1568 238.23C29.1568 238.229 29.1568 238.228 29.1568 238.227C29.1571 238.215 29.1575 238.203 29.1578 238.191C29.1578 238.19 29.1578 238.189 29.1581 238.187C29.1585 238.162 29.1591 238.137 29.1597 238.112C29.16 238.109 29.16 238.107 29.16 238.104C29.1604 238.094 29.1607 238.083 29.161 238.073C29.161 238.07 29.161 238.069 29.161 238.066C29.1614 238.055 29.162 238.042 29.1624 238.031C29.1624 238.026 29.1624 238.023 29.1626 238.02C29.1626 238.011 29.1629 238.004 29.1633 237.995C29.1633 237.99 29.1636 237.986 29.1636 237.981C29.1639 237.974 29.1643 237.966 29.1643 237.959C29.1646 237.954 29.1646 237.949 29.1649 237.943C29.1653 237.934 29.1656 237.923 29.1659 237.913C29.1662 237.905 29.1662 237.9 29.1665 237.892C29.1668 237.888 29.1668 237.884 29.1668 237.88C29.1672 237.872 29.1675 237.866 29.1678 237.858C29.1678 237.855 29.1681 237.85 29.1681 237.846C29.3956 231.448 31.5988 225.07 35.7755 219.04C31.3616 225.416 29.1542 232.184 29.1542 238.952C29.1542 249.606 34.625 260.261 45.5664 269.387C47.7258 282.238 58.3458 298.376 84.8812 307.145C95.2386 310.568 108.016 312.152 121.306 312.152C145.648 312.151 171.694 306.833 187.632 297.755L191.04 299.706C190.026 300.365 188.976 301.015 187.896 301.652C187.895 301.653 187.894 301.653 187.893 301.653C187.879 301.662 187.866 301.669 187.852 301.677C187.849 301.68 187.844 301.682 187.841 301.684C187.827 301.692 187.816 301.699 187.802 301.707C187.799 301.709 187.794 301.711 187.791 301.713C187.778 301.721 187.767 301.728 187.754 301.736C187.749 301.738 187.744 301.741 187.739 301.744C187.727 301.751 187.715 301.758 187.703 301.765C187.699 301.768 187.694 301.77 187.689 301.774C187.678 301.78 187.666 301.787 187.655 301.794C187.648 301.798 187.643 301.8 187.636 301.804C187.624 301.811 187.615 301.816 187.604 301.822C187.598 301.827 187.592 301.83 187.585 301.834C187.575 301.84 187.564 301.847 187.554 301.852C187.546 301.856 187.541 301.86 187.533 301.864C187.523 301.871 187.513 301.875 187.503 301.882C187.497 301.886 187.489 301.89 187.483 301.894C187.474 301.899 187.462 301.905 187.453 301.911C187.445 301.915 187.436 301.92 187.429 301.925C187.42 301.93 187.411 301.935 187.402 301.941C187.394 301.945 187.385 301.95 187.377 301.955C187.369 301.959 187.359 301.966 187.351 301.97C187.342 301.976 187.334 301.98 187.326 301.985C187.316 301.99 187.308 301.995 187.299 302.001C187.282 302.01 187.265 302.02 187.248 302.03C169.164 312.481 145.463 317.707 121.761 317.707ZM205.643 286.902L203.276 285.547C210.809 278.292 213.206 273.011 214.282 266.539C213.752 273.519 210.873 280.45 205.643 286.902Z" fill="#0BBF90"/>
<path d="M182.778 269.035C166.627 278.369 144.96 283.51 121.769 283.51C98.5804 283.51 76.913 278.369 60.7607 269.035C46.1573 260.595 38.1134 249.911 38.1134 238.952C38.1134 227.993 46.1556 217.309 60.7607 208.869C76.9114 199.534 98.5787 194.392 121.769 194.392C144.96 194.392 166.627 199.534 182.778 208.869C197.384 217.309 205.425 227.993 205.425 238.952C205.425 249.911 197.381 260.595 182.778 269.035ZM187.256 201.104C151.089 180.202 92.4499 180.202 56.2819 201.104C20.1142 222.008 20.1145 255.897 56.2819 276.799C92.4508 297.701 151.09 297.701 187.257 276.799C223.423 255.897 223.423 222.008 187.256 201.104Z" fill="#AD58B2"/>
<path d="M121.77 292.476C98.0685 292.476 74.3668 287.25 56.2819 276.799C52.2646 274.477 48.6928 271.995 45.5684 269.388C34.627 260.261 29.1562 249.606 29.1562 238.952C29.1562 225.254 38.1979 211.556 56.2819 201.104C66.9135 194.96 79.4875 190.622 92.8608 188.089C94.5672 189.078 95.8569 189.825 96.0515 189.938C96.59 190.25 97.1996 190.404 97.8076 190.404C99.2439 190.404 100.677 189.549 101.163 187.9L101.576 186.708C108.221 185.854 114.993 185.427 121.769 185.427C145.471 185.427 169.172 190.653 187.256 201.104C205.34 211.556 214.381 225.254 214.381 238.952C214.382 252.65 205.34 266.348 187.257 276.799C169.173 287.25 145.472 292.476 121.77 292.476ZM60.7209 269.011C60.7342 269.019 60.7475 269.027 60.7607 269.034C76.9131 278.369 98.5804 283.51 121.769 283.51C144.96 283.51 166.627 278.369 182.778 269.034C182.792 269.026 182.805 269.019 182.82 269.01C182.821 269.01 182.822 269.009 182.825 269.008C182.836 269 182.848 268.994 182.86 268.987C182.863 268.986 182.865 268.984 182.868 268.982C182.88 268.976 182.892 268.968 182.904 268.961C182.905 268.961 182.907 268.96 182.907 268.959C182.978 268.918 183.049 268.877 183.119 268.836H183.119C183.162 268.811 183.204 268.787 183.246 268.762C183.259 268.754 183.273 268.746 183.286 268.738C183.288 268.738 183.289 268.736 183.291 268.735C183.331 268.711 183.374 268.687 183.414 268.663C183.416 268.661 183.419 268.66 183.421 268.659C183.431 268.653 183.441 268.647 183.451 268.641C183.457 268.637 183.461 268.635 183.467 268.631C183.475 268.626 183.483 268.622 183.491 268.617C183.496 268.614 183.501 268.612 183.506 268.608C183.514 268.604 183.521 268.599 183.529 268.595C183.535 268.592 183.54 268.588 183.547 268.584C183.553 268.581 183.558 268.578 183.564 268.573C183.578 268.565 183.595 268.556 183.608 268.548C183.612 268.545 183.616 268.544 183.619 268.541C183.63 268.535 183.638 268.53 183.649 268.524C183.65 268.523 183.652 268.522 183.654 268.52C183.664 268.515 183.675 268.508 183.685 268.502C183.687 268.501 183.688 268.5 183.689 268.5C193.38 262.728 200.056 255.947 203.257 248.77C204.693 245.562 205.431 242.277 205.431 238.95C205.431 227.994 197.388 217.307 182.772 208.862C166.633 199.537 144.958 194.39 121.76 194.39C98.8629 194.39 77.4333 199.413 61.3579 208.523L61.3563 208.524C61.3091 208.551 61.2627 208.577 61.2163 208.604C61.2121 208.606 61.208 208.608 61.2047 208.611C61.1823 208.623 61.1624 208.635 61.1409 208.647C61.1351 208.65 61.1293 208.654 61.1235 208.656C61.107 208.666 61.0887 208.676 61.0722 208.686C61.0664 208.689 61.0614 208.692 61.0564 208.695C61.0357 208.707 61.0158 208.718 60.9951 208.73C60.9885 208.733 60.9819 208.737 60.9761 208.741C60.9578 208.752 60.9405 208.761 60.9231 208.771C60.9189 208.774 60.9148 208.776 60.9115 208.778C60.8908 208.79 60.8692 208.802 60.8485 208.815C60.8427 208.818 60.8377 208.82 60.8311 208.824C60.8096 208.837 60.7889 208.849 60.7665 208.862C46.1499 217.307 38.1068 227.994 38.1068 238.95C38.1068 243.253 39.3427 247.485 41.7075 251.573C41.71 251.57 41.7117 251.566 41.7142 251.562C45.3621 257.846 51.7112 263.75 60.4393 268.848C60.4418 268.85 60.4451 268.851 60.4468 268.852C60.4567 268.858 60.4642 268.863 60.4741 268.868C60.4782 268.87 60.4832 268.874 60.4874 268.876C60.4956 268.88 60.5031 268.885 60.5114 268.89C60.5172 268.893 60.5221 268.896 60.5279 268.899C60.5387 268.906 60.5495 268.912 60.5603 268.918C60.5677 268.923 60.5768 268.928 60.5851 268.932C60.5917 268.937 60.5975 268.94 60.6042 268.944C60.6116 268.948 60.6182 268.952 60.6249 268.956C60.6315 268.96 60.6365 268.962 60.6431 268.966C60.6497 268.971 60.658 268.975 60.6654 268.98C60.6712 268.983 60.6754 268.986 60.682 268.989C60.6911 268.995 60.6994 268.999 60.7085 269.005C60.7118 269.006 60.7168 269.01 60.7209 269.011Z" fill="#57CAAC"/>
<path d="M205.43 238.949C205.43 243.252 204.195 247.484 201.812 251.572C198.141 245.207 191.674 239.236 182.771 234.107C166.632 224.765 144.956 219.619 121.759 219.619C98.5799 219.619 76.9051 224.765 60.7652 234.107C51.8623 239.236 45.3964 245.207 41.7062 251.572C39.3413 247.484 38.1055 243.252 38.1055 238.949C38.1055 227.993 46.1485 217.306 60.7652 208.861C76.9051 199.536 98.5799 194.389 121.759 194.389C144.956 194.389 166.632 199.536 182.771 208.861C197.387 217.306 205.43 227.993 205.43 238.949Z" fill="#AD58B2"/>
<path d="M201.812 251.572C201.811 251.57 201.809 251.568 201.808 251.566C203.119 249.307 204.081 246.999 204.679 244.663C202.395 235.749 194.828 227.256 182.777 220.292C166.626 210.957 144.959 205.816 121.767 205.816C100.459 205.816 80.4354 210.157 64.7966 218.104C72.6732 207.387 91.8779 197.111 106.502 195.19L106.514 195.163C89.4567 196.883 73.7997 201.47 61.3566 208.522C77.4319 199.412 98.8615 194.389 121.759 194.389C144.956 194.389 166.632 199.536 182.771 208.861C197.387 217.306 205.43 227.993 205.43 238.949C205.43 242.276 204.692 245.561 203.256 248.769C202.834 249.71 202.353 250.645 201.812 251.572ZM41.7062 251.572C41.7103 251.565 41.7145 251.557 41.7186 251.55V251.55C41.7145 251.558 41.7103 251.565 41.7062 251.572ZM38.1055 238.949C38.1055 227.993 46.1485 217.306 60.7652 208.861C60.7875 208.848 60.8082 208.836 60.8298 208.823C60.8082 208.836 60.7867 208.848 60.7652 208.861C46.1485 217.306 38.1055 227.993 38.1055 238.949ZM60.8472 208.814C60.8679 208.801 60.8894 208.789 60.9101 208.777C60.8894 208.789 60.8679 208.801 60.8472 208.814ZM60.9217 208.77C60.9391 208.76 60.9565 208.751 60.9747 208.74C60.9565 208.751 60.9391 208.76 60.9217 208.77ZM60.9938 208.729C61.0145 208.717 61.0344 208.706 61.0551 208.694C61.0344 208.706 61.0145 208.717 60.9938 208.729ZM61.0708 208.685C61.0874 208.675 61.1056 208.665 61.1222 208.655C61.1056 208.665 61.0874 208.675 61.0708 208.685ZM61.1396 208.646C61.1611 208.634 61.181 208.622 61.2033 208.61C61.181 208.622 61.1611 208.634 61.1396 208.646ZM61.2149 208.603C61.2613 208.576 61.3077 208.55 61.3549 208.523C61.3077 208.55 61.2622 208.576 61.2149 208.603Z" fill="#0BBF90"/>
<path d="M41.7062 251.572C39.3413 247.484 38.1055 243.252 38.1055 238.949C38.1055 243.252 39.3413 247.484 41.7062 251.572ZM60.8298 208.823C60.8364 208.819 60.8414 208.817 60.8472 208.814C60.8414 208.817 60.8356 208.82 60.8298 208.823ZM60.9101 208.777C60.9134 208.775 60.9176 208.773 60.9217 208.77C60.9176 208.773 60.9143 208.775 60.9101 208.777ZM60.9747 208.74C60.9805 208.736 60.9872 208.732 60.9938 208.729C60.988 208.732 60.9805 208.736 60.9747 208.74ZM61.0551 208.694C61.06 208.691 61.065 208.688 61.0708 208.685C61.0658 208.687 61.06 208.692 61.0551 208.694ZM61.1222 208.655C61.128 208.653 61.1338 208.649 61.1396 208.646C61.1338 208.649 61.128 208.652 61.1222 208.655ZM61.2033 208.61C61.2067 208.607 61.2108 208.605 61.2149 208.603C61.2108 208.605 61.2067 208.607 61.2033 208.61ZM61.3549 208.523L61.3566 208.522L61.3549 208.523Z" fill="#C171BF"/>
<path d="M41.7062 251.572C39.3413 247.484 38.1055 243.252 38.1055 238.949C38.1055 227.993 46.1485 217.306 60.7652 208.861C60.7867 208.848 60.8082 208.836 60.8298 208.823C60.8356 208.82 60.8414 208.817 60.8472 208.814C60.8679 208.801 60.8894 208.789 60.9101 208.777C60.9143 208.775 60.9176 208.773 60.9217 208.77C60.9391 208.76 60.9565 208.751 60.9747 208.74C60.9805 208.736 60.988 208.732 60.9938 208.729C61.0145 208.717 61.0344 208.706 61.0551 208.694C61.06 208.692 61.0658 208.687 61.0708 208.685C61.0874 208.675 61.1056 208.665 61.1222 208.655C61.128 208.652 61.1338 208.649 61.1396 208.646C61.1611 208.634 61.181 208.622 61.2033 208.61C61.2067 208.607 61.2108 208.605 61.2149 208.603C61.2622 208.576 61.3077 208.55 61.3549 208.523L61.3566 208.522C73.7997 201.47 89.4567 196.883 106.514 195.163L106.502 195.19C91.8779 197.111 72.6732 207.387 64.7966 218.104C63.4158 218.805 62.0689 219.535 60.7594 220.292C48.708 227.256 41.1405 235.749 38.8576 244.663C39.4548 246.994 40.4132 249.296 41.7186 251.55C41.7145 251.557 41.7103 251.565 41.7062 251.572Z" fill="#0BBF90"/>
<path d="M121.765 283.509C98.5776 283.509 76.911 278.367 60.7595 269.033C60.7454 269.026 60.733 269.019 60.7197 269.01C60.7156 269.009 60.7114 269.005 60.7073 269.004C60.6982 268.999 60.6891 268.993 60.6808 268.988C60.675 268.985 60.6692 268.981 60.6642 268.979C60.6568 268.975 60.6485 268.97 60.6419 268.965C60.6352 268.962 60.6303 268.959 60.6236 268.955C60.6178 268.951 60.6096 268.946 60.6029 268.943C60.5963 268.939 60.5905 268.936 60.5839 268.931C60.5756 268.927 60.5665 268.921 60.559 268.917C60.5483 268.912 60.5375 268.905 60.5267 268.898C60.5218 268.896 60.516 268.892 60.5102 268.889C60.5019 268.884 60.4944 268.879 60.4861 268.875C60.482 268.873 60.477 268.87 60.4729 268.867C60.4629 268.862 60.4555 268.857 60.4455 268.851C60.4439 268.85 60.4406 268.848 60.4381 268.847C51.7059 263.746 45.3617 257.837 41.7188 251.55C44.9998 245.901 50.4667 240.564 57.8835 235.851C58.8137 235.26 59.7746 234.678 60.7653 234.107C60.7802 234.099 60.7959 234.09 60.81 234.082C60.8183 234.077 60.8257 234.072 60.8332 234.068C60.8398 234.064 60.8465 234.061 60.8531 234.057C64.4588 231.975 68.3519 230.116 72.4637 228.463C72.284 228.533 72.0852 228.608 71.8698 228.686C86.2678 222.796 103.55 219.619 121.759 219.619C144.956 219.619 166.632 224.765 182.771 234.107C191.671 239.234 198.136 245.203 201.809 251.566C200.18 254.372 198.014 257.103 195.337 259.72C191.947 263.033 187.739 266.162 182.771 269.033C166.619 278.367 144.952 283.509 121.765 283.509Z" fill="#EDEDEB"/>
<path d="M121.768 283.509C121.767 283.509 121.767 283.509 121.766 283.509C144.953 283.509 166.619 278.367 182.772 269.033C187.739 266.162 191.947 263.033 195.338 259.72C192.159 262.828 188.26 265.776 183.689 268.499C183.688 268.499 183.685 268.5 183.685 268.501C183.675 268.507 183.664 268.514 183.654 268.519C183.652 268.52 183.65 268.522 183.648 268.523C183.638 268.528 183.628 268.535 183.618 268.54C183.615 268.543 183.612 268.544 183.608 268.547C183.593 268.556 183.579 268.564 183.564 268.572C183.558 268.577 183.552 268.58 183.546 268.583C183.541 268.587 183.534 268.591 183.528 268.594C183.521 268.598 183.513 268.603 183.506 268.607C183.501 268.61 183.496 268.613 183.491 268.616C183.483 268.621 183.474 268.625 183.467 268.63C183.461 268.634 183.456 268.636 183.45 268.64C183.441 268.645 183.43 268.652 183.42 268.658C183.418 268.659 183.416 268.66 183.414 268.662C183.372 268.686 183.332 268.71 183.29 268.734C183.289 268.736 183.288 268.736 183.285 268.737C183.272 268.745 183.259 268.753 183.246 268.761C183.203 268.786 183.161 268.81 183.119 268.835H183.118C183.048 268.877 182.978 268.917 182.907 268.958C182.905 268.959 182.904 268.96 182.904 268.96C182.892 268.967 182.88 268.975 182.868 268.981C182.865 268.983 182.862 268.985 182.86 268.986C182.847 268.993 182.836 268.999 182.824 269.007C182.822 269.008 182.821 269.009 182.819 269.009C182.806 269.017 182.791 269.026 182.778 269.033C166.627 278.368 144.96 283.509 121.768 283.509Z" fill="#DFA1D5"/>
<path d="M121.767 283.509C98.5786 283.509 76.9113 278.368 60.7589 269.033C60.7456 269.026 60.7324 269.018 60.7191 269.01C60.7324 269.019 60.7448 269.026 60.7589 269.033C76.9113 278.368 98.5786 283.509 121.767 283.509C144.958 283.509 166.626 278.368 182.776 269.033C182.79 269.026 182.804 269.017 182.818 269.009C182.804 269.018 182.79 269.025 182.776 269.033C166.626 278.368 144.958 283.509 121.767 283.509ZM182.823 269.007C182.835 268.999 182.846 268.993 182.858 268.986C182.846 268.993 182.834 268.999 182.823 269.007ZM60.7067 269.004C60.6976 268.998 60.6893 268.994 60.6802 268.988C60.6885 268.993 60.6976 268.999 60.7067 269.004ZM182.867 268.981C182.878 268.975 182.891 268.967 182.902 268.96C182.891 268.967 182.878 268.975 182.867 268.981ZM60.6636 268.979C60.6562 268.974 60.6479 268.97 60.6413 268.965C60.6479 268.97 60.6562 268.975 60.6636 268.979ZM182.906 268.958C182.977 268.917 183.046 268.877 183.117 268.835C183.047 268.876 182.976 268.917 182.906 268.958ZM60.623 268.955C60.6164 268.951 60.6098 268.947 60.6023 268.943C60.609 268.946 60.6172 268.951 60.623 268.955ZM60.5833 268.931C60.575 268.927 60.5659 268.921 60.5584 268.917C60.5659 268.921 60.575 268.927 60.5833 268.931ZM60.5261 268.898C60.5203 268.895 60.5154 268.892 60.5096 268.889C60.5154 268.892 60.5212 268.896 60.5261 268.898ZM60.4855 268.875C60.4814 268.873 60.4764 268.869 60.4723 268.867C60.4764 268.87 60.4814 268.873 60.4855 268.875ZM60.445 268.851C60.4433 268.85 60.44 268.849 60.4375 268.847C60.44 268.848 60.4433 268.85 60.445 268.851ZM183.118 268.835C183.16 268.81 183.202 268.786 183.244 268.761C183.202 268.786 183.16 268.81 183.118 268.835ZM183.244 268.761C183.258 268.753 183.271 268.745 183.284 268.737C183.271 268.745 183.258 268.753 183.244 268.761ZM183.289 268.734C183.33 268.71 183.371 268.686 183.412 268.662C183.372 268.686 183.33 268.71 183.289 268.734ZM183.419 268.658C183.428 268.652 183.44 268.645 183.449 268.64C183.439 268.646 183.429 268.652 183.419 268.658ZM183.465 268.63C183.473 268.625 183.481 268.621 183.49 268.616C183.481 268.621 183.473 268.625 183.465 268.63ZM183.504 268.607C183.512 268.603 183.52 268.598 183.527 268.594C183.519 268.598 183.512 268.603 183.504 268.607ZM183.545 268.583C183.551 268.58 183.557 268.577 183.562 268.572C183.557 268.577 183.551 268.58 183.545 268.583ZM183.606 268.547C183.61 268.544 183.614 268.543 183.617 268.54C183.614 268.543 183.61 268.544 183.606 268.547ZM183.647 268.523C183.649 268.522 183.651 268.52 183.653 268.519C183.65 268.521 183.649 268.522 183.647 268.523ZM183.683 268.501C183.684 268.5 183.687 268.499 183.687 268.499C183.686 268.499 183.685 268.5 183.683 268.501Z" fill="#EFC1E4"/>
<path d="M201.809 251.566C198.136 245.203 191.671 239.234 182.771 234.107C166.632 224.765 144.956 219.619 121.759 219.619C103.55 219.619 86.2678 222.796 71.8698 228.686C70.1668 229.308 67.4573 230.144 65.1952 230.144C62.1378 230.145 59.8955 228.619 62.05 222.981C62.6679 221.364 63.6023 219.728 64.7967 218.104C80.4355 210.157 100.459 205.816 121.767 205.816C144.959 205.816 166.626 210.957 182.777 220.292C194.828 227.256 202.395 235.749 204.68 244.663C204.081 246.999 203.119 249.307 201.809 251.566ZM41.7188 251.551V251.55C44.9998 245.902 50.4667 240.564 57.8835 235.851C50.4667 240.564 44.9998 245.902 41.7188 251.551ZM60.7653 234.107C60.7802 234.098 60.7951 234.09 60.81 234.082C60.7959 234.09 60.7802 234.099 60.7653 234.107ZM60.8332 234.068C60.8398 234.064 60.8465 234.06 60.8531 234.057C60.8465 234.061 60.8398 234.064 60.8332 234.068Z" fill="#0BBF90"/>
<path d="M60.8086 234.082C60.8169 234.077 60.8243 234.072 60.8318 234.068C60.8243 234.072 60.8169 234.077 60.8086 234.082ZM60.8517 234.057C64.2867 232.074 67.972 230.281 71.8684 228.686C72.0838 228.608 72.2826 228.533 72.4623 228.463C68.3505 230.116 64.4574 231.975 60.8517 234.057Z" fill="#E4AEDB"/>
<path d="M41.7204 251.549C40.415 249.296 39.4566 246.994 38.8594 244.662C41.1422 235.749 48.7098 227.256 60.7612 220.291C62.0707 219.534 63.4176 218.805 64.7984 218.103C63.604 219.728 62.6696 221.363 62.0517 222.98C59.8972 228.619 62.1395 230.144 65.1968 230.144C67.459 230.144 70.1685 229.308 71.8715 228.686C67.975 230.28 64.2898 232.074 60.8548 234.056C60.8481 234.06 60.8415 234.064 60.8349 234.068C60.8274 234.072 60.82 234.076 60.8117 234.081C60.7968 234.09 60.7819 234.098 60.7669 234.107C59.7763 234.677 58.8154 235.259 57.8852 235.851C50.4684 240.564 45.0014 245.901 41.7204 251.549Z" fill="#0BBF90"/>
<path d="M49.0586 251.038C54.2348 255.1 60.1076 257.655 66.0973 259.711C72.1001 261.742 78.2712 263.182 84.4927 264.254C96.9541 266.348 109.621 266.938 122.234 266.408C128.537 266.133 134.851 265.542 141.121 264.691C147.376 263.798 153.598 262.68 159.664 261.037C165.728 259.415 171.687 257.35 177.166 254.384C178.538 253.649 179.865 252.834 181.14 251.951C182.428 251.079 183.638 250.103 184.778 249.047C185.916 247.986 186.956 246.811 187.836 245.504C188.742 244.209 189.428 242.753 189.898 241.174C189.947 242.824 189.609 244.504 189.052 246.113C188.469 247.714 187.64 249.227 186.689 250.654C185.745 252.092 184.632 253.411 183.437 254.636C182.255 255.883 180.961 257.003 179.633 258.075C174.273 262.327 168.149 265.395 161.882 267.831C155.59 270.245 149.088 271.973 142.528 273.23C135.968 274.479 129.334 275.251 122.652 275.587C109.305 276.209 95.811 274.941 82.8891 271.352C76.4447 269.519 70.1304 267.125 64.2451 263.878C61.3129 262.242 58.4758 260.42 55.879 258.293C55.223 257.775 54.6067 257.197 53.9747 256.656C53.3709 256.072 52.7496 255.52 52.1781 254.909C51.0341 253.693 49.9739 252.404 49.0586 251.038Z" fill="white"/>
<path d="M184.496 292.862C184.48 288.719 187.365 283.67 190.939 281.585C192.718 280.547 194.331 280.441 195.506 281.104L195.508 281.101L195.524 281.11L195.527 281.112L216.162 292.925L216.185 292.937L216.19 292.941L216.19 292.942C217.357 293.62 218.084 295.066 218.091 297.127C218.109 301.269 215.225 306.318 211.649 308.404C209.861 309.447 208.239 309.552 207.061 308.877L186.43 297.068L186.433 297.066C185.245 296.396 184.505 294.943 184.496 292.862Z" fill="#57CAAC"/>
<path d="M186.433 297.066C185.245 296.396 184.505 294.943 184.496 292.862C184.49 291.3 184.897 289.611 185.597 288L215.259 305.017C214.229 306.426 212.987 307.623 211.649 308.404C209.861 309.447 208.239 309.552 207.061 308.877L186.43 297.068L186.433 297.066Z" fill="#0AB387"/>
<path d="M286.432 326.527L286.426 326.522L286.398 326.509L220.745 293.022L220.74 293.019L220.652 292.973L220.645 292.984C219.122 292.163 217.055 292.304 214.774 293.636C210.12 296.351 206.366 302.921 206.389 308.312C206.4 311.015 207.358 312.906 208.897 313.781L270.634 353.567C273.044 355.086 275.897 355.963 278.955 355.963C287.6 355.963 294.608 348.948 294.608 340.295C294.608 334.352 291.302 329.182 286.432 326.527Z" fill="#57CAAC"/>
<path d="M208.897 313.781L270.634 353.567C273.044 355.086 275.897 355.963 278.955 355.963C287.26 355.963 294.036 349.484 294.557 341.303C293.374 346.448 284.875 350.826 274.336 344.93C263.737 339.001 224.774 314.352 207.035 304.127C206.613 305.544 206.383 306.965 206.389 308.312C206.4 311.015 207.358 312.906 208.897 313.781Z" fill="#0BBF90"/>
<path d="M208.897 313.781C207.358 312.907 206.4 311.015 206.389 308.312C206.366 302.921 210.12 296.351 214.774 293.636C217.055 292.304 219.122 292.163 220.645 292.984L226.462 295.937C224.899 295.095 222.781 295.24 220.441 296.605C215.669 299.39 211.818 306.128 211.842 311.657C211.852 314.428 212.793 316.412 214.371 317.31L208.897 313.781Z" fill="#6CD3B9"/>
<path d="M214.368 317.306C214.368 317.306 214.368 317.306 214.367 317.306L214.011 317.077L214.01 317.076L214.368 317.306Z" fill="#ACAFAD"/>
<path d="M214.372 317.309C214.371 317.308 214.37 317.307 214.369 317.306L214.01 317.076C214.009 317.075 214.009 317.075 214.008 317.074L214.372 317.309Z" fill="#1D2F36"/>
<path d="M214.368 317.306C214.246 317.236 214.127 317.16 214.012 317.077L214.368 317.306Z" fill="#9B43A7"/>
<path d="M214.008 317.073L214.002 317.069C212.649 316.085 211.854 314.204 211.844 311.656C211.854 314.207 212.651 316.09 214.008 317.073Z" fill="#1D2F36"/>
<path d="M206.391 308.492C206.39 308.432 206.389 308.372 206.389 308.312C206.388 308.177 206.39 308.041 206.394 307.904C206.39 308.041 206.388 308.177 206.389 308.312C206.389 308.372 206.39 308.432 206.391 308.492Z" fill="#111D23"/>
<path d="M211.983 309.708C211.983 309.706 211.983 309.705 211.983 309.704C211.983 309.705 211.983 309.706 211.983 309.708ZM211.987 309.682C211.988 309.675 211.988 309.669 211.99 309.661C211.988 309.668 211.988 309.675 211.987 309.682ZM211.99 309.658C212.104 308.891 212.28 308.113 212.512 307.337C212.513 307.337 212.513 307.338 212.513 307.338C212.281 308.113 212.104 308.891 211.99 309.658ZM206.389 308.312C206.388 308.177 206.39 308.041 206.394 307.904C206.396 307.846 206.398 307.788 206.4 307.729C206.392 307.925 206.388 308.12 206.389 308.312Z" fill="#1D2F36"/>
<path d="M206.449 307.043C206.476 306.779 206.51 306.512 206.551 306.244C206.595 305.961 206.648 305.678 206.71 305.393C206.591 305.948 206.503 306.499 206.449 307.043Z" fill="#111D23"/>
<path d="M206.436 307.189C206.44 307.141 206.445 307.092 206.449 307.043C206.503 306.499 206.591 305.948 206.709 305.393C206.8 304.972 206.909 304.548 207.035 304.126C206.729 305.155 206.523 306.186 206.436 307.189Z" fill="#1D2F36"/>
<path d="M214 317.07L208.897 313.782C207.393 312.926 206.443 311.1 206.39 308.493C206.39 308.433 206.389 308.373 206.389 308.313C206.388 308.121 206.392 307.926 206.4 307.73C206.407 307.584 206.416 307.437 206.428 307.289C206.431 307.256 206.434 307.223 206.436 307.19C206.524 306.187 206.729 305.156 207.035 304.127C208.69 305.081 210.529 306.16 212.512 307.338C212.28 308.114 212.103 308.891 211.99 309.658C211.99 309.659 211.99 309.661 211.99 309.662C211.988 309.669 211.987 309.676 211.987 309.683C211.985 309.69 211.984 309.698 211.983 309.704C211.983 309.706 211.983 309.707 211.982 309.708C211.887 310.368 211.838 311.021 211.842 311.657C211.852 314.205 212.647 316.086 214 317.07Z" fill="#0AB287"/>
<path d="M324.903 216.264C322.685 214.937 319.554 215.12 316.076 217.13L252.985 253.592C246.249 257.484 240.789 266.734 240.789 274.252C240.789 277.926 242.092 280.503 244.211 281.727C245.362 282.391 249.824 284.969 250.983 285.631C253.194 286.896 256.286 286.69 259.713 284.709L322.806 248.246C329.54 244.354 335 235.103 335 227.586C335 223.93 333.709 221.359 331.608 220.129C330.45 219.452 326.016 216.93 324.903 216.264Z" fill="#DADBD8"/>
<path d="M254.111 286.014C250.298 286.014 247.93 282.998 247.93 278.145C247.93 270.772 253.307 261.664 259.918 257.843L323.01 221.381C324.894 220.292 326.758 219.716 328.402 219.716C332.215 219.716 334.583 222.732 334.583 227.586C334.583 234.96 329.206 244.067 322.596 247.887L259.503 284.35C257.619 285.439 255.755 286.014 254.111 286.014Z" fill="#FAFAF9"/>
<path d="M328.404 219.302C326.727 219.302 324.823 219.855 322.805 221.022L259.713 257.484C252.978 261.377 247.518 270.627 247.518 278.145C247.518 283.41 250.194 286.429 254.113 286.429C255.789 286.429 257.694 285.876 259.712 284.709L322.805 248.246C329.539 244.354 334.999 235.103 334.999 227.586C334.999 222.321 332.322 219.302 328.404 219.302ZM328.404 220.131C331.961 220.131 334.17 222.988 334.17 227.586C334.17 234.827 328.886 243.774 322.391 247.528L259.298 283.991C257.477 285.043 255.684 285.6 254.113 285.6C252.414 285.6 250.987 284.956 249.986 283.735C248.913 282.427 248.346 280.494 248.346 278.145C248.346 270.903 253.631 261.957 260.127 258.202L323.219 221.74C325.04 220.688 326.832 220.131 328.404 220.131Z" fill="#E7E8E5"/>
<path d="M269.6 265.619C269.857 265.139 269.812 264.645 269.573 264.509C269.496 264.466 267.699 263.429 267.464 263.29C267.387 263.243 267.287 263.236 267.17 263.281L265.234 264.024L264.594 262.666C264.557 262.588 264.509 262.534 264.451 262.503C264.184 262.355 262.396 261.313 262.34 261.282C262.074 261.13 261.631 261.467 261.458 262.034L260.141 266.356C260.058 266.629 259.898 266.877 259.712 267.02L256.768 269.292C256.3 269.654 256.114 270.528 256.452 270.773L258.582 272.314C258.717 272.411 258.779 272.627 258.747 272.892L258.244 277.096C258.206 277.404 258.29 277.61 258.432 277.691C258.598 277.787 260.404 278.833 260.545 278.915C260.713 279.01 260.958 278.933 261.185 278.644L263.818 275.275C263.984 275.061 264.183 274.947 264.348 274.968L266.982 275.294C267.4 275.345 267.889 274.589 267.809 274.013L267.306 270.391C267.274 270.162 267.336 269.875 267.47 269.622L269.6 265.619Z" fill="#AD58B2"/>
<path d="M269.576 264.508C269.566 264.502 269.556 264.498 269.545 264.494C269.386 264.403 268.644 263.974 268.085 263.65C268.695 264.004 269.523 264.48 269.576 264.508ZM265.234 264.024V264.023L265.912 263.764L265.234 264.024ZM267.53 263.328C267.502 263.312 267.48 263.299 267.464 263.29C267.422 263.264 267.373 263.251 267.318 263.251C267.312 263.251 267.304 263.251 267.298 263.252C267.306 263.251 267.314 263.25 267.322 263.25C267.374 263.25 267.42 263.263 267.462 263.288C267.477 263.298 267.501 263.311 267.53 263.328Z" fill="#FBFBFA"/>
<path d="M266.194 265.663C266.176 265.663 266.16 265.662 266.144 265.659C266.143 265.659 266.142 265.659 266.141 265.659C266.141 265.659 266.14 265.659 266.14 265.658C266.112 265.654 266.088 265.645 266.064 265.633C266.063 265.633 266.063 265.632 266.063 265.632C266.062 265.632 266.061 265.632 266.061 265.632C265.999 265.6 265.948 265.545 265.911 265.467L265.234 264.025L265.912 263.764L267.17 263.283C267.216 263.265 267.258 263.254 267.298 263.252C267.304 263.251 267.312 263.251 267.318 263.251C267.373 263.251 267.422 263.264 267.464 263.29C267.48 263.299 267.502 263.312 267.53 263.328C267.642 263.394 267.847 263.513 268.085 263.651C268.644 263.974 269.386 264.403 269.545 264.494C269.511 264.481 269.475 264.474 269.434 264.474C269.388 264.474 269.338 264.483 269.284 264.503L266.338 265.633C266.287 265.653 266.239 265.663 266.194 265.663Z" fill="#FDD031"/>
<path d="M256.826 269.25L259.714 267.019C259.75 266.992 259.785 266.961 259.818 266.927C259.785 266.962 259.75 266.993 259.715 267.02L256.826 269.25Z" fill="#FBFBFA"/>
<path d="M258.564 270.911L256.453 269.687C256.532 269.536 256.641 269.395 256.771 269.292L256.825 269.25L259.713 267.02C259.748 266.993 259.783 266.962 259.816 266.928C259.959 266.782 260.077 266.577 260.144 266.358V266.352L262.257 267.577L262.256 267.579C262.206 267.745 262.126 267.903 262.03 268.032C261.968 268.115 261.899 268.187 261.826 268.244L260.639 269.161L258.883 270.516C258.753 270.617 258.646 270.756 258.564 270.911Z" fill="#FDD031"/>
<path d="M264.471 262.512C264.457 262.503 264.443 262.496 264.429 262.49C264.245 262.387 263.658 262.046 263.152 261.753C263.683 262.06 264.305 262.42 264.456 262.502L264.471 262.512Z" fill="#DBDCD9"/>
<path d="M262.258 267.577L260.145 266.352L261.462 262.032C261.606 261.56 261.94 261.246 262.201 261.246C262.251 261.246 262.299 261.258 262.341 261.283C262.367 261.296 262.731 261.508 263.152 261.753C263.657 262.046 264.245 262.387 264.429 262.49C264.393 262.474 264.355 262.468 264.315 262.468C264.201 262.468 264.072 262.527 263.952 262.635C263.797 262.774 263.655 262.99 263.574 263.258L262.258 267.577Z" fill="#FDD032"/>
<path d="M258.619 272.344L258.603 272.334L258.582 272.313L258.152 272.002L258.583 272.313C258.595 272.322 258.608 272.332 258.619 272.344Z" fill="#B0B2B0"/>
<path d="M260.696 273.538L258.62 272.344C258.608 272.332 258.596 272.323 258.583 272.313L258.153 272.002L256.453 270.771C256.209 270.594 256.24 270.094 256.453 269.687L258.563 270.91C258.455 271.117 258.395 271.352 258.394 271.554C258.394 271.746 258.448 271.91 258.567 271.997L259.046 272.342L260.696 273.538Z" fill="#FDD032"/>
<path d="M260.555 278.92L260.544 278.916C260.474 278.874 259.98 278.587 259.486 278.301C259.976 278.585 260.466 278.868 260.544 278.914C260.547 278.916 260.551 278.917 260.555 278.92ZM258.728 277.862C258.576 277.775 258.467 277.712 258.431 277.692C258.29 277.608 258.206 277.405 258.243 277.097L258.401 275.785L258.244 277.096C258.206 277.404 258.29 277.61 258.432 277.691C258.467 277.712 258.577 277.775 258.728 277.862ZM258.755 272.767C258.754 272.575 258.701 272.421 258.602 272.334L258.619 272.344C258.708 272.432 258.756 272.583 258.755 272.767Z" fill="#CED0CD"/>
<path d="M260.544 278.914C260.466 278.868 259.975 278.585 259.486 278.301C259.208 278.14 258.931 277.98 258.728 277.863C258.576 277.775 258.466 277.712 258.431 277.691C258.29 277.61 258.206 277.404 258.243 277.097L258.401 275.786L258.749 272.893C258.753 272.85 258.754 272.807 258.754 272.767C258.756 272.583 258.708 272.432 258.618 272.345L260.694 273.539L260.711 273.549L260.716 273.554V273.559C260.79 273.625 260.841 273.73 260.86 273.86C260.866 273.899 260.868 273.941 260.868 273.984C260.868 274.026 260.866 274.07 260.86 274.116L260.544 276.756L260.356 278.322C260.345 278.424 260.346 278.514 260.358 278.593C260.382 278.75 260.45 278.859 260.544 278.914Z" fill="#FDD032"/>
<path d="M264.596 262.666L265.913 265.466C265.996 265.643 266.156 265.706 266.342 265.635L269.286 264.504C269.754 264.324 269.94 264.984 269.601 265.619L267.472 269.622C267.337 269.875 267.275 270.162 267.308 270.391L267.81 274.013C267.891 274.589 267.401 275.345 266.983 275.294L264.35 274.968C264.184 274.947 263.985 275.061 263.82 275.274L261.186 278.644C260.768 279.179 260.278 278.987 260.359 278.32L260.862 274.115C260.893 273.85 260.832 273.634 260.698 273.536L258.567 271.997C258.229 271.751 258.416 270.877 258.884 270.516L261.827 268.243C262.013 268.1 262.174 267.852 262.256 267.579L263.574 263.257C263.783 262.571 264.386 262.222 264.596 262.666Z" fill="#AD58B2"/>
<path d="M260.697 278.953C260.499 278.953 260.352 278.778 260.35 278.462C260.35 278.418 260.354 278.37 260.359 278.32L260.862 274.115C260.868 274.07 260.87 274.026 260.87 273.983C260.87 273.779 260.809 273.617 260.698 273.536L259.046 272.342L258.568 271.997C258.448 271.91 258.395 271.746 258.395 271.554C258.395 271.2 258.581 270.75 258.884 270.516L261.828 268.243C262.013 268.1 262.174 267.852 262.257 267.579L263.574 263.257C263.719 262.782 264.054 262.468 264.315 262.468C264.431 262.468 264.532 262.53 264.596 262.666L265.913 265.466C265.974 265.595 266.075 265.663 266.197 265.663C266.243 265.663 266.292 265.654 266.342 265.634L269.286 264.503C269.339 264.484 269.389 264.474 269.434 264.474C269.65 264.474 269.776 264.687 269.775 264.98C269.775 265.172 269.72 265.396 269.602 265.619L267.472 269.622C267.361 269.831 267.3 270.064 267.3 270.268C267.3 270.31 267.302 270.351 267.308 270.391L267.811 274.013C267.817 274.055 267.819 274.096 267.819 274.139C267.821 274.673 267.403 275.296 267.025 275.296C267.024 275.296 267.024 275.296 267.024 275.296C267.011 275.296 266.997 275.295 266.983 275.293L264.35 274.968C264.338 274.966 264.325 274.965 264.313 274.965H264.312C264.155 274.965 263.973 275.078 263.82 275.274L261.187 278.644C261.022 278.856 260.846 278.953 260.697 278.953Z" fill="#FFE58A"/>
<path d="M284.386 257.087C284.641 256.606 284.597 256.112 284.359 255.977C284.282 255.933 282.484 254.897 282.25 254.757C282.172 254.71 282.072 254.703 281.956 254.747L280.018 255.491L279.38 254.134C279.343 254.055 279.293 254.001 279.237 253.97C278.97 253.822 277.181 252.78 277.125 252.748C276.859 252.597 276.417 252.934 276.243 253.501L274.926 257.823C274.844 258.096 274.683 258.344 274.497 258.487L271.553 260.76C271.085 261.12 270.899 261.995 271.237 262.24L273.368 263.78C273.502 263.878 273.563 264.094 273.532 264.359L273.029 268.564C272.992 268.871 273.075 269.077 273.217 269.158C273.383 269.254 275.189 270.3 275.331 270.381C275.497 270.477 275.744 270.4 275.97 270.111L278.603 266.741C278.769 266.529 278.968 266.414 279.133 266.435L281.767 266.76C282.185 266.813 282.674 266.056 282.594 265.48L282.091 261.858C282.059 261.629 282.12 261.342 282.255 261.089L284.386 257.087Z" fill="#AD58B2"/>
<path d="M284.359 255.975C284.349 255.969 284.338 255.964 284.327 255.96C284.159 255.864 283.373 255.41 282.812 255.085C283.425 255.44 284.306 255.946 284.359 255.975ZM280.018 255.492L280.018 255.49L280.778 255.2L280.018 255.492ZM282.313 254.795C282.286 254.779 282.264 254.766 282.249 254.757C282.206 254.732 282.157 254.718 282.102 254.718C282.09 254.718 282.078 254.719 282.065 254.721C282.079 254.719 282.093 254.718 282.106 254.718C282.158 254.718 282.205 254.731 282.247 254.755C282.262 254.765 282.284 254.778 282.313 254.795Z" fill="#FBFBFA"/>
<path d="M280.98 257.131C280.858 257.131 280.757 257.063 280.696 256.934L280.02 255.492L280.779 255.2L281.955 254.751C281.994 254.735 282.032 254.725 282.066 254.721C282.079 254.719 282.091 254.718 282.104 254.718C282.158 254.718 282.207 254.733 282.25 254.757C282.265 254.767 282.287 254.779 282.314 254.796C282.417 254.856 282.598 254.961 282.813 255.086C283.374 255.411 284.16 255.864 284.328 255.961C284.295 255.948 284.259 255.941 284.219 255.941C284.173 255.941 284.123 255.951 284.069 255.971L281.123 257.101C281.076 257.12 281.03 257.13 280.987 257.131C280.985 257.131 280.983 257.131 280.98 257.131Z" fill="#FDD031"/>
<path d="M271.547 260.765C271.55 260.763 271.553 260.761 271.555 260.758L274.497 258.486C274.54 258.454 274.579 258.418 274.618 258.377C274.58 258.418 274.54 258.455 274.499 258.487L271.554 260.76C271.552 260.762 271.549 260.763 271.547 260.765Z" fill="#FBFBFA"/>
<path d="M273.348 262.376L271.238 261.154C271.314 261.006 271.421 260.868 271.546 260.765C271.549 260.763 271.551 260.761 271.553 260.76L274.498 258.487C274.539 258.455 274.579 258.418 274.617 258.377C274.752 258.233 274.864 258.035 274.929 257.824V257.819L277.042 259.044L277.041 259.046C276.998 259.187 276.934 259.322 276.857 259.439C276.785 259.547 276.7 259.64 276.61 259.711L275.424 260.627L273.667 261.983C273.538 262.083 273.43 262.222 273.348 262.376Z" fill="#FDD031"/>
<path d="M279.255 253.98C279.243 253.973 279.231 253.966 279.218 253.96C279.102 253.896 278.813 253.728 278.484 253.538C278.834 253.741 279.14 253.916 279.24 253.969L279.255 253.98Z" fill="#DBDCD9"/>
<path d="M277.04 259.044L274.928 257.819L276.245 253.499C276.388 253.026 276.723 252.712 276.984 252.712C277.033 252.712 277.081 252.724 277.124 252.749C277.16 252.768 277.885 253.191 278.483 253.536C278.811 253.726 279.1 253.894 279.216 253.958C279.179 253.942 279.139 253.934 279.097 253.934C278.977 253.934 278.841 254 278.716 254.118C278.568 254.257 278.434 254.467 278.355 254.724L277.04 259.044Z" fill="#FDD032"/>
<path d="M273.401 263.81L273.387 263.802L273.366 263.781L272.963 263.49L273.367 263.781C273.378 263.79 273.39 263.799 273.401 263.81Z" fill="#B0B2B0"/>
<path d="M275.479 265.005L273.4 263.809C273.39 263.799 273.378 263.79 273.366 263.78L272.963 263.489L271.237 262.238C270.992 262.061 271.023 261.561 271.237 261.154L273.346 262.377C273.238 262.584 273.178 262.819 273.177 263.022C273.177 263.213 273.231 263.377 273.35 263.464L273.977 263.916L275.479 265.005Z" fill="#FDD032"/>
<path d="M275.339 270.387L275.329 270.384C275.27 270.349 274.923 270.147 274.525 269.916C274.923 270.147 275.272 270.348 275.331 270.382C275.333 270.384 275.337 270.386 275.339 270.387ZM273.502 269.323C273.355 269.239 273.25 269.178 273.215 269.159C273.075 269.076 272.992 268.873 273.028 268.566L273.186 267.253L273.029 268.565C272.992 268.871 273.075 269.078 273.217 269.159C273.252 269.179 273.356 269.24 273.502 269.323ZM273.54 264.232C273.539 264.042 273.486 263.888 273.388 263.802L273.402 263.81C273.492 263.898 273.541 264.048 273.54 264.232Z" fill="#CED0CD"/>
<path d="M275.34 270.387L275.338 270.386C275.336 270.385 275.333 270.383 275.33 270.381C275.271 270.347 274.922 270.146 274.524 269.915C274.165 269.707 273.766 269.476 273.501 269.323C273.355 269.239 273.251 269.178 273.216 269.158C273.075 269.077 272.992 268.871 273.028 268.564L273.185 267.252L273.533 264.359C273.538 264.315 273.539 264.272 273.539 264.231C273.54 264.047 273.491 263.897 273.401 263.809L275.48 265.005L275.495 265.016L275.5 265.021V265.026C275.572 265.088 275.621 265.188 275.642 265.31C275.65 265.354 275.653 265.401 275.653 265.45C275.653 265.493 275.651 265.537 275.645 265.582L275.271 268.703L275.141 269.789C275.128 269.901 275.131 270.001 275.147 270.085C275.176 270.235 275.246 270.337 275.34 270.387Z" fill="#FDD032"/>
<path d="M279.377 254.134L280.694 256.933C280.777 257.11 280.938 257.173 281.123 257.102L284.067 255.971C284.534 255.792 284.722 256.451 284.384 257.087L282.252 261.089C282.118 261.342 282.057 261.629 282.088 261.858L282.592 265.481C282.672 266.056 282.183 266.813 281.765 266.761L279.131 266.435C278.966 266.414 278.767 266.529 278.6 266.742L275.968 270.111C275.55 270.646 275.061 270.455 275.14 269.787L275.643 265.583C275.675 265.317 275.613 265.102 275.479 265.005L273.349 263.464C273.01 263.219 273.197 262.345 273.664 261.983L276.609 259.71C276.795 259.568 276.955 259.319 277.038 259.046L278.354 254.725C278.564 254.038 279.169 253.689 279.377 254.134Z" fill="#AD58B2"/>
<path d="M275.479 270.421C275.279 270.421 275.131 270.242 275.131 269.922C275.131 269.879 275.135 269.834 275.141 269.787L275.643 265.582C275.649 265.537 275.652 265.493 275.652 265.451C275.652 265.247 275.59 265.085 275.479 265.005L273.976 263.917L273.349 263.464C273.23 263.378 273.176 263.214 273.176 263.022C273.177 262.667 273.361 262.217 273.665 261.983L276.609 259.71C276.795 259.568 276.955 259.319 277.038 259.046L278.354 254.725C278.5 254.249 278.835 253.935 279.096 253.935C279.212 253.935 279.313 253.997 279.377 254.134L280.695 256.933C280.755 257.062 280.856 257.131 280.979 257.131C281.024 257.131 281.073 257.121 281.124 257.102L284.067 255.971C284.12 255.951 284.17 255.941 284.216 255.941C284.43 255.941 284.557 256.155 284.556 256.448C284.556 256.639 284.501 256.865 284.384 257.087L282.253 261.089C282.142 261.298 282.08 261.531 282.08 261.735C282.08 261.777 282.084 261.818 282.089 261.858L282.592 265.48C282.598 265.522 282.6 265.564 282.6 265.607C282.602 266.141 282.185 266.763 281.806 266.763C281.792 266.763 281.779 266.762 281.766 266.761L279.131 266.435C279.119 266.433 279.106 266.432 279.093 266.432H279.093C278.935 266.432 278.755 266.546 278.6 266.742L275.968 270.111C275.802 270.323 275.626 270.421 275.479 270.421Z" fill="#FFE58A"/>
<path d="M299.169 248.554C299.425 248.074 299.381 247.58 299.141 247.445C299.064 247.401 297.268 246.364 297.033 246.225C296.955 246.178 296.856 246.171 296.739 246.215L294.802 246.96L294.163 245.601C294.127 245.523 294.077 245.469 294.021 245.437C293.753 245.29 291.965 244.247 291.909 244.216C291.642 244.065 291.199 244.402 291.026 244.969L289.71 249.29C289.627 249.563 289.466 249.812 289.281 249.955L286.336 252.227C285.869 252.588 285.682 253.464 286.021 253.708L288.151 255.248C288.285 255.346 288.347 255.562 288.315 255.828L287.811 260.031C287.775 260.338 287.859 260.545 288 260.626C288.166 260.722 289.973 261.768 290.114 261.849C290.281 261.945 290.528 261.868 290.753 261.579L293.387 258.209C293.553 257.997 293.751 257.882 293.918 257.902L296.55 258.228C296.969 258.28 297.457 257.523 297.377 256.948L296.875 253.325C296.843 253.096 296.904 252.809 297.038 252.556L299.169 248.554Z" fill="#AD58B2"/>
<path d="M299.146 247.441C299.135 247.436 299.124 247.431 299.111 247.426C298.907 247.309 297.826 246.685 297.3 246.378C297.87 246.71 299.082 247.407 299.146 247.441ZM294.805 246.958V246.957L295.282 246.775L294.805 246.958ZM297.102 246.263C297.073 246.247 297.05 246.233 297.035 246.224C296.992 246.198 296.943 246.184 296.889 246.184C296.877 246.184 296.864 246.185 296.851 246.187C296.866 246.185 296.879 246.184 296.892 246.184C296.943 246.184 296.991 246.198 297.032 246.223C297.049 246.232 297.072 246.246 297.102 246.263Z" fill="#FBFBFA"/>
<path d="M295.764 248.599C295.743 248.599 295.723 248.596 295.703 248.593C295.703 248.592 295.703 248.592 295.703 248.592C295.701 248.592 295.7 248.592 295.698 248.591C295.607 248.571 295.53 248.506 295.481 248.402L294.805 246.96L295.282 246.776L296.741 246.218C296.779 246.203 296.817 246.193 296.851 246.188C296.864 246.187 296.877 246.186 296.889 246.186C296.943 246.186 296.992 246.2 297.035 246.226C297.05 246.235 297.073 246.248 297.102 246.265C297.152 246.295 297.219 246.334 297.3 246.38C297.826 246.687 298.907 247.31 299.111 247.428C299.079 247.416 299.043 247.409 299.004 247.409C298.958 247.409 298.908 247.418 298.854 247.438L295.908 248.569C295.858 248.589 295.809 248.599 295.764 248.599Z" fill="#FDD031"/>
<path d="M286.695 251.951L289.281 249.954C289.317 249.927 289.352 249.896 289.386 249.862C289.352 249.897 289.318 249.928 289.282 249.956L286.695 251.951Z" fill="#FBFBFA"/>
<path d="M288.132 253.844L286.021 252.621C286.1 252.47 286.21 252.329 286.34 252.225L286.696 251.95L289.282 249.955C289.317 249.927 289.351 249.896 289.385 249.861C289.527 249.716 289.645 249.51 289.713 249.291V249.286L291.826 250.511L291.825 250.513C291.785 250.644 291.726 250.771 291.656 250.882C291.58 251.001 291.49 251.103 291.394 251.178L289.703 252.484L288.452 253.45C288.421 253.474 288.392 253.498 288.365 253.526C288.365 253.526 288.364 253.526 288.364 253.527C288.363 253.528 288.362 253.528 288.361 253.529C288.345 253.546 288.328 253.562 288.313 253.58C288.312 253.581 288.311 253.583 288.309 253.584C288.241 253.662 288.182 253.75 288.132 253.844Z" fill="#FDD031"/>
<path d="M294.039 245.446C294.026 245.438 294.013 245.431 294 245.425C293.866 245.35 293.507 245.143 293.123 244.921C293.53 245.156 293.91 245.374 294.023 245.435L294.039 245.446Z" fill="#DBDCD9"/>
<path d="M291.826 250.511L289.713 249.287L291.03 244.967C291.174 244.495 291.508 244.181 291.769 244.181C291.819 244.181 291.867 244.192 291.91 244.216C291.943 244.235 292.56 244.595 293.124 244.921C293.507 245.143 293.866 245.351 293.999 245.425C293.963 245.409 293.924 245.401 293.883 245.401C293.759 245.401 293.62 245.472 293.492 245.595C293.348 245.735 293.218 245.94 293.142 246.192L291.826 250.511Z" fill="#FDD032"/>
<path d="M288.187 255.278L288.173 255.27L288.152 255.248L287.674 254.903L288.153 255.248C288.165 255.258 288.176 255.268 288.187 255.278Z" fill="#B0B2B0"/>
<path d="M290.266 256.472L288.188 255.277C288.177 255.266 288.165 255.256 288.154 255.247L287.675 254.901L286.023 253.705C285.779 253.528 285.81 253.028 286.023 252.621L288.134 253.844C288.025 254.052 287.965 254.285 287.964 254.489C287.964 254.68 288.019 254.844 288.137 254.93L288.626 255.284L290.266 256.472Z" fill="#FDD032"/>
<path d="M290.119 261.852L290.11 261.85C290.036 261.807 289.512 261.502 289.002 261.206C289.512 261.502 290.038 261.806 290.112 261.848C290.114 261.85 290.117 261.851 290.119 261.852ZM288.541 260.939C288.265 260.78 288.049 260.655 287.996 260.625C287.877 260.555 287.799 260.396 287.801 260.161C287.799 260.396 287.878 260.555 287.998 260.625C288.05 260.655 288.265 260.78 288.541 260.939ZM288.321 255.694C288.319 255.505 288.266 255.353 288.169 255.269L288.183 255.277C288.272 255.364 288.321 255.512 288.321 255.694Z" fill="#CED0CD"/>
<path d="M290.12 261.853L290.119 261.852C290.117 261.852 290.114 261.85 290.112 261.848C290.038 261.806 289.512 261.502 289.002 261.207C288.842 261.114 288.684 261.022 288.541 260.94C288.265 260.78 288.05 260.655 287.998 260.625C287.878 260.556 287.799 260.396 287.801 260.161C287.802 260.12 287.804 260.077 287.809 260.032L288.314 255.826C288.319 255.78 288.321 255.737 288.321 255.694C288.321 255.513 288.272 255.364 288.183 255.277L290.261 256.472L290.277 256.483L290.282 256.488V256.493C290.353 256.555 290.402 256.653 290.423 256.773C290.431 256.819 290.435 256.867 290.434 256.918C290.434 256.96 290.432 257.004 290.427 257.05L290.147 259.384L289.922 261.256C289.906 261.403 289.916 261.527 289.948 261.625C289.983 261.735 290.043 261.812 290.12 261.853Z" fill="#FDD032"/>
<path d="M294.162 245.601L295.478 248.401C295.562 248.577 295.722 248.64 295.908 248.569L298.852 247.439C299.32 247.259 299.507 247.918 299.168 248.554L297.037 252.556C296.903 252.809 296.842 253.096 296.874 253.325L297.376 256.948C297.457 257.523 296.968 258.28 296.55 258.228L293.917 257.902C293.75 257.882 293.552 257.997 293.385 258.209L290.752 261.579C290.334 262.114 289.846 261.922 289.925 261.254L290.428 257.051C290.46 256.785 290.398 256.569 290.264 256.472L288.134 254.931C287.796 254.687 287.981 253.811 288.45 253.45L291.394 251.178C291.58 251.035 291.74 250.786 291.823 250.513L293.14 246.193C293.349 245.505 293.954 245.157 294.162 245.601Z" fill="#AD58B2"/>
<path d="M290.264 261.887C290.066 261.887 289.918 261.712 289.917 261.397C289.917 261.353 289.92 261.305 289.926 261.254L290.429 257.05C290.434 257.004 290.436 256.961 290.436 256.918C290.437 256.713 290.376 256.552 290.265 256.471L288.623 255.284L288.134 254.931C288.016 254.845 287.961 254.68 287.961 254.489C287.962 254.134 288.146 253.684 288.45 253.45L291.394 251.178C291.58 251.034 291.741 250.786 291.823 250.513L293.14 246.192C293.285 245.716 293.619 245.403 293.881 245.403C293.997 245.403 294.099 245.464 294.163 245.601L295.479 248.401C295.54 248.53 295.641 248.598 295.764 248.598C295.809 248.598 295.858 248.588 295.909 248.569L298.853 247.438C298.906 247.418 298.955 247.409 299.001 247.409C299.216 247.409 299.342 247.622 299.341 247.915C299.34 248.106 299.287 248.331 299.168 248.554L297.038 252.556C296.928 252.763 296.866 252.994 296.866 253.196C296.865 253.241 296.869 253.283 296.875 253.325L297.377 256.947C297.382 256.989 297.386 257.031 297.386 257.074C297.387 257.607 296.969 258.23 296.591 258.23C296.577 258.23 296.564 258.229 296.55 258.228L293.917 257.902C293.904 257.9 293.892 257.899 293.879 257.899C293.72 257.899 293.54 258.012 293.386 258.208L290.752 261.578C290.588 261.79 290.411 261.887 290.264 261.887Z" fill="#FFE58A"/>
<path d="M313.953 240.02C314.209 239.54 314.165 239.046 313.927 238.911C313.849 238.868 312.052 237.83 311.818 237.691C311.74 237.644 311.641 237.637 311.523 237.682L309.586 238.426L308.948 237.067C308.911 236.989 308.862 236.936 308.805 236.904C308.538 236.757 306.749 235.713 306.693 235.682C306.426 235.531 305.984 235.868 305.812 236.435L304.495 240.756C304.411 241.029 304.251 241.278 304.065 241.421L301.122 243.693C300.654 244.055 300.467 244.93 300.805 245.174L302.936 246.715C303.07 246.812 303.131 247.028 303.099 247.294L302.597 251.497C302.56 251.804 302.643 252.011 302.785 252.092C302.952 252.187 304.758 253.235 304.899 253.315C305.065 253.411 305.311 253.334 305.538 253.045L308.172 249.675C308.337 249.463 308.535 249.348 308.702 249.369L311.335 249.695C311.753 249.746 312.242 248.989 312.163 248.414L311.659 244.791C311.627 244.563 311.69 244.275 311.824 244.023L313.953 240.02Z" fill="#AD58B2"/>
<path d="M313.927 238.909C313.916 238.904 313.906 238.899 313.895 238.895C313.645 238.752 312.036 237.823 311.816 237.692C311.774 237.666 311.725 237.653 311.67 237.653C311.665 237.653 311.659 237.653 311.653 237.653C311.66 237.653 311.667 237.652 311.673 237.652C311.726 237.652 311.773 237.665 311.813 237.69C312.048 237.831 313.849 238.868 313.927 238.909ZM309.586 238.426V238.425L310.117 238.222L309.586 238.426Z" fill="#FBFBFA"/>
<path d="M310.544 240.065C310.507 240.065 310.471 240.058 310.437 240.045C310.437 240.045 310.436 240.044 310.434 240.043H310.433C310.361 240.013 310.302 239.954 310.262 239.868L309.586 238.425L310.117 238.221L311.522 237.685C311.568 237.666 311.612 237.655 311.653 237.653C311.659 237.653 311.665 237.653 311.67 237.653C311.725 237.653 311.774 237.666 311.816 237.692C312.036 237.823 313.645 238.751 313.895 238.895C313.861 238.881 313.824 238.875 313.786 238.875C313.739 238.875 313.689 238.884 313.636 238.904L310.689 240.035C310.639 240.055 310.59 240.065 310.544 240.065Z" fill="#FDD031"/>
<path d="M301.191 243.64L304.065 241.42C304.095 241.397 304.124 241.372 304.153 241.343C304.125 241.372 304.095 241.398 304.065 241.421L301.191 243.64Z" fill="#FBFBFA"/>
<path d="M302.916 245.312L300.805 244.089C300.883 243.938 300.993 243.797 301.123 243.693L301.192 243.64L304.064 241.422C304.095 241.399 304.125 241.372 304.153 241.344C304.302 241.198 304.426 240.986 304.496 240.759V240.754L306.609 241.978L306.608 241.98C306.557 242.149 306.475 242.308 306.378 242.439C306.323 242.512 306.263 242.576 306.199 242.629C306.192 242.634 306.186 242.639 306.178 242.645L303.235 244.917C303.105 245.017 302.997 245.158 302.916 245.312Z" fill="#FDD031"/>
<path d="M308.824 236.915C308.809 236.906 308.796 236.898 308.781 236.892C308.634 236.809 308.218 236.569 307.797 236.325C308.244 236.584 308.683 236.837 308.807 236.904L308.824 236.915Z" fill="#DBDCD9"/>
<path d="M306.609 241.978L304.496 240.754L305.813 236.435C305.956 235.962 306.291 235.648 306.553 235.648C306.603 235.648 306.651 235.66 306.693 235.684C306.724 235.701 307.265 236.016 307.797 236.325C308.218 236.569 308.633 236.809 308.78 236.892C308.745 236.876 308.706 236.869 308.667 236.869C308.566 236.869 308.454 236.916 308.346 237.001C308.175 237.136 308.014 237.367 307.925 237.66L306.609 241.978Z" fill="#FDD032"/>
<path d="M302.972 246.745L302.956 246.736L302.935 246.715L302.154 246.15L302.936 246.715C302.949 246.724 302.96 246.734 302.972 246.745Z" fill="#B0B2B0"/>
<path d="M305.047 247.94L302.971 246.746C302.959 246.735 302.948 246.725 302.935 246.716L302.154 246.151L300.805 245.173C300.56 244.996 300.591 244.496 300.805 244.089L302.916 245.312C302.807 245.52 302.746 245.753 302.746 245.957C302.746 246.149 302.799 246.312 302.919 246.399L303.228 246.622L305.047 247.94Z" fill="#FDD032"/>
<path d="M304.905 253.321L304.895 253.318C304.833 253.281 304.441 253.053 304.01 252.803C304.418 253.039 304.793 253.256 304.885 253.309C304.891 253.314 304.899 253.318 304.905 253.321ZM302.903 252.163C302.844 252.129 302.801 252.105 302.782 252.093C302.765 252.083 302.749 252.071 302.734 252.058C302.749 252.071 302.766 252.083 302.783 252.093C302.802 252.105 302.845 252.129 302.903 252.163ZM302.649 251.945C302.595 251.839 302.572 251.689 302.594 251.499L302.752 250.187L302.595 251.499C302.572 251.688 302.595 251.838 302.649 251.945ZM303.105 247.172C303.105 246.979 303.053 246.824 302.954 246.737L302.97 246.746C303.06 246.834 303.108 246.986 303.105 247.172Z" fill="#CED0CD"/>
<path d="M304.886 253.307C304.794 253.255 304.42 253.038 304.012 252.802C303.588 252.556 303.127 252.289 302.905 252.161C302.846 252.127 302.804 252.103 302.785 252.092C302.767 252.082 302.751 252.07 302.736 252.057C302.703 252.028 302.674 251.99 302.651 251.944C302.597 251.837 302.574 251.686 302.597 251.497L302.753 250.186L303.1 247.293C303.105 247.25 303.107 247.21 303.107 247.171C303.11 246.985 303.062 246.833 302.971 246.745L305.048 247.939L305.064 247.949L305.069 247.955V247.96C305.14 248.022 305.19 248.121 305.211 248.243C305.218 248.285 305.221 248.331 305.221 248.379C305.222 248.423 305.219 248.468 305.213 248.516L304.833 251.7L304.71 252.723C304.699 252.817 304.699 252.901 304.709 252.975C304.709 252.976 304.709 252.977 304.709 252.977C304.709 252.977 304.709 252.978 304.71 252.979C304.731 253.137 304.795 253.249 304.886 253.307Z" fill="#FDD032"/>
<path d="M308.947 237.067L310.263 239.867C310.346 240.044 310.507 240.107 310.693 240.035L313.637 238.905C314.105 238.726 314.292 239.384 313.953 240.02L311.823 244.022C311.689 244.275 311.627 244.563 311.658 244.791L312.162 248.414C312.241 248.989 311.753 249.746 311.334 249.695L308.701 249.369C308.535 249.348 308.337 249.462 308.171 249.675L305.537 253.044C305.119 253.58 304.63 253.389 304.71 252.72L305.212 248.516C305.245 248.251 305.183 248.035 305.049 247.938L302.919 246.397C302.581 246.152 302.767 245.278 303.235 244.916L306.178 242.644C306.365 242.501 306.524 242.253 306.608 241.979L307.925 237.658C308.134 236.972 308.738 236.623 308.947 237.067Z" fill="#AD58B2"/>
<path d="M305.048 253.354C304.875 253.354 304.742 253.221 304.709 252.977C304.709 252.977 304.709 252.976 304.709 252.975C304.704 252.94 304.703 252.903 304.702 252.864C304.702 252.819 304.705 252.771 304.711 252.721L305.213 248.517C305.219 248.469 305.222 248.423 305.221 248.379C305.221 248.178 305.16 248.018 305.05 247.938L303.228 246.621L302.919 246.398C302.8 246.311 302.746 246.148 302.746 245.956C302.747 245.602 302.932 245.151 303.236 244.917L306.179 242.645C306.365 242.501 306.525 242.253 306.609 241.98L307.926 237.659C308.07 237.183 308.404 236.87 308.666 236.87C308.782 236.87 308.883 236.931 308.948 237.068L310.264 239.868C310.324 239.996 310.426 240.064 310.549 240.064C310.594 240.064 310.643 240.055 310.693 240.035L313.638 238.905C313.691 238.884 313.74 238.875 313.786 238.875C314.001 238.875 314.127 239.088 314.126 239.382C314.126 239.573 314.072 239.798 313.953 240.02L311.824 244.023C311.713 244.233 311.651 244.466 311.651 244.669C311.651 244.711 311.654 244.752 311.659 244.791L312.162 248.414C312.168 248.456 312.171 248.498 312.171 248.541C312.172 249.075 311.754 249.698 311.376 249.698H311.376C311.362 249.698 311.348 249.697 311.335 249.695L308.702 249.369C308.689 249.368 308.677 249.367 308.664 249.367H308.663C308.505 249.367 308.324 249.48 308.172 249.675L305.538 253.045C305.372 253.256 305.196 253.354 305.048 253.354Z" fill="#FFE58A"/>
<path d="M328.738 231.488C328.993 231.008 328.949 230.514 328.71 230.379C328.633 230.335 326.836 229.298 326.602 229.159C326.524 229.113 326.424 229.105 326.307 229.15L324.37 229.894L323.731 228.535C323.694 228.457 323.645 228.404 323.588 228.372C323.322 228.224 321.532 227.182 321.477 227.15C321.211 226.999 320.768 227.336 320.595 227.904L319.278 232.225C319.195 232.497 319.035 232.746 318.848 232.889L315.905 235.161C315.437 235.523 315.25 236.398 315.589 236.642L317.719 238.183C317.854 238.28 317.915 238.496 317.883 238.762L317.381 242.965C317.343 243.273 317.427 243.479 317.568 243.56C317.734 243.656 319.541 244.703 319.683 244.784C319.849 244.879 320.095 244.802 320.321 244.513L322.954 241.144C323.12 240.931 323.32 240.816 323.485 240.837L326.119 241.163C326.536 241.214 327.026 240.458 326.946 239.883L326.442 236.26C326.411 236.031 326.472 235.743 326.607 235.491L328.738 231.488Z" fill="#AD58B2"/>
<path d="M328.712 230.377C328.703 230.371 328.692 230.367 328.683 230.363C328.528 230.274 327.816 229.864 327.263 229.544C327.868 229.894 328.662 230.35 328.712 230.377ZM324.372 229.894L324.371 229.892L325.049 229.633L324.372 229.894ZM326.671 229.201C326.642 229.182 326.618 229.169 326.602 229.159C326.559 229.133 326.51 229.12 326.455 229.12C326.448 229.12 326.44 229.12 326.433 229.121C326.442 229.12 326.45 229.119 326.459 229.119C326.511 229.119 326.558 229.133 326.599 229.157C326.616 229.167 326.64 229.182 326.671 229.201Z" fill="#FBFBFA"/>
<path d="M325.329 231.531C325.313 231.531 325.296 231.531 325.281 231.527C325.28 231.527 325.279 231.527 325.278 231.527C325.277 231.527 325.276 231.527 325.276 231.527C325.249 231.522 325.223 231.513 325.199 231.502C325.199 231.502 325.199 231.501 325.199 231.501C325.199 231.501 325.198 231.501 325.197 231.5C325.136 231.468 325.084 231.413 325.048 231.335L324.371 229.893L325.049 229.633L326.307 229.152C326.351 229.134 326.393 229.124 326.432 229.12C326.439 229.119 326.447 229.119 326.454 229.119C326.509 229.119 326.558 229.133 326.601 229.158C326.617 229.168 326.641 229.182 326.671 229.2C326.791 229.27 327.01 229.397 327.262 229.543C327.815 229.863 328.527 230.274 328.682 230.362C328.648 230.349 328.61 230.342 328.571 230.342C328.524 230.342 328.474 230.352 328.421 230.371L325.474 231.502C325.424 231.522 325.375 231.531 325.329 231.531Z" fill="#FDD031"/>
<path d="M315.961 235.119L318.849 232.888C318.886 232.861 318.92 232.83 318.954 232.795C318.92 232.83 318.886 232.862 318.85 232.889L315.961 235.119Z" fill="#FBFBFA"/>
<path d="M317.698 236.779L315.588 235.556C315.666 235.405 315.775 235.264 315.905 235.161L315.959 235.119L318.847 232.889C318.883 232.862 318.918 232.831 318.951 232.796C319.093 232.651 319.211 232.446 319.279 232.227V232.221L321.391 233.446V233.448C321.341 233.61 321.265 233.763 321.172 233.891C321.109 233.978 321.037 234.054 320.96 234.113L319.774 235.03L318.017 236.385C317.888 236.486 317.78 236.625 317.698 236.779Z" fill="#FDD031"/>
<path d="M323.607 228.381C323.593 228.372 323.579 228.365 323.565 228.359C323.413 228.274 322.98 228.023 322.547 227.772C323.005 228.038 323.465 228.303 323.592 228.371L323.607 228.381Z" fill="#DBDCD9"/>
<path d="M321.393 233.445L319.281 232.22L320.598 227.9C320.742 227.428 321.077 227.114 321.338 227.114C321.388 227.114 321.435 227.126 321.478 227.15C321.509 227.166 322.028 227.47 322.548 227.771C322.981 228.022 323.413 228.272 323.565 228.358C323.53 228.342 323.492 228.335 323.451 228.335C323.352 228.335 323.243 228.38 323.138 228.462C322.964 228.596 322.8 228.83 322.71 229.126L321.393 233.445Z" fill="#FDD032"/>
<path d="M317.756 238.214L317.74 238.204L317.72 238.183L317.242 237.837L317.721 238.183C317.733 238.192 317.746 238.202 317.756 238.214Z" fill="#B0B2B0"/>
<path d="M319.832 239.407L317.756 238.213C317.745 238.202 317.733 238.192 317.72 238.183L317.242 237.837L315.59 236.641C315.345 236.463 315.377 235.963 315.59 235.556L317.7 236.779C317.592 236.986 317.53 237.221 317.53 237.423C317.53 237.616 317.584 237.78 317.703 237.866L318.182 238.212L319.832 239.407Z" fill="#FDD032"/>
<path d="M319.692 244.789L319.681 244.786C319.615 244.747 319.19 244.5 318.737 244.237C319.19 244.5 319.617 244.746 319.682 244.784C319.686 244.786 319.689 244.787 319.692 244.789ZM317.781 243.684C317.673 243.621 317.596 243.577 317.567 243.561C317.426 243.477 317.343 243.274 317.38 242.967L317.534 241.681L317.38 242.966C317.343 243.273 317.427 243.479 317.568 243.56C317.597 243.577 317.673 243.621 317.781 243.684ZM317.892 238.636C317.891 238.444 317.838 238.29 317.738 238.204L317.755 238.214C317.844 238.302 317.892 238.453 317.892 238.636Z" fill="#CED0CD"/>
<path d="M319.692 244.789H319.691C319.688 244.787 319.685 244.786 319.682 244.784C319.616 244.746 319.19 244.5 318.737 244.237C318.382 244.031 318.01 243.816 317.781 243.684C317.672 243.621 317.596 243.577 317.567 243.56C317.426 243.479 317.343 243.273 317.38 242.966L317.533 241.681L317.884 238.762C317.889 238.718 317.891 238.676 317.891 238.636C317.892 238.453 317.844 238.302 317.754 238.214L319.831 239.408L319.847 239.418L319.852 239.423V239.428C319.925 239.492 319.975 239.596 319.996 239.723C320.002 239.763 320.005 239.807 320.005 239.853C320.005 239.895 320.002 239.939 319.997 239.985L319.687 242.573L319.492 244.191C319.481 244.294 319.482 244.386 319.495 244.465C319.52 244.627 319.593 244.738 319.692 244.789Z" fill="#FDD032"/>
<path d="M323.729 228.535L325.046 231.336C325.128 231.512 325.29 231.575 325.474 231.504L328.419 230.373C328.886 230.194 329.073 230.853 328.736 231.488L326.604 235.491C326.47 235.743 326.409 236.031 326.44 236.26L326.944 239.883C327.023 240.458 326.534 241.214 326.116 241.163L323.483 240.837C323.317 240.816 323.118 240.931 322.952 241.144L320.319 244.513C319.901 245.048 319.412 244.857 319.491 244.189L319.995 239.985C320.026 239.719 319.965 239.503 319.831 239.406L317.7 237.866C317.362 237.621 317.549 236.746 318.016 236.385L320.961 234.112C321.146 233.969 321.307 233.72 321.39 233.448L322.706 229.127C322.915 228.44 323.52 228.091 323.729 228.535Z" fill="#AD58B2"/>
<path d="M319.829 244.823C319.631 244.823 319.485 244.647 319.483 244.332C319.483 244.288 319.486 244.24 319.491 244.19L319.995 239.985C320 239.94 320.003 239.896 320.003 239.853C320.003 239.649 319.942 239.487 319.831 239.406L318.179 238.212L317.7 237.867C317.581 237.78 317.527 237.616 317.527 237.424C317.528 237.07 317.713 236.62 318.016 236.386L320.961 234.113C321.146 233.97 321.307 233.721 321.39 233.449L322.706 229.127C322.851 228.651 323.186 228.338 323.447 228.338C323.563 228.338 323.664 228.399 323.729 228.536L325.046 231.336C325.106 231.465 325.208 231.533 325.33 231.533C325.376 231.533 325.425 231.523 325.474 231.504L328.419 230.373C328.472 230.354 328.522 230.344 328.567 230.344C328.782 230.344 328.909 230.557 328.908 230.85C328.908 231.042 328.853 231.266 328.735 231.489L326.604 235.492C326.493 235.701 326.432 235.934 326.432 236.138C326.432 236.18 326.435 236.221 326.44 236.261L326.944 239.883C326.949 239.924 326.952 239.966 326.952 240.009C326.954 240.543 326.535 241.166 326.157 241.166C326.144 241.166 326.13 241.165 326.116 241.163L323.483 240.838C323.471 240.836 323.458 240.835 323.446 240.835C323.445 240.835 323.445 240.835 323.445 240.835C323.287 240.835 323.105 240.948 322.952 241.144L320.319 244.513C320.154 244.725 319.978 244.823 319.829 244.823Z" fill="#FFE58A"/>
<path d="M251.729 69.6409C245.493 66.0224 236.915 66.5157 227.442 71.9907C208.369 83.0129 192.908 110.022 192.908 132.318C192.908 143.537 196.833 151.404 203.156 155.059C204.617 155.904 210.354 159.183 210.349 159.214C209.722 163.508 207.934 168.04 202.304 171.369C201.943 171.582 202.171 171.933 202.489 172.121C202.621 172.199 210.919 176.993 211.242 177.181C211.372 177.254 211.515 177.302 211.638 177.302C220.257 177.317 230.241 171.503 233.019 159.437C234.063 158.945 235.116 158.401 236.184 157.784C255.257 146.762 270.718 119.752 270.718 97.4561C270.718 86.2358 266.799 78.3521 260.477 74.6905C259.006 73.8381 253.184 70.4842 251.729 69.6409Z" fill="#273E47"/>
<path d="M236.186 77.0445C217.115 88.0658 201.654 115.076 201.654 137.371C201.654 152.498 208.775 161.557 219.307 162.384C218.914 167.195 217.511 172.601 211.05 176.422C210.539 176.724 211.208 177.302 211.641 177.302C220.259 177.317 230.243 171.503 233.021 159.437C234.065 158.945 235.119 158.401 236.186 157.784C255.259 146.762 270.719 119.752 270.719 97.4561C270.719 75.1607 255.259 66.0216 236.186 77.0445Z" fill="#33535F"/>
<path d="M211.051 176.424C210.739 176.618 210.879 176.909 211.136 177.114C210.103 176.521 202.613 172.201 202.495 172.125C202.171 171.931 201.945 171.587 202.311 171.372C207.941 168.042 209.726 163.507 210.351 159.218L211.309 159.779L212.181 160.296C214.311 161.481 216.701 162.182 219.304 162.386C218.918 167.191 217.508 172.6 211.051 176.424Z" fill="#17282F"/>
<path d="M231.311 95.7839L240.675 90.3728L239.114 121.979L232.872 125.587L231.311 95.7839ZM232.545 140.86C231.622 140.207 231.16 139.029 231.16 137.327C231.16 135.625 231.613 133.941 232.519 132.275C233.426 130.609 234.584 129.368 235.993 128.553C237.403 127.739 238.56 127.64 239.467 128.26C240.373 128.878 240.826 130.039 240.826 131.74C240.826 133.444 240.364 135.154 239.441 136.874C238.518 138.595 237.368 139.852 235.993 140.648C234.617 141.443 233.467 141.514 232.545 140.86Z" fill="#FAFAF9"/>
<path d="M240.797 154.75C246.166 142.048 254.933 130.224 265.104 122.758C259.736 135.46 250.969 147.285 240.797 154.75Z" fill="#263F48"/>
<path d="M305.828 197.958C302.305 197.995 299.68 195.528 298.031 192.418C308.597 179.408 315.745 162.08 315.745 146.923C315.745 135.684 311.814 127.792 305.473 124.139C304.009 123.295 298.197 119.942 296.737 119.097C290.501 115.491 281.931 115.989 272.468 121.458C253.396 132.48 237.936 159.49 237.936 181.786C237.936 193.003 241.85 200.886 248.17 204.549C249.643 205.404 255.449 208.74 256.889 209.58C263.13 213.221 271.722 212.736 281.213 207.251C283.686 205.821 286.098 204.117 288.425 202.195C294.841 207.275 302.661 201.737 305.758 199.086C306.173 198.731 306.219 197.953 305.828 197.958Z" fill="#DADBD8"/>
<path d="M265.931 211.387C254.39 211.387 247.221 201.981 247.221 186.839C247.221 164.75 262.591 137.898 281.484 126.978C286.767 123.925 291.819 122.376 296.499 122.376C308.04 122.376 315.21 131.783 315.21 146.924C315.21 161.414 308.468 178.717 297.615 192.079L297.391 192.356L297.557 192.671C299.505 196.343 302.328 198.403 305.529 198.495L305.411 198.677C303.206 200.564 298.833 203.728 294.301 203.728H294.299C292.262 203.727 290.398 203.069 288.76 201.773L288.419 201.503L288.084 201.78C285.735 203.721 283.333 205.405 280.945 206.785C275.662 209.839 270.611 211.387 265.931 211.387Z" fill="#FAFAF9"/>
<path d="M296.5 121.837C291.892 121.837 286.705 123.34 281.217 126.512C262.144 137.534 246.684 164.544 246.684 186.839C246.684 202.719 254.528 211.925 265.932 211.925C270.54 211.925 275.728 210.423 281.217 207.252C283.69 205.822 286.101 204.118 288.428 202.195C290.316 203.69 292.326 204.266 294.301 204.266C299.038 204.266 303.576 200.957 305.761 199.087C306.176 198.733 306.222 197.958 305.835 197.958H305.832L305.754 197.959C302.27 197.959 299.671 195.506 298.034 192.419C308.6 179.409 315.749 162.08 315.749 146.924C315.749 131.045 307.904 121.839 296.5 121.837ZM296.497 121.837L296.5 122.915C307.709 122.916 314.672 132.116 314.672 146.924C314.672 161.296 307.977 178.469 297.2 191.739L296.75 192.293L297.084 192.924C298.876 196.306 301.398 198.385 304.29 198.906C301.988 200.74 298.187 203.189 294.301 203.189C292.387 203.189 290.636 202.57 289.095 201.35L288.413 200.811L287.743 201.365C285.417 203.287 283.04 204.953 280.678 206.319C275.478 209.324 270.517 210.848 265.932 210.848C254.722 210.848 247.76 201.648 247.76 186.839C247.76 164.922 263.01 138.278 281.754 127.445C286.954 124.439 291.915 122.915 296.497 122.915V121.837Z" fill="#0BBF90"/>
<path d="M278.658 192.006C277.734 191.352 277.274 190.175 277.274 188.473C277.274 186.77 277.727 185.086 278.632 183.42C279.539 181.754 280.697 180.514 282.106 179.699C283.515 178.884 284.672 178.787 285.579 179.406C286.486 180.023 286.939 181.185 286.939 182.886C286.939 184.59 286.477 186.3 285.555 188.02C284.632 189.741 283.481 190.998 282.106 191.793C280.73 192.589 279.58 192.66 278.658 192.006ZM279.463 170.679C280.252 168.7 281.401 166.356 282.911 163.646C284.019 161.662 284.832 160.061 285.353 158.841C285.873 157.624 286.133 156.432 286.133 155.267C286.133 153.611 285.637 152.587 284.648 152.195C283.659 151.804 282.341 152.084 280.697 153.034C279.119 153.945 277.718 155.192 276.493 156.773C275.268 158.355 274.236 160.171 273.397 162.224L267.307 160.974C268.716 157.293 270.62 153.976 273.02 151.021C275.419 148.066 278.263 145.639 281.552 143.738C285.411 141.509 288.507 140.816 290.84 141.662C293.172 142.51 294.338 144.88 294.338 148.779C294.338 150.614 294.112 152.359 293.66 154.007C293.206 155.659 292.653 157.155 291.998 158.496C291.344 159.837 290.496 161.436 289.456 163.292C288.214 165.486 287.307 167.253 286.738 168.591C286.167 169.928 285.881 171.314 285.881 172.747L278.28 177.14C278.28 174.812 278.674 172.657 279.463 170.679Z" fill="#33535F"/>
<path d="M104.482 132.907L66.3789 154.992L81.5141 180.75C81.8438 181.492 82.3598 182.03 82.962 182.372C84.7702 183.399 95.4606 189.595 96.052 189.937C97.8603 190.985 100.471 190.247 101.164 187.9L117.597 140.488L104.482 132.907Z" fill="#AD58B2"/>
<path d="M97.8074 190.403C97.1994 190.403 96.5897 190.25 96.0513 189.937C95.4599 189.595 84.7695 183.398 82.9613 182.372C82.3591 182.03 81.843 181.491 81.5134 180.75L75.7109 170.875L114.916 148.218L101.163 187.9C100.677 189.548 99.2437 190.403 97.8074 190.403Z" fill="#0BBF90"/>
<path d="M79.4922 162.572L94.6282 188.33C95.9469 191.297 100.243 191.014 101.162 187.9L117.595 140.487L79.4922 162.572Z" fill="#57CAAC"/>
<path d="M146.994 0.804367L3.30239 83.8455C1.48065 84.8977 0.00390625 87.4582 0.00390625 89.5634V189.392C0.00390625 191.498 1.48877 194.043 3.32078 195.078L15.1361 201.709C16.9684 202.744 19.93 202.729 21.751 201.676L165.444 118.636C167.266 117.583 168.742 115.023 168.742 112.917V13.0893C168.742 10.9832 167.257 8.43771 165.425 7.40208L153.61 0.77121C151.778 -0.262756 148.817 -0.248672 146.994 0.804367Z" fill="#A8BEF6"/>
<path d="M1.03715 86.1936L1.03516 86.1919C1.58558 85.2749 2.30449 84.4756 3.10887 83.9623C2.30838 84.4781 1.58459 85.2799 1.03715 86.1936ZM105.778 24.623L147.002 0.798515C147.918 0.267021 149.126 3.8147e-05 150.336 3.8147e-05C151.518 3.8147e-05 152.701 0.255424 153.613 0.768677L165.422 7.39619C166.674 8.10844 167.769 9.52219 168.33 11.0163C167.765 9.52135 166.676 8.1093 165.424 7.40202L153.609 0.771149C152.703 0.260384 151.522 0.00502014 150.338 0.00502014C149.127 0.00502014 147.914 0.27198 146.993 0.804306L105.778 24.623Z" fill="white"/>
<path d="M19.4263 96.6929L1.05102 86.1915C1.0497 86.1939 1.04804 86.1964 1.0468 86.1981L1.03711 86.1931C1.58455 85.2794 2.30834 84.4776 3.10883 83.9618C3.17386 83.9204 3.23954 83.8814 3.30556 83.8433L105.778 24.6225L146.993 0.803818C147.914 0.271492 149.127 0.00453186 150.338 0.00453186C151.522 0.00453186 152.703 0.259895 153.609 0.77066L165.424 7.40153C166.676 8.10881 167.765 9.52087 168.33 11.0159C168.514 11.5059 168.641 12.0042 168.698 12.4893C168.522 11.3633 167.844 10.7273 166.914 10.7273C166.47 10.7273 165.969 10.8724 165.438 11.1776L21.7565 94.2228C20.8431 94.7559 20.0199 95.6556 19.4263 96.6929Z" fill="#57CAAC"/>
<path d="M18.4531 200.153V100.325C18.4531 98.2189 19.4374 95.4484 21.2584 94.3962L165.707 10.9129C167.528 9.85905 168.742 11.3661 168.742 13.4714V113.3C168.742 115.406 167.266 117.965 165.445 119.019L21.7512 202.059C19.9302 203.112 18.4531 202.258 18.4531 200.153Z" fill="#0BBF90"/>
<path d="M17.1403 202.376C16.3756 202.266 15.6722 202.046 15.1325 201.715L8.4082 197.933L15.1377 201.71C15.7165 202.036 16.408 202.258 17.1403 202.376Z" fill="#BFC0BE"/>
<path d="M1.92495 193.937C0.790142 192.696 0 190.93 0 189.399V89.5628C0 89.1798 0.0501984 88.7834 0.142722 88.3846C0.0521036 88.7851 0.00355921 89.1814 0.00355921 89.5637V189.392C0.00355921 190.924 0.790142 192.691 1.92495 193.937Z" fill="#C3C5C2"/>
<path d="M18.3368 202.459C17.9307 202.459 17.5269 202.431 17.1387 202.376C16.4064 202.258 15.7149 202.036 15.1361 201.709L8.40661 197.932L3.3211 195.072C2.82311 194.793 2.35006 194.402 1.9253 193.936C0.790489 192.69 0.00390625 190.924 0.00390625 189.392V89.5634C0.00390625 89.1812 0.0524506 88.7848 0.14307 88.3843C0.314864 87.6431 0.633273 86.8918 1.04777 86.1986L19.4272 96.6934C18.8176 97.7158 18.452 98.889 18.452 99.9412V199.763C18.452 199.79 18.4523 199.816 18.453 199.843V200.152C18.453 201.297 18.8897 202.072 19.5819 202.372C19.1745 202.43 18.7545 202.459 18.3368 202.459Z" fill="#0BBF90"/>
<path d="M19.4283 96.6929L1.04883 86.1981C1.05007 86.1964 1.05172 86.1939 1.05305 86.1915L19.4283 96.6929Z" fill="#AC63B7"/>
<path d="M19.582 202.372C18.8899 202.073 18.4531 201.297 18.4531 200.152V199.843C18.4803 201.196 19.1863 202.128 20.2938 202.128C20.6083 202.128 20.9552 202.053 21.328 201.891C20.8125 202.121 20.212 202.281 19.582 202.372ZM21.328 201.891C21.4726 201.827 21.6105 201.758 21.7405 201.682C21.5998 201.763 21.4623 201.833 21.328 201.891ZM21.7405 201.682C21.7441 201.681 21.7476 201.678 21.7512 201.676C21.7476 201.678 21.7441 201.681 21.7405 201.682Z" fill="#9B43A7"/>
<path d="M58.7711 120.234L57.3315 119.402C56.2165 118.758 54.8432 118.758 53.7274 119.402L44.9778 124.459V112.479L61.1832 103.113C62.7437 102.211 63.7054 100.544 63.7054 98.741V92.0214C63.7054 90.2179 62.7437 88.5505 61.1823 87.6484C59.6218 86.747 57.6992 86.7479 56.1395 87.6492L33.663 100.64C30.9542 102.205 29.2852 105.098 29.2852 108.23V170.576C29.2852 172.38 30.2472 174.048 31.8077 174.949C33.3682 175.851 35.2905 175.851 36.8511 174.949L42.4555 171.709C44.0169 170.807 44.9778 169.141 44.9778 167.336V142.887L58.7719 134.913C59.8868 134.27 60.5735 133.078 60.5735 131.789V123.359C60.5735 122.07 59.8868 120.878 58.7711 120.234Z" fill="#DADBD8"/>
<path d="M34.3257 175.627C33.6345 175.627 32.9434 175.486 32.2978 175.199C32.9447 175.484 33.6368 175.626 34.329 175.626C35.0952 175.626 35.8622 175.451 36.5671 175.102C35.8622 175.454 35.091 175.627 34.3257 175.627ZM31.2055 174.542C29.9992 173.596 29.2812 172.133 29.2812 170.578V108.232C29.2812 107.757 29.3211 107.287 29.3971 106.828C29.3227 107.288 29.2845 107.757 29.2845 108.231V170.577C29.2845 172.136 30.0028 173.593 31.2055 174.542Z" fill="#A34DAC"/>
<path d="M34.3297 175.625C33.6374 175.625 32.9454 175.483 32.2985 175.198C32.1319 175.124 31.9685 175.04 31.8086 174.946C31.5964 174.825 31.3952 174.689 31.2062 174.541C30.0035 173.592 29.2852 172.136 29.2852 170.576V108.23C29.2852 107.756 29.3233 107.287 29.3978 106.827C29.5579 105.863 29.8792 104.942 30.3338 104.094L35.3783 107.004C34.6991 108.256 34.3263 109.674 34.3263 111.142V172.907C34.3263 174.082 35.298 174.929 36.3499 174.929C36.6788 174.929 37.0159 174.846 37.3332 174.664L36.8527 174.946C36.7591 175.001 36.6639 175.053 36.5678 175.101C35.8629 175.451 35.0959 175.625 34.3297 175.625Z" fill="#C0C1BF"/>
<path d="M44.9782 112.48V130.288L58.7483 122.331C59.5601 121.862 60.5739 122.448 60.5739 123.386V131.8C60.5739 133.083 59.8906 134.268 58.7814 134.909L44.9782 142.887V167.344C44.9782 169.144 44.0198 170.807 42.4626 171.706L37.3601 174.656C36.0132 175.433 34.3301 174.461 34.3301 172.904V111.144C34.3301 108.013 35.9992 105.12 38.7078 103.554L60.9715 90.6866C62.1867 89.9843 63.7058 90.8624 63.7058 92.2662V98.7619C63.7058 100.553 62.7516 102.207 61.2018 103.103L44.9782 112.48Z" fill="#FAFAF9"/>
<path d="M82.0235 116.135L84.9392 101.11C84.9972 100.853 85.0552 100.588 85.1131 100.314L88.1945 112.561L82.0235 116.135ZM93.0651 74.8173C92.6343 73.3496 91.6569 72.0976 90.3316 71.3348C89.4039 70.8041 88.3767 70.5388 87.3496 70.5388C86.3225 70.5388 85.2954 70.8041 84.3676 71.3348L78.793 74.5602C77.3434 75.3977 76.308 76.8073 75.9518 78.449L59.3356 154.185C59.0457 155.512 59.6504 156.863 60.8183 157.544L62.3424 158.422C63.3033 158.978 64.4878 158.978 65.4487 158.422L72.1664 154.542C73.0361 154.036 73.7733 153.248 74.3697 152.179C74.9661 151.117 75.3803 150.064 75.6039 149.028L78.3043 135.214L91.8888 127.362L93.297 132.975C93.5952 133.837 94.0176 134.434 94.5809 134.766C95.1442 135.098 99.0621 137.345 99.6254 137.685C100.189 138.016 100.934 137.917 101.854 137.386L110.054 132.643L93.0651 74.8173Z" fill="#DADBD8"/>
<path d="M95.9306 135.547C95.2837 135.175 94.7594 134.872 94.5788 134.765C94.0155 134.434 93.5931 133.837 93.2949 132.974L91.8867 127.361L93.2949 132.974C93.5931 133.837 94.0155 134.434 94.5788 134.765C94.7594 134.872 95.2837 135.174 95.9306 135.547Z" fill="#A34DAC"/>
<path d="M99.557 137.644C99.0633 137.35 97.2435 136.304 95.9306 135.549C95.2837 135.176 94.7594 134.873 94.5788 134.767C94.0155 134.435 93.5931 133.838 93.2949 132.976L91.8867 127.362L95.6473 125.19L98.3394 135.886C98.6293 136.715 99.0269 137.296 99.557 137.644Z" fill="#C0C1BF"/>
<path d="M93.2372 115.479L88.1927 112.561L85.1113 100.314V100.305L85.1196 100.256C85.3847 99.0617 85.6497 97.7019 85.9397 96.1928C86.2958 94.3106 86.6272 92.304 86.9419 90.1565C87.2981 91.8811 87.6543 93.4731 88.0105 94.9242C88.3667 96.3752 88.698 97.619 89.0127 98.6637L93.2372 115.479Z" fill="#C0C1BF"/>
<path d="M63.8937 158.838C63.3578 158.838 62.821 158.699 62.3406 158.421L60.8165 157.543C59.8449 156.977 59.2634 155.946 59.2617 154.852C59.2634 155.946 59.8449 156.977 60.8165 157.543L62.3406 158.421C62.821 158.699 63.3578 158.838 63.8937 158.838C64.4305 158.838 64.9664 158.699 65.4468 158.421L65.9215 158.148L65.919 158.156L65.4468 158.421C64.9664 158.699 64.4305 158.838 63.8937 158.838ZM75.95 78.4482C75.9947 78.2384 76.0519 78.032 76.1198 77.8305C76.0527 78.032 75.9956 78.2384 75.95 78.4482Z" fill="#A34DAC"/>
<path d="M63.8937 158.838C63.3578 158.838 62.821 158.699 62.3406 158.421L60.8165 157.543C59.8449 156.977 59.2634 155.946 59.2617 154.852C59.2617 154.631 59.2857 154.407 59.3338 154.184L75.95 78.4482C75.9956 78.2384 76.0527 78.032 76.1198 77.8305C76.2805 77.3537 76.505 76.9018 76.7783 76.4831L81.8228 79.4018C81.4252 79.9905 81.1436 80.6538 80.9945 81.3586L64.4694 156.697C64.2971 157.482 64.9184 158.136 65.6166 158.136C65.7227 158.136 65.8295 158.121 65.9355 158.09L65.9215 158.148L65.4468 158.421C64.9664 158.699 64.4305 158.838 63.8937 158.838Z" fill="#C0C1BF"/>
<path d="M93.2384 115.478L89.0114 98.6639C88.6983 97.6233 88.3637 96.3763 88.0083 94.9236C87.653 93.4717 87.2985 91.883 86.9431 90.1575C86.6308 92.3017 86.2962 94.3133 85.9417 96.1897C85.5872 98.0694 85.2525 99.7104 84.9394 101.113L80.7431 122.7L93.2384 115.478ZM110.056 132.642L101.851 137.384C100.932 137.916 100.191 138.015 99.6273 137.68C99.0632 137.347 98.6358 136.749 98.3434 135.889L95.6497 125.187L78.3004 135.213L75.6066 149.029C75.3772 150.063 74.9655 151.114 74.3699 152.182C73.7752 153.249 73.038 154.037 72.1625 154.542L66.22 157.977C65.3279 158.493 64.2495 157.702 64.4706 156.696L80.9933 81.3609C81.3519 79.7233 82.384 78.3129 83.8344 77.4746L89.1912 74.3785C90.823 73.4357 92.9046 74.2698 93.4364 76.0782L110.056 132.642Z" fill="#FAFAF9"/>
<path d="M141.554 82.8596C140.966 85.9773 140.13 88.8213 139.028 91.3835C137.935 93.9539 136.593 96.2009 135.011 98.1246C133.42 100.057 131.614 101.607 129.593 102.776C127.713 103.871 126.023 104.41 124.524 104.418C123.721 103.199 123.083 101.607 122.611 99.6337C122.022 97.1876 121.733 94.2192 121.733 90.7118C121.733 87.2293 122.022 83.9375 122.611 80.8116C123.19 77.6939 124.035 74.8499 125.129 72.2877C126.222 69.7256 127.572 67.462 129.172 65.5134C130.77 63.5566 132.592 61.9895 134.638 60.8038C136.477 59.7424 138.133 59.2118 139.616 59.2118C140.428 60.4389 141.074 62.0475 141.554 64.0375C142.134 66.4836 142.432 69.4445 142.432 72.9179C142.432 76.4253 142.134 79.7337 141.554 82.8596ZM149.324 103.672C150.741 101.242 152.008 98.6635 153.126 95.9273C154.244 93.191 155.18 90.3719 155.942 87.4864C156.704 84.6009 157.293 81.649 157.698 78.6309C158.105 75.6127 158.312 72.5945 158.312 69.5689C158.312 64.5184 157.74 60.1321 156.605 56.4092C155.462 52.6945 153.863 49.8256 151.801 47.8033C151.055 47.081 150.269 46.4758 149.415 45.9949C148.587 45.5222 145.265 43.5902 144.445 43.1185C142.905 42.2138 141.182 41.7081 139.285 41.6003C136.369 41.4344 133.139 42.3797 129.593 44.4277C126.04 46.4758 122.801 49.2618 119.885 52.7857C116.961 56.3097 114.46 60.2814 112.381 64.7009C110.302 69.1203 108.695 73.8466 107.56 78.8796C106.417 83.9127 105.854 88.9706 105.854 94.0534C105.854 99.1362 106.417 103.539 107.56 107.262C108.695 110.977 110.302 113.854 112.381 115.885C113.126 116.623 113.938 117.229 114.791 117.71C115.611 118.174 118.891 120.081 119.703 120.554C121.26 121.466 123 121.971 124.93 122.071C127.846 122.212 131.084 121.258 134.638 119.21C136.145 118.34 137.578 117.345 138.937 116.225L140.991 118.588C141.298 118.895 141.613 119.144 141.935 119.326C142.515 119.666 146.64 122.038 146.956 122.228C147.544 122.577 148.156 122.726 148.802 122.676C149.796 122.602 150.923 122.204 152.174 121.475L160.879 116.449L149.324 103.672Z" fill="#DADBD8"/>
<path d="M118.139 119.647C117.003 118.988 115.617 118.183 114.969 117.813C115.617 118.183 117.003 118.987 118.139 119.647Z" fill="#A34DAC"/>
<path d="M119.496 120.43C119.177 120.246 118.688 119.963 118.141 119.646C117.005 118.986 115.619 118.183 114.971 117.812C114.902 117.773 114.843 117.739 114.791 117.71C113.938 117.229 113.126 116.624 112.381 115.886C110.302 113.854 108.695 110.977 107.56 107.263C106.417 103.54 105.854 99.1367 105.854 94.0539C105.854 88.9711 106.417 83.9132 107.56 78.8801C108.612 74.2202 110.07 69.8256 111.933 65.6881L116.978 68.6067C115.114 72.736 113.656 77.1306 112.604 81.7988C111.461 86.8318 110.898 91.8897 110.898 96.9725C110.898 102.055 111.461 106.458 112.604 110.173C113.739 113.896 115.346 116.773 117.425 118.805C118.071 119.435 118.767 119.982 119.496 120.43Z" fill="#C0C1BF"/>
<path d="M141.433 63.5566C140.968 61.7905 140.363 60.3445 139.619 59.2185C139.62 59.2185 139.62 59.2185 139.62 59.2185C140.364 60.3445 140.968 61.7905 141.433 63.5566Z" fill="#A34DAC"/>
<path d="M129.521 107.338C129.403 107.338 129.286 107.335 129.171 107.328C127.572 107.245 126.221 106.549 125.128 105.247C124.913 104.99 124.706 104.716 124.523 104.418C126.023 104.41 127.712 103.871 129.593 102.776C131.614 101.607 133.42 100.056 135.01 98.1244C136.592 96.2008 137.934 93.9537 139.027 91.3833C140.129 88.8212 140.966 85.9771 141.554 82.8595C142.134 79.7335 142.432 76.4251 142.432 72.9178C142.432 69.4444 142.134 66.4834 141.554 64.0374C141.515 63.874 141.474 63.714 141.433 63.5556C140.967 61.7895 140.364 60.3434 139.62 59.2174C139.707 59.2174 139.796 59.2149 139.883 59.2149C139.941 59.2149 139.998 59.2158 140.055 59.2199C141.637 59.336 142.979 60.0408 144.072 61.3343C145.174 62.6278 146.01 64.5017 146.598 66.9478C147.178 69.3938 147.477 72.3539 147.477 75.8281C147.477 79.3355 147.178 82.6522 146.598 85.7698C146.01 88.8958 145.174 91.7398 144.072 94.302C142.979 96.8641 141.637 99.1111 140.055 101.043C138.464 102.975 136.658 104.526 134.637 105.695C132.74 106.795 131.033 107.338 129.521 107.338Z" fill="#C0C1BF"/>
<path d="M146.912 122.204C146.878 122.184 146.829 122.155 146.767 122.12C146.822 122.151 146.866 122.177 146.9 122.197C146.904 122.199 146.908 122.202 146.912 122.204ZM144.199 120.636C143.173 120.044 142.196 119.481 141.934 119.327C141.612 119.145 141.296 118.896 140.99 118.589L138.936 116.226L140.99 118.589C141.296 118.896 141.612 119.145 141.934 119.327C142.195 119.481 143.172 120.044 144.199 120.636Z" fill="#A34DAC"/>
<path d="M146.9 122.197C146.866 122.177 146.822 122.151 146.767 122.12C146.326 121.862 145.237 121.234 144.199 120.635C143.172 120.043 142.195 119.48 141.934 119.327C141.612 119.145 141.296 118.896 140.99 118.589L138.936 116.226C139.424 115.828 139.896 115.413 140.369 114.982L146.034 121.499C146.313 121.786 146.607 122.015 146.9 122.197Z" fill="#C0C1BF"/>
<path d="M121.731 90.708C121.731 94.2162 122.022 97.1913 122.607 99.6373C123.191 102.084 124.032 103.955 125.128 105.252C126.224 106.549 127.57 107.242 129.168 107.333C130.765 107.424 132.587 106.878 134.634 105.694C136.658 104.525 138.465 102.973 140.052 101.043C141.637 99.1133 142.98 96.8654 144.075 94.3008C145.171 91.7378 146.011 88.8955 146.596 85.7728C147.18 82.6527 147.473 79.3393 147.473 75.8311C147.473 72.356 147.18 69.3951 146.596 66.9499C146.011 64.5055 145.171 62.6324 144.075 61.3364C142.98 60.0388 141.637 59.3356 140.052 59.2212C138.465 59.1084 136.658 59.6375 134.634 60.8082C132.587 61.9915 130.765 63.5586 129.168 65.5104C127.57 67.4648 126.224 69.7218 125.128 72.2856C124.032 74.8493 123.191 77.6934 122.607 80.8144C122.022 83.9354 121.731 87.233 121.731 90.708ZM160.877 116.447L152.171 121.478C150.918 122.201 149.795 122.6 148.805 122.676C147.812 122.749 146.889 122.358 146.032 121.502L140.365 114.98C138.589 116.618 136.679 118.027 134.634 119.21C131.083 121.26 127.847 122.214 124.925 122.069C122.002 121.925 119.502 120.835 117.424 118.802C115.346 116.77 113.739 113.893 112.601 110.174C111.464 106.457 110.895 102.055 110.895 96.9707C110.895 91.8871 111.464 86.8283 112.601 81.7945C113.739 76.7614 115.346 72.0352 117.424 67.6173C119.502 63.1987 122.002 59.2262 124.925 55.7047C127.847 52.1807 131.083 49.3931 134.634 47.3417C138.182 45.2912 141.413 44.3493 144.326 44.5151C147.237 44.6842 149.727 45.7787 151.795 47.8003C153.861 49.8242 155.463 52.6957 156.602 56.4128C157.74 60.1316 158.31 64.5179 158.31 69.5692C158.31 72.5932 158.106 75.6147 157.698 78.632C157.292 81.6518 156.706 84.6037 155.944 87.49C155.182 90.3755 154.242 93.1872 153.126 95.9235C152.008 98.6622 150.74 101.245 149.321 103.674L160.877 116.447Z" fill="#FAFAF9"/>
</svg>
