<svg width="123" height="142" viewBox="0 0 123 142" fill="none" xmlns="http://www.w3.org/2000/svg">
<path d="M95.3946 26.0542C95.357 26.5051 95.357 26.9184 95.3195 27.3317C95.2819 27.745 95.2443 28.1582 95.2068 28.5715C95.1692 28.9848 95.094 29.3981 95.0565 29.8114L94.9062 31.0513C94.6808 32.7044 94.3802 34.3576 94.042 36.0107C93.8918 36.8373 93.7039 37.6638 93.516 38.4904C93.3282 39.317 93.1028 40.1436 92.8773 40.9701C92.6519 41.7967 92.3889 42.6233 92.1259 43.4874L91.9005 44.1262L91.675 44.7649L91.412 45.4412L91.2993 45.7042C91.2617 45.8169 91.2242 45.892 91.1866 45.9672C91.1115 46.155 90.9987 46.3429 90.9236 46.4932C90.5479 47.1694 90.1346 47.733 89.6837 48.2215C89.2705 48.7099 88.8196 49.1232 88.3687 49.4989C87.9179 49.8746 87.5046 50.2127 87.0537 50.4757C86.6029 50.7763 86.1896 51.0393 85.7387 51.2647C85.3254 51.5277 84.8746 51.7156 84.4613 51.941C84.048 52.1665 83.5971 52.3543 83.1839 52.5046C82.3197 52.8803 81.4931 53.1809 80.629 53.4815C78.9383 54.045 77.2476 54.4583 75.5568 54.7965C74.6927 54.9468 73.8661 55.097 73.002 55.2098C72.5887 55.2849 72.1378 55.3225 71.7245 55.36C71.4991 55.3976 71.3113 55.3976 71.0858 55.4352L70.7477 55.4728H70.5974C70.5223 55.4728 70.4847 55.4728 70.4095 55.4728C69.0194 55.5855 67.8171 54.571 67.7044 53.1809C67.6292 52.1665 68.1552 51.2272 68.9818 50.7763L69.32 50.5885C69.3575 50.5885 69.3951 50.5509 69.4327 50.5133L69.583 50.4382L69.846 50.3255L70.372 50.0625L71.4615 49.574C72.1754 49.2359 72.9268 48.9353 73.6407 48.5972C75.0684 47.9209 76.4586 47.2446 77.8111 46.5307C78.4874 46.1926 79.1261 45.8169 79.7273 45.4412C80.0279 45.2533 80.3284 45.0654 80.629 44.8776C80.9296 44.6897 81.1926 44.5019 81.4556 44.314C81.9816 43.9383 82.4324 43.525 82.8081 43.1869C82.996 42.999 83.1087 42.8487 83.2214 42.6984C83.3341 42.5481 83.3717 42.4354 83.3717 42.3979C83.3717 42.3979 83.3717 42.3979 83.3717 42.3603L83.522 41.8719L83.6723 41.3459L83.8226 40.8199C84.0104 40.106 84.2359 39.3546 84.4237 38.6031L85.626 33.9818C86.0393 32.4414 86.415 30.8634 86.8659 29.2854L87.204 28.1207C87.3167 27.745 87.4294 27.3317 87.5422 26.956C87.6549 26.5802 87.7676 26.167 87.8803 25.7912C87.993 25.4155 88.1433 25.0022 88.256 24.6265L88.2936 24.5514C88.9699 22.6352 91.1115 21.6208 93.0276 22.2971C94.4929 22.9358 95.4698 24.4387 95.3946 26.0542Z" fill="#0BBF90"/>
<path d="M113.912 128.624L114.138 133.997L119.623 134.109L119.21 129.037L113.912 128.624Z" fill="#FFD4C0"/>
<path d="M120.866 140.198C120.866 140.236 120.866 140.274 120.866 140.311C120.866 140.499 120.866 140.687 120.829 140.8C120.791 141.138 120.791 141.326 120.791 141.326H110.158C110.158 141.326 110.121 140.912 110.158 140.311C110.233 139.222 110.572 137.493 112.074 136.366C114.103 134.826 113.314 135.126 113.728 134.412C113.765 134.337 114.141 133.135 114.178 133.06C114.517 132.308 114.855 131.97 116.733 131.97C119.251 131.97 119.476 133.21 119.739 133.849C119.852 134.112 120.002 134.675 120.152 135.352C120.227 135.615 120.265 135.915 120.34 136.216C120.49 136.967 120.641 137.719 120.753 138.32C120.866 138.996 120.866 139.672 120.866 140.198Z" fill="black"/>
<path d="M120.872 140.308C120.872 140.909 120.796 141.322 120.796 141.322H110.164C110.164 141.322 110.126 140.909 110.164 140.308H120.872Z" fill="#282828"/>
<path d="M97.7949 126.256V133.057L92.4973 133.433L91.4077 125.768L97.7949 126.256Z" fill="#FFD4C0"/>
<path d="M80.1384 141.362H99.0744C99.2247 141.099 99.2999 140.761 99.3374 140.31C99.4501 138.695 98.9241 136.14 98.6987 134.524C98.6611 134.337 98.6236 134.149 98.6236 133.998C98.586 133.735 98.5484 133.51 98.5484 133.322C98.5484 132.007 97.3837 132.233 97.3837 132.233C95.4676 134.111 93.2884 131.293 92.011 132.233C92.011 132.233 91.4474 132.608 89.9445 133.961C88.4417 135.313 85.8868 136.215 83.7077 137.117C80.8898 138.282 80.1008 139.484 79.9505 140.273C79.8754 140.949 80.1384 141.362 80.1384 141.362Z" fill="black"/>
<path d="M80.1398 141.362H99.0759C99.2261 141.099 99.3013 140.761 99.3389 140.31H79.9895C79.8768 140.949 80.1398 141.362 80.1398 141.362Z" fill="#282828"/>
<path d="M97.4965 106.496C98.0601 115.551 98.6988 127.686 98.6988 127.686L90.2828 127.573C90.2828 127.573 86.4129 112.545 84.0459 92.444L95.5804 63.8521L108.73 69.8259L95.2046 96.3139H95.1671C96.1064 98.3803 97.1959 101.724 97.4965 106.496Z" fill="#033730"/>
<path d="M120 129.113H113.049C111.81 117.466 108.992 97.4029 108.992 97.4029C106.662 89.7383 108.353 63.5134 108.353 63.5134L121.541 62.3486C121.541 62.3486 121.428 65.5422 120.977 74.5594C120.676 80.5708 120.075 92.1053 119.775 97.2902C121.766 102.963 121.315 107.472 121.202 113.296C121.052 119.758 120 129.113 120 129.113Z" fill="#033730"/>
<path d="M94.941 59.4183C94.941 59.4183 94.2272 69.4499 100.502 70.3892C104.897 71.0654 115.944 70.7649 120.903 67.6464C124.435 65.4297 120.79 55.6235 120.79 55.6235L94.941 59.4183Z" fill="#033730"/>
<path d="M94.5672 67.2709C94.4544 67.2709 94.3042 67.1958 94.3042 67.0455C94.2666 66.8952 94.3793 66.7449 94.5296 66.7074C94.5296 66.7074 95.8822 66.3692 96.5209 65.2045C96.9342 64.4155 96.9717 63.4011 96.5209 62.1988C96.4833 62.0485 96.5584 61.8982 96.7087 61.8231C96.859 61.7855 97.0093 61.8606 97.0844 62.0109C97.5729 63.3635 97.5353 64.5282 97.0469 65.5051C96.2955 66.8952 94.755 67.2709 94.6799 67.3085C94.6047 67.2709 94.6047 67.2709 94.5672 67.2709Z" fill="#011311"/>
<path d="M119.966 66.2567C117.374 66.2567 115.758 64.9041 114.819 63.6642C113.654 62.1238 113.278 60.5082 113.241 60.4331C113.203 60.2828 113.316 60.1325 113.466 60.0949C113.616 60.0574 113.767 60.1701 113.804 60.3204C113.804 60.3204 114.18 61.9359 115.27 63.3637C116.735 65.2422 118.726 65.9937 121.168 65.5804C121.319 65.5428 121.469 65.6555 121.506 65.8058C121.544 65.9561 121.431 66.1064 121.281 66.1439C120.83 66.2191 120.379 66.2567 119.966 66.2567Z" fill="#011311"/>
<path d="M102.605 15.0093C102.605 15.0093 110.007 15.5353 112.938 17.1884C116.92 19.4051 117.183 33.269 118.573 39.2429C119.964 45.2168 122.969 55.3987 122.368 58.1414C121.767 60.8841 99.5997 63.7396 95.1287 62.1616C92.7617 61.335 94.3022 45.1792 92.2357 38.4915C90.1693 31.8038 87.915 27.2952 88.2531 24.327C88.5161 21.8849 95.3917 18.2029 95.3917 18.2029L102.605 15.0093Z" fill="#0BBF90"/>
<path d="M99.8621 21.2446C97.7205 21.2446 95.9922 19.8545 95.9171 19.7793C95.8044 19.7042 95.8044 19.5539 95.8795 19.4412C95.9547 19.3285 96.1049 19.3285 96.2177 19.4036C96.2552 19.4412 98.209 20.9816 100.426 20.7186C101.703 20.5683 102.793 19.8169 103.732 18.5395C103.807 18.4268 103.957 18.3892 104.07 18.5019C104.183 18.577 104.22 18.7273 104.108 18.84C103.093 20.2302 101.853 21.0568 100.463 21.2446C100.275 21.207 100.088 21.2446 99.8621 21.2446Z" fill="#099C76"/>
<path d="M93.5158 8.95864C93.5158 8.95864 92.5013 7.23034 91.0736 7.98178C89.6459 8.73321 90.6979 13.8054 93.5533 13.0539L93.5158 8.95864Z" fill="#EBBCA6"/>
<path d="M103.211 16.2859C103.211 16.2859 103.737 16.8119 101.144 18.3523C99.7917 19.1413 97.8755 19.254 96.8611 18.9535C96.4478 18.8408 96.1848 18.728 96.1848 18.728C96.0721 16.4737 95.3582 15.1963 95.1328 14.8957C95.0952 14.8582 95.0952 14.8206 95.0952 14.8206L101.407 9.26001L103.211 16.2859Z" fill="#FFD4C0"/>
<path d="M101.144 12.4187C101.144 12.4187 100.656 17.7163 96.8235 18.9561C96.4102 18.8434 96.1472 18.7307 96.1472 18.7307C96.0345 16.4764 95.3206 15.199 95.0952 14.8984L101.144 12.4187Z" fill="#EBBCA6"/>
<path d="M98.9998 15.6848C96.1444 17.0374 93.4017 16.3611 92.4624 13.8438C92.237 13.2427 91.974 12.3409 91.711 11.4016C91.711 11.4016 91.711 11.4016 91.711 11.3641C91.6734 11.1762 91.5983 10.9508 91.5607 10.7629C91.5231 10.6126 91.4855 10.4624 91.448 10.3121C91.0347 8.62135 90.6965 7.11849 90.6965 7.11849C90.0578 2.83533 93.7774 0.242898 97.497 0.994329C101.179 1.74576 101.217 7.11849 101.855 9.59821C102.419 12.0779 101.442 14.5201 98.9998 15.6848Z" fill="#FFD4C0"/>
<path d="M100.989 5.2411C100.989 5.35382 100.989 5.39139 100.989 5.39139C100.989 5.39139 100.388 5.80468 100.388 7.2324L99.4861 7.42026C99.4861 7.42026 98.8474 6.40582 98.7347 4.48967C98.7347 4.33939 98.6971 4.1891 98.6595 4.03882C98.0584 2.42324 94.7897 1.67181 92.8735 2.57353C90.8071 3.55039 90.6568 5.72954 90.6568 5.72954C90.6568 5.72954 90.6192 6.51854 90.7695 7.38268C90.4314 6.55611 89.9429 4.9781 90.9198 2.98681C92.3475 0.0562307 96.6307 -0.9582 98.9601 1.03309C100.876 2.76138 100.989 4.67753 100.989 5.2411Z" fill="#3A383D"/>
<path d="M96.9722 2.646C96.9722 2.646 95.2814 2.45814 94.6427 2.94657C94.004 3.435 93.0272 4.07372 92.0879 3.73558C91.1486 3.35986 90.6602 5.31358 90.6602 5.31358C90.6602 5.31358 90.8856 2.00729 93.5532 1.96972C96.2207 1.93214 96.1456 1.70672 96.9722 2.646Z" fill="#3A383D"/>
<path d="M100.312 6.36718C100.312 6.36718 100.801 4.7516 102.417 5.05217C103.995 5.35275 104.483 10.5376 101.515 10.6128L100.312 6.36718Z" fill="#FFD4C0"/>
<path d="M53.4636 53.4067L53.2006 54.3084L52.9376 55.2101C52.7873 55.8112 52.5995 56.3748 52.4116 56.976C52.0735 58.1407 51.6977 59.3054 51.322 60.5077C50.9463 61.6724 50.533 62.8371 50.1197 64.0394C49.7065 65.2041 49.2556 66.3688 48.7672 67.5711C48.5042 68.1723 48.2412 68.7734 47.9782 69.3746C47.8279 69.6751 47.6776 70.0133 47.5273 70.3138C47.377 70.652 47.1892 70.9526 46.9637 71.3283C46.851 71.5161 46.7383 71.704 46.6256 71.8919C46.5129 72.0797 46.3626 72.3051 46.1747 72.5306C46.1372 72.6057 46.0996 72.6433 46.0244 72.7184L45.9493 72.7936L45.8742 72.9063C45.8366 72.9814 45.7614 73.0566 45.6863 73.1317L45.5736 73.2444C45.536 73.282 45.4984 73.3196 45.4609 73.3571L45.3106 73.4699C45.273 73.5074 45.1979 73.545 45.1603 73.6202C45.1227 73.6577 45.0476 73.6953 44.9724 73.7704L44.8597 73.8456L44.747 73.9207L44.6343 73.9959L44.5591 74.0334L44.484 74.071L44.3337 74.1462L44.2586 74.1837L44.1834 74.2213C44.1459 74.2589 44.0707 74.2589 44.0331 74.2964L43.958 74.334L43.8829 74.3716H43.8453C43.2817 74.5594 42.6806 74.7849 42.0794 74.9727C41.4783 75.1606 40.8396 75.3484 40.2008 75.5363C39.5621 75.7241 38.9234 75.8744 38.3223 75.9872C37.0448 76.2502 35.805 76.4756 34.5651 76.6259C32.8368 76.8513 31.2588 75.6114 31.0334 73.8831C30.8455 72.4179 31.7097 71.0277 33.0622 70.5393H33.0998C34.1894 70.126 35.279 69.7503 36.2934 69.337C36.8194 69.1491 37.3078 68.9237 37.8338 68.6983C38.3223 68.4728 38.8483 68.2474 39.3367 68.022C39.8627 67.7966 40.3511 67.5336 40.8771 67.2706L40.9147 67.233H40.8771L40.802 67.2706C40.7644 67.2706 40.7268 67.3081 40.6893 67.3081L40.5766 67.3457C40.539 67.3457 40.5014 67.3833 40.5014 67.3833L40.4263 67.4208L40.3511 67.4584L40.2384 67.5336L40.1633 67.6087C40.1257 67.6463 40.1257 67.6463 40.0881 67.6838L40.0506 67.7214L40.013 67.759L39.9754 67.7966L39.9378 67.8341C39.9378 67.8341 39.9754 67.7966 39.9754 67.7214C40.013 67.6463 40.0506 67.5711 40.0881 67.496C40.1633 67.3081 40.276 67.1203 40.3511 66.8948C40.4263 66.6694 40.539 66.444 40.6141 66.181C40.802 65.6925 40.9898 65.1666 41.1401 64.6405C41.4783 63.5885 41.8164 62.499 42.117 61.3718C42.4176 60.2447 42.7181 59.1175 43.0187 57.9904C43.3193 56.8632 43.6199 55.7361 43.8829 54.5714L44.2961 52.8431L44.7094 51.1524V51.1148C45.273 48.7102 47.7152 47.2449 50.1197 47.8085C52.5243 48.3721 53.9896 50.8142 53.426 53.2188C53.5012 53.2939 53.5012 53.3691 53.4636 53.4067Z" fill="#186992"/>
<path d="M60.5639 115.624H42.0036L59.3616 108.974C59.4744 108.937 59.5119 108.824 59.4744 108.711C59.4368 108.598 59.3241 108.561 59.2114 108.598L41.7406 115.286L54.9658 102.061C55.0409 101.986 55.0409 101.873 54.9658 101.798C54.8906 101.723 54.7779 101.723 54.7028 101.798L41.4025 115.098L48.541 97.5899C48.5786 97.4772 48.541 97.3645 48.4283 97.3269C48.3156 97.2894 48.2029 97.3269 48.1653 97.4397L41.1395 114.685V96.1622C41.1395 96.0495 41.0643 95.9744 40.9516 95.9744C40.8389 95.9744 40.7637 96.0495 40.7637 96.1622V114.723L34.1136 97.3645C34.076 97.2518 33.9633 97.2142 33.8506 97.2518C33.7379 97.2894 33.7003 97.4021 33.7379 97.5148L40.4256 114.986L27.2004 101.76C27.1253 101.685 27.0126 101.685 26.9374 101.76C26.8623 101.836 26.8623 101.948 26.9374 102.023L39.8996 114.986L22.8797 108.11C22.767 108.072 22.6543 108.11 22.6167 108.223C22.5791 108.335 22.6167 108.448 22.7294 108.486L40.3129 115.662H21.3768C21.2641 115.662 21.189 115.737 21.189 115.85C21.189 115.962 21.2641 116.038 21.3768 116.038H39.9372L22.5791 122.65C22.4664 122.688 22.4288 122.8 22.4664 122.913C22.504 122.988 22.5791 123.026 22.6543 123.026C22.6918 123.026 22.6918 123.026 22.7294 123.026L40.2002 116.338L26.9374 129.526C26.8623 129.601 26.8623 129.714 26.9374 129.789C26.975 129.826 27.0126 129.826 27.0877 129.826C27.1253 129.826 27.2004 129.826 27.238 129.789L40.3505 116.676L33.3997 133.734C33.3621 133.846 33.3997 133.959 33.5124 133.997C33.55 133.997 33.55 133.997 33.5876 133.997C33.6627 133.997 33.7379 133.959 33.7754 133.884L40.8013 116.639V135.387C40.8013 135.5 40.8765 135.575 40.9892 135.575C41.1019 135.575 41.177 135.5 41.177 135.387V116.827L47.8272 134.185C47.8648 134.26 47.9399 134.297 48.015 134.297C48.0526 134.297 48.0526 134.297 48.0902 134.297C48.2029 134.26 48.2405 134.147 48.2029 134.034L41.5152 116.564L54.7404 129.789C54.7779 129.826 54.8155 129.826 54.8906 129.826C54.9282 129.826 55.0033 129.826 55.0409 129.789C55.1161 129.714 55.1161 129.601 55.0409 129.526L41.6279 116.113L59.1362 123.251C59.1738 123.251 59.1738 123.251 59.2114 123.251C59.2865 123.251 59.3616 123.214 59.3992 123.139C59.4368 123.026 59.3992 122.913 59.2865 122.876L42.229 116H60.5639C60.6767 116 60.7518 115.925 60.7518 115.812C60.7518 115.699 60.6767 115.624 60.5639 115.624Z" fill="#076558"/>
<path d="M40.9526 137.566C35.129 137.566 29.6812 135.311 25.5483 131.179C21.453 127.083 19.1611 121.598 19.1611 115.774C19.1611 109.951 21.4154 104.503 25.5483 100.37C29.6436 96.2745 35.129 93.9827 40.9526 93.9827C46.7762 93.9827 52.2241 96.237 56.357 100.37C60.4523 104.465 62.7441 109.951 62.7441 115.774C62.7441 121.598 60.4898 127.046 56.357 131.179C52.2241 135.311 46.7762 137.566 40.9526 137.566ZM40.9526 96.8005C30.4702 96.8005 21.9414 105.329 21.9414 115.812C21.9414 126.294 30.4702 134.823 40.9526 134.823C51.4351 134.823 59.9638 126.294 59.9638 115.812C59.9638 105.329 51.4351 96.8005 40.9526 96.8005Z" fill="black"/>
<path d="M40.9524 118.893C42.654 118.893 44.0333 117.514 44.0333 115.812C44.0333 114.111 42.654 112.731 40.9524 112.731C39.2509 112.731 37.8716 114.111 37.8716 115.812C37.8716 117.514 39.2509 118.893 40.9524 118.893Z" fill="#033730"/>
<path d="M42.6441 115.813C42.6441 116.752 41.8927 117.504 40.9534 117.504C40.0141 117.504 39.2627 116.752 39.2627 115.813C39.2627 114.874 40.0141 114.122 40.9534 114.122C41.8927 114.122 42.6441 114.874 42.6441 115.813Z" fill="#011D19"/>
<path d="M41.365 116.827C41.3274 116.827 41.2523 116.827 41.2147 116.827C40.7639 116.752 40.4633 116.301 40.576 115.851L53.3879 52.1292C53.4631 51.7535 53.8012 51.4529 54.2145 51.4529H64.7721C65.2229 51.4529 65.5987 51.8286 65.5987 52.2795C65.5987 52.7303 65.2229 53.106 64.7721 53.106H54.8908L42.1916 116.151C42.1165 116.564 41.7783 116.827 41.365 116.827Z" fill="#0D241F"/>
<path d="M6.04874 135.012C5.59788 135.012 5.22217 134.637 5.22217 134.186V128.249C5.22217 128.174 5.22217 128.099 5.25974 128.062L13.4503 95.4495C13.5255 95.0738 13.8636 94.8108 14.2393 94.8108H57.9351C58.3859 94.8108 58.7616 95.1865 58.7616 95.6374C58.7616 96.0882 58.3859 96.4639 57.9351 96.4639H14.8405L6.83774 128.362V134.223C6.87532 134.637 6.4996 135.012 6.04874 135.012Z" fill="#033730"/>
<path d="M6.04729 139.934C8.43356 139.934 10.368 137.999 10.368 135.613C10.368 133.227 8.43356 131.292 6.04729 131.292C3.66102 131.292 1.72656 133.227 1.72656 135.613C1.72656 137.999 3.66102 139.934 6.04729 139.934Z" fill="#033730"/>
<path d="M8.00016 135.614C8.00016 136.703 7.09845 137.605 6.00887 137.605C4.9193 137.605 4.01758 136.703 4.01758 135.614C4.01758 134.524 4.9193 133.623 6.00887 133.623C7.13602 133.623 8.00016 134.524 8.00016 135.614Z" fill="#021D19"/>
<path d="M29.2292 74.8599H59.7749C60.376 74.8599 60.902 75.2356 60.902 75.6864V91.3162C60.902 91.7671 60.4136 92.1428 59.7749 92.1428H29.2292C28.6281 92.1428 28.1021 91.7671 28.1021 91.3162V75.6864C28.1021 75.2356 28.5905 74.8599 29.2292 74.8599Z" fill="#076558"/>
<path d="M62.4417 75.6866H26.5234C26.0725 75.6866 25.6968 75.3109 25.6968 74.86C25.6968 74.4092 26.0725 74.0334 26.5234 74.0334H62.4417C62.8926 74.0334 63.2683 74.4092 63.2683 74.86C63.2683 75.3109 62.8926 75.6866 62.4417 75.6866Z" fill="#033730"/>
<path d="M66.6127 52.2796C66.6127 52.2796 71.6097 51.9414 73.9016 52.1668C76.1935 52.3923 75.3669 52.5426 74.9912 56.1119C74.6155 59.6812 69.2803 84.4784 69.2803 84.4784H60.188L66.6127 52.2796Z" fill="#076558"/>
<path d="M45.947 51.1143C44.9701 53.4438 45.0828 55.4351 43.9557 57.8772C42.3025 61.5217 43.7678 63.7384 44.7071 65.5042C45.6464 67.2701 45.0077 71.9665 44.6695 73.2816C44.3314 74.5966 42.3401 75.874 42.0395 77.3393C41.7765 78.8046 44.106 83.8016 49.0654 86.9576C54.0624 90.1136 62.2906 92.2552 63.6807 88.6483C65.0709 85.0415 67.2125 74.9347 67.8136 70.8018C68.5275 65.7297 69.4668 60.1315 69.2038 54.8339C68.9408 49.5363 67.1749 48.1086 65.8975 47.0566C65.2963 46.5682 63.4553 46.3052 61.6143 46.1549C59.4727 45.967 57.3312 45.967 57.3312 45.967C57.3312 45.967 54.4757 46.493 52.0711 46.9063C51.0567 47.0566 49.6666 47.5826 49.103 47.6953C47.0741 48.1086 46.9238 48.7849 45.947 51.1143Z" fill="#186992"/>
<path d="M52.1104 46.8697C51.885 48.1847 51.3965 52.28 54.5901 51.9419C58.3473 51.491 61.6536 46.1183 61.6536 46.1183C59.512 45.9304 57.3704 45.9304 57.3704 45.9304C57.3704 45.9304 54.515 46.4564 52.1104 46.8697Z" fill="#FFD4C0"/>
<path d="M61.6522 88.3489C61.765 88.3865 61.8401 88.3113 61.8777 88.2362C64.921 80.008 66.2735 71.6671 66.8747 66.1065C67.5134 60.0951 67.4383 55.9246 67.4383 55.8871C67.4383 55.7744 67.3255 55.6992 67.2128 55.6992C67.1001 55.6992 67.025 55.8119 67.025 55.9247C67.025 55.9622 67.1001 60.0951 66.4614 66.1065C65.8603 71.6296 64.5077 79.9704 61.502 88.1235C61.4644 88.1986 61.5395 88.3113 61.6522 88.3489Z" fill="#684D3C"/>
<path d="M55.7552 27.7829C55.7552 27.7829 50.3825 26.8437 48.5415 31.4274C47.3016 34.5458 48.4663 36.3493 47.3392 38.1527C46.212 39.9561 45.4606 45.141 50.3825 45.0659C55.3043 44.9907 57.3332 44.4271 61.0904 44.8029C64.8851 45.1786 67.6654 41.722 66.1625 39.3926C64.6597 37.0631 65.0729 33.9822 63.4949 31.2395C61.9921 28.4968 58.8361 27.3321 55.7552 27.7829Z" fill="#3A383D"/>
<path d="M52.9414 46.9807C54.9703 51.6772 60.2303 47.394 60.4181 46.3045C59.7794 43.449 60.1927 41.7583 60.1927 41.7583L53.1293 42.5849C53.1293 42.7727 53.1293 42.9606 53.1293 43.1485C53.1293 44.0126 53.1668 44.8767 53.0917 45.816C53.0541 46.2669 53.0541 46.4923 52.9414 46.9807Z" fill="#FFD4C0"/>
<path d="M55.0052 50.8893C54.7797 50.8893 54.5919 50.8517 54.3665 50.8141C52.4127 50.4008 52.7509 47.0945 52.7509 46.9442C52.7509 46.8315 52.8636 46.7188 53.0139 46.7564C53.1266 46.7564 53.2393 46.8691 53.2017 47.0194C53.2017 47.057 52.9012 50.0627 54.4792 50.4008C57.4849 51.0395 60.0398 46.005 60.0398 45.9674C60.1149 45.8547 60.2276 45.8171 60.3403 45.8547C60.453 45.9298 60.4906 46.0425 60.453 46.1552C60.3403 46.3431 58.0109 50.8893 55.0052 50.8893Z" fill="white"/>
<path d="M53.0889 45.8194C56.4327 45.2934 58.7997 42.0247 58.7997 42.0247L53.1264 43.1518C53.164 44.016 53.164 44.9177 53.0889 45.8194Z" fill="#342216"/>
<path d="M51.4 38.0781C51.4 38.0781 51.0243 36.3873 49.6341 36.6879C48.2815 36.9509 47.9058 41.3843 50.4231 41.4219L51.4 38.0781Z" fill="#EBBCA6"/>
<path d="M60.0766 42.0589C59.25 43.7496 53.7646 45.1022 51.9612 44.0502C50.8716 43.4114 49.9323 42.2467 49.5942 39.8421V39.8046C49.5566 39.6543 49.5566 39.504 49.5566 39.3913C49.519 39.1283 49.519 38.9029 49.4814 38.6774C49.4814 38.6399 49.4814 38.5647 49.4814 38.5271C49.4814 38.3769 49.4814 38.2266 49.4814 38.1138C49.4814 37.9636 49.4814 37.7757 49.4814 37.663C49.6317 35.296 49.7444 32.6284 52.0363 31.351C54.3282 30.0735 57.7096 29.9608 59.4755 32.2527C59.4755 32.2527 61.3165 34.3943 60.9408 37.7757C60.4899 41.1571 60.6778 40.819 60.0766 42.0589Z" fill="#FFD4C0"/>
<path d="M57.6343 31.6532C57.6343 31.6532 58.3857 35.4479 59.4001 36.2745C60.4146 37.101 61.4666 35.4103 61.4666 35.4103C61.4666 35.4103 59.851 29.5492 57.6343 31.6532Z" fill="#3A383D"/>
<path d="M53.0146 31.314C53.0146 31.314 54.7805 34.5451 57.5232 34.1318C60.2284 33.681 58.688 31.314 58.688 31.314C58.688 31.314 53.9539 28.7591 53.0146 31.314Z" fill="#3A383D"/>
<path d="M53.764 31.1251C53.764 31.1251 52.0357 34.9198 49.5184 33.9806C47.0011 33.0413 51.0212 29.5095 52.7495 29.8477C54.4778 30.1858 53.764 31.1251 53.764 31.1251Z" fill="#3A383D"/>
<path d="M60.038 36.7246C60.038 36.7246 60.9397 35.4096 62.2923 36.1235C63.6449 36.8373 62.668 41.6465 59.9629 40.8951L60.038 36.7246Z" fill="#FFD4C0"/>
<path d="M58.9121 35.1082C58.9121 35.1082 57.7849 39.3162 58.7994 39.0156C59.8138 38.715 60.3398 36.1602 60.3398 36.1602L58.9121 35.1082Z" fill="#3A383D"/>
<path d="M19.9513 113.597L18.4484 119.233L13.0381 117.092L14.5785 111.944L19.9513 113.597Z" fill="#FFD4C0"/>
<path d="M0.680909 121.41L17.4754 125.881C17.6632 125.693 17.8135 125.393 17.9262 125.017C18.4147 123.627 18.565 121.222 18.7153 119.757C18.7153 119.569 18.7528 119.419 18.7528 119.269C18.7904 119.006 18.828 118.818 18.8655 118.667C19.1661 117.503 18.6777 117.691 18.6777 117.691C17.6257 117.653 16.461 117.728 15.8222 117.315C15.409 117.089 15.0708 116.751 14.6951 116.526C14.2442 116.225 13.7934 116 13.3425 116.15C13.3425 116.15 12.7789 116.376 11.1258 117.202C9.77322 117.878 7.85707 118.141 6.05364 118.367C5.64035 118.404 5.26464 118.48 4.85135 118.517C2.29648 118.855 1.28205 119.607 0.868767 120.245C0.831195 120.321 0.793624 120.358 0.756052 120.433C0.530623 120.997 0.680909 121.41 0.680909 121.41Z" fill="black"/>
<path d="M0.675538 121.411L17.47 125.882C17.6579 125.694 17.8082 125.394 17.9209 125.018L0.863395 120.284C0.825824 120.359 0.788253 120.397 0.750681 120.472C0.525252 120.998 0.675538 121.411 0.675538 121.411Z" fill="#282828"/>
<path d="M6.08558 118.406C6.04801 118.781 6.23587 119.27 8.22716 119.044C10.9699 118.744 13.7502 117.692 14.727 116.527C14.2762 116.226 13.8253 116.001 13.3745 116.151C13.3745 116.151 12.8109 116.377 11.1577 117.203C9.80517 117.917 7.88902 118.18 6.08558 118.406Z" fill="#FFD4C0"/>
<path d="M54.1773 83.8401C54.1773 83.8401 46.4376 82.0742 42.3423 77.9038C42.3423 77.9038 26.9004 80.3084 22.9554 84.4413C19.0104 88.5741 13.5625 113.597 13.5625 113.597L19.7618 115.851C19.7618 115.851 22.5045 107.811 25.623 103.302C28.3657 99.3572 30.5073 91.0163 30.5073 91.0163L54.1773 83.8401Z" fill="#394268"/>
<path d="M32.9494 116.151L31.7095 121.862L26.1865 119.984L27.5015 114.761L32.9494 116.151Z" fill="#FFD4C0"/>
<path d="M14.0579 124.868L31.0402 128.55C31.2281 128.362 31.3408 128.024 31.4535 127.648C31.8668 126.22 31.9044 123.853 32.0171 122.35C32.0171 122.162 32.0546 122.012 32.0546 121.862C32.0922 121.599 32.0922 121.411 32.1298 121.261C32.3928 120.096 31.9043 120.284 31.9043 120.284C30.8523 120.284 29.6876 120.434 29.0113 120.058C28.5981 119.833 28.2223 119.532 27.8466 119.307C27.3582 119.006 26.9449 118.819 26.494 119.006C26.494 119.006 25.9305 119.232 24.3149 120.171C22.9999 120.923 21.1213 121.261 19.3179 121.561C18.9046 121.636 18.5289 121.712 18.1156 121.787C15.5983 122.238 14.5839 123.027 14.2081 123.703C14.1706 123.778 14.133 123.816 14.133 123.891C13.9076 124.454 14.0579 124.868 14.0579 124.868Z" fill="black"/>
<path d="M14.0505 124.867L31.0329 128.549C31.2207 128.362 31.3335 128.023 31.4462 127.648L14.2008 123.703C14.1633 123.778 14.1257 123.815 14.1257 123.89C13.9003 124.454 14.0505 124.867 14.0505 124.867Z" fill="#282828"/>
<path d="M19.3107 121.599C19.2732 121.975 19.4986 122.426 21.4523 122.125C24.195 121.674 26.9002 120.547 27.8395 119.307C27.351 119.007 26.9378 118.819 26.4869 119.007C26.4869 119.007 25.9233 119.232 24.3077 120.171C22.9927 120.96 21.1142 121.298 19.3107 121.599Z" fill="#FFD4C0"/>
<path d="M65.9364 83.9522C65.9364 83.9522 66.5376 88.2354 63.081 92.9318C59.6244 97.6659 41.7403 95.8249 38.697 95.0358C38.697 95.0358 37.4947 103.565 36.067 109.463C34.6393 115.362 32.8734 119.645 32.8734 119.645L26.2984 117.992C26.2984 117.992 25.9227 93.3827 28.966 86.9955C32.0093 80.6084 65.9364 83.9522 65.9364 83.9522Z" fill="#394268"/>
<path d="M26.5614 101.16C26.5238 101.16 26.5238 101.16 26.5614 101.16C26.4111 101.16 26.3359 101.047 26.3359 100.897C26.3735 100.334 27.2752 87.2962 29.9052 85.2298C32.4977 83.2385 45.3847 82.487 45.9107 82.4495C46.0234 82.4495 46.1361 82.5246 46.1361 82.6749C46.1361 82.7876 46.061 82.9003 45.9107 82.9003C45.7604 82.9003 32.6104 83.6893 30.1682 85.6055C27.6885 87.5216 26.7868 100.784 26.7492 100.935C26.7492 101.085 26.6741 101.16 26.5614 101.16Z" fill="#141D48"/>
<path d="M32.349 117.992H32.3114C32.1987 117.954 32.1236 117.841 32.1611 117.729C32.1611 117.691 33.2131 113.483 34.6784 107.847C36.1437 102.249 36.9703 92.443 36.9703 92.3303C36.9703 92.2552 37.0079 92.2176 37.0454 92.18C37.083 92.1425 37.1582 92.1424 37.2333 92.1424C37.346 92.18 50.1955 94.8476 57.2214 93.6829C60.1144 93.1945 62.256 91.4662 63.6461 88.498C64.6981 86.2813 64.8484 84.1397 64.8484 84.1021C64.8484 83.9894 64.9611 83.8767 65.1114 83.8767C65.2241 83.8767 65.3368 83.9894 65.3368 84.1397C65.3368 84.2149 65.149 86.3564 64.097 88.6483C62.6692 91.7292 60.3398 93.6077 57.3341 94.0962C50.7591 95.1857 39.2622 92.969 37.4212 92.5933C37.2709 94.1713 36.4819 102.775 35.1293 107.922C33.664 113.558 32.6496 117.729 32.612 117.804C32.5369 117.917 32.4241 117.992 32.349 117.992Z" fill="#141D48"/>
<path d="M74.7292 78.4667V95.1108C74.7292 95.5993 74.2407 96.0126 73.602 96.0126H43.0563C42.4552 96.0126 41.9292 95.5993 41.9292 95.1108V78.4667C41.9292 78.2412 42.0043 78.0534 42.1546 77.9031C42.3425 77.7152 42.6806 77.5649 43.0188 77.5649H73.5644C74.128 77.5649 74.6165 77.9031 74.654 78.3539C74.7292 78.3915 74.7292 78.4291 74.7292 78.4667Z" fill="#076558"/>
<path d="M74.7287 78.4671V81.1347L41.9663 79.5191V78.4671C41.9663 78.2417 42.0414 78.0539 42.1917 77.9036L74.6911 78.3544C74.7287 78.392 74.7287 78.4296 74.7287 78.4671Z" fill="#033730"/>
<path d="M0.298705 122.125L0.0357041 122.989C-0.114582 123.552 0.223562 124.154 0.787135 124.304L30.3559 131.781C30.9195 131.931 31.5207 131.555 31.6334 130.992L31.9339 129.677C32.0842 129.113 31.7085 128.549 31.1449 128.399L1.53857 121.411C1.01256 121.261 0.448991 121.599 0.298705 122.125Z" fill="#011D19"/>
<path d="M75.8924 78.9554H39.974C39.5232 78.9554 39.1475 78.5797 39.1475 78.1288C39.1475 77.678 39.5232 77.3022 39.974 77.3022H75.8924C76.3433 77.3022 76.719 77.678 76.719 78.1288C76.719 78.5797 76.3433 78.9554 75.8924 78.9554Z" fill="#033730"/>
<path d="M25.5102 136.44C25.0593 136.44 24.6836 136.064 24.6836 135.613V130.691C24.6836 130.616 24.6836 130.541 24.7212 130.503L33.5129 95.4114C33.5881 95.0357 33.9262 94.7727 34.3019 94.7727H77.9976C78.4485 94.7727 78.8242 95.1484 78.8242 95.5993C78.8242 96.0501 78.4485 96.4259 77.9976 96.4259H34.9406L26.3367 130.804V135.613C26.3367 136.064 25.961 136.44 25.5102 136.44Z" fill="#033730"/>
<path d="M25.5082 141.512C27.8945 141.512 29.829 139.578 29.829 137.191C29.829 134.805 27.8945 132.871 25.5082 132.871C23.122 132.871 21.1875 134.805 21.1875 137.191C21.1875 139.578 23.122 141.512 25.5082 141.512Z" fill="#033730"/>
<path d="M27.4631 137.191C27.4631 138.281 26.5613 139.183 25.4718 139.183C24.3822 139.183 23.4805 138.281 23.4805 137.191C23.4805 136.102 24.3822 135.2 25.4718 135.2C26.5989 135.238 27.4631 136.102 27.4631 137.191Z" fill="#021D19"/>
<path d="M82.2427 115.625H63.6823L81.0404 108.975C81.1531 108.938 81.1907 108.825 81.1531 108.712C81.1155 108.6 81.0028 108.562 80.8901 108.6L63.4193 115.287L76.6445 102.062C76.7196 101.987 76.7196 101.874 76.6445 101.799C76.5694 101.724 76.4566 101.724 76.3815 101.799L63.0812 115.1L70.2198 97.5912C70.2573 97.4784 70.2198 97.3657 70.107 97.3282C69.9943 97.2906 69.8816 97.3282 69.844 97.4409L62.8182 114.686V96.1634C62.8182 96.0507 62.743 95.9756 62.6303 95.9756C62.5176 95.9756 62.4425 96.0507 62.4425 96.1634V114.724L55.7923 97.3657C55.7547 97.253 55.642 97.2154 55.5293 97.253C55.4166 97.2906 55.379 97.4033 55.4166 97.516L62.1043 114.987L48.8791 101.762C48.804 101.686 48.6913 101.686 48.6161 101.762C48.541 101.837 48.541 101.949 48.6161 102.025L61.5783 114.987L44.5584 108.111C44.4457 108.074 44.333 108.111 44.2954 108.224C44.2578 108.337 44.2954 108.449 44.4081 108.487L61.9916 115.663H43.0555C42.9428 115.663 42.8677 115.738 42.8677 115.851C42.8677 115.964 42.9428 116.039 43.0555 116.039H61.6159L44.2578 122.689C44.1451 122.727 44.1075 122.839 44.1451 122.952C44.1827 123.027 44.2578 123.065 44.333 123.065C44.3705 123.065 44.3705 123.065 44.4081 123.065L61.8789 116.377L48.6537 129.527C48.5785 129.602 48.5785 129.715 48.6537 129.79C48.6913 129.828 48.7288 129.828 48.804 129.828C48.8416 129.828 48.9167 129.828 48.9543 129.79L62.0667 116.677L55.116 133.735C55.0784 133.848 55.116 133.96 55.2287 133.998C55.2663 133.998 55.2663 133.998 55.3039 133.998C55.379 133.998 55.4541 133.96 55.4917 133.885L62.5176 116.64V135.388C62.5176 135.501 62.5927 135.576 62.7055 135.576C62.8182 135.576 62.8933 135.501 62.8933 135.388V116.828L69.5435 134.186C69.581 134.261 69.6562 134.299 69.7313 134.299C69.7689 134.299 69.7689 134.299 69.8065 134.299C69.9192 134.261 69.9568 134.148 69.9192 134.036L63.1563 116.565L76.3815 129.79C76.4191 129.828 76.4566 129.828 76.5318 129.828C76.5694 129.828 76.6445 129.828 76.6821 129.79C76.7572 129.715 76.7572 129.602 76.6821 129.527L63.269 116.114L80.7774 123.253C80.8149 123.253 80.8149 123.253 80.8525 123.253C80.9277 123.253 81.0028 123.215 81.0404 123.14C81.0779 123.027 81.0404 122.914 80.9276 122.877L63.9453 116.001H82.2802C82.3929 116.001 82.4681 115.926 82.4681 115.813C82.4305 115.701 82.3554 115.625 82.2427 115.625Z" fill="#076558"/>
<path d="M62.668 137.567C56.8444 137.567 51.3965 135.313 47.2636 131.18C43.1683 127.085 40.8765 121.599 40.8765 115.776C40.8765 109.952 43.1308 104.504 47.2636 100.372C51.3589 96.2762 56.8444 93.9844 62.668 93.9844C68.4916 93.9844 73.9394 96.2387 78.0723 100.372C82.1676 104.467 84.4595 109.952 84.4595 115.776C84.4595 121.599 82.2052 127.047 78.0723 131.18C73.9394 135.313 68.454 137.567 62.668 137.567ZM62.668 96.8022C52.1855 96.8022 43.6568 105.331 43.6568 115.813C43.6568 126.296 52.1855 134.825 62.668 134.825C73.1504 134.825 81.6792 126.296 81.6792 115.813C81.6416 105.331 73.1129 96.8022 62.668 96.8022Z" fill="#0D241F"/>
<path d="M62.6668 118.895C64.3683 118.895 65.7477 117.516 65.7477 115.814C65.7477 114.113 64.3683 112.733 62.6668 112.733C60.9653 112.733 59.5859 114.113 59.5859 115.814C59.5859 117.516 60.9653 118.895 62.6668 118.895Z" fill="#033730"/>
<path d="M64.3585 115.813C64.3585 116.753 63.6071 117.504 62.6678 117.504C61.7285 117.504 60.9771 116.753 60.9771 115.813C60.9771 114.874 61.7285 114.123 62.6678 114.123C63.5695 114.123 64.3585 114.874 64.3585 115.813Z" fill="#011D19"/>
<path d="M43.1321 94.8102C42.6813 94.6975 42.2304 94.9605 42.1177 95.4114L33.2884 130.278L31.2595 129.677C31.1844 130.203 31.0341 130.766 30.8838 131.292L33.6641 132.081C33.7392 132.119 33.8144 132.119 33.8895 132.119C34.0398 132.119 34.1901 132.081 34.3028 132.006C34.4907 131.893 34.6409 131.705 34.6785 131.48L43.7708 95.7871C43.846 95.3738 43.583 94.9229 43.1321 94.8102Z" fill="#033730"/>
<path d="M62.6677 116.827C62.6302 116.827 62.555 116.827 62.5175 116.827C62.0666 116.752 61.766 116.301 61.8788 115.851L74.6531 52.1292C74.7282 51.7535 75.0664 51.4529 75.4797 51.4529H86.0373C86.4881 51.4529 86.8638 51.8286 86.8638 52.2795C86.8638 52.7303 86.4881 53.106 86.0373 53.106H76.1559L63.4568 116.151C63.3816 116.564 63.0435 116.827 62.6677 116.827Z" fill="#0D241F"/>
<path d="M88.4425 53.9701H82.5437C81.6045 53.9701 80.853 53.2186 80.853 52.2793C80.853 51.3401 81.6045 50.5886 82.5437 50.5886H88.4425C89.3818 50.5886 90.1332 51.3401 90.1332 52.2793C90.0956 53.2186 89.3442 53.9701 88.4425 53.9701Z" fill="#342216"/>
<path d="M69.5437 51.0773C69.6188 52.4675 69.6939 53.8576 69.6939 55.2478C69.7315 56.6379 69.7315 58.0281 69.7315 59.4182C69.7315 60.1321 69.7315 60.8084 69.6939 61.5222C69.6939 62.2361 69.6564 62.9124 69.6188 63.6262C69.5437 65.0164 69.4685 66.4441 69.3182 67.8718C69.2431 68.5857 69.1679 69.2995 69.0552 70.051C68.9425 70.8024 68.8298 71.5538 68.6795 72.3053C68.5292 73.0943 68.3414 73.8833 68.0784 74.7474C67.9281 75.1983 67.7778 75.6491 67.5524 76.1751C67.4397 76.4381 67.2894 76.7011 67.1391 77.0017C66.9888 77.3023 66.7634 77.6028 66.5004 77.9786C66.3501 78.1664 66.1998 78.3543 66.0119 78.5421C65.8992 78.6549 65.8241 78.73 65.7114 78.8427C65.6738 78.8803 65.5986 78.9554 65.5611 78.993C65.4859 79.0306 65.4484 79.1057 65.3732 79.1433C65.1102 79.3311 64.8096 79.5566 64.4715 79.7069C64.3964 79.7444 64.2836 79.782 64.2085 79.8196L64.0582 79.8947H64.0206L63.9079 79.9323L63.5698 80.045C63.4571 80.0826 63.3444 80.1201 63.1941 80.1577C62.9686 80.2329 62.7056 80.308 62.4426 80.3832C62.3299 80.4207 62.1796 80.4583 62.0293 80.4583L61.8415 80.4959L61.6536 80.5334C61.5409 80.571 61.3906 80.571 61.2779 80.6086L60.9022 80.6461C60.8271 80.6461 60.7895 80.6461 60.7143 80.6461H60.5265H60.3386H60.1883H59.8878H59.6248H57.7086C57.1075 80.6461 56.5063 80.6837 55.9052 80.6837H55.7925C53.6133 80.7213 51.8475 78.993 51.8099 76.8139C51.7723 74.9728 53.0498 73.4324 54.7405 72.9816C55.4543 72.7937 56.2058 72.6434 56.9196 72.4931L57.4832 72.418C57.671 72.3804 57.8589 72.3804 58.0468 72.3428L59.0612 72.2301L59.2866 72.1925L59.4745 72.155H59.5872H59.6623H59.7375C59.7751 72.155 59.7751 72.155 59.8126 72.155L59.9253 72.1174C59.9629 72.1174 60.0005 72.0798 60.0381 72.0798H60.0756H60.1132C60.1508 72.0798 60.1883 72.0423 60.1883 72.0423C60.2635 72.0047 60.3011 72.0047 60.3762 71.9671L60.4889 71.9296L60.6392 71.8544L60.7143 71.8168L60.6392 71.8544C60.6016 71.892 60.5265 71.892 60.4889 71.9296C60.3011 72.0423 60.1508 72.1174 60.0005 72.2301C59.9629 72.2677 59.9253 72.2677 59.9253 72.3053L59.8502 72.3804C59.8126 72.418 59.7751 72.4556 59.7375 72.4931C59.6623 72.5683 59.6248 72.6058 59.5872 72.6434L59.5496 72.681L59.5121 72.7185C59.5121 72.7185 59.5121 72.7185 59.5121 72.7561C59.5121 72.7561 59.5121 72.7186 59.5496 72.681C59.5872 72.5683 59.6623 72.418 59.6999 72.1925C59.8126 71.7793 59.9253 71.2533 60.0381 70.6897C60.2259 69.5625 60.3762 68.3603 60.4513 67.0828C60.4889 66.4441 60.5265 65.8054 60.5641 65.1667C60.6016 64.528 60.6392 63.8892 60.6392 63.2505C60.6768 62.6118 60.6768 61.9731 60.6768 61.2968C60.6768 60.6581 60.7143 59.9818 60.7143 59.3431C60.7143 58.0281 60.7143 56.7131 60.6768 55.3981C60.6392 54.0831 60.6392 52.7681 60.5641 51.4906C60.4889 49.0109 62.4051 46.9445 64.8848 46.8693C67.3269 46.7566 69.3934 48.6352 69.5437 51.0773Z" fill="#66CCFF"/>
<path d="M61.3152 70.8777C61.2777 70.8777 61.2777 70.8777 61.2401 70.8777C61.1274 70.8402 61.0898 70.7275 61.1274 70.6523C62.5927 66.4443 61.9915 55.8116 61.9915 55.6988C61.9915 55.5861 62.0667 55.511 62.1794 55.511C62.2921 55.511 62.3672 55.5861 62.3672 55.6988C62.4048 56.1497 63.0059 66.5195 61.5031 70.8026C61.4655 70.8402 61.3904 70.8777 61.3152 70.8777Z" fill="#186992"/>
<path d="M57.6277 74.3351C56.463 73.3207 54.8099 73.208 53.4948 73.9218C52.2174 74.5981 50.3764 75.7253 49.099 76.9651C47.1077 78.9189 46.0933 82.0749 46.7695 82.5257C47.4834 82.9766 48.0094 79.783 49.2493 79.1819C49.2493 79.1819 46.6944 82.9014 47.258 83.728C47.8591 84.5922 48.9111 81.0604 50.2261 80.1963C50.2261 80.1963 47.9718 83.8407 48.4978 84.1413C49.3244 84.6297 49.8504 82.2627 51.1654 81.5489C51.1654 81.5489 49.4371 83.9159 49.9631 84.4419C50.4891 84.9679 52.3677 81.2483 54.096 80.835C55.8243 80.3841 57.3271 80.2339 58.1537 78.8437C58.7549 77.8293 59.2057 75.7253 57.6277 74.3351Z" fill="#FFD4C0"/>
<path d="M54.4761 73.6584C54.4761 73.6584 50.0803 74.7105 49.5167 76.1006C48.9907 77.4907 48.9531 78.1295 48.9531 78.1295L54.4761 73.6584Z" fill="#FFD4C0"/>
<path d="M27.4628 71.7781C27.4628 71.7781 25.0958 72.1538 24.3819 72.6798C23.668 73.2058 21.9397 74.333 22.2403 74.7462C22.9166 75.648 26.0726 73.3185 26.0726 73.3185L27.4628 71.7781Z" fill="#FFD4C0"/>
<path d="M35.0162 73.9564C35.0162 73.9564 33.1752 75.3841 31.7099 75.6471C30.2446 75.9101 27.6897 76.2483 26.525 75.6471C25.3603 75.046 27.0886 74.6327 27.7649 74.52C28.5914 74.3697 29.418 74.5575 29.2301 74.257C29.0423 73.9564 28.0279 74.1067 26.5626 74.2945C25.1348 74.4448 23.0684 75.9477 22.3546 75.4968C21.8661 75.1963 22.9557 74.257 23.8198 73.5055C24.684 72.7541 24.947 72.3033 27.1261 71.7021C28.4411 71.3264 32.9873 70.9507 32.9873 70.9507C32.9873 70.9507 35.6925 71.5143 35.0162 73.9564Z" fill="#FFD4C0"/>
<path d="M113.953 48.0719C114.01 48.0531 114.057 48.025 114.104 47.9968C114.151 47.9686 114.198 47.9404 114.254 47.9216C114.63 47.6962 114.968 47.4708 115.268 47.2078C115.569 46.9448 115.794 46.7193 115.982 46.4563L113.953 48.0719ZM113.953 48.0719L113.878 48.1095L113.69 48.1846M113.953 48.0719L113.69 48.1846M113.69 48.1846L113.352 48.3349M113.69 48.1846L113.352 48.3349M113.352 48.3349C113.127 48.4476 112.901 48.5228 112.638 48.5979M113.352 48.3349L112.638 48.5979M112.638 48.5979L112.3 48.7482L111.962 48.8609C111.737 48.9361 111.511 49.0112 111.248 49.0863M112.638 48.5979L111.248 49.0863M111.248 49.0863L111.248 49.0864C111.023 49.1615 110.797 49.2367 110.534 49.3118M111.248 49.0863L110.534 49.3118M110.534 49.3118L109.82 49.5372M110.534 49.3118L109.82 49.5372M109.82 49.5372C109.444 49.6627 109.041 49.762 108.656 49.8569C108.58 49.8757 108.505 49.8943 108.43 49.9129C107.491 50.1384 106.589 50.3262 105.65 50.5141C105.536 50.5324 105.422 50.5507 105.308 50.5689C104.491 50.7004 103.695 50.8284 102.87 50.9274C102.779 50.9383 102.688 50.9492 102.597 50.9601C101.755 51.0616 100.938 51.1601 100.089 51.2279C99.1502 51.3031 98.2484 51.3406 97.3092 51.3782H95.919H95.2051H94.867H94.4913C92.8381 51.3406 91.5231 49.9505 91.5983 48.2973M109.82 49.5372L91.5983 48.2973M91.5983 48.2973C91.6359 46.8321 92.7254 45.6673 94.1156 45.4419L91.5983 48.2973ZM109.116 41.9565L109.367 41.8487L109.779 41.9458C109.779 41.9461 109.779 41.9461 109.779 41.9461L109.779 41.9463L109.779 41.9466L109.779 41.9473L109.778 41.9485L109.777 41.9506L109.775 41.9534C109.777 41.9509 109.781 41.9434 109.789 41.931C109.802 41.9098 109.826 41.8742 109.862 41.8243L109.953 41.733L110.074 41.6126C110.172 41.5392 110.263 41.472 110.361 41.4067L110.393 41.3929L110.435 41.3748L110.474 41.3493L110.56 41.2915L110.608 41.2678L110.384 40.3206C110.244 40.3206 110.129 40.3752 110.085 40.3969C110.078 40.4003 110.071 40.404 110.064 40.408C110.095 40.0735 110.095 39.7418 110.095 39.4068V39.3929V39.3848C110.095 38.6411 110.095 37.8739 110.019 37.029C109.981 36.2324 109.905 35.4007 109.831 34.5819L109.83 34.576C109.792 34.1571 109.744 33.7392 109.698 33.3277L109.697 33.325C109.65 32.9108 109.604 32.5031 109.567 32.0963L109.566 32.0851L109.564 32.074L109.564 32.071C109.451 31.2453 109.339 30.4211 109.227 29.5596L109.226 29.5567C109.169 29.1387 109.103 28.7122 109.037 28.2911L109.037 28.2888C108.971 27.8652 108.906 27.4473 108.851 27.0394C108.736 26.2026 108.585 25.3309 108.434 24.5038L108.029 22.0686V22.0348V21.9915L108.021 21.9488C107.656 19.8573 109.048 17.8968 111.146 17.5304L111.149 17.5299C113.167 17.166 115.097 18.4876 115.531 20.5235L115.531 20.5235L115.532 20.5277L115.607 20.8659L115.607 20.8659L115.682 21.204L115.829 21.8673C115.902 22.3049 115.979 22.764 116.093 23.2261C116.168 23.6712 116.242 24.1071 116.316 24.5421C116.391 24.9837 116.466 25.4243 116.541 25.8742C116.689 26.7642 116.801 27.6558 116.914 28.5592L116.915 28.5693L116.917 28.5793C116.988 29.0066 117.024 29.4371 117.062 29.8912L117.56 29.8497L117.062 29.8912C117.082 30.127 117.111 30.361 117.139 30.5832L117.139 30.588C117.168 30.8152 117.194 31.0304 117.212 31.2438C117.25 31.6937 117.287 32.153 117.325 32.6128L117.325 32.6143L117.325 32.6162C117.363 33.0756 117.4 33.5355 117.438 33.9861C117.487 34.5992 117.503 35.2015 117.519 35.8188C117.527 36.1319 117.536 36.4487 117.549 36.7729C117.549 37.7113 117.548 38.6669 117.475 39.6565L117.475 39.6578C117.437 40.1818 117.401 40.6568 117.328 41.2032C117.322 41.2421 117.317 41.2811 117.311 41.3201C117.241 41.8124 117.17 42.3162 117.037 42.882C117.021 42.9453 117.006 43.0082 116.99 43.071C116.929 43.3213 116.869 43.5682 116.785 43.8185C116.679 44.1363 116.536 44.4954 116.354 44.8969C116.182 45.274 115.939 45.6921 115.586 46.1515L115.581 46.1585L115.575 46.1657C115.42 46.3831 115.227 46.5791 114.939 46.8315C114.68 47.0581 114.383 47.2596 114.034 47.4702C113.953 47.5035 113.889 47.5421 113.854 47.5637L113.846 47.568C113.807 47.5914 113.796 47.5969 113.795 47.5978L113.762 47.6088L113.73 47.6247L113.673 47.653L113.505 47.7204L113.496 47.7239L113.487 47.7277L113.149 47.878L113.139 47.8826L113.129 47.8877C112.944 47.98 112.753 48.0452 112.501 48.1172L112.467 48.1268L112.435 48.141L112.119 48.2815L111.804 48.3866C111.578 48.4619 111.362 48.5338 111.111 48.6056L111.1 48.6086L111.09 48.612C110.864 48.6874 110.648 48.7592 110.397 48.831L110.397 48.8308L110.384 48.835L109.67 49.0604L109.67 49.0604L109.662 49.0629C109.307 49.1814 108.927 49.2751 108.542 49.3701C108.465 49.389 108.388 49.408 108.311 49.4273C107.385 49.6495 106.494 49.8353 105.561 50.0219C105.45 50.0398 105.339 50.0576 105.229 50.0753C104.41 50.2069 103.624 50.3332 102.81 50.4309C102.719 50.4418 102.628 50.4528 102.538 50.4636C101.695 50.5652 100.887 50.6625 100.05 50.7295C99.1248 50.8035 98.2354 50.8408 97.2992 50.8782H97.2986H97.2959H97.2933H97.2906H97.288H97.2853H97.2827H97.28H97.2774H97.2747H97.2721H97.2694H97.2668H97.2641H97.2615H97.2588H97.2561H97.2535H97.2508H97.2482H97.2455H97.2428H97.2402H97.2375H97.2349H97.2322H97.2295H97.2269H97.2242H97.2215H97.2189H97.2162H97.2135H97.2108H97.2082H97.2055H97.2028H97.2002H97.1975H97.1948H97.1921H97.1895H97.1868H97.1841H97.1814H97.1787H97.1761H97.1734H97.1707H97.168H97.1653H97.1626H97.16H97.1573H97.1546H97.1519H97.1492H97.1465H97.1438H97.1412H97.1385H97.1358H97.1331H97.1304H97.1277H97.125H97.1223H97.1196H97.1169H97.1142H97.1115H97.1088H97.1061H97.1034H97.1007H97.098H97.0953H97.0926H97.0899H97.0872H97.0845H97.0818H97.0791H97.0764H97.0737H97.071H97.0683H97.0656H97.0629H97.0602H97.0575H97.0548H97.0521H97.0494H97.0467H97.0439H97.0412H97.0385H97.0358H97.0331H97.0304H97.0277H97.025H97.0222H97.0195H97.0168H97.0141H97.0114H97.0087H97.006H97.0032H97.0005H96.9978H96.9951H96.9924H96.9896H96.9869H96.9842H96.9815H96.9788H96.976H96.9733H96.9706H96.9679H96.9651H96.9624H96.9597H96.957H96.9542H96.9515H96.9488H96.9461H96.9433H96.9406H96.9379H96.9351H96.9324H96.9297H96.927H96.9242H96.9215H96.9188H96.916H96.9133H96.9106H96.9078H96.9051H96.9024H96.8996H96.8969H96.8942H96.8914H96.8887H96.886H96.8832H96.8805H96.8778H96.875H96.8723H96.8695H96.8668H96.8641H96.8613H96.8586H96.8559H96.8531H96.8504H96.8476H96.8449H96.8422H96.8394H96.8367H96.8339H96.8312H96.8285H96.8257H96.823H96.8202H96.8175H96.8147H96.812H96.8093H96.8065H96.8038H96.801H96.7983H96.7955H96.7928H96.79H96.7873H96.7846H96.7818H96.7791H96.7763H96.7736H96.7708H96.7681H96.7653H96.7626H96.7598H96.7571H96.7543H96.7516H96.7489H96.7461H96.7434H96.7406H96.7379H96.7351H96.7324H96.7296H96.7269H96.7241H96.7214H96.7186H96.7159H96.7131H96.7104H96.7076H96.7049H96.7021H96.6994H96.6966H96.6939H96.6911H96.6884H96.6856H96.6829H96.6801H96.6774H96.6746H96.6719H96.6691H96.6664H96.6636H96.6609H96.6581H96.6554H96.6526H96.6499H96.6471H96.6444H96.6416H96.6388H96.6361H96.6333H96.6306H96.6278H96.6251H96.6223H96.6196H96.6168H96.6141H96.6113H96.6086H96.6058H96.6031H96.6003H96.5976H96.5948H96.5921H96.5893H96.5866H96.5838H96.5811H96.5783H96.5756H96.5728H96.5701H96.5673H96.5646H96.5618H96.559H96.5563H96.5535H96.5508H96.548H96.5453H96.5425H96.5398H96.537H96.5343H96.5315H96.5288H96.526H96.5233H96.5205H96.5178H96.515H96.5123H96.5095H96.5068H96.504H96.5013H96.4985H96.4958H96.493H96.4903H96.4876H96.4848H96.4821H96.4793H96.4766H96.4738H96.4711H96.4683H96.4656H96.4628H96.4601H96.4573H96.4546H96.4518H96.4491H96.4463H96.4436H96.4409H96.4381H96.4354H96.4326H96.4299H96.4271H96.4244H96.4216H96.4189H96.4162H96.4134H96.4107H96.4079H96.4052H96.4024H96.3997H96.397H96.3942H96.3915H96.3887H96.386H96.3833H96.3805H96.3778H96.375H96.3723H96.3696H96.3668H96.3641H96.3614H96.3586H96.3559H96.3531H96.3504H96.3477H96.3449H96.3422H96.3395H96.3367H96.334H96.3313H96.3285H96.3258H96.3231H96.3203H96.3176H96.3149H96.3121H96.3094H96.3067H96.3039H96.3012H96.2985H96.2957H96.293H96.2903H96.2876H96.2848H96.2821H96.2794H96.2767H96.2739H96.2712H96.2685H96.2657H96.263H96.2603H96.2576H96.2549H96.2521H96.2494H96.2467H96.244H96.2412H96.2385H96.2358H96.2331H96.2304H96.2276H96.2249H96.2222H96.2195H96.2168H96.2141H96.2113H96.2086H96.2059H96.2032H96.2005H96.1978H96.1951H96.1923H96.1896H96.1869H96.1842H96.1815H96.1788H96.1761H96.1734H96.1707H96.168H96.1653H96.1625H96.1598H96.1571H96.1544H96.1517H96.149H96.1463H96.1436H96.1409H96.1382H96.1355H96.1328H96.1301H96.1274H96.1247H96.122H96.1193H96.1166H96.1139H96.1112H96.1085H96.1058H96.1032H96.1005H96.0978H96.0951H96.0924H96.0897H96.087H96.0843H96.0816H96.0789H96.0763H96.0736H96.0709H96.0682H96.0655H96.0628H96.0601H96.0575H96.0548H96.0521H96.0494H96.0467H96.0441H96.0414H96.0387H96.036H96.0334H96.0307H96.028H96.0253H96.0227H96.02H96.0173H96.0146H96.012H96.0093H96.0066H96.004H96.0013H95.9986H95.996H95.9933H95.9906H95.988H95.9853H95.9827H95.98H95.9773H95.9747H95.972H95.9694H95.9667H95.964H95.9614H95.9587H95.9561H95.9534H95.9508H95.9481H95.9455H95.9428H95.9402H95.9375H95.9349H95.9322H95.9296H95.9269H95.9243H95.9217H95.919H95.9177H95.9164H95.915H95.9137H95.9124H95.9111H95.9098H95.9084H95.9071H95.9058H95.9045H95.9032H95.9018H95.9005H95.8992H95.8979H95.8966H95.8952H95.8939H95.8926H95.8913H95.8899H95.8886H95.8873H95.886H95.8847H95.8833H95.882H95.8807H95.8794H95.8781H95.8767H95.8754H95.8741H95.8728H95.8714H95.8701H95.8688H95.8675H95.8662H95.8648H95.8635H95.8622H95.8609H95.8595H95.8582H95.8569H95.8556H95.8543H95.8529H95.8516H95.8503H95.849H95.8476H95.8463H95.845H95.8437H95.8423H95.841H95.8397H95.8384H95.837H95.8357H95.8344H95.8331H95.8318H95.8304H95.8291H95.8278H95.8265H95.8251H95.8238H95.8225H95.8212H95.8198H95.8185H95.8172H95.8158H95.8145H95.8132H95.8119H95.8105H95.8092H95.8079H95.8066H95.8052H95.8039H95.8026H95.8013H95.7999H95.7986H95.7973H95.7959H95.7946H95.7933H95.792H95.7906H95.7893H95.788H95.7866H95.7853H95.784H95.7827H95.7813H95.78H95.7787H95.7773H95.776H95.7747H95.7733H95.772H95.7707H95.7693H95.768H95.7667H95.7654H95.764H95.7627H95.7614H95.76H95.7587H95.7574H95.756H95.7547H95.7534H95.752H95.7507H95.7494H95.748H95.7467H95.7453H95.744H95.7427H95.7413H95.74H95.7387H95.7373H95.736H95.7347H95.7333H95.732H95.7306H95.7293H95.728H95.7266H95.7253H95.724H95.7226H95.7213H95.7199H95.7186H95.7173H95.7159H95.7146H95.7132H95.7119H95.7105H95.7092H95.7079H95.7065H95.7052H95.7038H95.7025H95.7011H95.6998H95.6985H95.6971H95.6958H95.6944H95.6931H95.6917H95.6904H95.689H95.6877H95.6864H95.685H95.6837H95.6823H95.681H95.6796H95.6783H95.6769H95.6756H95.6742H95.6729H95.6715H95.6702H95.6688H95.6675H95.6661H95.6648H95.6634H95.6621H95.6607H95.6594H95.658H95.6567H95.6553H95.6539H95.6526H95.6512H95.6499H95.6485H95.6472H95.6458H95.6445H95.6431H95.6417H95.6404H95.639H95.6377H95.6363H95.635H95.6336H95.6322H95.6309H95.6295H95.6282H95.6268H95.6254H95.6241H95.6227H95.6213H95.62H95.6186H95.6173H95.6159H95.6145H95.6132H95.6118H95.6104H95.6091H95.6077H95.6063H95.605H95.6036H95.6022H95.6009H95.5995H95.5981H95.5968H95.5954H95.594H95.5926H95.5913H95.5899H95.5885H95.5872H95.5858H95.5844H95.583H95.5817H95.5803H95.5789H95.5775H95.5762H95.5748H95.5734H95.572H95.5707H95.5693H95.5679H95.5665H95.5651H95.5638H95.5624H95.561H95.5596H95.5582H95.5569H95.5555H95.5541H95.5527H95.5513H95.5499H95.5486H95.5472H95.5458H95.5444H95.543H95.5416H95.5402H95.5389H95.5375H95.5361H95.5347H95.5333H95.5319H95.5305H95.5291H95.5277H95.5263H95.5249H95.5236H95.5222H95.5208H95.5194H95.518H95.5166H95.5152H95.5138H95.5124H95.511H95.5096H95.5082H95.5068H95.5054H95.504H95.5026H95.5012H95.4998H95.4984H95.497H95.4956H95.4942H95.4928H95.4914H95.49H95.4886H95.4872H95.4857H95.4843H95.4829H95.4815H95.4801H95.4787H95.4773H95.4759H95.4745H95.4731H95.4716H95.4702H95.4688H95.4674H95.466H95.4646H95.4632H95.4617H95.4603H95.4589H95.4575H95.4561H95.4546H95.4532H95.4518H95.4504H95.449H95.4475H95.4461H95.4447H95.4433H95.4418H95.4404H95.439H95.4376H95.4361H95.4347H95.4333H95.4319H95.4304H95.429H95.4276H95.4261H95.4247H95.4233H95.4218H95.4204H95.419H95.4175H95.4161H95.4147H95.4132H95.4118H95.4104H95.4089H95.4075H95.406H95.4046H95.4032H95.4017H95.4003H95.3988H95.3974H95.3959H95.3945H95.393H95.3916H95.3902H95.3887H95.3873H95.3858H95.3844H95.3829H95.3815H95.38H95.3786H95.3771H95.3756H95.3742H95.3727H95.3713H95.3698H95.3684H95.3669H95.3655H95.364H95.3625H95.3611H95.3596H95.3582H95.3567H95.3552H95.3538H95.3523H95.3508H95.3494H95.3479H95.3464H95.345H95.3435H95.342H95.3406H95.3391H95.3376H95.3361H95.3347H95.3332H95.3317H95.3302H95.3288H95.3273H95.3258H95.3243H95.3229H95.3214H95.3199H95.3184H95.3169H95.3155H95.314H95.3125H95.311H95.3095H95.308H95.3065H95.3051H95.3036H95.3021H95.3006H95.2991H95.2976H95.2961H95.2946H95.2931H95.2916H95.2901H95.2886H95.2871H95.2857H95.2842H95.2827H95.2812H95.2797H95.2782H95.2766H95.2751H95.2736H95.2721H95.2706H95.2691H95.2676H95.2661H95.2646H95.2631H95.2616H95.2601H95.2586H95.2571H95.2555H95.254H95.2525H95.251H95.2495H95.248H95.2464H95.2449H95.2434H95.2419H95.2404H95.2388H95.2373H95.2358H95.2343H95.2327H95.2312H95.2297H95.2282H95.2266H95.2251H95.2236H95.222H95.2205H95.219H95.2174H95.2159H95.2144H95.2128H95.2113H95.2098H95.2082H95.2067H95.2051H94.867H94.4972C93.1235 50.844 92.0356 49.6875 92.0978 48.32L92.0979 48.3201L92.0981 48.3102C92.1292 47.0967 93.0312 46.1243 94.1956 45.9355L94.4483 45.8945L94.485 45.821L95.4326 45.6729L95.4326 45.6731L95.4449 45.6708L96.6847 45.4454L96.6903 45.4444C97.5098 45.2954 98.3417 45.1442 99.1752 44.955C100.013 44.8024 100.811 44.6123 101.641 44.386C102.437 44.1963 103.268 43.9694 104.025 43.7426C105.62 43.2868 107.137 42.7556 108.576 42.1874L108.578 42.1866C108.681 42.1455 108.773 42.1047 108.856 42.0678L108.859 42.0665C108.944 42.0286 109.021 41.9947 109.104 41.9611L109.105 41.9613L109.116 41.9565Z" fill="#0BBF90" stroke="#099C76"/>
<path d="M111.999 48.4918C111.999 48.4918 112.112 44.8098 116.508 44.9977C116.508 44.9977 115.456 48.041 111.999 48.4918Z" fill="#099C76"/>
<path d="M83.482 54.0829C82.693 53.4067 86.2623 50.6639 86.2623 50.6639H84.5716C84.5716 50.6639 85.5861 47.9212 87.5773 47.6582C89.5686 47.3576 92.1235 46.2681 92.1235 46.2681C94.3027 46.4559 95.4298 50.0252 95.4298 50.0252L92.5368 52.9934C92.5368 52.9934 90.6582 55.1725 90.0195 55.2852C89.3808 55.398 89.1929 54.6841 89.1929 54.6841C89.1929 54.6841 88.5166 55.0974 87.8028 54.9095C87.0889 54.7217 87.1265 54.1205 87.1265 54.1205C87.1265 54.1205 86.2999 54.6465 85.7363 54.609C85.1728 54.5714 85.06 53.9702 85.06 53.9702C85.06 53.9702 84.4213 54.9095 83.482 54.0829Z" fill="#FFD4C0"/>
</svg>
