<svg width="81" height="73" viewBox="0 0 81 73" fill="none" xmlns="http://www.w3.org/2000/svg">
<path fill-rule="evenodd" clip-rule="evenodd" d="M20.3042 0.445712C19.8296 0.711135 19.3652 1.21691 19.11 1.74666C18.7035 2.59042 18.6923 3.01989 18.6923 17.7956V32.9777H10.584C2.86761 32.9777 2.43623 32.999 1.65614 33.4204C1.12839 33.7053 0.687254 34.1724 0.418085 34.7312C0.00955395 35.5794 0 35.9943 0 52.9888C0 69.9834 0.00955395 70.3983 0.418085 71.2465C0.687254 71.8053 1.12839 72.2723 1.65614 72.5573C2.46884 72.9963 2.80094 73 40.5 73C78.1991 73 78.5312 72.9963 79.3439 72.5573C79.8716 72.2723 80.3127 71.8053 80.5819 71.2465C80.9904 70.3983 81 69.9834 81 52.9888C81 35.9943 80.9904 35.5794 80.5819 34.7312C80.3127 34.1724 79.8716 33.7053 79.3439 33.4204C78.5638 32.999 78.1324 32.9777 70.416 32.9777H62.3077V17.7956C62.3077 3.01373 62.2967 2.59064 61.8896 1.74578C61.6204 1.18701 61.1793 0.719932 60.6516 0.434938C59.847 0.000410099 59.4746 -0.00750514 40.4564 0.00195068C21.5757 0.0114065 21.0608 0.0228393 20.3042 0.445712ZM31.1538 11.8758C31.1538 16.7401 31.1873 17.2315 31.5719 18.03C31.8411 18.5888 32.2822 19.0559 32.81 19.3409C33.5826 19.758 34.0242 19.7835 40.5 19.7835C46.9758 19.7835 47.4174 19.758 48.19 19.3409C48.7178 19.0559 49.1589 18.5888 49.4281 18.03C49.8127 17.2315 49.8462 16.7401 49.8462 11.8758V6.58936H52.9615H56.0769V19.7835V32.9777H40.5H24.9231V19.7835V6.58936H28.0385H31.1538V11.8758ZM43.6154 9.8879V13.1864H40.5H37.3846V9.8879V6.58936H40.5H43.6154V9.8879ZM12.4615 44.8612C12.4615 49.7255 12.495 50.217 12.8796 51.0154C13.1488 51.5742 13.5899 52.0413 14.1177 52.3263C14.8903 52.7434 15.3318 52.7689 21.8077 52.7689C28.2835 52.7689 28.7251 52.7434 29.4977 52.3263C30.0255 52.0413 30.4666 51.5742 30.7358 51.0154C31.1204 50.217 31.1538 49.7255 31.1538 44.8612V39.5748H34.2692H37.3846V52.9888V66.4029H21.8077H6.23077V52.9888V39.5748H9.34615H12.4615V44.8612ZM24.9231 42.8733V46.1719H21.8077H18.6923V42.8733V39.5748H21.8077H24.9231V42.8733ZM49.8462 44.8612C49.8462 49.7255 49.8796 50.217 50.2642 51.0154C50.5334 51.5742 50.9745 52.0413 51.5023 52.3263C52.2749 52.7434 52.7165 52.7689 59.1923 52.7689C65.6682 52.7689 66.1097 52.7434 66.8823 52.3263C67.4101 52.0413 67.8512 51.5742 68.1204 51.0154C68.505 50.217 68.5385 49.7255 68.5385 44.8612V39.5748H71.6538H74.7692V52.9888V66.4029H59.1923H43.6154V52.9888V39.5748H46.7308H49.8462V44.8612ZM62.3077 42.8733V46.1719H59.1923H56.0769V42.8733V39.5748H59.1923H62.3077V42.8733Z" fill="#DADADA"/>
</svg>
