<svg width="161" height="205" viewBox="0 0 161 205" fill="none" xmlns="http://www.w3.org/2000/svg">
<path d="M69.4531 81.6502C68.8835 81.6507 68.3176 81.5594 67.7771 81.3799C67.377 81.2501 58.0451 78.1629 53.1791 75.5191C49.2809 73.3996 47.4859 67.9984 46.7884 56.2497C46.3775 49.4265 46.5343 43.0142 46.5451 42.7331C46.5632 42.0302 46.7196 41.3377 47.0053 40.6952C47.291 40.0528 47.7005 39.4729 48.2103 38.9886C48.7202 38.5044 49.3204 38.1253 49.9767 37.8731C50.6331 37.6208 51.3326 37.5003 52.0356 37.5184C52.7385 37.5365 53.4309 37.6929 54.0734 37.9786C54.7159 38.2643 55.2958 38.6738 55.78 39.1836C56.2643 39.6934 56.6433 40.2937 56.8956 40.95C57.1479 41.6063 57.2684 42.3059 57.2503 43.0088C57.2503 43.0953 57.1259 48.2965 57.3963 54.0438C57.791 62.2998 58.6885 65.4789 59.0831 66.5062C62.6353 68.2579 68.8638 70.4476 71.1238 71.1937C72.3327 71.593 73.3599 72.4097 74.0214 73.4976C74.6829 74.5854 74.9354 75.8732 74.7337 77.1303C74.532 78.3873 73.8892 79.5315 72.9206 80.3577C71.952 81.184 70.7208 81.6384 69.4477 81.6394L69.4531 81.6502Z" fill="#0BBF90"/>
<path d="M109.425 107.078C109.425 107.078 110.982 115.972 107.387 118.838C103.792 121.703 77.737 123.812 73.4117 114.21C69.0863 104.608 73.7685 98.7305 73.7685 98.7305L109.425 107.078Z" fill="#394268"/>
<path d="M123.449 60.0618L123.525 60.716L123.601 61.3919L123.779 62.7543C123.898 63.6627 124.033 64.5656 124.168 65.4577C124.303 66.3498 124.449 67.2635 124.601 68.161C124.752 69.0585 124.909 69.956 125.077 70.8643C125.244 71.7726 125.423 72.6431 125.617 73.519C125.812 74.3949 125.996 75.2707 126.201 76.125C126.407 76.9792 126.617 77.8227 126.845 78.6337C127.072 79.4447 127.315 80.2178 127.558 80.8991C127.683 81.2343 127.802 81.5479 127.904 81.7804L128.018 82.0507C128.021 82.0595 128.021 82.0689 128.018 82.0777L127.969 82.0237C127.948 82.0065 127.93 81.9865 127.915 81.9642L127.856 81.9101L128.007 82.0831L128.402 82.4994C128.683 82.786 128.996 83.0888 129.305 83.3915C129.937 84.0025 130.602 84.6243 131.278 85.2406C131.954 85.857 132.64 86.4679 133.333 87.0789C134.72 88.3008 136.128 89.5101 137.555 90.7067C138.982 91.8962 140.431 93.0857 141.88 94.2211C142.956 95.0578 143.655 96.2874 143.824 97.6395C143.993 98.9916 143.617 100.355 142.781 101.431C141.944 102.506 140.714 103.205 139.362 103.374C138.01 103.543 136.646 103.168 135.571 102.331H135.544L134.425 101.439L133.251 100.504L131.018 98.7572L126.52 95.2646C125.006 94.0967 123.509 92.9181 121.957 91.6691C121.568 91.3501 121.178 91.0311 120.767 90.6797L120.14 90.139L119.794 89.8146L119.751 89.7768L119.708 89.7281L119.535 89.5443L119.362 89.3551L119.318 89.3064L119.286 89.2686L119.216 89.1821C119.129 89.0739 119.037 88.9658 118.951 88.8523L118.729 88.5603L118.626 88.4089L118.535 88.2737L118.356 88.0034C118.248 87.8358 118.145 87.6682 118.048 87.506C117.951 87.3438 117.864 87.1924 117.788 87.041C117.459 86.4409 117.194 85.8948 116.95 85.365C116.48 84.3161 116.091 83.3267 115.728 82.3535C115.366 81.3803 115.031 80.4287 114.712 79.4771C114.393 78.5256 114.101 77.5902 113.809 76.6548C113.517 75.7195 113.231 74.7841 112.955 73.8542L112.144 71.059L111.36 68.2745L110.592 65.4847L110.214 64.0844L110.019 63.3761L109.83 62.6516C109.596 61.768 109.539 60.847 109.661 59.9413C109.784 59.0356 110.083 58.1628 110.543 57.3728C111.002 56.5828 111.613 55.8911 112.34 55.3371C113.067 54.7832 113.896 54.3778 114.78 54.1442C115.663 53.9106 116.584 53.8534 117.49 53.9757C118.396 54.098 119.268 54.3976 120.058 54.8572C120.848 55.3168 121.54 55.9276 122.094 56.6545C122.648 57.3815 123.053 58.2104 123.287 59.094C123.362 59.4127 123.417 59.736 123.449 60.0618Z" fill="#186992"/>
<path d="M122.655 58.7859C122.509 60.4566 121.162 62.8625 119.454 66.8959L119.254 67.3717C118.951 68.1016 118.637 68.8801 118.318 69.7182C118.259 69.8587 118.205 70.0047 118.151 70.1507C117.361 72.2593 116.529 74.7139 115.761 77.5848C115.691 77.839 115.62 78.1255 115.556 78.3634C115.491 78.6013 115.453 78.7581 115.399 78.9581C115.301 79.342 115.204 79.7313 115.107 80.1314C115.01 80.5315 114.934 80.8505 114.853 81.2127C114.739 81.7047 114.631 82.2021 114.518 82.7104C114.404 83.2186 114.317 83.6781 114.22 84.1702C114.15 84.5378 114.074 84.9109 114.004 85.2893C113.901 85.83 113.804 86.3707 113.707 86.9546C113.663 87.1979 113.625 87.4412 113.582 87.6899C113.496 88.2306 113.409 88.728 113.328 89.2686C113.328 89.4146 113.285 89.566 113.269 89.712C113.252 89.858 113.22 90.031 113.198 90.1878V90.2905C113.198 90.4202 113.16 90.5554 113.139 90.696C113.047 91.3448 112.944 92.0909 112.841 92.9127V93.0263C112.841 93.1506 112.809 93.2804 112.787 93.4101C112.631 94.6482 112.458 96.0324 112.285 97.4921L112.236 97.8868C111.912 100.687 111.587 103.742 111.338 106.586C111.338 106.759 111.306 106.927 111.295 107.127C111.258 107.535 111.082 107.919 110.797 108.214C110.512 108.509 110.134 108.698 109.727 108.749C107.835 108.992 105.943 109.133 104.029 109.187C97.6248 109.42 91.2296 108.53 85.1324 106.559C80.5637 105.029 76.1789 103.607 72.7295 100.244C73.0647 97.3624 73.5567 93.1452 74.0433 90.1391L74.1082 89.7606C74.5029 87.2952 74.8921 85.0677 75.1895 83.4943C75.2165 83.3537 75.2436 83.2078 75.2652 83.078L75.395 82.3751C75.5572 81.5101 75.7356 80.6504 75.9356 79.7962C76.4006 77.7038 76.9521 75.633 77.5576 73.5461C78.1632 71.4591 78.812 69.5127 79.5202 67.4582L79.7527 66.7715C79.7527 66.7013 79.8014 66.6418 79.823 66.5769C79.8446 66.512 79.9149 66.3174 79.9528 66.193C80.3673 65.0216 80.7908 63.8357 81.2234 62.6354C81.2666 62.5111 81.3099 62.3921 81.3585 62.2678C81.4829 61.9326 81.6018 61.592 81.7262 61.2513L81.9046 60.7485C82.4705 59.195 83.0472 57.6073 83.6347 55.9853C85.7595 50.1353 88.6196 46.4371 91.9772 45.3882C92.1256 45.3367 92.2774 45.2952 92.4313 45.2639C93.2381 45.0687 94.074 45.0247 94.8968 45.1341L95.1671 45.1665L95.551 45.2044C96.6633 45.3158 97.7832 45.3285 98.8977 45.2422H99.2113H99.4221H99.6114L100.212 45.1611L100.693 45.0746C100.909 45.0314 101.114 44.9935 101.309 44.9449C101.999 44.8012 102.675 44.6004 103.331 44.3447L113.193 47.2319C113.458 48.0358 113.855 48.7903 114.366 49.4648C114.71 49.9099 115.093 50.3226 115.512 50.6975L115.669 50.8327L115.853 50.9841C116.021 51.1247 116.194 51.2598 116.394 51.3896C116.805 51.6978 117.232 51.9843 117.664 52.2601L118.021 52.4872C120.503 54.001 122.979 55.3148 122.655 58.7859Z" fill="#186992"/>
<path d="M103.802 57.2835C103.802 57.4676 103.856 57.6476 103.959 57.8007C104.061 57.9537 104.207 58.0729 104.377 58.1431C104.547 58.2134 104.735 58.2315 104.915 58.1951C105.096 58.1588 105.261 58.0697 105.391 57.9391C105.521 57.8085 105.609 57.6423 105.644 57.4616C105.68 57.2808 105.66 57.0937 105.589 56.9238C105.518 56.754 105.398 56.6092 105.244 56.5076C105.091 56.4061 104.91 56.3525 104.726 56.3535C104.481 56.355 104.245 56.4536 104.072 56.6278C103.899 56.8021 103.802 57.0378 103.802 57.2835Z" fill="#084B6D"/>
<path d="M102.591 61.6673C102.591 61.8512 102.645 62.031 102.748 62.1839C102.85 62.3368 102.995 62.456 103.165 62.5264C103.335 62.5968 103.522 62.6152 103.702 62.5793C103.883 62.5434 104.048 62.4549 104.178 62.3248C104.308 62.1948 104.397 62.0291 104.433 61.8487C104.469 61.6683 104.45 61.4813 104.38 61.3114C104.31 61.1414 104.19 60.9962 104.037 60.894C103.884 60.7918 103.705 60.7373 103.521 60.7373C103.274 60.7373 103.038 60.8353 102.863 61.0097C102.689 61.1841 102.591 61.4206 102.591 61.6673Z" fill="#084B6D"/>
<path d="M101.666 66.3557C101.666 66.5399 101.721 66.7199 101.823Ф 66.873C101.926 67.026 102.071 67.1452 102.241 67.2154C102.412 67.2856 102.599 67.3037 102.779 67.2674C102.96 67.2311 103.126 67.142 103.255 67.0114C103.385 66.8808 103.473 66.7146 103.509 66.5338C103.544 66.3531 103.525 66.1659 103.454 65.9961C103.382 65.8263 103.262 65.6814 103.109 65.5799C102.955 65.4784 102.775 65.4247 102.591 65.4258C102.469 65.4258 102.348 65.4499 102.236 65.4967C102.123 65.5435 102.021 65.6121 101.935 65.6985C101.849 65.7849 101.781 65.8875 101.735 66.0003C101.689 66.1131 101.665 66.2339 101.666 66.3557Z" fill="#084B6D"/>
<path d="M115.118 79.4012H115.059C114.99 79.3845 114.931 79.3418 114.894 79.2823C114.857 79.2227 114.844 79.1509 114.858 79.0822C114.858 78.9795 117.21 69.1232 120.265 63.8571C120.28 63.8225 120.302 63.7915 120.33 63.7661C120.357 63.7407 120.39 63.7215 120.426 63.7097C120.461 63.6979 120.499 63.6938 120.536 63.6977C120.574 63.7016 120.61 63.7135 120.642 63.7324C120.675 63.7513 120.703 63.7769 120.725 63.8075C120.746 63.8381 120.761 63.873 120.769 63.9098C120.776 63.9466 120.775 63.9846 120.767 64.0212C120.758 64.0578 120.742 64.0921 120.719 64.122C117.702 69.3178 115.388 79.1038 115.367 79.2012C115.353 79.2574 115.322 79.3077 115.277 79.3439C115.232 79.3802 115.176 79.4003 115.118 79.4012Z" fill="#084B6D"/>
<path d="M99.1519 45.1711L101.228 49.8208C101.711 50.9001 102.436 51.8534 103.348 52.6065C104.259 53.3595 105.332 53.892 106.483 54.1625C107.634 54.433 108.832 54.4342 109.984 54.1659C111.136 53.8977 112.21 53.3673 113.123 52.616L115.399 50.7399L115.242 50.6048C114.823 50.2298 114.439 49.8172 114.096 49.3721C113.584 48.6975 113.188 47.943 112.923 47.1391L103.061 44.252C102.405 44.5077 101.728 44.7084 101.039 44.8521C100.844 44.9008 100.639 44.9386 100.422 44.9819C100.206 45.0251 100.109 45.0413 99.9412 45.063L99.3411 45.1495L99.1519 45.1711Z" fill="#084B6D"/>
<path d="M101.039 44.8521L103.04 49.2207C103.396 49.992 103.922 50.6729 104.578 51.2122C105.235 51.7516 106.005 52.1354 106.83 52.3351C107.656 52.5348 108.516 52.5452 109.347 52.3654C110.177 52.1855 110.956 51.8203 111.625 51.2968L114.075 49.3721C113.563 48.6975 113.167 47.943 112.901 47.1391L103.04 44.252C102.39 44.5065 101.721 44.7072 101.039 44.8521Z" fill="#FFFCF2"/>
<path d="M113.787 45.362L112.858 48.5411C112.516 48.6817 112.165 48.8009 111.809 48.8979C106.786 50.2117 102.374 44.9889 102.374 44.9889L105.245 37.3223L112.625 45.0159L113.787 45.362Z" fill="#FFD4C0"/>
<path d="M113.788 45.3623L112.858 48.5414C112.516 48.682 112.166 48.8012 111.809 48.8982C108.592 46.3949 107.062 41.8047 107.062 41.8047L112.625 45.0162L113.788 45.3623Z" fill="#EBBCA6"/>
<path d="M121.984 28.0286C121.984 28.0286 126.558 29.5317 124.958 24.9252C123.357 20.3187 114.598 20.5728 114.598 20.5728C114.598 20.5728 111.241 20.3079 109.311 21.8596C107.381 23.4113 108.921 23.6438 108.921 23.6438L121.984 28.0286Z" fill="#3A383D"/>
<path d="M110.408 21.5352C110.408 21.5352 103.234 22.9355 103.255 33.9705C103.255 38.0957 107.305 39.734 107.305 39.734L110.408 21.5352Z" fill="#3A383D"/>
<path d="M120.714 24.9238C120.714 24.9238 126.812 28.0597 121.746 34.1151C121.746 34.0935 120.103 26.508 120.714 24.9238Z" fill="#3A383D"/>
<path d="M119.822 36.0788C119.822 36.0788 121.703 34.8353 121.984 36.7168C122.265 38.5983 120.708 41.7612 118.74 40.5934L119.822 36.0788Z" fill="#EBBCA6"/>
<path d="M120.109 42.4468C120.109 42.4468 118.487 46.9938 113.021 45.388C109.649 44.3154 106.824 41.9784 105.138 38.8676L105.392 37.7862L106.706 32.1471L107.408 29.1356C107.408 29.1356 108.279 23.5938 113.805 24.1507C117.838 24.5616 121.25 26.2268 122.498 28.6922C122.973 29.6263 123.119 30.6926 122.915 31.72L121.525 37.0942L121.185 38.4134L120.109 42.4468Z" fill="#FFD4C0"/>
<path d="M122.092 28.0611C122.092 28.0611 119.805 23.1519 113.074 22.941C106.343 22.7301 106.673 32.1323 106.673 32.1323L122.092 28.0611Z" fill="#FFD4C0"/>
<path d="M121.801 26.7739C121.801 26.7739 120.946 27.4119 119.054 27.1145C116.605 26.7361 113.799 22.8541 112.215 23.5786C110.631 24.3031 112.626 25.1141 111.82 26.5685C111.014 28.0228 109.755 27.9039 109.403 29.0069C109.052 30.1098 109.127 34.2135 109.127 34.2135L107.624 34.0783C106.864 33.1268 106.401 31.972 106.294 30.7586C106.148 28.7852 105.64 24.568 108.884 22.2972C114.004 18.7126 122.833 24.8654 121.801 26.7739Z" fill="#3A383D"/>
<path d="M107.354 37.2852C106.886 37.848 106.318 38.3192 105.678 38.6747C105.371 38.8163 105.023 38.8413 104.699 38.745L105.088 37.7123C105.869 37.7869 106.654 37.6388 107.354 37.2852Z" fill="#EBBCA6"/>
<path d="M107.457 33.4776C107.457 33.4776 106.219 30.1525 104.105 31.8556C102.359 33.2613 103.332 38.549 106.224 37.6839L107.457 33.4776Z" fill="#FFD4C0"/>
<path d="M94.4375 59.2349L94.1293 59.3809L93.7941 59.5485L93.1074 59.8945L91.7287 60.5974C90.8096 61.0786 89.8905 61.5652 88.9822 62.068C87.1601 63.0574 85.3651 64.0793 83.6458 65.1498C81.9265 66.2203 80.2612 67.3125 78.7798 68.4533C78.0391 69.021 77.347 69.5887 76.7523 70.1347C76.4549 70.4105 76.2117 70.6754 75.9575 70.9187L75.7953 71.0971L75.6494 71.2647L75.5845 71.3404L75.552 71.3783C75.5791 71.3296 75.6007 71.281 75.6223 71.2323C75.6909 71.091 75.7243 70.9352 75.7196 70.7781C75.7196 70.7133 75.6764 70.7781 75.6764 70.9187C75.6764 71.1405 75.6999 71.3616 75.7467 71.5783C75.8182 71.9 75.9066 72.2176 76.0116 72.5299C76.2799 73.3114 76.6051 74.0722 76.9848 74.8061C77.3903 75.6009 77.8607 76.4281 78.3689 77.2391C79.4324 78.9301 80.5801 80.5668 81.8075 82.1429C82.4293 82.9539 83.0727 83.7649 83.7323 84.5489C84.0621 84.9436 84.3973 85.3383 84.7271 85.7221L85.2299 86.3006L85.7003 86.8413L85.8463 87.0089C86.6993 87.9593 87.154 89.2014 87.1164 90.4779C87.0787 91.7544 86.5515 92.9676 85.644 93.866C84.7365 94.7645 83.5181 95.2796 82.2413 95.3044C80.9645 95.3293 79.7271 94.8622 78.7852 93.9997L78.104 93.3888L77.4552 92.794C77.028 92.3939 76.6117 91.9884 76.1954 91.5829C75.3664 90.7719 74.5518 89.9411 73.7516 89.0905C72.1168 87.3564 70.5789 85.5334 69.1451 83.6298C68.4098 82.6457 67.7016 81.6239 67.0203 80.5155C66.3007 79.3567 65.6646 78.1479 65.1172 76.8985C64.8104 76.1943 64.5468 75.472 64.3278 74.7358C64.0763 73.9 63.8955 73.0445 63.7872 72.1785C63.6569 71.139 63.6569 70.0874 63.7872 69.048C63.9384 67.8084 64.3043 66.6045 64.8685 65.4904C65.0199 65.1985 65.1875 64.9119 65.3605 64.6362L65.474 64.4686L65.5605 64.3388L65.7335 64.0793C65.8471 63.9117 65.9606 63.7495 66.0796 63.5873L66.431 63.1223C66.896 62.5222 67.3609 61.9815 67.8259 61.4679C68.7613 60.4514 69.6966 59.5485 70.6374 58.7105C71.5781 57.8725 72.5189 57.0885 73.4705 56.3532C73.9408 55.9855 74.4166 55.6179 74.8924 55.2719C75.3682 54.9258 75.8494 54.5744 76.3306 54.2338C78.2445 52.8713 80.1801 51.5953 82.1319 50.3734C83.1159 49.7679 84.0999 49.1786 85.0948 48.6C85.5922 48.3081 86.0896 48.0215 86.5978 47.7404L87.3602 47.3133L87.7548 47.1024L88.1766 46.8753C88.9812 46.4385 89.8644 46.1651 90.7751 46.071C91.6858 45.9768 92.6062 46.0638 93.4832 46.3268C94.3602 46.5899 95.1765 47.0238 95.8851 47.6036C96.5937 48.1834 97.1806 48.8976 97.612 49.7052C98.0434 50.5128 98.3108 51.3977 98.3988 52.3091C98.4868 53.2204 98.3937 54.1402 98.1248 55.0154C97.8558 55.8906 97.4164 56.704 96.8318 57.4087C96.2473 58.1133 95.5291 58.6954 94.7186 59.1214L94.5078 59.2295L94.4375 59.2349Z" fill="#186992"/>
<path d="M79.6231 68.404C79.5763 68.4048 79.5302 68.3932 79.4893 68.3704C79.4485 68.3476 79.4144 68.3144 79.3906 68.2742C79.3568 68.213 79.348 68.141 79.3662 68.0734C79.3843 68.0059 79.428 67.948 79.4879 67.912C83.0995 65.798 90.4688 61.8998 90.5445 61.8619C90.6069 61.8289 90.6798 61.8221 90.7472 61.8429C90.8147 61.8636 90.8711 61.9104 90.904 61.9727C90.937 62.0351 90.9439 62.108 90.9231 62.1755C90.9023 62.2429 90.8556 62.2993 90.7932 62.3323C90.7175 62.3701 83.3591 66.2629 79.7528 68.3715C79.7127 68.3924 79.6683 68.4035 79.6231 68.404Z" fill="#084B6D"/>
<path d="M80.8074 87.5496C81.7118 87.1448 82.7183 87.0257 83.6922 87.2083C84.6661 87.391 85.561 87.8665 86.2573 88.5715C87.9801 90.2143 89.4895 92.067 90.7502 94.0863C92.5939 97.3303 92.7074 101.71 91.6477 102.023C90.588 102.337 91.1071 98.0764 89.723 96.822C89.723 96.822 91.5991 102.521 90.5988 103.359C89.5986 104.197 89.4581 99.3361 88.1388 97.7682C88.1388 97.7682 89.6635 103.256 88.8687 103.456C87.6522 103.759 87.8523 100.574 86.4249 99.1307C86.4249 99.1307 87.7604 102.807 86.8791 103.288C85.9978 103.77 84.9705 98.3359 82.9322 97.1302C80.8939 95.9245 79.0124 95.1838 78.4663 93.0969C78.0662 91.5722 78.2609 88.7283 80.8074 87.5496Z" fill="#FFD4C0"/>
<path d="M85.1328 87.8574C85.1328 87.8574 90.3556 90.8527 90.5395 92.8207C90.6686 93.7434 90.6576 94.6803 90.507 95.5997L85.1328 87.8574Z" fill="#FFD4C0"/>
<path d="M75.3354 72.4061C75.3354 72.4061 77.4657 71.6924 78.1415 73.0657C78.8173 74.439 77.2008 77.71 76.5574 78.7913C75.914 79.8727 75.4165 76.9314 75.8761 75.6825C76.3357 74.4336 75.9356 73.8334 75.9356 73.8334L75.3354 72.4061Z" fill="#FFD4C0"/>
<path d="M78.0391 76.66C78.0391 76.66 80.1693 75.9463 80.8451 77.3196C81.5209 78.6929 79.9044 81.9369 79.261 83.0344C78.6176 84.132 78.1202 81.1745 78.5797 79.9256C79.0393 78.6767 78.6392 78.0765 78.6392 78.0765L78.0391 76.66Z" fill="#FFD4C0"/>
<path d="M79.623 78.5746C79.623 78.5746 81.5046 77.942 82.0993 79.1585C82.694 80.375 81.2721 83.2351 80.7044 84.2029C80.1367 85.1707 79.6933 82.5809 80.0988 81.4563C80.5043 80.3317 80.1529 79.8343 80.1529 79.8343L79.623 78.5746Z" fill="#FFD4C0"/>
<path d="M76.5737 74.5673C76.5737 74.5673 78.704 73.8482 79.3852 75.2269C80.0664 76.6056 78.4444 79.8388 77.7956 80.9364C77.1468 82.0339 76.6548 79.0765 77.1144 77.8275C77.574 76.5786 77.1739 75.9785 77.1739 75.9785L76.5737 74.5673Z" fill="#FFD4C0"/>
<path d="M115.491 186.383L115.41 193.568C115.41 193.568 109.949 195.461 107.927 194.212L106.943 186.383H115.491Z" fill="#FFD4C0"/>
<path d="M131.873 204.512L106.083 204.263C105.879 203.857 105.768 203.41 105.759 202.955C105.624 200.954 106.353 197.775 106.716 195.769C106.766 195.539 106.804 195.322 106.829 195.121C106.878 194.849 106.907 194.575 106.916 194.299C106.916 192.677 107.581 193.071 107.581 193.071C109.127 193.39 110.744 193.915 111.836 193.612C112.506 193.439 113.155 193.169 113.755 192.98C114.539 192.731 115.242 192.607 115.804 192.98C115.804 192.98 116.545 193.472 118.572 195.18C120.232 196.57 122.854 197.591 125.363 198.554L127.018 199.192C130.521 200.571 131.705 201.922 132.03 202.917C132.06 203 132.083 203.085 132.1 203.171C132.155 203.398 132.163 203.634 132.124 203.865C132.085 204.095 132 204.316 131.873 204.512Z" fill="black"/>
<path d="M131.872 204.512L106.083 204.263C105.878 203.857 105.768 203.41 105.758 202.955H132.029C132.06 203.038 132.083 203.123 132.1 203.209C132.149 203.431 132.155 203.66 132.116 203.883C132.077 204.107 131.994 204.321 131.872 204.512Z" fill="#282828"/>
<path d="M109.219 113.302C109.219 113.302 117.356 140.427 118.146 150.035C118.935 159.642 116.724 189.503 116.724 189.503L105.759 188.99C105.759 188.99 103.553 172.461 102.937 160.334C102.807 157.793 102.996 151.267 102.499 150.429C98.5358 143.806 91.9775 119.341 91.9775 119.341L109.219 113.302Z" fill="#394268"/>
<path d="M79.1089 186.474L76.6434 193.692C76.6434 193.692 71.1935 195.606 69.1606 194.363L70.1771 185.55L79.1089 186.474Z" fill="#FFD4C0"/>
<path d="M93.1563 204.582L67.3665 204.425C67.1622 204.017 67.0496 203.568 67.0367 203.112C66.8908 201.117 67.6152 197.932 67.9721 195.926C68.0153 195.694 68.0532 195.472 68.0802 195.277C68.1239 195.005 68.1528 194.731 68.1667 194.456C68.1667 192.834 68.8263 193.223 68.8263 193.223C70.3726 193.536 71.9892 194.055 73.0814 193.763C73.7518 193.585 74.3952 193.315 74.9953 193.12C75.7793 192.866 76.4821 192.747 77.0498 193.12C77.0498 193.12 77.7906 193.612 79.8235 195.31C81.4833 196.694 84.111 197.705 86.6305 198.662L88.2849 199.294C91.7884 200.657 92.9779 201.998 93.3077 202.998C93.3386 203.082 93.3621 203.169 93.378 203.258C93.4318 203.482 93.4399 203.715 93.4018 203.942C93.3637 204.17 93.2802 204.388 93.1563 204.582Z" fill="black"/>
<path d="M93.1557 204.582L67.3659 204.425C67.1616 204.016 67.049 203.568 67.0361 203.111L93.3071 203.014C93.338 203.098 93.3615 203.185 93.3773 203.273C93.4289 203.495 93.4359 203.725 93.3978 203.95C93.3598 204.174 93.2775 204.389 93.1557 204.582Z" fill="#282828"/>
<path d="M90.7926 113.977C90.7926 113.977 92.1011 142.27 90.5331 151.78C88.9652 161.29 78.4493 190.497 78.4493 190.497L69.1606 187.588C69.1606 187.588 70.9286 170.006 73.2751 158.095C73.7671 155.597 75.5351 149.314 75.2539 148.363C73.021 140.967 72.0099 109.976 72.0099 109.976L90.7926 113.977Z" fill="#394268"/>
<path d="M148.72 194.931C148.438 194.931 148.167 194.821 147.965 194.624C147.763 194.427 147.646 194.159 147.639 193.877V103.121C147.691 102.879 147.825 102.663 148.017 102.508C148.209 102.352 148.449 102.268 148.696 102.268C148.943 102.268 149.183 102.352 149.375 102.508C149.568 102.663 149.701 102.879 149.753 103.121V193.877C149.747 194.151 149.636 194.412 149.445 194.608C149.253 194.803 148.994 194.919 148.72 194.931Z" fill="#033730"/>
<path d="M157.906 203.398C157.619 203.398 157.344 203.284 157.141 203.081C156.939 202.878 156.825 202.603 156.825 202.316V194.909H140.594V202.316C140.628 202.474 140.626 202.637 140.589 202.794C140.552 202.951 140.48 203.098 140.378 203.224C140.277 203.349 140.149 203.45 140.003 203.52C139.858 203.59 139.698 203.626 139.537 203.626C139.376 203.626 139.216 203.59 139.071 203.52C138.925 203.45 138.797 203.349 138.696 203.224C138.594 203.098 138.522 202.951 138.485 202.794C138.448 202.637 138.446 202.474 138.48 202.316V193.877C138.487 193.594 138.604 193.326 138.806 193.129C139.008 192.932 139.279 192.822 139.561 192.822H157.944C158.221 192.829 158.486 192.942 158.682 193.139C158.878 193.335 158.991 193.599 158.998 193.877V202.338C158.992 202.623 158.875 202.894 158.67 203.092C158.466 203.291 158.191 203.401 157.906 203.398Z" fill="#033730"/>
<path d="M156.679 204.106H159.128C159.824 204.106 160.388 203.542 160.388 202.847V199.549C160.388 198.853 159.824 198.289 159.128 198.289H156.679C155.983 198.289 155.419 198.853 155.419 199.549V202.847C155.419 203.542 155.983 204.106 156.679 204.106Z" fill="#011D19"/>
<path d="M138.317 204.106H140.767C141.462 204.106 142.026 203.542 142.026 202.847V199.549C142.026 198.853 141.462 198.289 140.767 198.289H138.317C137.622 198.289 137.058 198.853 137.058 199.549V202.847C137.058 203.542 137.622 204.106 138.317 204.106Z" fill="#011D19"/>
<path d="M142.005 104.894H155.435C156.424 104.894 157.225 104.092 157.225 103.104C157.225 102.116 156.424 101.314 155.435 101.314H142.005C141.017 101.314 140.216 102.116 140.216 103.104C140.216 104.092 141.017 104.894 142.005 104.894Z" fill="#011D19"/>
<path d="M150.375 97.4326C150.375 97.4326 154.251 97.8868 155.419 98.6653C156.587 99.4439 159.517 101.185 159.063 101.882C158.052 103.418 152.764 99.8818 152.764 99.8818L150.375 97.4326Z" fill="#EBBCA6"/>
<path d="M138.291 101.531C138.291 101.531 141.362 103.693 143.752 104.012C146.141 104.331 150.326 104.661 152.164 103.618C154.003 102.574 151.148 102.028 150.066 101.877C148.731 101.693 147.363 102.071 147.682 101.568C148.001 101.066 149.639 101.244 151.98 101.406C154.322 101.568 157.793 103.812 158.906 103.061C159.707 102.52 157.825 101.066 156.392 99.941C154.96 98.8164 154.468 98.0811 150.888 97.2377C148.726 96.7403 141.313 96.4375 141.313 96.4375C141.313 96.4375 136.999 97.6486 138.291 101.531Z" fill="#FFD4C0"/>
<path d="M66.2689 184.897L67.0366 194.035L60.2621 194.137L58.7212 185.362L66.2689 184.897Z" fill="#E49764"/>
<path d="M83.2405 204.766L58.4834 204.501C58.2877 204.067 58.1828 203.598 58.1752 203.122C58.0401 201.024 58.7429 197.715 59.0944 195.585C59.1376 195.342 59.17 195.109 59.2025 194.904C59.2476 194.619 59.2747 194.332 59.2836 194.044C59.2836 192.325 60.8191 192.633 60.8191 192.633C63.3008 195.12 66.1771 191.465 67.8478 192.693C67.8478 192.693 68.556 193.233 70.5024 195.001C72.4488 196.769 75.7739 197.991 78.6124 199.213C82.2727 200.786 83.2946 202.333 83.4784 203.392C83.5713 203.864 83.4866 204.353 83.2405 204.766Z" fill="#011D19"/>
<path d="M83.24 204.765L58.483 204.5C58.2873 204.066 58.1824 203.597 58.1748 203.121L83.4563 203.391C83.5558 203.86 83.4787 204.349 83.24 204.765Z" fill="black"/>
<path d="M67.1174 131.235C67.2255 132.122 67.3282 132.922 67.3985 133.625C67.3985 133.803 67.4309 133.987 67.4526 134.192C68.1933 142.978 67.5337 173.315 67.3066 182.798C67.3066 183.112 67.3066 183.404 67.3066 183.674C67.2742 184.939 67.4093 186.837 67.4093 186.837L58.3586 187.61C58.3586 187.61 58.0612 185.734 57.8179 184.517C57.753 184.225 57.6936 183.901 57.6233 183.555C56.6122 178.505 54.4496 167.665 52.6113 158.144C50.108 145.249 50.6433 137.599 50.6433 137.599C50.6433 137.599 51.1515 134.522 49.2213 127.05C47.5993 120.854 42.317 101.174 40.3869 94.6102L39.7705 92.5178C39.7705 92.5178 52.3518 83.8672 56.5906 87.7113C56.9204 88.0141 58.045 90.8904 58.2505 91.3175C58.9614 92.947 59.5593 94.6234 60.0401 96.3349C62.765 105.44 65.9549 122.395 67.1174 131.235Z" fill="#033730"/>
<path d="M34.4072 186.274L34.0774 194.033L26.1782 194.184L26.7513 186.885L34.4072 186.274Z" fill="#E49764"/>
<path d="M24.3941 202.938V203.144C24.3941 203.42 24.3941 203.685 24.4266 203.874C24.4266 204.333 24.486 204.62 24.486 204.62H39.8139C39.8571 204.129 39.8571 203.635 39.8139 203.144C39.7112 201.581 39.1921 199.105 37.0781 197.472C34.1802 195.234 35.2993 195.699 34.7046 194.677C34.6343 194.563 34.1153 192.828 34.0612 192.709C33.5638 191.628 33.1042 191.146 30.3577 191.146C26.7136 191.146 26.3946 192.914 26.0053 193.85C25.7573 194.557 25.5551 195.279 25.3997 196.012C25.3078 196.396 25.2159 196.813 25.124 197.234C24.9023 198.316 24.6915 199.397 24.5509 200.273C24.4244 201.155 24.3719 202.047 24.3941 202.938Z" fill="#011D19"/>
<path d="M24.394 203.145C24.394 204.02 24.4859 204.621 24.4859 204.621H39.8138C39.857 204.129 39.857 203.636 39.8138 203.145H24.394Z" fill="black"/>
<path d="M42.8795 98.6764C42.4686 98.7791 42.0522 98.8818 41.6305 98.9737C36.2779 100.196 30.655 100.693 26.719 99.7523C24.778 99.2927 23.5399 96.9138 22.7505 94.2591C22.5342 93.5346 22.3504 92.7885 22.2098 92.0532C21.7986 90.0421 21.533 88.0039 21.415 85.9545L52.4979 78.3203C52.4979 78.3203 53.4603 80.0937 54.5308 82.4023C55.3591 84.1597 56.0813 85.9652 56.6935 87.809C57.0041 88.7419 57.2196 89.7037 57.3369 90.6799C57.5585 93.3022 50.6759 96.7137 42.8795 98.6764Z" fill="#033730"/>
<path d="M43.2307 134.538C43.1982 135.425 43.1712 136.23 43.1333 136.938C43.1333 137.117 43.1333 137.301 43.1009 137.506C42.4683 146.303 37.1049 176.164 35.4072 185.496C35.3478 185.809 35.2991 186.096 35.2504 186.361C35.0179 187.604 34.8882 188.307 34.8882 188.307L25.8212 187.664C25.8212 187.664 25.7888 186.961 25.7401 185.723C25.7401 185.42 25.7401 185.096 25.6969 184.739C25.486 179.592 25.0319 168.551 24.6912 158.884C24.2209 145.751 25.9402 138.258 25.9402 138.258C25.9402 138.258 26.9188 135.3 26.1727 127.617C25.5563 121.248 23.3666 100.984 22.4799 94.2205C22.2961 92.858 22.1934 92.0578 22.1934 92.0578C22.1934 92.0578 36.4183 88.0569 40.0029 92.539C40.2881 92.8973 40.5027 93.3064 40.6355 93.7447C41.0889 95.4639 41.4213 97.2127 41.6303 98.9783C42.9603 108.397 43.4523 125.639 43.2307 134.538Z" fill="#033730"/>
<path d="M25.6217 104.693C25.5496 104.696 25.4791 104.671 25.4244 104.624C25.3697 104.577 25.3348 104.511 25.3266 104.44C25.3184 104.368 25.3375 104.296 25.3802 104.238C25.4229 104.179 25.486 104.139 25.5568 104.126C26.7734 103.772 27.9037 103.17 28.8765 102.358C31.1095 100.519 32.3476 97.8973 32.553 94.5559C32.5573 94.4799 32.5917 94.4088 32.6484 94.3581C32.6766 94.333 32.7093 94.3136 32.7449 94.3012C32.7805 94.2888 32.8182 94.2835 32.8558 94.2856C32.8934 94.2877 32.9303 94.2973 32.9642 94.3136C32.9982 94.33 33.0286 94.3529 33.0537 94.381C33.0788 94.4091 33.0981 94.4419 33.1105 94.4775C33.123 94.5131 33.1283 94.5508 33.1261 94.5884C32.8558 98.9732 30.8554 101.482 29.2225 102.817C28.1886 103.683 26.9837 104.32 25.6866 104.688L25.6217 104.693Z" fill="#011311"/>
<path d="M42.8955 98.7301C42.8421 98.7243 42.7913 98.7041 42.7485 98.6717C42.7056 98.6394 42.6724 98.596 42.6522 98.5463C42.6382 98.5104 42.6315 98.4722 42.6324 98.4337C42.6333 98.3953 42.6418 98.3574 42.6573 98.3222C42.6729 98.287 42.6953 98.2553 42.7232 98.2288C42.751 98.2023 42.7839 98.1815 42.8198 98.1678C43.8458 97.7001 44.7614 97.0211 45.5068 96.1751C46.2521 95.3291 46.8104 94.3352 47.1451 93.2585C47.1557 93.2216 47.1735 93.1871 47.1974 93.157C47.2214 93.1269 47.251 93.1019 47.2847 93.0833C47.3183 93.0647 47.3553 93.0529 47.3936 93.0487C47.4318 93.0444 47.4704 93.0478 47.5074 93.0585C47.5812 93.0811 47.6434 93.1315 47.6807 93.1991C47.7181 93.2667 47.7276 93.3462 47.7074 93.4207C47.3551 94.5902 46.7529 95.6692 45.9427 96.5831C45.1324 97.497 44.1333 98.224 43.0144 98.7139C42.9763 98.7274 42.9358 98.733 42.8955 98.7301Z" fill="#011311"/>
<path d="M20.7012 89.2787C21.4581 94.7557 33.569 94.4691 41.533 91.7117C49.497 88.9543 55.3579 85.3967 55.4444 83.2935C55.5309 81.1904 52.1517 76.1405 52.1517 74.1887C52.1517 72.2369 52.8005 65.5111 54.6658 63.3754C56.5311 61.2398 59.256 58.6716 58.1639 53.0487C57.434 49.2641 58.2234 46.5607 57.6232 42.9978C57.0231 39.4348 56.8176 37.4451 53.9683 36.4611C53.2601 36.2178 52.2652 35.8285 51.1623 35.3798C47.8047 34.0065 43.4794 32.0763 43.4794 32.0763C43.4794 32.0763 41.1437 32.0277 38.3593 32.0763C35.1153 32.1574 31.3036 32.3953 29.806 33.0549C27.6433 34.0011 25.6807 35.1148 23.5721 42.3598C21.4635 49.6047 21.4365 55.8764 20.8039 63.1159C20.2524 69.0849 19.9497 83.8018 20.7012 89.2787Z" fill="#0BBF90"/>
<path d="M38.3271 32.1093C39.6788 35.0181 44.3502 40.3599 47.605 39.6354C50.3083 39.0352 50.4164 37.0023 51.1301 35.3912C47.7726 34.0179 43.4473 32.0877 43.4473 32.0877C43.4473 32.0877 41.1116 32.039 38.3271 32.1093Z" fill="#FFD4C0"/>
<path d="M53.379 8.93662C53.379 8.93662 51.9138 -1.87669 43.7552 0.285972C34.2935 2.79466 40.8139 22.091 31.0928 20.123C31.0928 20.123 33.3095 24.3294 39.2622 23.1723C42.5495 22.5289 44.4797 17.9171 45.5502 13.9107C45.9991 12.2529 47.0503 10.8222 48.4981 9.89829C49.946 8.97439 51.6864 8.62377 53.379 8.91499V8.93662Z" fill="#3A383D"/>
<path d="M42.9608 13.8413H42.9122C42.8756 13.8354 42.8405 13.8223 42.8089 13.8028C42.7774 13.7833 42.75 13.7577 42.7284 13.7275C42.7068 13.6974 42.6914 13.6633 42.683 13.6271C42.6747 13.591 42.6735 13.5535 42.6797 13.5169C43.0744 11.0839 44.1125 9.31056 45.7777 8.24545C48.7352 6.3423 52.5306 7.36957 52.6928 7.42364C52.7285 7.43235 52.762 7.44824 52.7913 7.47033C52.8206 7.49242 52.8451 7.52025 52.8633 7.55212C52.8816 7.58399 52.8931 7.61923 52.8972 7.6557C52.9014 7.69218 52.8981 7.72911 52.8875 7.76426C52.8684 7.83569 52.822 7.89674 52.7582 7.93418C52.6944 7.97162 52.6185 7.98244 52.5468 7.9643C52.509 7.9643 48.8271 6.97488 46.0967 8.73205C44.5774 9.70525 43.6205 11.3489 43.2528 13.598C43.2446 13.6683 43.2098 13.7327 43.1554 13.778C43.1011 13.8233 43.0314 13.846 42.9608 13.8413Z" fill="white"/>
<path d="M61.5317 15.274C61.5317 15.274 58.9095 7.16406 49.2803 7.7696C41.0351 8.31027 35.05 21.3673 45.4686 27.4715C56.8604 34.1433 61.5317 15.274 61.5317 15.274Z" fill="#3A383D"/>
<path d="M49.8543 37.2829C44.5179 42.5328 40.3981 34.3687 40.7171 32.7954C41.7328 31.7838 42.5386 30.5814 43.0879 29.2573C43.6372 27.9332 43.9192 26.5136 43.9178 25.0801L52.0278 31.2383L51.7034 31.9898C51.1751 33.1812 50.7096 34.3993 50.3085 35.6393C50.122 36.1768 49.9703 36.7258 49.8543 37.2829Z" fill="#FFD4C0"/>
<path d="M50.2811 35.6406C46.0098 33.0832 44.5879 27.3359 44.5879 27.3359L51.676 31.9911C51.1478 33.1824 50.6822 34.4006 50.2811 35.6406Z" fill="#EBBCA6"/>
<path d="M60.6837 16.6133C60.6837 16.6133 63.2897 23.7122 58.2236 25.5721C58.2236 25.5829 59.0022 17.8136 60.6837 16.6133Z" fill="#3A383D"/>
<path d="M55.7467 25.1678C55.7467 25.1678 57.1362 23.2268 58.7366 24.2919C60.337 25.3571 58.4987 31.2395 55.2061 29.9689L55.7467 25.1678Z" fill="#EBBCA6"/>
<path d="M58.8289 25.8431C58.7587 26.0324 58.683 26.2378 58.5911 26.4487C58.4991 26.6595 58.4397 26.7947 58.3586 26.9893C58.3261 27.0542 58.2937 27.1245 58.2558 27.1894C58.2393 27.2323 58.2194 27.2739 58.1964 27.3137C58.0666 27.5679 57.9314 27.8544 57.7855 28.0869C57.6936 28.2545 57.5962 28.4221 57.4935 28.5951V28.6438L57.3475 28.8763C55.6661 31.5796 53.9251 32.5474 52.2274 32.7691C49.3511 33.1475 44.1174 28.4924 43.9336 25.8539C43.8039 23.9508 43.5822 24.6429 44.9122 20.0688C46.2423 15.4948 48.9132 13.6349 48.9132 13.6349C52.3626 11.6128 56.6771 13.5376 58.9371 16.3923C61.1971 19.247 59.8995 22.7235 58.8289 25.8431Z" fill="#FFD4C0"/>
<path d="M52.271 13.2903C52.271 13.2903 49.5406 18.5942 46.74 18.9511C44.9396 19.1836 44.5503 16.6208 44.5503 16.6208C44.5503 16.6208 50.53 9.42996 52.271 13.2903Z" fill="#3A383D"/>
<path d="M46.2047 19.8583C46.2047 19.8583 45.7559 17.6957 43.6473 17.8903C41.5387 18.085 40.2357 24.7568 44.0961 25.2434L46.2047 19.8583Z" fill="#FFD4C0"/>
<path d="M43.5935 23.8641C43.5964 23.945 43.583 24.0256 43.5542 24.1012C43.5254 24.1769 43.4818 24.246 43.4258 24.3044C43.3699 24.3629 43.3028 24.4096 43.2285 24.4416C43.1542 24.4737 43.0742 24.4906 42.9933 24.4913C42.8712 24.4945 42.751 24.4613 42.6477 24.3961C42.5445 24.3308 42.463 24.2363 42.4136 24.1247C42.3642 24.013 42.349 23.8892 42.3701 23.7689C42.3911 23.6486 42.4474 23.5373 42.5319 23.449C42.6163 23.3608 42.725 23.2996 42.8443 23.2733C42.9635 23.247 43.0879 23.2566 43.2017 23.3011C43.3154 23.3456 43.4134 23.4228 43.4831 23.5231C43.5529 23.6233 43.5913 23.742 43.5935 23.8641Z" fill="white"/>
<path d="M49.4868 17.1881C49.4868 17.1881 47.7458 18.2694 47.3241 21.016C46.9024 23.7625 47.0051 25.882 45.1128 26.2496C45.1128 26.2496 46.0968 25.936 45.8751 23.2814C45.6535 20.6267 45.2209 19.0101 46.2374 17.9125C47.2538 16.815 49.4868 17.1881 49.4868 17.1881Z" fill="#3A383D"/>
<path d="M47.4102 13.7803C47.4102 13.7803 51.5462 7.34102 57.38 10.3147C63.2138 13.2883 63.6572 19.5655 59.8617 19.7817C56.0662 19.998 50.8434 14.4508 50.8434 14.4508L47.4102 13.7803Z" fill="#3A383D"/>
<path d="M33.6017 42.8635L30.8983 45.0262L28.1626 47.2213L25.4592 49.438C24.5617 50.1787 23.6751 50.9356 22.7884 51.6818C21.0204 53.174 19.3011 54.7095 17.6466 56.2504C16.8248 57.0235 16.0246 57.7967 15.2515 58.5752C14.8676 58.9699 14.4945 59.3592 14.1323 59.7485C13.7701 60.1378 13.424 60.527 13.0996 60.9109C12.7752 61.2948 12.4616 61.6733 12.1913 62.0355C11.921 62.3978 11.6777 62.7492 11.4939 63.0411L11.429 63.1547L11.3749 63.252L11.3154 63.3439L11.2776 63.425C11.2776 63.425 11.2451 63.4791 11.2397 63.4953L11.2127 63.5494V63.5764V63.6142L11.1803 63.6845C11.0746 63.959 10.9968 64.2434 10.9478 64.5334C10.8084 65.3691 10.7577 66.2173 10.7964 67.0637C10.8334 68.0718 10.9254 69.0771 11.0721 70.0752C11.4026 72.2487 11.8538 74.4021 12.4238 76.5253C12.7158 77.6067 13.0131 78.688 13.3483 79.8018C13.5105 80.3424 13.6727 80.8831 13.8457 81.4238L14.3486 83.0025L14.408 83.1917C14.6986 84.0832 14.6478 85.0508 14.2657 85.9071C13.8835 86.7633 13.1971 87.4471 12.3394 87.8261C11.4818 88.2051 10.514 88.2523 9.62362 87.9584C8.73321 87.6646 7.98357 87.0507 7.51997 86.2357L7.26045 85.7869L7.02255 85.3652C6.86576 85.0895 6.70896 84.8246 6.56298 84.5272C6.26562 83.9865 5.97367 83.408 5.69252 82.8403C5.15185 81.7049 4.61119 80.5587 4.10296 79.3801C3.07252 76.9845 2.22662 74.5136 1.57265 71.9892C1.2284 70.6424 0.968374 69.2754 0.794093 67.8963C0.702179 67.1772 0.648109 66.4365 0.621076 65.6634C0.596196 64.857 0.621467 64.0498 0.69676 63.2466C0.784704 62.3435 0.951144 61.4499 1.19418 60.5757L1.30232 60.2189L1.36178 60.0459L1.42666 59.862L1.56183 59.4944C1.60508 59.37 1.65375 59.2673 1.70241 59.1538L1.84298 58.824L1.98896 58.5158L2.14034 58.213L2.28632 57.9319C2.65802 57.2323 3.06775 56.5537 3.51364 55.899C3.92995 55.2772 4.35167 54.7095 4.77879 54.158C5.20592 53.6065 5.63305 53.0767 6.06558 52.5793C6.49811 52.0819 6.93064 51.5736 7.37398 51.0924C8.24986 50.1301 9.13655 49.2109 10.0395 48.3188C11.8399 46.5292 13.6835 44.8586 15.5488 43.2204C16.4734 42.4039 17.425 41.5984 18.3711 40.8252C19.3173 40.052 20.2689 39.2573 21.2367 38.5003C22.2044 37.7434 23.1668 36.9811 24.1508 36.2458C24.6428 35.8781 25.1294 35.5051 25.6323 35.1644L26.3784 34.6238L26.7623 34.3534L27.1569 34.0723C28.3204 33.2345 29.7661 32.8865 31.1834 33.1027C32.6007 33.319 33.8767 34.0825 34.7374 35.2291C35.5981 36.3757 35.9749 37.8142 35.7868 39.2355C35.5987 40.6569 34.8607 41.9478 33.7314 42.8311L33.6017 42.8635Z" fill="#0BBF90"/>
<path d="M10.8555 63.5388C10.797 63.5214 10.7457 63.4853 10.7095 63.4361C10.1904 62.8381 9.53867 62.3697 8.80638 62.0682C8.77014 62.0568 8.73673 62.0379 8.70829 62.0127C8.67985 61.9876 8.65704 61.9567 8.64135 61.9221C8.62565 61.8875 8.61742 61.85 8.61719 61.812C8.61697 61.774 8.62476 61.7364 8.64004 61.7016C8.65533 61.6668 8.67777 61.6357 8.70591 61.6101C8.73405 61.5846 8.76726 61.5653 8.80336 61.5535C8.83946 61.5417 8.87764 61.5376 8.91543 61.5415C8.95321 61.5454 8.98976 61.5573 9.02266 61.5762C9.84479 61.9083 10.5726 62.4375 11.1421 63.1171C11.1851 63.1745 11.2035 63.2466 11.1934 63.3176C11.1833 63.3885 11.1453 63.4526 11.088 63.4956C11.0543 63.5183 11.0162 63.5339 10.9762 63.5413C10.9362 63.5488 10.8952 63.5479 10.8555 63.5388Z" fill="#099C76"/>
<path d="M6.58469 63.4032C6.52224 63.3907 6.46606 63.3569 6.4257 63.3076C6.38534 63.2584 6.36328 63.1966 6.36328 63.1329C6.36328 63.0692 6.38534 63.0075 6.4257 62.9582C6.46606 62.9089 6.52224 62.8751 6.58469 62.8626C8.04841 62.5458 9.57429 62.6893 10.9533 63.2735C11.0171 63.3065 11.0652 63.3635 11.087 63.4319C11.1088 63.5003 11.1025 63.5746 11.0695 63.6384C11.0365 63.7023 10.9795 63.7503 10.9111 63.7721C10.8427 63.7939 10.7684 63.7877 10.7046 63.7547C9.43011 63.2339 8.02823 63.1095 6.68201 63.3978C6.65004 63.4046 6.61722 63.4064 6.58469 63.4032Z" fill="#099C76"/>
<path d="M12.1425 81.0015C12.8508 81.1204 13.4563 82.2018 14.1808 82.8019C15.2463 83.7284 16.1252 84.8496 16.7706 86.1054C17.4465 87.6301 19.182 92.2257 18.6197 93.4963C18.0574 94.7668 16.257 90.9119 15.8731 90.1279C15.6566 89.6711 15.3363 89.2712 14.9378 88.9601C14.9378 88.9601 18.3926 98.1136 17.8357 99.0705C17.2789 100.028 14.7918 95.0101 14.1862 93.7666C14.1862 93.7666 16.4084 100.795 15.8677 101.309C14.7864 102.298 12.0831 94.5506 12.0831 94.5506C12.0831 94.5506 13.651 100.574 12.6508 100.801C11.6505 101.028 9.94743 94.5884 9.94743 94.5884C9.94743 94.5884 10.3962 98.665 9.62303 99.2544C8.84988 99.8437 7.25492 91.3606 7.16301 90.0306C7.07109 88.7006 6.29794 85.6728 6.48176 83.9373C6.56286 82.7587 9.88796 80.6176 12.1425 81.0015Z" fill="#FFD4C0"/>
<path d="M13.2939 79.7914C11.8662 79.6331 10.4212 79.7698 9.04846 80.193C7.67572 80.6161 6.40453 81.3168 5.31371 82.2514C5.12448 83.0192 5.36778 83.4625 6.2815 84.1059C6.2815 84.1059 10.2446 81.1647 13.9698 81.9973C13.9698 81.9973 14.1752 80.2672 13.2939 79.7914Z" fill="#099C76"/>
</svg>
