<svg width="66" height="70" viewBox="0 0 66 70" fill="none" xmlns="http://www.w3.org/2000/svg">
<path fill-rule="evenodd" clip-rule="evenodd" d="M35.3907 0.0410533C32.2426 0.378695 29.1601 1.50408 26.4307 3.31254C22.1528 6.14706 19.1495 10.5893 18.0329 15.7343C17.6859 17.3323 17.6888 21.8535 18.0378 23.4632C19.7546 31.3837 25.8022 37.3172 33.7723 38.9011C35.4552 39.2355 39.3206 39.2341 41.0109 38.8984C49.2345 37.2653 55.3643 31.0385 56.8555 22.8034C57.1338 21.2664 57.1338 17.9069 56.8555 16.3699C55.72 10.0992 51.682 4.69552 46.1158 1.99809C44.5242 1.2269 42.6995 0.610173 41.0717 0.293464C39.9577 0.0766234 36.4936 -0.0772853 35.3907 0.0410533ZM39.7987 4.26102C43.2064 4.81099 46.1562 6.33872 48.5705 8.804C53.2073 13.5389 54.3043 20.6658 51.3041 26.5638C49.7651 29.5893 47.3519 31.9784 44.3283 33.4696C39.2755 35.9616 33.4603 35.5967 28.7219 32.4903C27.6071 31.7595 25.754 30.0039 24.8536 28.8255C23.9073 27.587 22.7445 25.1852 22.3013 23.5541C21.9586 22.293 21.9296 21.9827 21.9296 19.5866C21.9296 17.2074 21.9603 16.8748 22.2913 15.6594C23.001 13.0534 24.2849 10.8168 26.2135 8.82616C29.7502 5.17586 34.8492 3.46234 39.7987 4.26102ZM36.6214 8.89566C36.0249 9.16448 35.4738 9.87301 35.3727 10.5014C35.3027 10.9372 35.2176 11.0559 34.926 11.1238C34.1696 11.3002 32.9435 12.0684 32.2994 12.7696C29.7858 15.5059 30.9162 19.9713 34.4582 21.298C35.0787 21.5304 35.6741 21.6126 37.1716 21.6728C38.9351 21.7437 39.1155 21.7753 39.406 22.0644C39.8346 22.4908 39.8279 23.2111 39.3905 23.7174L39.059 24.1013L36.7436 24.1697C35.2699 24.2132 34.3196 24.2999 34.1296 24.4083C33.3468 24.8541 32.9693 25.8597 33.2434 26.7696C33.435 27.4059 34.1883 28.0928 34.8249 28.2115C35.226 28.2865 35.3092 28.3685 35.3833 28.7615C35.5453 29.6207 36.5464 30.4628 37.4054 30.4628C37.573 30.4628 37.9658 30.3397 38.2782 30.1892C38.8922 29.8935 39.447 29.0994 39.447 28.5163C39.447 28.239 39.549 28.1507 40.0314 28.0102C41.4036 27.6103 42.7518 26.417 43.4098 25.0204C43.7325 24.3354 43.7783 24.068 43.7783 22.87C43.7783 21.672 43.7325 21.4047 43.4098 20.7197C42.8954 19.6277 41.9296 18.6488 40.8398 18.1147C39.9817 17.6943 39.8312 17.6671 37.9378 17.5899C36.8394 17.5452 35.8361 17.4631 35.7084 17.4074C35.153 17.1657 34.8791 16.2555 35.1886 15.6801C35.4881 15.1233 36.0176 15.0036 38.1823 15.0036C40.0836 15.0036 40.265 14.9811 40.6985 14.693C41.5465 14.1294 41.8827 12.9809 41.4457 12.1401C41.1574 11.5854 40.5078 11.085 39.938 10.9786C39.5435 10.905 39.447 10.8249 39.447 10.5714C39.447 10.1896 38.9593 9.44781 38.4725 9.08924C38.0089 8.7475 37.1498 8.65775 36.6214 8.89566ZM55.3916 42.0741C54.1112 42.3533 52.4963 43.0388 51.4543 43.7454C51.0894 43.9927 49.9788 44.987 48.9861 45.9548L47.1813 47.7144L46.8157 47.0937C45.9141 45.5629 44.0655 44.3204 42.2321 44.0127C41.562 43.9002 38.9376 43.8689 33.2505 43.9053C24.4155 43.9619 24.6808 43.9381 22.8156 44.8448C21.4407 45.5131 19.8633 47.1498 19.0746 48.7267C18.7358 49.4039 18.4218 50.0986 18.3769 50.2704C18.297 50.5755 18.2592 50.5819 16.7366 50.544L15.1781 50.5052L15.1074 48.9319C15.0291 47.1924 14.9209 46.91 14.1468 46.4273C13.6701 46.1302 13.6079 46.1273 7.5224 46.1273C1.53244 46.1273 1.36991 46.1343 0.999619 46.4094C0.790755 46.5646 0.492377 46.8614 0.336451 47.0692C0.0566362 47.4419 0.0523737 47.5847 0.0160734 57.9033C-0.0202269 68.1814 -0.0161019 68.369 0.258488 68.9046C0.439164 69.2569 0.729567 69.5466 1.08061 69.7249C1.59967 69.9884 1.88114 70.0003 7.57561 70C14.212 69.9999 14.1593 70.0067 14.7972 69.0566C15.0737 68.6448 15.1093 68.4227 15.1093 67.1112V65.6305L30.2001 65.5871C47.1442 65.5384 45.8166 65.6198 48.0408 64.4943C49.0963 63.9602 49.4787 63.602 57.4856 55.6482C66.7312 46.4637 66.2801 47.0048 65.7794 45.7005C65.3264 44.5201 62.5649 42.7244 60.3472 42.1678C58.9273 41.8115 56.7821 41.771 55.3916 42.0741ZM58.9722 46.0674C59.3125 46.1437 59.8588 46.3064 60.1863 46.4289L60.7817 46.6517L53.8641 53.5353C46.5291 60.8344 46.2951 61.0344 44.6997 61.3665C44.193 61.472 39.5742 61.5182 29.5402 61.5182H15.1093V58.1102V54.7022L17.8937 54.6558C20.3968 54.6141 20.7262 54.5812 21.1545 54.331C21.8089 53.9485 22.126 53.3443 22.2695 52.2064C22.496 50.4119 23.303 49.2461 24.8401 48.493L25.7593 48.0426L33.4929 48.0021C38.7594 47.9745 41.4038 48.009 41.7823 48.1105C44.1863 48.7544 44.1297 52.072 41.7052 52.6316C41.4085 52.7 39.3341 52.7574 37.0955 52.7592C33.103 52.7625 33.0165 52.7684 32.5718 53.0703C31.2632 53.959 31.3405 55.714 32.7239 56.5247C33.1554 56.7777 33.4821 56.8016 37.0407 56.841C41.6788 56.8925 42.7011 56.7844 44.122 56.0929C45.0686 55.6323 45.509 55.2404 49.4846 51.3207C54.0664 46.8033 54.4114 46.5309 56.0534 46.1348C57.0034 45.9057 58.134 45.8796 58.9722 46.0674ZM10.9843 58.0296V65.896H7.54674H4.10921V58.0296V50.1632H7.54674H10.9843V58.0296Z" fill="#DADADA"/>
</svg>
