<svg width="67" height="67" viewBox="0 0 67 67" fill="none" xmlns="http://www.w3.org/2000/svg">
<path d="M33.5 67C14.998 67 0 52.002 0 33.5C0 14.998 14.998 0 33.5 0C52.002 0 67 14.998 67 33.5C67 52.002 52.002 67 33.5 67ZM33.5 60.3C40.6078 60.3 47.4245 57.4764 52.4505 52.4505C57.4764 47.4245 60.3 40.6078 60.3 33.5C60.3 26.3922 57.4764 19.5755 52.4505 14.5495C47.4245 9.52356 40.6078 6.7 33.5 6.7C26.3922 6.7 19.5755 9.52356 14.5495 14.5495C9.52356 19.5755 6.7 26.3922 6.7 33.5C6.7 40.6078 9.52356 47.4245 14.5495 52.4505C19.5755 57.4764 26.3922 60.3 33.5 60.3ZM21.775 40.2H40.2C40.6442 40.2 41.0703 40.0235 41.3844 39.7094C41.6985 39.3953 41.875 38.9692 41.875 38.525C41.875 38.0808 41.6985 37.6547 41.3844 37.3406C41.0703 37.0265 40.6442 36.85 40.2 36.85H26.8C24.5788 36.85 22.4486 35.9676 20.878 34.397C19.3074 32.8264 18.425 30.6962 18.425 28.475C18.425 26.2538 19.3074 24.1236 20.878 22.553C22.4486 20.9824 24.5788 20.1 26.8 20.1H30.15V13.4H36.85V20.1H45.225V26.8H26.8C26.3558 26.8 25.9297 26.9765 25.6156 27.2906C25.3015 27.6047 25.125 28.0308 25.125 28.475C25.125 28.9192 25.3015 29.3453 25.6156 29.6594C25.9297 29.9735 26.3558 30.15 26.8 30.15H40.2C42.4212 30.15 44.5514 31.0324 46.122 32.603C47.6926 34.1736 48.575 36.3038 48.575 38.525C48.575 40.7462 47.6926 42.8764 46.122 44.447C44.5514 46.0176 42.4212 46.9 40.2 46.9H36.85V53.6H30.15V46.9H21.775V40.2Z" fill="#DADADA"/>
</svg>
