<svg width="92" height="165" viewBox="0 0 92 165" fill="none" xmlns="http://www.w3.org/2000/svg">
<g clip-path="url(#clip0_496_20620)">
<path d="M50.9011 79.8217C50.6726 80.1408 50.5521 80.5252 50.5571 80.9184C50.5621 81.3116 50.6925 81.6927 50.929 82.0058C50.9682 82.057 51.0015 82.1124 51.0283 82.1712C59.9633 87.5704 86.7607 109.414 86.7607 124.81V156.703H5.88314V124.794C5.88314 109.3 33.0465 87.1087 41.7846 82.0027C42.0224 81.6848 42.1533 81.299 42.1584 80.9013C42.1535 80.4987 42.0227 80.1079 41.7846 79.7843C33.0264 74.5629 5.88159 52.5367 5.88159 37.0393V5.14746H86.7607V37.0549C86.7607 52.5242 59.6919 74.6689 50.9011 79.8217Z" fill="#E6FFF8"/>
<path d="M29.0342 126.768C28.6201 133.907 29.9648 149.306 29.8485 156.7H5.88314V124.794C5.88314 109.3 33.0465 87.1087 41.7846 82.0027C42.0224 81.6848 42.1533 81.299 42.1584 80.9013C42.1535 80.4987 42.0227 80.1079 41.7846 79.7843C33.0264 74.5629 5.88159 52.5367 5.88159 37.0393V5.14746H21.9153L33.3598 8.29874V33.5214C33.3598 33.5214 32.2261 40.7865 35.0659 47.9221C37.9057 55.0577 43.9947 77.9513 43.9063 80.9247C43.8179 83.8981 29.7445 114.531 29.0342 126.768Z" fill="#DAF8EF"/>
<path d="M76.287 26.3512C71.3844 26.4246 62.9488 27.3138 49.3175 30.7739C39.9823 33.1436 23.8818 31.359 15.3702 30.1328C14.6669 30.0316 13.9501 30.0835 13.2684 30.285C12.5868 30.4865 11.956 30.8328 11.4189 31.3006C10.8818 31.7684 10.4508 32.3468 10.155 32.9966C9.85925 33.6464 9.70565 34.3525 9.70459 35.0672V38.7426C9.70459 48.8704 36.7997 70.8123 43.9636 76.4378C44.4995 76.8581 44.9331 77.3957 45.2315 78.0099C45.5298 78.6241 45.6849 79.2986 45.6851 79.9822V136.31C45.6826 137.257 45.4532 138.189 45.0164 139.027C44.5795 139.866 43.9481 140.586 43.1757 141.126C37.5395 145.093 28.0524 156.709 28.0524 156.709H63.9553C63.9553 156.709 54.3255 145.507 48.9204 141.348C48.3108 140.88 47.8167 140.278 47.4764 139.587C47.1361 138.896 46.9589 138.136 46.9585 137.365V79.9666C46.9587 79.2865 47.1109 78.6152 47.4037 78.0022C47.6966 77.3892 48.1227 76.8503 48.6506 76.4253C55.6748 70.767 82.1806 48.7456 82.1806 38.624V32.192C82.1807 31.4176 82.0277 30.6509 81.7304 29.9365C81.4332 29.2221 80.9977 28.5743 80.4492 28.0308C79.9008 27.4872 79.2504 27.0589 78.5358 26.7705C77.8212 26.4822 77.0568 26.3397 76.287 26.3512Z" fill="#0BBF90"/>
<path d="M0.600586 0.0820312H91.3996V4.03673C91.3996 5.16667 90.9533 6.25033 90.159 7.04933C89.3646 7.84832 88.2873 8.29719 87.1639 8.29719H4.68424C3.60119 8.29719 2.5625 7.86442 1.79666 7.0941C1.03083 6.32378 0.600586 5.27901 0.600586 4.18961L0.600586 0.0820312Z" fill="#038D69"/>
<path d="M4.8595 156.71H87.3159C88.3989 156.71 89.4376 157.143 90.2035 157.913C90.9693 158.683 91.3996 159.728 91.3996 160.818V164.925H0.600586V160.994C0.600586 159.858 1.04929 158.768 1.84799 157.965C2.64669 157.161 3.72997 156.71 4.8595 156.71Z" fill="#038D69"/>
</g>
<defs>
<clipPath id="clip0_496_20620">
<rect width="90.799" height="164.835" fill="white" transform="translate(0.600586 0.0820312)"/>
</clipPath>
</defs>
</svg>
