<svg width="158" height="104" viewBox="0 0 158 104" fill="none" xmlns="http://www.w3.org/2000/svg">
<path d="M82.9997 93.9271C83.0142 95.9101 82.4388 97.8525 81.3466 99.5076C80.2545 101.163 78.6949 102.456 76.8661 103.222C75.0373 103.989 73.0219 104.195 71.076 103.813C69.1301 103.432 67.3415 102.48 65.9376 101.08C64.5337 99.6793 63.5779 97.893 63.1916 95.948C62.8053 94.0031 63.006 91.9871 63.7681 90.1565C64.5303 88.3258 65.8195 86.7631 67.472 85.6669C69.1244 84.5707 71.0655 83.9905 73.0484 84.0001C75.6795 84.0129 78.1996 85.0621 80.0624 86.9203C81.9252 88.7785 82.9806 91.296 82.9997 93.9271Z" fill="#F53838"/>
<path d="M49.6938 79.2659C52.3254 76.4865 55.5045 74.2599 59.0387 72.7207C62.5728 71.1815 66.3885 70.3618 70.2549 70.3112C74.1212 70.2606 77.9578 70.9801 81.5326 72.4261C85.1073 73.8722 88.3459 76.0148 91.0522 78.7242C96.3224 83.9193 104.579 75.9174 99.3089 70.6977C95.5204 66.9519 91.0066 63.9875 86.0329 61.9788C81.0592 59.9701 75.7263 58.9578 70.3478 59.0014C64.9694 59.0449 59.6542 60.1436 54.7151 62.2326C49.7759 64.3216 45.3125 67.3588 41.5877 71.1655C36.5685 76.459 44.5992 84.5841 49.744 79.2659H49.6938Z" fill="#F53838"/>
<path d="M10.5974 39.3086C27.1166 23.5396 46.8603 13.6109 68.9299 13.5525C90.9334 13.2736 112.207 22.2639 128.425 38.6954C134.161 44.5358 142.857 35.1619 137.121 29.2048C118.599 10.2466 94.2312 -0.19649 68.9828 0.0028007C43.5829 0.0028007 20.9847 11.6836 2.00742 29.672C-3.93949 35.5124 4.65049 44.9154 10.5974 39.2502V39.3086Z" fill="#F53838"/>
<path d="M27.7305 59.1523C32.9575 53.1887 39.3357 48.3968 46.4631 45.0785C53.5906 41.7601 61.3128 39.9872 69.1433 39.8716C76.9738 39.7559 84.7429 41.2999 91.9611 44.4064C99.1793 47.5128 105.69 52.1143 111.083 57.921C116.301 63.4105 124.553 55.048 119.336 49.5843C112.873 42.6681 105.09 37.1838 96.4683 33.4716C87.8468 29.7594 78.5714 27.8984 69.2175 28.0043C59.8636 28.1101 50.6308 30.1804 42.0918 34.0868C33.5528 37.9932 25.8898 43.6522 19.5783 50.7129C14.5615 56.305 22.6636 64.77 27.7305 59.1523Z" fill="#F53838"/>
<path d="M142.43 17.8565L156.857 3.43026C157.488 2.79877 157.488 1.77491 156.857 1.14342C156.225 0.511927 155.201 0.511926 154.57 1.14342L140.143 15.5697C139.512 16.2012 139.512 17.225 140.143 17.8565C140.775 18.488 141.799 18.488 142.43 17.8565Z" fill="#F53838"/>
<path d="M156.857 15.87L142.43 1.44374C141.799 0.812244 140.775 0.812244 140.143 1.44374C139.512 2.07523 139.512 3.09908 140.143 3.73058L154.57 18.1569C155.201 18.7884 156.225 18.7884 156.857 18.1569C157.488 17.5254 157.488 16.5015 156.857 15.87Z" fill="#F53838"/>
</svg>
