<svg width="336" height="295" viewBox="0 0 336 295" fill="none" xmlns="http://www.w3.org/2000/svg">
<g opacity="0.8">
<g opacity="0.8">
<path opacity="0.8" d="M110.31 105.516C110.31 105.516 120.447 120.923 114.668 139.652L112.068 138.954C112.068 138.954 114.596 118.299 109.299 107.923C103.977 97.5475 110.31 105.516 110.31 105.516Z" fill="#AEC3FF"/>
</g>
</g>
<path d="M298.996 0H84.375V293.434H298.996V0Z" fill="#076558"/>
<path d="M289.848 7.92065H93.5273V285.346H289.848V7.92065Z" fill="#F3FAFF"/>
<path d="M150.98 0V9.99059C150.98 15.5035 155.459 19.9812 160.973 19.9812H214.623C220.137 19.9812 224.616 15.5035 224.616 9.99059V0H150.98Z" fill="#033730"/>
<path d="M140.603 246.058H116.307V248.514H140.603V246.058Z" fill="#076558"/>
<path d="M170.533 246.058H146.236V248.514H170.533V246.058Z" fill="#076558"/>
<path d="M149.994 251.523H116.307V253.979H149.994V251.523Z" fill="#076558"/>
<path d="M144.526 41.4312H153.411C155.892 41.4312 157.794 42.1293 159.07 43.4052C160.154 44.4885 160.732 46.0052 160.732 47.907C160.732 51.0366 159.046 53.0106 156.566 53.9254L161.309 60.8586H156.301L152.087 54.6476H148.788V60.8586H144.502V41.4312H144.526ZM153.122 50.868C155.217 50.868 156.397 49.7607 156.397 48.0514C156.397 46.2218 155.121 45.2829 153.026 45.2829H148.764V50.868H153.122Z" fill="#099C76"/>
<path d="M164.293 52.5532V41.4312H168.579V52.4328C168.579 55.6106 170.168 57.2476 172.769 57.2476C175.37 57.2476 176.959 55.6587 176.959 52.5773V41.4312H181.245V52.4088C181.245 58.3068 177.946 61.1957 172.721 61.1957C167.496 61.1716 164.293 58.2587 164.293 52.5532Z" fill="#099C76"/>
<path d="M185.605 41.4312H189.892V56.9828H199.596V60.8827H185.63V41.4312H185.605Z" fill="#099C76"/>
<path d="M202.823 41.4312H217.487V45.2348H207.061V49.1829H216.235V52.9865H207.061V57.0791H217.608V60.8827H202.799V41.4312H202.823Z" fill="#099C76"/>
<path d="M220.086 58.0423L222.614 55.009C224.372 56.4534 226.202 57.3682 228.417 57.3682C230.175 57.3682 231.235 56.6701 231.235 55.4905C231.235 54.4072 230.561 53.8535 227.31 53.0109C223.385 51.9998 220.856 50.9165 220.856 47.0165C220.856 43.4777 223.698 41.1666 227.671 41.1666C230.512 41.1666 232.92 42.0574 234.895 43.6462L232.68 46.8721C230.946 45.6684 229.26 44.9462 227.623 44.9462C225.985 44.9462 225.119 45.6925 225.119 46.7036C225.119 47.9795 225.961 48.3887 229.308 49.2554C233.257 50.2906 235.473 51.7109 235.473 55.1534C235.473 59.0052 232.535 61.1719 228.321 61.1719C225.407 61.1478 222.422 60.1367 220.086 58.0423Z" fill="#099C76"/>
<path d="M242.722 65.4565H137.254V66.8291H242.722V65.4565Z" fill="#099C76"/>
<path d="M270.195 111.004H234.678V75.4949H270.195V111.004ZM236.363 109.318H268.534V77.18H236.363V109.318Z" fill="#0BBF90"/>
<path d="M253.338 103.878C252.592 103.878 251.894 103.541 251.412 102.963L240.456 89.7229C239.565 88.6637 239.734 87.0748 240.793 86.1841C241.853 85.2933 243.442 85.4619 244.333 86.5211L253.025 97.0413L268.749 70.6565C269.448 69.4769 270.989 69.0677 272.193 69.7899C273.373 70.488 273.782 72.0287 273.06 73.2324L255.53 102.675C255.12 103.373 254.374 103.83 253.555 103.902C253.459 103.854 253.387 103.878 253.338 103.878Z" fill="#0BBF90"/>
<path d="M207.299 80.7427H128.414V84.2101H207.299V80.7427Z" fill="#0BBF90"/>
<path d="M201.11 96.2227H128.414V99.6901H201.11V96.2227Z" fill="#0BBF90"/>
<path d="M207.298 88.4707H185.795V91.9382H207.298V88.4707Z" fill="#0BBF90"/>
<path d="M179.824 88.4707H128.414V91.9382H179.824V88.4707Z" fill="#0BBF90"/>
<path d="M110.758 83.8493L107.218 84.8364L106.496 82.0438L111.769 80.3586H114.177V100.099H110.758V83.8493Z" fill="#0BBF90"/>
<path d="M116.418 98.8229C116.418 98.1246 116.972 97.5708 117.67 97.5708C118.368 97.5708 118.922 98.1246 118.922 98.8229C118.922 99.5212 118.368 100.075 117.67 100.075C116.972 100.075 116.418 99.5212 116.418 98.8229Z" fill="#0BBF90"/>
<path d="M270.488 164.039H234.971V128.53H270.488V164.039ZM236.656 162.354H268.826V130.191H236.656V162.354Z" fill="#0BBF90"/>
<path d="M253.61 156.889C252.864 156.889 252.165 156.552 251.684 155.974L240.727 142.733C239.837 141.674 240.005 140.085 241.065 139.195C242.124 138.304 243.713 138.472 244.604 139.532L253.297 150.052L269.021 123.667C269.719 122.487 271.26 122.078 272.464 122.8C273.644 123.499 274.053 125.039 273.331 126.243L255.801 155.685C255.392 156.383 254.645 156.841 253.827 156.913C253.754 156.889 253.682 156.889 253.61 156.889Z" fill="#0BBF90"/>
<path d="M106.369 150.412L113.063 144.707C115.736 142.444 116.699 141.192 116.699 139.458C116.699 137.533 115.327 136.425 113.545 136.425C111.763 136.425 110.535 137.388 109.042 139.338L106.634 137.436C108.488 134.812 110.342 133.344 113.81 133.344C117.614 133.344 120.239 135.679 120.239 139.218C120.239 142.275 118.602 143.912 115.182 146.753L111.185 150.099H120.456V153.108H106.393V150.412H106.369Z" fill="#0BBF90"/>
<path d="M122.74 151.881C122.74 151.207 123.294 150.653 123.968 150.653C124.643 150.653 125.196 151.207 125.196 151.881C125.196 152.555 124.643 153.109 123.968 153.109C123.294 153.109 122.74 152.555 122.74 151.881Z" fill="#0BBF90"/>
<path d="M211.962 133.778H129.08V137.245H211.962V133.778Z" fill="#0BBF90"/>
<path d="M205.46 149.233H129.08V152.701H205.46V149.233Z" fill="#0BBF90"/>
<path d="M211.964 141.505H189.377V144.973H211.964V141.505Z" fill="#0BBF90"/>
<path d="M183.114 141.505H129.08V144.973H183.114V141.505Z" fill="#0BBF90"/>
<path d="M270.49 217.458H234.973V181.95H270.49V217.458ZM236.658 215.773H268.828V183.611H236.658V215.773Z" fill="#0BBF90"/>
<path d="M253.61 210.308C252.864 210.308 252.165 209.971 251.684 209.394L240.727 196.153C239.837 195.094 240.005 193.505 241.065 192.614C242.124 191.724 243.713 191.892 244.604 192.951L253.297 203.471L269.021 177.087C269.719 175.907 271.26 175.498 272.464 176.22C273.644 176.918 274.053 178.459 273.331 179.663L255.801 209.105C255.392 209.803 254.645 210.26 253.827 210.332C253.754 210.308 253.682 210.308 253.61 210.308Z" fill="#0BBF90"/>
<path d="M211.958 187.198H129.076V190.665H211.958V187.198Z" fill="#0BBF90"/>
<path d="M205.456 202.653H129.076V206.121H205.456V202.653Z" fill="#0BBF90"/>
<path d="M211.96 194.925H189.373V198.393H211.96V194.925Z" fill="#0BBF90"/>
<path d="M183.111 194.925H129.076V198.393H183.111V194.925Z" fill="#0BBF90"/>
<path d="M106.1 202.99L108.435 200.824C109.808 202.437 111.325 203.327 113.444 203.327C115.322 203.327 116.743 202.196 116.743 200.39C116.743 198.513 115.033 197.453 112.36 197.453H110.819L110.265 195.359L115.418 189.894H107.183V186.981H119.777V189.485L114.479 194.926C117.489 195.359 120.09 196.924 120.09 200.342C120.09 203.857 117.369 206.361 113.42 206.361C110.073 206.336 107.713 204.964 106.1 202.99Z" fill="#0BBF90"/>
<path d="M121.029 205.133C121.029 204.458 121.583 203.929 122.233 203.929C122.907 203.929 123.437 204.483 123.437 205.133C123.437 205.783 122.883 206.337 122.233 206.337C121.559 206.337 121.029 205.807 121.029 205.133Z" fill="#0BBF90"/>
<path d="M206.141 253.905C199.014 253.905 192.801 248.85 191.381 241.893C191.26 241.339 191.621 240.785 192.175 240.665C192.729 240.544 193.283 240.906 193.403 241.459C194.631 247.478 199.977 251.835 206.141 251.835C212.233 251.835 217.579 247.526 218.855 241.58C218.976 241.026 219.53 240.665 220.083 240.785C220.637 240.906 220.998 241.459 220.878 242.013C219.385 248.922 213.173 253.905 206.141 253.905Z" fill="#66CCFF"/>
<path d="M192.371 237.199C192.298 237.199 192.25 237.199 192.178 237.175C191.624 237.078 191.263 236.525 191.359 235.971C192.732 228.917 198.944 223.79 206.144 223.79C213.055 223.79 219.075 228.46 220.76 235.176C220.905 235.73 220.568 236.284 220.014 236.428C219.46 236.573 218.906 236.236 218.762 235.682C217.317 229.904 212.116 225.86 206.144 225.86C199.932 225.86 194.562 230.289 193.382 236.38C193.286 236.862 192.852 237.199 192.371 237.199Z" fill="#66CCFF"/>
<path d="M206.143 260.261C194.344 260.261 184.736 250.656 184.736 238.86C184.736 227.063 194.344 217.458 206.143 217.458C217.942 217.458 227.55 227.063 227.55 238.86C227.55 250.656 217.942 260.261 206.143 260.261ZM206.143 220.395C195.957 220.395 187.674 228.676 187.674 238.86C187.674 249.043 195.957 257.324 206.143 257.324C216.329 257.324 224.612 249.043 224.612 238.86C224.612 228.676 216.329 220.395 206.143 220.395Z" fill="#66CCFF"/>
<path d="M210.357 236.188H201.881V237.536H210.357V236.188Z" fill="#66CCFF"/>
<path d="M210.357 241.725H201.881V243.073H210.357V241.725Z" fill="#66CCFF"/>
<path d="M212.356 238.86H199.883V240.208H212.356V238.86Z" fill="#66CCFF"/>
<path d="M67.2285 146.826C67.2285 146.826 67.9027 145.334 68.3362 144.612C68.7696 143.889 70.6237 141.819 70.9368 142.301C71.2498 142.782 72.5019 145.936 71.8277 146.826C71.1535 147.717 71.8759 149.258 68.5529 150.197L67.2285 146.826Z" fill="#FFD4C0"/>
<path d="M30.3652 137.341C30.3652 137.341 47.3654 151.521 53.9872 150.197C59.1643 149.162 67.1106 146.441 67.1106 146.441L68.6998 150.51C68.6998 150.51 61.5723 160.187 54.1317 160.235C42.5013 160.332 33.929 155.204 33.929 155.204L30.3652 137.341Z" fill="#099C76"/>
<path d="M0.554688 286.911C0.554688 286.911 1.03628 294.856 2.57737 294.976C2.79409 295 10.3791 295 10.3791 295L20.0832 294.952C20.0832 294.952 20.0109 292.617 17.1936 292.111C14.3523 291.606 9.60858 289.632 7.89894 285.876C6.09297 281.928 0.554688 286.911 0.554688 286.911Z" fill="black"/>
<path d="M0.000174745 287.464C0.000174745 287.464 2.96195 288.451 5.2495 288.451C7.82601 288.451 10.1617 287.753 10.1617 287.753C10.1617 287.753 10.7156 282.385 13.7737 270.541C15.387 264.33 17.6745 256.361 20.9253 246.467C29.931 219.071 32.6761 203.062 32.9169 201.545C32.9409 201.473 32.9409 201.425 32.9409 201.425L32.9169 201.401L5.2495 189.244C5.2495 189.244 8.6688 226.991 4.31041 241.484C3.70842 243.506 3.17867 245.865 2.72116 248.417C-0.0720668 264.161 0.000174745 287.464 0.000174745 287.464Z" fill="#033730"/>
<path d="M13.7745 270.541C15.3879 264.33 17.6754 256.361 20.9262 246.467C29.9319 219.071 32.677 203.062 32.9178 201.545C32.9178 201.497 32.9178 201.449 32.9178 201.401L5.2504 189.244C5.2504 189.244 8.66969 226.991 4.3113 241.484C3.66116 243.506 13.7745 270.541 13.7745 270.541Z" fill="#042723"/>
<path d="M22.1777 286.911C22.1777 286.911 22.6593 294.856 24.2004 294.976C24.4171 295 32.0022 295 32.0022 295L41.7062 294.952C41.7062 294.952 41.634 292.617 38.8167 292.111C35.9753 291.606 31.2316 289.632 29.522 285.876C27.716 281.928 22.1777 286.911 22.1777 286.911Z" fill="black"/>
<path d="M37.8744 190.159C37.8744 190.159 38.2356 214.618 33.9976 244.638C29.7596 274.658 31.2043 287.417 31.2043 287.417C31.2043 287.417 28.2907 288.356 27.1108 288.452C24.125 288.693 21.0669 287.754 21.0669 287.754C21.0669 287.754 14.9988 257.71 16.7566 242.688C18.4904 227.666 8.44922 191.098 8.44922 191.098L37.8744 190.159Z" fill="#033730"/>
<path d="M18.2539 132.912L23.6477 136.451L28.5599 135.054C29.4509 133.778 29.6917 131.299 29.7158 129.156C29.7398 127.038 29.5231 125.232 29.5231 125.232L22.227 122.006L19.506 120.803C19.506 120.851 19.7228 123.042 19.7468 123.355C20.2525 129.06 18.2539 132.912 18.2539 132.912Z" fill="#FFD4C0"/>
<path d="M37.9983 196.948C31.2801 203.448 5.8281 202.34 4.26293 195.19C2.69776 188.04 5.97257 134.308 17.4585 130.938C19.8424 130.239 32.5804 134.356 32.5804 134.356C32.5804 134.356 34.579 139.58 35.9034 146.249C36.1683 147.548 36.8906 161.271 37.4686 174.126C37.7334 180.144 37.9501 185.946 38.0705 190.207C38.1187 194.179 38.1428 196.803 37.9983 196.948Z" fill="#0BBF90"/>
<path d="M20.3009 123.474C21.7697 125.978 26.9709 128.169 29.716 129.156C29.7401 127.037 29.5233 125.232 29.5233 125.232L22.2273 122.006C20.6139 122.006 19.6507 122.367 20.3009 123.474Z" fill="#EBBCA6"/>
<path d="M32.266 124.799C32.266 124.799 20.5152 128.458 18.348 121.116C16.1809 113.773 13.195 109.295 20.6115 106.647C28.028 103.999 30.3155 106.358 31.6399 108.645C32.9643 110.908 35.2759 123.643 32.266 124.799Z" fill="#FFD4C0"/>
<path d="M31.1815 107.923C31.1815 107.923 30.4351 116.469 28.6532 116.108C26.8954 115.747 24.9449 114.953 25.1857 117.529C25.4506 120.104 23.4761 124.534 20.9237 124.51C15.4576 124.486 9.50998 110.451 11.0029 107.803C15.3372 100.123 37.4181 98.5585 31.1815 107.923Z" fill="#163560"/>
<path d="M29.4493 131.13C29.3048 131.058 20.7084 127.206 19.6971 127.543C18.6857 127.88 17.4336 130.937 17.4336 130.937L32.5555 134.356C32.5796 134.356 31.3756 131.949 29.4493 131.13Z" fill="#099C76"/>
<path d="M82.9289 172.729L34.7699 218.06C33.8308 218.951 32.6269 219.24 32.1212 218.686L30.4838 216.953C29.9781 216.399 30.3152 215.244 31.2784 214.353L79.4374 169.022C80.3765 168.131 81.5805 167.842 82.0861 168.396L83.7235 170.129C84.2292 170.683 83.868 171.839 82.9289 172.729Z" fill="#033730"/>
<path d="M55.9117 198.175L34.7699 218.06C33.8308 218.951 32.6269 219.24 32.1212 218.686L30.4838 216.953C29.9781 216.399 30.3152 215.243 31.2784 214.353L52.4202 194.468L55.9117 198.175Z" fill="#0BBF90"/>
<path d="M81.7684 172.443L81.7688 172.444C97.1638 186.908 121.367 186.177 135.835 170.785C150.109 155.613 149.596 131.854 134.786 117.316L134.785 117.315C134.596 117.126 134.397 116.927 134.171 116.726C118.8 102.266 94.6006 103 80.11 118.365L80.1088 118.366C70.3746 128.756 67.52 143.099 71.3992 155.759C73.278 161.93 76.7429 167.712 81.7684 172.443ZM83.0287 121.145L83.0292 121.145C91.2164 112.438 102.892 108.973 113.858 110.871C120.243 111.986 126.39 114.905 131.469 119.674C145.258 132.629 145.922 154.316 132.94 168.101L132.94 168.102C128.169 173.18 122.213 176.478 115.9 177.972C105.076 180.535 93.2103 177.782 84.5005 169.597C70.7108 156.593 70.0476 134.906 83.0287 121.145Z" fill="#033730" stroke="#033730"/>
<g opacity="0.5">
<path opacity="0.5" d="M133.305 168.42C128.466 173.572 122.422 176.918 116.016 178.435C105.036 181.035 92.9964 178.242 84.1592 169.937C70.169 156.793 69.4948 134.789 82.6663 120.803C90.9737 111.968 102.821 108.453 113.946 110.379C120.423 111.51 126.66 114.471 131.813 119.31C145.779 132.454 146.453 154.434 133.305 168.42Z" fill="#B3CFF9"/>
</g>
<path d="M38.0219 190.207C11.4863 171.309 13.7016 146.08 13.7016 146.08C23.4056 151.545 33.0134 163.63 37.444 174.126C37.6848 180.12 37.9256 185.946 38.0219 190.207Z" fill="#099C76"/>
<path d="M64.2208 181.588C66.099 181.155 67.3512 179.734 67.616 179.493C67.616 179.493 68.4107 179.542 67.4956 181.251C67.4234 181.395 67.2548 181.756 67.1104 182.021C67.0622 182.117 67.1344 182.238 67.2548 182.262C68.3384 182.334 69.422 181.925 71.4928 182.358C71.7818 182.406 71.854 183.104 71.854 183.393C71.83 183.899 71.8781 184.453 71.3002 185.199C70.9631 185.632 70.024 186.114 67.9532 186.956C67.1585 187.269 64.8951 187.028 62.7761 186.306L61.0664 185.512L61.5962 182.358L62.0296 182.454C62.6797 182.599 63.5225 181.756 64.2208 181.588Z" fill="#FFD4C0"/>
<path d="M21.9369 134.356C21.9369 134.356 -1.90183 138.906 28.944 173.403C33.8803 178.916 60.5363 186.114 60.5363 186.114C60.5363 186.114 63.2332 183.803 61.8848 181.949C61.8848 181.949 43.5362 168.613 39.4908 166.494C37.6849 165.531 32.4355 145.213 29.4738 140.326C26.512 135.463 21.9369 134.356 21.9369 134.356Z" fill="#0BBF90"/>
<path d="M67.8789 147.236C67.8789 147.236 68.6494 145.743 68.818 144.949C68.9625 144.154 69.9497 141.867 70.3591 141.458C70.5276 141.289 71.0574 141.506 71.1296 142.204C71.1537 142.517 71.0092 143.047 70.7444 143.721C70.3109 144.78 70.3832 146.224 70.2387 146.706C69.8534 147.934 67.8789 147.236 67.8789 147.236Z" fill="#FFD4C0"/>
<path d="M146.648 283.733C146.648 284.142 146.673 284.552 146.721 284.937C146.865 286.189 147.25 287.368 147.828 288.452C148.286 289.294 148.84 290.041 149.514 290.69C151.296 292.472 153.752 293.579 156.473 293.579H294.81C300.252 293.579 304.658 289.174 304.658 283.757C304.658 281.037 303.55 278.581 301.769 276.8C299.987 275.019 297.531 273.911 294.81 273.911H156.473C151.055 273.911 146.648 278.317 146.648 283.733Z" fill="#033730"/>
<path d="M157.197 272.13H204.633C205.452 272.13 206.15 271.456 206.15 270.613C206.15 269.795 205.476 269.096 204.633 269.096H157.197C156.378 269.096 155.68 269.771 155.68 270.613C155.68 271.456 156.354 272.13 157.197 272.13Z" fill="#033730"/>
<path d="M159.796 273.9H164.949V272.118H159.796V273.9Z" fill="#042722"/>
<path d="M147.828 288.452C148.286 289.294 148.839 290.041 149.514 290.691C151.296 292.472 153.752 293.579 156.473 293.579H185.777V288.452H147.828Z" fill="#042722"/>
<path d="M322.981 280.868V286.622C322.981 287.248 322.885 287.874 322.74 288.452C321.946 291.413 319.249 293.579 316.022 293.579H171.906C168.704 293.579 165.983 291.413 165.188 288.452C165.02 287.874 164.947 287.248 164.947 286.622V280.868C164.947 277.017 168.054 273.911 171.906 273.911H316.022C319.851 273.911 322.981 277.017 322.981 280.868Z" fill="#0BBF90"/>
<path d="M322.74 288.452C321.945 291.413 319.248 293.579 316.021 293.579H171.906C168.703 293.579 165.982 291.413 165.188 288.452H322.74Z" fill="#09A57C"/>
<path d="M308.658 283.781C308.658 286.838 309.766 289.558 311.524 291.364C311.572 291.412 311.596 291.436 311.644 291.484C312.992 292.832 314.702 293.651 316.58 293.651C319.494 293.651 326.718 289.245 331.221 286.332C333.46 284.864 335.001 283.781 335.001 283.781C335.001 283.781 333.46 282.697 331.221 281.229C326.742 278.316 319.518 273.91 316.58 273.91C315.738 273.91 314.919 274.079 314.148 274.368C312.872 274.873 311.716 275.812 310.801 276.992C309.814 278.316 309.092 279.953 308.803 281.807C308.803 281.831 308.803 281.855 308.803 281.879C308.706 282.481 308.658 283.131 308.658 283.781Z" fill="#16D5A3"/>
<path d="M308.658 283.781C308.658 286.838 309.766 289.558 311.524 291.364L333.701 283.733L308.803 281.879C308.706 282.481 308.658 283.131 308.658 283.781Z" fill="#16D4A3"/>
<path d="M310.826 277.016L332.955 283.059L314.173 274.392C312.873 274.898 311.717 275.812 310.826 277.016Z" fill="#16D4A3"/>
<path d="M329.777 283.781C329.777 284.96 330.379 285.947 331.222 286.332C333.462 284.864 335.003 283.781 335.003 283.781C335.003 283.781 333.462 282.697 331.222 281.229C330.379 281.59 329.777 282.601 329.777 283.781Z" fill="#182D4C"/>
</svg>
