<svg width="20" height="20" viewBox="0 0 20 20" fill="none" xmlns="http://www.w3.org/2000/svg">
<path d="M20 0H0V6.6668H20V0Z" fill="#3079FB"/>
<path d="M20 13.3333H0V20H20V13.3333Z" fill="#2EAF00"/>
<path d="M20 6.66675H0V13.3335H20V6.66675Z" fill="white"/>
<path d="M20 6.07458H0V6.90583H20V6.07458Z" fill="#FF000E"/>
<path d="M20 13.0941H0V13.9254H20V13.0941Z" fill="#FF000E"/>
<path d="M4.7338 4.99597C3.6563 4.99597 2.78294 4.12464 2.78294 3.05101C2.78294 1.97343 3.6563 1.09823 4.7338 1.09823C4.73791 1.09823 4.74205 1.09827 4.74611 1.09831C4.80951 1.09917 4.83177 1.01487 4.77587 0.984913C4.44408 0.8071 4.06541 0.706436 3.66283 0.709287C2.37357 0.718506 1.32634 1.78687 1.33998 3.07609C1.35349 4.35206 2.39662 5.38488 3.67962 5.38488C4.07669 5.38488 4.45002 5.28445 4.77763 5.10905C4.83337 5.07921 4.81084 4.99487 4.74763 4.99585C4.74306 4.99593 4.73845 4.99597 4.7338 4.99597Z" fill="#F5F5F5"/>
<path d="M6.26124 4.45811L6.1741 4.71936L5.89871 4.72151C5.86304 4.72178 5.84828 4.76729 5.87695 4.78846L6.09851 4.95206L6.01542 5.21463C6.00468 5.24862 6.04339 5.27674 6.07238 5.256L6.29644 5.09584L6.5205 5.256C6.54953 5.27674 6.5882 5.24862 6.57745 5.21463L6.49437 4.95206L6.71593 4.78846C6.7446 4.76729 6.72984 4.72178 6.69417 4.72151L6.41878 4.71936L6.33163 4.45811C6.32038 4.42428 6.27253 4.42428 6.26124 4.45811Z" fill="#F5F5F5"/>
<path d="M7.78224 4.45811L7.69509 4.71936L7.4197 4.72151C7.38404 4.72178 7.36927 4.76729 7.39794 4.78846L7.61951 4.95206L7.53642 5.21463C7.52568 5.24862 7.56439 5.27674 7.59337 5.256L7.81744 5.09584L8.0415 5.256C8.07052 5.27674 8.10919 5.24862 8.09845 5.21463L8.01537 4.95206L8.23693 4.78846C8.2656 4.76729 8.25083 4.72178 8.21517 4.72151L7.93978 4.71936L7.85263 4.45811C7.84138 4.42428 7.79353 4.42428 7.78224 4.45811Z" fill="#F5F5F5"/>
<path d="M10.8682 4.45811L10.781 4.71936L10.5056 4.72151C10.47 4.72178 10.4552 4.76729 10.4839 4.78846L10.7054 4.95206L10.6224 5.21463C10.6116 5.24862 10.6503 5.27674 10.6793 5.256L10.9034 5.09584L11.1274 5.256C11.1565 5.27674 11.1951 5.24862 11.1844 5.21463L11.1013 4.95206L11.3229 4.78846C11.3515 4.76729 11.3368 4.72178 11.3011 4.72151L11.0257 4.71936L10.9386 4.45811C10.9273 4.42428 10.8795 4.42428 10.8682 4.45811Z" fill="#F5F5F5"/>
<path d="M12.3818 4.45811L12.2947 4.71936L12.0193 4.72151C11.9836 4.72178 11.9689 4.76729 11.9976 4.78846L12.2191 4.95206L12.136 5.21463C12.1253 5.24862 12.164 5.27674 12.193 5.256L12.417 5.09584L12.6411 5.256C12.6701 5.27674 12.7088 5.24862 12.6981 5.21463L12.615 4.95206L12.8365 4.78846C12.8652 4.76729 12.8504 4.72178 12.8148 4.72151L12.5394 4.71936L12.4522 4.45811C12.441 4.42428 12.3931 4.42428 12.3818 4.45811Z" fill="#F5F5F5"/>
<path d="M7.78224 2.6472L7.69509 2.90845L7.4197 2.9106C7.38404 2.91087 7.36927 2.95638 7.39794 2.97755L7.61951 3.14114L7.53642 3.40372C7.52568 3.43771 7.56439 3.46583 7.59337 3.44509L7.81744 3.28493L8.0415 3.44509C8.07052 3.46583 8.10919 3.43771 8.09845 3.40372L8.01537 3.14114L8.23693 2.97755C8.2656 2.95638 8.25083 2.91087 8.21517 2.9106L7.93978 2.90845L7.85263 2.6472C7.84138 2.61337 7.79353 2.61337 7.78224 2.6472Z" fill="#F5F5F5"/>
<path d="M9.33497 2.6472L9.24782 2.90845L8.97244 2.9106C8.93677 2.91087 8.92201 2.95638 8.95068 2.97755L9.17224 3.14114L9.08915 3.40372C9.07841 3.43771 9.11712 3.46583 9.14611 3.44509L9.37017 3.28493L9.59423 3.44509C9.62325 3.46583 9.66192 3.43771 9.65118 3.40372L9.56809 3.14114L9.78966 2.97755C9.81833 2.95638 9.80356 2.91087 9.7679 2.9106L9.49251 2.90845L9.40536 2.6472C9.39411 2.61337 9.34626 2.61337 9.33497 2.6472Z" fill="#F5F5F5"/>
<path d="M10.8682 2.6472L10.781 2.90845L10.5056 2.9106C10.47 2.91087 10.4552 2.95638 10.4839 2.97755L10.7054 3.14114L10.6224 3.40372C10.6116 3.43771 10.6503 3.46583 10.6793 3.44509L10.9034 3.28493L11.1274 3.44509C11.1565 3.46583 11.1951 3.43771 11.1844 3.40372L11.1013 3.14114L11.3229 2.97755C11.3515 2.95638 11.3368 2.91087 11.3011 2.9106L11.0257 2.90845L10.9386 2.6472C10.9273 2.61337 10.8795 2.61337 10.8682 2.6472Z" fill="#F5F5F5"/>
<path d="M12.3818 2.6472L12.2947 2.90845L12.0193 2.9106C11.9836 2.91087 11.9689 2.95638 11.9976 2.97755L12.2191 3.14114L12.136 3.40372C12.1253 3.43771 12.164 3.46583 12.193 3.44509L12.417 3.28493L12.6411 3.44509C12.6701 3.46583 12.7088 3.43771 12.6981 3.40372L12.615 3.14114L12.8365 2.97755C12.8652 2.95638 12.8504 2.91087 12.8148 2.9106L12.5394 2.90845L12.4522 2.6472C12.441 2.61337 12.3931 2.61337 12.3818 2.6472Z" fill="#F5F5F5"/>
<path d="M9.33497 4.45811L9.24782 4.71936L8.97244 4.72151C8.93677 4.72178 8.92201 4.76729 8.95068 4.78846L9.17224 4.95206L9.08915 5.21463C9.07841 5.24862 9.11712 5.27674 9.14611 5.256L9.37017 5.09584L9.59423 5.256C9.62325 5.27674 9.66192 5.24862 9.65118 5.21463L9.56809 4.95206L9.78966 4.78846C9.81833 4.76729 9.80356 4.72178 9.7679 4.72151L9.49251 4.71936L9.40536 4.45811C9.39411 4.42428 9.34626 4.42428 9.33497 4.45811Z" fill="#F5F5F5"/>
<path d="M9.33497 0.836377L9.24782 1.09763L8.97244 1.09978C8.93677 1.10005 8.92201 1.14556 8.95068 1.16673L9.17224 1.33032L9.08915 1.5929C9.07841 1.62688 9.11712 1.65501 9.14611 1.63427L9.37017 1.47411L9.59423 1.63427C9.62325 1.65501 9.66192 1.62688 9.65118 1.5929L9.56809 1.33032L9.78966 1.16673C9.81833 1.14556 9.80356 1.10005 9.7679 1.09978L9.49251 1.09763L9.40536 0.836377C9.39411 0.802588 9.34626 0.802588 9.33497 0.836377Z" fill="#F5F5F5"/>
<path d="M10.8682 4.45811L10.781 4.71936L10.5056 4.72151C10.47 4.72178 10.4552 4.76729 10.4839 4.78846L10.7054 4.95206L10.6224 5.21463C10.6116 5.24862 10.6503 5.27674 10.6793 5.256L10.9034 5.09584L11.1274 5.256C11.1565 5.27674 11.1951 5.24862 11.1844 5.21463L11.1013 4.95206L11.3229 4.78846C11.3515 4.76729 11.3368 4.72178 11.3011 4.72151L11.0257 4.71936L10.9386 4.45811C10.9273 4.42428 10.8795 4.42428 10.8682 4.45811Z" fill="#F5F5F5"/>
<path d="M12.3818 4.45811L12.2947 4.71936L12.0193 4.72151C11.9836 4.72178 11.9689 4.76729 11.9976 4.78846L12.2191 4.95206L12.136 5.21463C12.1253 5.24862 12.164 5.27674 12.193 5.256L12.417 5.09584L12.6411 5.256C12.6701 5.27674 12.7088 5.24862 12.6981 5.21463L12.615 4.95206L12.8365 4.78846C12.8652 4.76729 12.8504 4.72178 12.8148 4.72151L12.5394 4.71936L12.4522 4.45811C12.441 4.42428 12.3931 4.42428 12.3818 4.45811Z" fill="#F5F5F5"/>
<path d="M10.8682 0.836377L10.781 1.09763L10.5056 1.09978C10.47 1.10005 10.4552 1.14556 10.4839 1.16673L10.7054 1.33032L10.6224 1.5929C10.6116 1.62688 10.6503 1.65501 10.6793 1.63427L10.9034 1.47411L11.1274 1.63427C11.1565 1.65501 11.1951 1.62688 11.1844 1.5929L11.1013 1.33032L11.3229 1.16673C11.3515 1.14556 11.3368 1.10005 11.3011 1.09978L11.0257 1.09763L10.9386 0.836377C10.9273 0.802588 10.8795 0.802588 10.8682 0.836377Z" fill="#F5F5F5"/>
<path d="M12.3818 0.836377L12.2947 1.09763L12.0193 1.09978C11.9836 1.10005 11.9689 1.14556 11.9976 1.16673L12.2191 1.33032L12.136 1.5929C12.1253 1.62688 12.164 1.65501 12.193 1.63427L12.417 1.47411L12.6411 1.63427C12.6701 1.65501 12.7088 1.62688 12.6981 1.5929L12.615 1.33032L12.8365 1.16673C12.8652 1.14556 12.8504 1.10005 12.8148 1.09978L12.5394 1.09763L12.4522 0.836377C12.441 0.802588 12.3931 0.802588 12.3818 0.836377Z" fill="#F5F5F5"/>
</svg>
