<svg width="69" height="83" viewBox="0 0 69 83" fill="none" xmlns="http://www.w3.org/2000/svg">
<path d="M23.2314 24.3169L23.2695 24.2763L24.03 23.4662L23.2314 24.3169ZM23.2314 24.3169L23.229 24.3725M23.2314 24.3169L23.229 24.3725M23.229 24.3725L23.0441 28.6612M23.229 24.3725L23.0441 28.6612M23.0441 28.6612L19.2375 26.677L19.1882 26.6513L19.1341 26.6639L18.0525 26.9161L18.0524 26.9161C16.1744 27.3558 14.213 27.3287 12.3039 26.8172C10.0401 26.2106 8.00695 24.9463 6.46164 23.1842C4.91633 21.4221 3.92824 19.2413 3.62232 16.9177C3.31641 14.594 3.70641 12.2318 4.743 10.1298C5.7796 8.02781 7.41623 6.28039 9.44594 5.10854C11.4757 3.93669 13.8073 3.39303 16.146 3.54631C18.4847 3.6996 20.7254 4.54295 22.5848 5.9697C24.4441 7.39646 25.8387 9.34255 26.5921 11.5619C27.3454 13.7812 27.4237 16.1741 26.8172 18.4379L26.8171 18.4382C26.3174 20.3186 25.36 22.0459 24.0301 23.4661L23.0441 28.6612ZM26.1274 33.7486L26.4752 25.6813C28.1569 23.8728 29.369 21.6788 30.0048 19.2918C32.1702 11.2097 27.3742 2.90278 19.292 0.737169C11.2098 -1.42846 2.9028 3.3676 0.737169 11.4498C-1.42846 19.5321 3.3676 27.8391 11.4498 30.0047C13.8348 30.6476 16.3408 30.6948 18.7478 30.1427L25.9082 33.8751L26.1172 33.9841L26.1274 33.7486ZM15.3477 39.7743H15.1977V39.9243V45.1838V45.3339H15.3477H20.4629V79.3708C20.4629 80.1081 20.7561 80.8151 21.2779 81.3364C21.7998 81.8577 22.5075 82.1505 23.2455 82.1505H60.1019C60.8399 82.1505 61.5476 81.8577 62.0695 81.3364C62.5913 80.8151 62.8845 80.1081 62.8845 79.3708V45.3339H67.9997H68.1497V45.1838V39.9243V39.7743H67.9997H15.3477ZM33.7759 52.9231H33.6259V53.0731V68.8517V69.0017H33.7759H39.0411H39.1911V68.8517V53.0731V52.9231H39.0411H33.7759ZM44.3063 52.9231H44.1563V53.0731V68.8517V69.0017H44.3063H49.5715H49.7215V68.8517V53.0731V52.9231H49.5715H44.3063ZM26.0281 45.3339H57.3193V76.591H26.0281V45.3339Z" fill="#BCBEC0" stroke="#BCBEC0" stroke-width="0.3"/>
</svg>
