<svg width="20" height="20" viewBox="0 0 20 20" fill="none" xmlns="http://www.w3.org/2000/svg">
<circle cx="10" cy="10" r="10" fill="#048D6A"/>
<path d="M10.5273 8.35156L10.6094 8.29441L10.6053 8.28855L10.6004 8.28333C10.4168 8.08661 10.1829 7.9984 9.96617 7.98362C9.75432 7.96918 9.54823 8.02442 9.41605 8.12977C9.31666 8.1982 9.18759 8.31927 9.12265 8.40692L9.12263 8.40693C9.10923 8.42504 9.09264 8.44762 9.07809 8.47813C9.06347 8.50878 9.05263 8.54357 9.04407 8.58778C9.02752 8.67332 9.01752 8.80564 9.01088 9.03342C8.9975 9.49171 8.9973 10.3639 8.9973 12.0884C8.9973 13.8128 8.9975 14.685 9.01088 15.1433C9.01752 15.3711 9.02752 15.5034 9.04407 15.589C9.05263 15.6332 9.06347 15.668 9.07809 15.6986C9.09264 15.7291 9.10923 15.7517 9.12263 15.7698L9.12264 15.7698C9.3229 16.0401 9.59811 16.1824 9.8804 16.1824C10.1627 16.1824 10.4379 16.0401 10.6382 15.7698L10.6382 15.7698C10.6516 15.7517 10.6682 15.7291 10.6827 15.6986C10.6973 15.668 10.7082 15.6332 10.7167 15.589C10.7333 15.5036 10.7433 15.3714 10.7499 15.1439C10.7633 14.6862 10.7635 13.8153 10.7635 12.0934M10.5273 8.35156L10.7635 12.0941L10.7635 12.094L10.7635 12.0937L10.7635 12.0934M10.5273 8.35156L10.6094 8.29443M10.5273 8.35156L10.6094 8.29443M10.7635 12.0934L10.7635 12.0925M10.7635 12.0934L10.7635 12.0925M10.7635 12.0925L10.7635 12.0879M10.7635 12.0925L10.7635 12.0879M10.7635 12.0879L10.7637 12.0694M10.7635 12.0879L10.7637 12.0694M10.7637 12.0694L10.7642 11.9985M10.7637 12.0694L10.7642 11.9985M10.7642 11.9985L10.766 11.7355M10.7642 11.9985L10.766 11.7355M10.766 11.7355C10.7675 11.5125 10.7696 11.202 10.7716 10.8521M10.766 11.7355L10.7716 10.8521M10.7716 10.8521C10.7756 10.1524 10.7797 9.29484 10.7797 8.66406M10.7716 10.8521L10.7797 8.66406M10.7797 8.66406C10.7797 8.61923 10.763 8.57221 10.748 8.53665M10.7797 8.66406L10.748 8.53665M10.748 8.53665C10.7315 8.49783 10.7103 8.45786 10.6903 8.4229M10.748 8.53665L10.6903 8.4229M10.6903 8.4229C10.67 8.38762 10.6499 8.35571 10.635 8.3327M10.6903 8.4229L10.635 8.3327M10.635 8.3327C10.6275 8.32116 10.6212 8.31175 10.6167 8.30515M10.635 8.3327L10.6167 8.30515M10.6167 8.30515L10.6115 8.29744M10.6167 8.30515L10.6115 8.29744M10.6115 8.29744L10.61 8.29531M10.6115 8.29744L10.61 8.29531M10.61 8.29531L10.6096 8.2947M10.61 8.29531L10.6096 8.2947M10.6096 8.2947L10.6095 8.29452M10.6096 8.2947L10.6095 8.29452M10.6095 8.29452L10.6094 8.29445M10.6095 8.29452L10.6094 8.29445M10.6094 8.29445L10.6094 8.29443M10.6094 8.29445L10.6094 8.29443M9.17958 6.43114L9.17959 6.43115C9.32584 6.57028 9.48355 6.65787 9.65625 6.68412C9.82897 6.71038 10.0054 6.67354 10.1859 6.58401L10.1859 6.584C11.0045 6.17788 10.7923 4.9747 9.8757 4.90315L9.8757 4.90315C9.72538 4.89142 9.53837 4.91294 9.42878 4.96267L9.42877 4.96267C8.84743 5.22655 8.71724 5.99125 9.17958 6.43114Z" fill="white" stroke="white" stroke-width="0.2"/>
</svg>
