<svg width="20" height="20" viewBox="0 0 20 20" fill="none" xmlns="http://www.w3.org/2000/svg">
<path d="M9.41025 8.45886L9.41024 8.45888C9.3987 8.47445 9.38375 8.49477 9.37064 8.52226C9.35746 8.5499 9.34785 8.58094 9.34035 8.61968C9.32591 8.69428 9.31734 8.80878 9.31164 9.00395C9.30017 9.39705 9.3 10.1449 9.3 11.6229C9.3 13.1009 9.30017 13.8488 9.31164 14.2418C9.31734 14.437 9.32591 14.5515 9.34035 14.6261C9.34785 14.6649 9.35746 14.6959 9.37064 14.7235C9.38375 14.751 9.3987 14.7713 9.41024 14.7869L9.41024 14.7869C9.58425 15.0218 9.8242 15.1463 10.0712 15.1463C10.3183 15.1463 10.5582 15.0218 10.7322 14.7869L10.7322 14.7869C10.7438 14.7713 10.7587 14.751 10.7718 14.7236C10.785 14.6959 10.7946 14.6649 10.8021 14.6262C10.8165 14.5517 10.8251 14.4373 10.8308 14.2424C10.8423 13.8498 10.8425 13.103 10.8425 11.6272V8.64925V8.61546L10.822 8.5886L10.6972 8.42497C10.45 8.10084 9.99135 7.99598 9.66809 8.21601L9.66806 8.21603C9.58136 8.27508 9.46762 8.38144 9.41025 8.45886ZM9.2149 0.935533L9.2237 1.03513L9.2149 0.935533C8.13694 1.0308 6.85136 1.38984 5.92204 1.85574L5.96659 1.9446L5.92204 1.85574C2.35447 3.6444 0.353181 7.62079 1.03094 11.572L1.12949 11.5551L1.03094 11.572C1.33572 13.3485 2.17453 14.9752 3.47712 16.3184C4.28903 17.1558 5.02227 17.6904 6.04025 18.1868C8.18486 19.2327 10.6042 19.3847 12.9075 18.6195C17.2317 17.183 19.84 12.65 18.9136 8.18213C18.562 6.48625 17.7328 4.92609 16.5075 3.65336C14.6173 1.68999 11.9451 0.694324 9.2149 0.935533ZM10.6418 2.51716L10.6506 2.41755L10.6418 2.51716C11.6634 2.60757 12.4394 2.82706 13.358 3.28539C14.1407 3.67594 14.6514 4.04477 15.2807 4.67414C17.5729 6.96665 18.1581 10.3036 16.7807 13.2233C15.7895 15.3245 13.8662 16.8484 11.5834 17.3407C9.13965 17.8679 6.64118 17.1657 4.83898 15.4459C2.37136 13.0909 1.78253 9.52245 3.36183 6.49181C3.716 5.81215 4.10356 5.29393 4.72448 4.67201C5.56781 3.82735 6.47089 3.26371 7.56703 2.89717L7.53532 2.80233L7.56704 2.89717C8.62299 2.54404 9.59388 2.42436 10.6418 2.51716ZM9.67823 5.50214L9.67821 5.50215C9.17073 5.7325 9.05702 6.40014 9.46068 6.7842L9.46069 6.7842C9.5876 6.90493 9.72535 6.98177 9.87695 7.00481C10.0286 7.02786 10.1828 6.99538 10.3394 6.91767L10.295 6.82809L10.3394 6.91767C11.0535 6.56344 10.8691 5.51241 10.0683 5.4499C9.93806 5.43973 9.77511 5.45818 9.67823 5.50214Z" fill="#D3D7D6" stroke="#D3D7D6" stroke-width="0.2"/>
</svg>
