<svg width="194" height="243" viewBox="0 0 194 243" fill="none" xmlns="http://www.w3.org/2000/svg">
<path d="M170.885 171.365C170.885 171.365 171.004 171.484 171.123 171.782C171.241 172.079 171.479 172.496 171.717 172.972C172.193 173.983 172.847 175.352 173.501 176.898C174.214 178.445 174.809 179.814 175.284 180.825C175.522 181.301 175.641 181.718 175.819 182.015C175.938 182.313 175.998 182.432 175.998 182.491C175.998 182.551 175.879 182.372 175.76 182.075C175.641 181.777 175.403 181.361 175.165 180.885C174.69 179.873 174.036 178.505 173.382 176.958C172.668 175.411 172.074 174.043 171.598 173.031C171.36 172.555 171.241 172.139 171.063 171.841C170.944 171.544 170.885 171.365 170.885 171.365Z" fill="#E0E0E0"/>
<path d="M4.42031 84.5586C4.42031 84.5586 -1.76265 154.587 0.49651 195.403C2.39896 230.863 5.7877 242.763 5.7877 242.763H25.9418L4.42031 84.5586Z" fill="#E0E0E0"/>
<path d="M94.9628 32.3787C96.9842 31.7837 98.3516 29.4633 97.876 27.3809C100.313 25.8339 100.849 22.0261 99.0055 19.8842C100.076 18.9322 100.551 17.3258 100.076 15.9573C99.6001 14.5889 98.2921 13.5774 96.8058 13.4584C97.4004 11.852 97.1031 9.88859 96.033 8.57965C94.9628 7.2112 93.1198 6.55673 91.3958 6.85422C91.693 5.12879 90.8012 3.28436 89.3744 2.3324C87.8881 1.38044 85.8668 1.43994 84.3805 2.3919C82.1808 -0.642474 77.0679 -0.820966 74.6304 2.03492C71.7767 0.309487 67.6151 1.61843 66.2477 4.59331C64.4047 2.86788 61.1944 3.46286 59.5297 5.36678C57.8651 7.2707 57.4489 9.94809 57.6867 12.5065C56.3788 13.1015 55.3681 14.4699 55.2492 15.9573C55.1303 17.4448 55.8437 18.9322 57.0327 19.7652C54.7141 22.6806 55.3087 27.4404 58.3407 29.6418C57.8651 32.8546 59.5297 36.3055 62.3834 37.8524" fill="#263238"/>
<path d="M65.1756 17.7997L64.1055 14.8248L82.7139 11.85C88.4212 11.4335 94.4258 17.3237 94.6042 23.0355C94.842 29.4017 94.842 37.1959 93.9502 41.8962C92.1667 51.4158 84.7947 52.3678 84.7947 52.3678L84.2001 67.3612L63.1543 66.5282L65.1756 17.7997Z" fill="#FFD4C0"/>
<path d="M84.8558 52.4289C84.8558 52.4289 78.0784 52.6074 71.8359 48.6211C71.8359 48.6211 74.868 55.4038 84.7369 54.8088L84.8558 52.4289Z" fill="#EBBCA6"/>
<path d="M74.6895 11.675C74.9273 12.4484 75.2245 13.2219 75.819 13.7574C76.4136 14.2929 77.4242 14.4714 77.9593 13.8764C78.7916 14.8878 80.5752 14.7688 81.2291 13.6384C82.1209 14.5309 83.6666 14.6499 84.7368 13.9954C85.688 14.1739 86.6392 14.4119 87.5904 14.5904C88.6011 14.8283 89.9091 14.9473 90.563 14.1144C90.6819 13.9359 90.8008 13.6979 91.0386 13.5789C91.2764 13.4599 91.5143 13.5789 91.7521 13.5789C92.5844 13.6979 93.3573 13.2219 93.8923 12.5674C94.4274 11.913 94.6652 11.1395 94.9624 10.366C95.3786 9.17608 95.6759 7.62914 94.7246 6.79618C94.3679 6.49869 93.8329 6.37969 93.3572 6.2607C92.3466 6.02271 91.3359 5.84421 90.3847 6.02271C89.1362 6.2607 88.185 7.15316 87.4121 8.16462C87.7094 7.51014 87.2337 6.79618 86.5798 6.49869C85.9258 6.2607 85.2124 6.37969 84.6179 6.67718C83.7261 7.09366 82.9532 7.74814 82.4182 8.5811C80.813 8.5811 79.2672 9.53306 78.5538 10.961C77.8404 10.485 76.9486 10.3065 76.1163 10.5445C75.819 10.604 75.5218 10.723 75.4029 11.0205C75.284 11.2585 75.3434 11.675 75.6407 11.7345" fill="#263238"/>
<path d="M83.9059 12.2707C83.4303 13.5202 83.8465 15.1266 84.9166 15.9596C85.9868 16.7925 87.6514 16.7925 88.7215 15.9596C89.1377 17.2685 90.624 18.1015 91.9914 17.8635C91.9319 19.4699 92.8831 21.0763 94.31 21.8498C93.9533 22.6828 93.9533 23.6347 94.2505 24.4677C94.4289 25.0032 94.7856 25.4792 95.3207 25.7171C95.9152 26.0146 96.688 25.8361 97.2826 25.5982C98.1743 25.2412 99.0066 24.5867 99.3039 23.6347C99.6012 22.7423 99.3039 21.5523 98.4121 21.1953C99.2445 20.4219 99.8984 19.5294 100.315 18.4585C100.552 17.8635 100.731 17.209 100.493 16.614C100.255 16.0191 99.4228 15.6621 98.9472 16.0785C99.4228 15.1266 99.3634 13.9366 98.7688 13.1037C98.1743 12.2707 97.0448 11.7947 95.9746 11.9732C95.9746 11.0808 95.3801 10.2478 94.6072 9.8908C93.7749 9.53382 92.7642 9.71231 92.1103 10.2478" fill="#263238"/>
<path d="M72.4889 11.1968C72.6078 10.0664 71.4783 9.05493 70.3487 8.87644C69.2191 8.69795 68.0895 9.17393 67.0194 9.70941C65.9493 8.40046 64.0468 7.92448 62.5011 8.57895C60.9553 9.17393 59.9446 10.6614 58.6962 11.7323C58.0422 12.3273 57.2693 12.8033 56.7937 13.5172C56.3181 14.2907 56.3181 15.4212 57.091 15.8376C56.0803 16.1946 55.3074 17.0871 55.1291 18.1581C54.9507 19.229 55.4263 20.3595 56.2586 21.0139C56.5559 21.1924 56.8532 21.4304 56.9721 21.7279C57.091 22.0254 56.9721 22.2634 56.9126 22.5609C56.437 23.8698 55.783 25.0598 55.4858 26.3687C55.1885 27.6777 55.4858 29.2841 56.6154 29.9981C56.9126 30.1766 57.2693 30.355 57.4477 30.712C57.5071 30.95 57.5071 31.188 57.4477 31.426C57.2693 32.1995 56.7937 32.8539 56.4965 33.5084C56.1397 34.2224 55.9019 34.9959 56.1397 35.7693C56.3776 36.4833 57.2099 37.1378 57.9233 36.8403C57.3882 38.3277 57.4477 40.0532 58.3989 41.2431C59.3501 42.4925 62.5011 43.028 64.3441 41.8976L64.5224 37.5543C64.2846 36.7808 65.4736 32.6755 64.998 31.8425C64.998 31.8425 63.6901 34.6984 66.6627 34.2224C67.6139 34.4604 69.4569 31.664 69.5758 30.6525C69.6947 29.6411 69.1002 28.6891 68.2084 28.1536C69.8731 26.9042 70.4081 24.3458 69.338 22.5014C70.4081 22.3229 71.2999 21.4304 71.3593 20.3595C71.4783 19.2885 70.7648 18.2176 69.8136 17.8606C72.5484 17.2061 74.1536 13.7552 72.9645 11.2563" fill="#263238"/>
<path d="M58.224 12.0287C58.224 12.0287 58.1051 12.0882 57.8673 12.3857C57.6889 12.6237 57.4511 13.0402 57.3917 13.6351C57.3322 14.2301 57.5106 15.0036 58.1051 15.5986C58.6996 16.1935 59.6508 16.61 60.721 16.3125L60.4832 16.0745C60.2454 16.967 60.721 18.038 61.7316 18.395C62.7423 18.7519 63.9908 18.038 64.2286 16.848H63.8125C63.9314 17.5025 64.407 17.9785 65.0015 18.2165C65.3582 18.3949 65.8338 18.3949 66.25 18.276C66.6661 18.157 66.9634 17.8595 67.2012 17.562C67.6173 16.9075 67.6173 16.015 67.2012 15.4201L66.9039 15.7176C68.1524 16.4315 69.6387 16.4315 70.7088 16.015C71.8384 15.6581 72.6113 14.8251 73.0869 14.1111C73.5625 13.3972 73.6814 12.6832 73.7409 12.2667C73.8003 11.7907 73.7409 11.5527 73.7409 11.5527C73.6814 11.5527 73.7409 12.6237 72.8491 13.9921C72.3735 14.6466 71.6601 15.3606 70.5899 15.6581C69.5792 16.0151 68.2119 15.9555 67.0823 15.3011L66.1905 14.8251L66.785 15.5986C67.0823 16.0745 67.0823 16.729 66.785 17.2645C66.4878 17.8 65.7743 18.038 65.1798 17.7405C64.7042 17.562 64.3475 17.1455 64.2286 16.6695L63.9908 15.3011L63.8125 16.6695C63.6935 17.562 62.6829 18.157 61.91 17.8595C61.1371 17.6215 60.6615 16.729 60.8993 16.015L61.0182 15.6581L60.6615 15.7771C59.8292 16.015 58.9374 15.7176 58.4024 15.2416C57.8673 14.7656 57.6889 14.0516 57.6889 13.5162C57.7484 12.5047 58.2835 12.0882 58.224 12.0287Z" fill="#455A64"/>
<path d="M93.7728 6.79631C93.7134 6.79631 93.8917 6.97481 93.8917 7.33179C93.8917 7.51028 93.7728 7.74827 93.5945 7.86727C93.4161 7.98626 93.0594 8.04576 92.8216 7.86727L92.4054 7.62928L92.5838 8.04576C92.8216 8.58124 92.7622 9.4737 92.1082 10.0687C91.5137 10.6637 90.3246 10.6636 89.6707 9.94968L89.4329 9.71169L89.314 10.0092C88.8978 10.9611 87.8871 11.7941 86.7575 11.9726C85.628 12.1511 84.4984 11.6751 83.8444 10.9016L83.7255 10.7231L83.5472 10.8421C82.7148 11.5561 81.7042 11.9726 80.8124 12.0916C79.9206 12.2701 79.0883 12.2106 78.3749 12.0321C77.0075 11.7346 76.3535 11.1396 76.3535 11.2586C76.3535 11.2586 76.4724 11.4371 76.8291 11.6156C77.1264 11.8536 77.6615 12.0916 78.3154 12.2701C79.0288 12.4486 79.8612 12.5676 80.8718 12.4486C81.8231 12.3296 82.8932 11.9131 83.8444 11.1396H83.5472C84.32 11.9726 85.5685 12.5676 86.8764 12.3891C88.2438 12.2106 89.314 11.2586 89.7896 10.1282L89.4329 10.1877C90.3246 11.0801 91.7515 11.0206 92.4649 10.3067C93.1783 9.5927 93.2378 8.52174 92.9405 7.86727L92.7621 8.04576C93.1189 8.28375 93.535 8.16476 93.7728 7.98626C94.0106 7.80777 94.1295 7.51028 94.1295 7.33179C94.0106 6.91531 93.7728 6.73681 93.7728 6.79631Z" fill="#455A64"/>
<path d="M77.0094 1.08215C77.0094 1.14165 77.1877 1.02265 77.5445 0.963154C77.9012 0.963154 78.4362 1.08215 78.8524 1.49863C79.2685 1.91512 79.4469 2.68858 79.2686 3.52155C79.0902 4.35452 78.5551 5.12799 77.9012 5.84196L78.2579 6.13944C78.4957 5.90145 79.0307 6.13944 79.1496 6.43693C79.328 6.79392 79.2685 7.2104 79.1496 7.62688C78.8524 8.40035 78.3768 9.05482 77.9606 9.5308C77.0688 10.4828 76.2365 10.7208 76.296 10.7802C76.296 10.7802 76.5338 10.7803 76.8905 10.6018C77.2472 10.4233 77.7228 10.1853 78.2579 9.7093C78.7929 9.23332 79.2685 8.57884 79.6253 7.74587C79.8036 7.32939 79.9225 6.79391 79.6847 6.25844C79.5658 5.96095 79.328 5.78246 79.0307 5.66346C78.7335 5.54447 78.3768 5.54447 78.0795 5.84196L78.4362 6.13944C79.0902 5.36598 79.7442 4.53301 79.8631 3.58105C80.0414 2.68858 79.8036 1.73662 79.2091 1.26064C78.674 0.784662 78.0201 0.725167 77.6634 0.784664C77.1283 0.844162 77.0094 1.02265 77.0094 1.08215Z" fill="#455A64"/>
<path d="M61.4316 4.53297C61.4316 4.59247 62.0261 4.17599 63.0963 4.11649C63.6313 4.11649 64.2853 4.17599 64.9393 4.53297C65.5932 4.88996 66.1878 5.48493 66.485 6.3179L66.6634 6.67488L66.9012 6.3179C67.3173 5.66342 68.2686 5.30644 69.1009 5.54443C69.9332 5.78242 70.4683 6.61539 70.5277 7.38885V7.62685L70.7655 7.56734C71.5979 7.38885 72.4302 7.62684 72.9652 8.10282C73.5598 8.51931 73.7976 9.17378 73.9165 9.64976C74.0948 10.7207 73.7381 11.3157 73.7976 11.3752C73.7976 11.3752 73.9165 11.2562 74.0354 10.9587C74.1543 10.6612 74.2732 10.1852 74.1543 9.64976C74.0948 9.05478 73.7976 8.34081 73.1436 7.86483C72.5491 7.32935 71.5979 7.03187 70.5872 7.21036L70.825 7.38885C70.825 6.43689 70.171 5.42543 69.1009 5.12795C68.0308 4.83046 66.9012 5.30644 66.3661 6.07991L66.7228 6.13941C66.3661 5.24694 65.6527 4.59247 64.9393 4.23548C64.2259 3.8785 63.5124 3.819 62.9179 3.8785C62.3234 3.938 61.9072 4.11649 61.6694 4.29498C61.5505 4.35448 61.4316 4.47347 61.4316 4.53297Z" fill="#455A64"/>
<path d="M65.8942 29.6365C65.7753 29.577 60.4841 27.4351 60.1274 32.9684C59.7112 38.5016 65.3591 37.7877 65.4186 37.6092C65.4186 37.4307 65.8942 29.6365 65.8942 29.6365Z" fill="#FFD4C0"/>
<path d="M63.8719 35.4096C63.8719 35.4096 63.753 35.4691 63.5747 35.5286C63.3963 35.5881 63.1585 35.6476 62.8613 35.4691C62.2667 35.2311 61.8506 34.2196 61.91 33.2677C61.91 32.7917 62.0884 32.3157 62.2667 31.8992C62.4451 31.4827 62.7424 31.2448 63.0396 31.1853C63.3369 31.1258 63.5152 31.3043 63.5747 31.4827C63.6341 31.6612 63.5747 31.7802 63.6341 31.7802C63.6341 31.7802 63.753 31.7207 63.753 31.4827C63.753 31.3637 63.6936 31.2448 63.5747 31.1258C63.4558 31.0068 63.2774 30.9473 63.0396 30.9473C62.6235 30.9473 62.2073 31.3043 61.9695 31.7207C61.7317 32.1372 61.5533 32.6727 61.5533 33.2677C61.4939 34.3981 62.0289 35.4691 62.8018 35.7666C63.1585 35.8856 63.5152 35.8261 63.6936 35.7071C63.8125 35.5286 63.8719 35.4096 63.8719 35.4096Z" fill="#EB996E"/>
<path d="M59.4111 55.1076L63.216 54.4531L84.4402 56.357L92.05 59.9864L94.0713 61.1763C94.0713 61.1763 86.1643 72.1834 78.0789 71.5884C69.9935 70.9934 56.0223 59.4509 56.0223 59.4509L55.9629 55.7026L59.4111 55.1076Z" fill="#FFD4C0"/>
<path d="M119.339 73.0748L101.979 63.0197C99.8385 62.3057 89.7912 58.9144 89.7912 58.9144C89.7912 58.9144 82.0031 71.2899 75.5823 70.5164C72.0747 70.0999 67.8536 67.0655 64.7027 64.3881C62.0273 62.0677 59.7087 59.3903 57.8657 56.356L57.1523 55.166C54.1203 55.166 44.608 57.4864 41.2787 58.3194C40.5059 58.4979 39.733 58.9739 39.1979 59.5688C37.3549 61.5323 33.7284 65.3401 32.9555 69.0884C32.2421 72.6583 29.2695 84.1413 29.2695 84.1413L114.761 81.5234L119.339 73.0748Z" fill="#0BBF90"/>
<path d="M146.806 73.373C145.498 73.968 134.737 77.6569 134.262 78.1923C133.786 78.7278 118.983 73.492 118.983 73.492L114.762 81.5242L152.87 80.6912L146.806 73.373Z" fill="#FFD4C0"/>
<path d="M49.6609 70.756C49.6014 70.756 49.4231 70.1015 48.888 69.0306C48.3529 68.0191 47.4612 66.7102 46.2127 65.4607C44.9642 64.2113 43.6563 63.3188 42.705 62.6049C41.7538 61.9504 41.2188 61.4744 41.2188 61.4744C41.2188 61.4149 41.8727 61.8314 42.8239 62.4264C43.7752 63.0808 45.1426 63.9733 46.391 65.2227C47.699 66.4722 48.5907 67.8406 49.0664 68.9116C49.3042 69.4471 49.4825 69.9231 49.542 70.2205C49.6609 70.5775 49.6609 70.756 49.6609 70.756Z" fill="#263238"/>
<path d="M100.969 78.3719C100.909 78.3719 100.909 77.7174 100.85 76.5869C100.85 75.516 100.85 73.9691 100.909 72.3031C100.969 70.6372 101.147 69.0903 101.266 68.0193C101.385 66.9483 101.504 66.2344 101.564 66.2344C101.623 66.2344 101.564 66.8888 101.504 68.0193C101.445 69.2093 101.326 70.6967 101.266 72.3031C101.207 73.9096 101.147 75.397 101.088 76.5869C101.028 77.7174 101.028 78.3719 100.969 78.3719Z" fill="#263238"/>
<g opacity="0.3">
<g opacity="0.3">
<path opacity="0.3" d="M49.2475 78.9662C48.3557 78.2523 46.9883 78.1333 45.9776 78.6093C45.502 78.8472 45.1453 79.1447 44.6697 79.3232C44.1941 79.5017 43.659 79.5612 43.2428 79.2637C42.8861 78.9662 42.8267 78.4903 42.5294 78.1333C42.0538 77.4788 41.1026 77.3598 40.3297 77.5383C39.5568 77.6573 38.7245 77.9548 37.9517 77.9548C37.1788 77.8953 36.4059 77.4788 35.633 77.3003C33.9089 76.8243 31.947 77.4788 30.8175 78.9067L29.3906 83.1906C36.4059 82.8336 43.4212 82.4766 50.4365 82.1791C50.6148 80.9297 50.1392 79.6802 49.2475 78.9662Z" fill="black"/>
</g>
</g>
<g opacity="0.3">
<g opacity="0.3">
<path opacity="0.3" d="M106.081 79.5613C104.714 79.2043 103.287 78.7283 102.217 77.7169C101.147 76.7054 100.552 75.099 101.146 73.79C99.3035 78.1929 94.6663 81.2867 89.9102 81.2272L110.183 80.8702C108.935 80.2158 107.448 79.9183 106.081 79.5613Z" fill="black"/>
</g>
</g>
<path d="M5.01457 82.7714C5.01457 82.7714 3.40938 178.443 16.6076 242.76L181.11 242.225L138.067 81.9385L5.01457 82.7714Z" fill="#E0E0E0"/>
<path d="M5.01453 82.7704C6.08466 82.7704 57.5697 82.4134 138.067 81.8779H138.186V81.9969C150.433 127.632 165.236 182.726 181.288 242.283L181.348 242.462H181.17C177.008 242.462 172.549 242.462 168.09 242.521C112.8 242.7 60.899 242.819 16.667 242.997H16.5481V242.878C16.0131 239.903 15.478 236.988 14.9429 234.073C14.7051 232.645 14.4079 231.217 14.1701 229.729C13.9323 228.301 13.7539 226.873 13.5161 225.445C13.0999 222.59 12.6838 219.793 12.2676 216.997C11.9109 214.2 11.5542 211.464 11.1975 208.727C11.0191 207.358 10.8408 205.99 10.6624 204.681C10.4841 203.312 10.3652 202.003 10.2463 200.695C9.94901 198.017 9.7112 195.399 9.41395 192.841C9.11669 190.282 8.93833 187.724 8.70053 185.166C8.46272 182.667 8.28437 180.168 8.04656 177.728C6.56027 158.213 5.84685 141.137 5.43069 127.096C5.01453 113.055 4.95508 101.929 4.95508 94.4319C4.95508 90.6836 4.95508 87.7682 5.01453 85.8048C5.01453 84.8528 5.01453 84.0793 5.07398 83.6034C5.01453 83.0679 5.01453 82.8299 5.01453 82.7704C5.01453 83.0679 5.01453 86.8162 5.01453 94.3724C5.01453 101.929 5.13343 112.995 5.54959 127.037C5.96575 141.078 6.67917 158.154 8.22491 177.669C8.46272 180.108 8.64107 182.607 8.87888 185.106C9.11669 187.605 9.29504 190.163 9.5923 192.781C9.88956 195.34 10.1274 197.958 10.4246 200.635C10.5435 201.944 10.7219 203.312 10.8408 204.621C11.0191 205.99 11.1975 207.299 11.3758 208.667C11.7326 211.404 12.0893 214.141 12.446 216.937C12.8621 219.734 13.2783 222.53 13.7539 225.386C13.9917 226.814 14.1701 228.242 14.4079 229.67C14.6457 231.098 14.9429 232.526 15.1807 234.013C15.7158 236.929 16.2509 239.844 16.7859 242.759L16.667 242.64C60.899 242.521 112.86 242.343 168.09 242.164C172.549 242.164 177.008 242.164 181.17 242.105L180.991 242.283C164.999 182.726 150.195 127.632 137.948 81.9969L138.067 82.1159C57.5697 82.5324 6.02521 82.7704 5.01453 82.7704Z" fill="#263238"/>
<path d="M5.01486 82.7705C5.01486 82.7705 4.89596 95.384 7.03621 117.815C8.46305 132.689 8.2847 152.204 12.2085 177.015C20.5317 229.551 24.9311 237.583 24.9311 237.583L185.331 236.512L142.586 80.3906L5.01486 82.7705Z" fill="#EBEBEB"/>
<path d="M5.01453 82.7704C6.08466 82.7704 59.5316 81.8184 142.645 80.2715H142.764V80.3905C155.011 125.073 169.695 178.74 185.509 236.512L185.569 236.691H185.391C182.656 236.691 179.624 236.75 176.651 236.75C121.183 237.107 69.1628 237.464 24.9308 237.761H24.8714L24.8119 237.702C24.1579 236.334 23.7418 234.965 23.3256 233.537C22.9095 232.169 22.4933 230.741 22.1366 229.372C21.7799 228.004 21.4232 226.576 21.1259 225.208C20.7692 223.839 20.4719 222.471 20.1747 221.102C18.9856 215.628 17.8561 210.274 16.9048 204.978C14.9429 194.447 13.2783 184.452 11.792 175.051C11.0786 170.351 10.4841 165.769 10.0085 161.307C9.53285 156.904 9.17614 152.62 8.87888 148.456C8.28436 140.245 7.92766 132.629 7.5115 125.787C7.33314 122.396 7.03588 119.123 6.73863 116.089C6.44137 113.055 6.20356 110.199 6.02521 107.521C5.60905 102.226 5.37124 97.7043 5.19289 94.0154C5.01453 90.3266 4.95508 87.5302 4.95508 85.6263C4.95508 84.6743 4.95508 83.9603 4.95508 83.4844C4.95508 83.0084 5.01453 82.7704 5.01453 82.7704C5.01453 82.8894 5.01453 83.7818 5.07398 85.6263C5.13344 87.5302 5.19289 90.3266 5.37124 94.0154C5.5496 97.7043 5.7874 102.226 6.20356 107.521C6.38191 110.199 6.61972 113.055 6.91698 116.089C7.21424 119.123 7.51149 122.336 7.68985 125.787C8.10601 132.629 8.46272 140.186 9.05724 148.456C9.35449 152.561 9.71121 156.845 10.1868 161.307C10.6624 165.71 11.2569 170.291 11.9704 175.051C13.4567 184.452 15.1213 194.507 17.0832 204.978C18.0344 210.214 19.164 215.628 20.353 221.102C20.6503 222.471 20.9476 223.839 21.3043 225.208C21.6015 226.576 21.9582 227.944 22.3149 229.372C22.6716 230.741 23.0878 232.169 23.504 233.537C23.9201 234.906 24.3363 236.334 24.9308 237.642L24.8119 237.583C69.0439 237.285 121.064 236.929 176.532 236.572C179.505 236.572 182.537 236.512 185.272 236.512L185.153 236.691C169.398 178.799 154.714 125.133 142.526 80.45L142.645 80.569C59.5316 81.8779 6.08466 82.7704 5.01453 82.7704Z" fill="#263238"/>
<path d="M157.15 87.8291L5.13268 90.447C4.47871 131.679 18.9849 196.115 29.6267 229.969L189.195 228.303C172.846 184.87 154.059 135.546 157.15 87.8291Z" fill="#F5F5F5"/>
<path d="M157.15 87.8291C157.15 87.9481 157.15 88.7811 157.091 90.447C157.091 91.3395 157.031 92.4104 156.972 93.7194C156.972 95.0283 156.853 96.5157 156.912 98.2412C156.972 101.633 156.972 105.857 157.388 110.736C157.448 111.985 157.566 113.235 157.626 114.543C157.745 115.852 157.923 117.221 158.102 118.649C158.28 120.077 158.399 121.505 158.577 122.992C158.755 124.48 158.993 126.027 159.231 127.573C159.469 129.12 159.707 130.727 159.944 132.393C160.242 134.059 160.539 135.725 160.896 137.45C161.252 139.175 161.55 140.96 161.906 142.745C162.323 144.53 162.739 146.375 163.155 148.219C163.393 149.171 163.571 150.123 163.809 151.075C164.047 152.027 164.284 152.979 164.522 153.931C164.998 155.835 165.533 157.798 166.009 159.821C166.544 161.785 167.138 163.807 167.733 165.89C168.03 166.901 168.327 167.972 168.624 168.984C168.922 169.995 169.278 171.066 169.576 172.137C174.629 189.094 181.585 207.836 189.314 228.243L189.373 228.422H189.195C144.606 228.898 91.6346 229.433 34.9178 230.088C33.1343 230.088 31.3508 230.147 29.6267 230.147H29.5077L29.4483 230.028C25.584 217.653 22.3141 205.277 19.4604 193.08C16.5473 180.883 14.0503 168.924 11.9101 157.203C9.76984 145.482 8.04574 133.999 6.79725 122.814C5.54877 111.688 4.83535 100.859 4.95426 90.447V90.328H5.07316C96.2124 88.8406 156.021 87.8886 157.15 87.8291C156.021 87.8291 96.2124 88.9001 5.13261 90.566L5.25151 90.447C5.13261 100.859 5.84603 111.628 7.09451 122.814C8.34299 133.94 10.0671 145.423 12.2073 157.144C14.3476 168.865 16.8446 180.883 19.7577 193.021C22.6708 205.158 25.9407 217.534 29.7456 229.909L29.5672 229.79C31.2913 229.79 33.0748 229.731 34.8584 229.731C91.5157 229.136 144.487 228.6 189.135 228.124L189.016 228.303C181.347 207.895 174.391 189.153 169.338 172.137C169.041 171.066 168.684 170.055 168.387 168.984C168.089 167.913 167.792 166.901 167.495 165.89C166.9 163.807 166.365 161.785 165.771 159.821C165.236 157.798 164.76 155.835 164.284 153.931C164.047 152.979 163.809 152.027 163.571 151.075C163.333 150.123 163.155 149.171 162.917 148.219C162.501 146.375 162.085 144.53 161.669 142.745C161.252 140.96 160.955 139.175 160.658 137.45C160.361 135.725 160.004 134.059 159.707 132.393C159.469 130.727 159.231 129.12 158.993 127.573C158.755 126.027 158.518 124.48 158.339 122.992C158.161 121.505 158.042 120.077 157.864 118.649C157.685 117.221 157.566 115.912 157.448 114.543C157.388 113.235 157.269 111.926 157.21 110.736C156.794 105.797 156.853 101.633 156.794 98.2412C156.734 96.5157 156.853 95.0283 156.912 93.7789C156.972 92.4699 157.031 91.399 157.031 90.5065C157.091 88.7811 157.15 88.0076 157.15 87.8291Z" fill="#263238"/>
<path d="M157.448 80.1523L5.01417 82.7702C4.36021 124.002 11.1377 161.961 21.7795 195.816L65.7737 223.065L193.476 220.864C177.067 177.49 154.356 127.869 157.448 80.1523Z" fill="#FAFAFA"/>
<path d="M157.449 80.1523C157.449 80.2713 157.389 81.1043 157.33 82.8297C157.27 83.7222 157.211 84.7932 157.211 86.1021C157.211 87.411 157.151 88.8985 157.211 90.6239C157.27 97.4661 157.924 107.521 160.243 120.135C162.502 132.748 166.545 147.801 172.371 164.639C175.284 173.088 178.554 182.012 182.18 191.353C185.807 200.694 189.671 210.511 193.536 220.805L193.595 220.983H193.417C156.022 221.638 112.384 222.351 65.7148 223.184H65.6553H65.5959C59.5318 219.436 53.0516 215.45 46.5714 211.404C38.1292 206.168 29.806 200.992 21.6611 195.935L21.6017 195.875V195.816C15.3593 175.943 10.9599 156.19 8.28454 137.151C5.60922 118.112 4.59855 99.7865 4.83636 82.7107V82.5917H4.95526C96.2134 81.1638 156.259 80.2118 157.449 80.1523C156.259 80.1523 96.2134 81.2233 5.01471 82.8892L5.13361 82.7702C4.89581 99.846 5.90648 118.171 8.5818 137.151C11.2571 156.19 15.6565 175.884 21.899 195.756L21.8395 195.697C29.9844 200.754 38.367 205.93 46.7497 211.166C53.2894 215.212 59.7696 219.198 65.7742 222.946H65.7148C112.384 222.173 155.962 221.4 193.417 220.805L193.298 220.983C189.433 210.69 185.569 200.873 181.943 191.532C178.375 182.191 175.046 173.266 172.133 164.817C166.307 147.92 162.324 132.867 160.064 120.254C157.746 107.64 157.151 97.5851 157.092 90.6834C157.032 88.958 157.092 87.4705 157.151 86.1616C157.151 84.8527 157.211 83.7817 157.27 82.8892C157.389 81.1043 157.389 80.3308 157.449 80.1523Z" fill="#263238"/>
<path d="M21.8984 195.817L60.6014 191.652L65.7142 223.067L21.8984 195.817Z" fill="#E0E0E0"/>
<path d="M65.7149 223.067C65.7149 223.067 65.7149 223.007 65.6554 222.888C65.6554 222.769 65.596 222.591 65.5365 222.412C65.4771 221.996 65.3581 221.401 65.2392 220.627C64.942 219.021 64.5853 216.76 64.1097 213.964C63.1584 208.311 61.8505 200.458 60.4237 191.593L60.602 191.712C59.4724 191.831 58.224 191.95 56.9755 192.128C47.2254 193.139 38.4266 194.091 32.0653 194.746C28.9143 195.043 26.2985 195.341 24.5149 195.519C23.6232 195.579 22.9692 195.638 22.4341 195.698C22.1963 195.698 22.018 195.757 21.8991 195.757C21.7802 195.757 21.7207 195.757 21.7207 195.757C21.7207 195.757 21.7802 195.757 21.8991 195.698C22.018 195.698 22.1963 195.638 22.4341 195.638C22.9097 195.579 23.6231 195.519 24.4555 195.4C26.239 195.222 28.8549 194.924 32.0058 194.567C38.4266 193.853 47.2254 192.901 56.916 191.831C58.1645 191.712 59.3535 191.593 60.5426 191.414H60.6615V191.533C62.0883 200.339 63.3368 208.192 64.2286 213.904C64.6447 216.701 65.0014 218.961 65.2392 220.568C65.3581 221.341 65.4176 221.936 65.477 222.353C65.477 222.531 65.5365 222.71 65.5365 222.829C65.7149 223.007 65.7149 223.067 65.7149 223.067Z" fill="#263238"/>
<path d="M128.793 123.228C128.793 123.288 108.282 123.704 82.8966 124.18C57.5702 124.597 37 124.894 37 124.835C37 124.775 57.5108 124.359 82.8966 123.883C108.282 123.407 128.793 123.109 128.793 123.228Z" fill="#263238"/>
<path d="M131.35 137.508C131.35 137.568 110.839 137.984 85.4532 138.46C60.1269 138.876 39.5566 139.174 39.5566 139.114C39.5566 139.055 60.0674 138.638 85.4532 138.162C110.839 137.687 131.35 137.449 131.35 137.508Z" fill="#263238"/>
<path d="M137.117 151.788C137.117 151.847 116.607 152.264 91.2208 152.74C65.8945 153.156 45.3242 153.454 45.3242 153.394C45.3242 153.335 65.835 152.918 91.2208 152.442C116.547 151.966 137.117 151.669 137.117 151.788Z" fill="#263238"/>
<path d="M143.119 167.913C143.119 167.972 122.609 168.389 97.2228 168.865C71.8964 169.281 51.3262 169.579 51.3262 169.519C51.3262 169.46 71.837 169.043 97.2228 168.567C122.609 168.151 143.119 167.853 143.119 167.913Z" fill="#263238"/>
<path d="M149.957 182.965C149.957 183.025 129.446 183.441 104.061 183.917C78.7343 184.333 58.1641 184.631 58.1641 184.571C58.1641 184.512 78.6748 184.095 104.061 183.62C129.387 183.144 149.957 182.906 149.957 182.965Z" fill="#263238"/>
<path d="M10.959 82.7721C10.959 82.7721 12.802 80.1542 13.7532 79.6187C14.7639 79.0832 16.1313 79.0237 16.7852 79.5592C17.4392 80.0947 17.4392 80.0947 17.4392 80.0947C17.4392 80.0947 20.5901 78.5477 22.1359 79.6187C22.1359 79.6187 25.1085 78.0718 26.6542 79.6782C26.6542 79.6782 28.9728 78.0718 29.9835 79.3807C30.9942 80.6896 30.9942 82.9506 30.5186 84.081C30.1024 85.271 29.2701 89.1978 28.6161 89.3168C28.6161 89.3168 26.7731 89.5548 26.4758 88.5433C26.1786 87.5319 26.0597 87.0559 26.0597 87.0559C26.0597 87.0559 25.4652 90.6257 24.5734 90.8637C23.7411 91.0422 22.0764 91.0422 21.9575 89.4358C21.9575 89.4358 21.1847 90.6257 20.4118 90.3283C19.6389 90.0308 18.6282 89.4358 18.6877 88.4838C18.7471 87.5319 18.7471 86.5204 18.7471 86.5204C18.7471 86.5204 18.3904 87.9484 17.677 87.6509C16.9636 87.3534 16.2502 87.4724 15.834 86.2824C15.4178 85.0925 14.3477 82.7721 14.3477 82.7721H10.959Z" fill="#FFD4C0"/>
<path d="M18.748 86.5202C18.6886 86.5202 18.8669 86.1038 19.0453 85.5088C19.1642 84.9138 19.2831 83.9618 19.1047 83.0099C18.9264 82.0579 18.4508 81.2845 18.0346 80.749C17.6184 80.2135 17.3212 79.9755 17.3806 79.916C17.3806 79.916 17.7373 80.0945 18.2129 80.5705C18.6886 81.0465 19.1642 81.8794 19.402 82.8909C19.6398 83.9024 19.4614 84.8543 19.2831 85.5088C18.9858 86.2228 18.748 86.5202 18.748 86.5202Z" fill="#EB996E"/>
<path d="M22.3744 79.6191C22.4339 79.6191 22.6124 80.1546 22.8504 80.9876C23.0289 81.88 23.2074 83.1295 23.1479 84.4979C23.0884 85.8664 22.8504 87.1158 22.5529 88.0083C22.2554 88.9008 22.0175 89.3767 22.0175 89.3767C21.8985 89.3767 22.7314 87.2348 22.8504 84.4979C22.9099 81.8205 22.2554 79.6191 22.3744 79.6191Z" fill="#EB996E"/>
<path d="M26.7137 79.7383C26.7732 79.7383 27.0707 81.4042 26.8922 83.4866C26.7137 85.569 26.1782 87.235 26.1187 87.1755C25.9997 87.1755 26.4162 85.5095 26.5947 83.4271C26.7732 81.4042 26.6542 79.7383 26.7137 79.7383Z" fill="#EB996E"/>
<path d="M39.3169 80.1548C39.198 79.7978 38.8413 79.6193 38.4846 79.5003C37.6523 79.2623 36.8199 79.6193 36.166 80.2143C35.5715 80.7498 35.0958 81.5232 34.6797 82.2372L39.0196 82.1777C39.0196 81.5232 39.5547 80.8093 39.3169 80.1548Z" fill="#FFD4C0"/>
<path d="M171.348 137.724C182.47 132.669 187.391 119.549 182.34 108.419C177.289 97.2897 164.18 92.3647 153.058 97.4193C141.937 102.474 137.016 115.594 142.067 126.723C147.117 137.853 160.227 142.778 171.348 137.724Z" fill="#0BBF90"/>
<path d="M161.671 109.904C161.73 115.021 161.849 120.138 161.909 125.314C161.968 127.218 164.941 127.218 164.881 125.314C164.822 120.197 164.703 115.08 164.643 109.904C164.584 107.941 161.611 107.941 161.671 109.904Z" fill="white"/>
<path d="M155.071 119.186C160.541 119.067 166.01 119.008 171.539 118.889C173.442 118.829 173.442 115.854 171.539 115.914C166.07 116.033 160.6 116.092 155.071 116.211C153.169 116.271 153.169 119.246 155.071 119.186Z" fill="white"/>
<g opacity="0.3">
<g opacity="0.3">
<path opacity="0.3" d="M166.309 95.8039C162.266 94.9114 157.926 95.4469 153.824 97.1128C154.657 98.6003 155.608 99.8497 156.737 101.218C157.689 102.349 159.056 103.539 160.483 103.063C160.84 102.944 161.256 102.646 161.612 102.646C162.266 102.646 162.683 103.301 163.039 103.777C163.99 105.204 165.179 106.394 166.547 107.406C167.26 107.941 168.39 108.358 169.044 107.644C169.341 107.287 169.401 106.811 169.401 106.335C169.341 103.063 167.855 98.8382 166.309 95.8039Z" fill="black"/>
</g>
</g>
<path d="M146.809 73.3737L150.376 72.3027C153.289 71.5293 156.321 72.0648 158.758 73.9092C160.72 75.3371 162.742 77.0031 163.455 77.955L166.487 82.0603C167.141 82.9528 167.438 84.1428 167.082 85.2137C167.022 85.4517 166.903 85.6897 166.725 85.8087L165.655 87.3556C165.655 87.3556 165.952 89.7355 166.011 91.223C166.011 92.6509 164.525 95.3283 164.525 95.3283L167.438 103.241C167.736 103.955 167.557 104.848 166.963 105.383C166.665 105.681 166.249 105.8 165.774 105.443C164.644 104.55 161.612 98.0652 161.612 98.0652L160.423 96.6967L158.758 96.2803C158.758 96.2803 159.056 98.6602 157.985 99.1361L153.467 95.2093L149.96 89.2595C149.96 89.2595 149.841 81.1084 149.008 78.8475C148.057 76.5866 146.809 73.3737 146.809 73.3737Z" fill="#FFD4C0"/>
<path d="M162.384 89.0801C162.444 89.0206 163.276 90.3295 163.811 92.055C164.406 93.7804 164.524 95.3273 164.465 95.3273C164.346 95.3273 164.108 93.8994 163.514 92.1739C162.979 90.4485 162.265 89.1396 162.384 89.0801Z" fill="#EB996E"/>
<path d="M165 85.4505C165.119 85.391 165.416 86.1644 165.595 87.1759C165.773 88.1874 165.833 88.9608 165.773 89.0203C165.714 89.0203 165.476 88.2469 165.297 87.2354C165.119 86.2239 164.94 85.4505 165 85.4505Z" fill="#EB996E"/>
<path d="M162.266 99.492C162.207 99.492 161.85 98.8971 161.256 97.8856C160.661 96.8742 159.829 95.5057 158.818 94.0183C158.343 93.2448 157.867 92.5903 157.391 91.9359C156.975 91.2814 156.5 90.7459 156.083 90.4484C155.132 89.7345 154.359 89.8534 154.359 89.8534C154.359 89.8534 154.538 89.7939 154.894 89.7939C155.251 89.7939 155.727 89.9724 156.202 90.2699C156.737 90.6269 157.213 91.1624 157.629 91.7574C158.105 92.4118 158.58 93.0663 159.056 93.8398C160.067 95.3272 160.84 96.7552 161.434 97.7666C162.029 98.7781 162.326 99.4325 162.266 99.492Z" fill="#EB996E"/>
<path d="M155.489 90.4482C155.548 90.4482 155.608 90.9242 155.845 91.6382C156.083 92.3522 156.559 93.3041 157.332 94.1371C157.748 94.5536 158.164 94.9106 158.461 95.3865C158.759 95.8625 158.877 96.3385 158.877 96.6955C158.877 97.469 158.699 97.9449 158.699 97.9449C158.64 97.9449 158.699 97.469 158.64 96.6955C158.58 96.3385 158.521 95.922 158.223 95.5055C157.926 95.0891 157.51 94.7321 157.094 94.3156C156.262 93.4231 155.786 92.4117 155.608 91.6382C155.429 90.9837 155.429 90.4482 155.489 90.4482Z" fill="#EB996E"/>
<path d="M149.544 82.0607C149.425 82.0607 149.544 80.6328 149.306 78.9074C149.068 77.1819 148.652 75.8135 148.771 75.8135C148.771 75.8135 148.949 76.111 149.128 76.6464C149.306 77.1819 149.485 77.9554 149.604 78.8479C149.842 80.6328 149.604 82.0607 149.544 82.0607Z" fill="#EB996E"/>
</svg>
