<svg width="74" height="69" viewBox="0 0 74 69" fill="none" xmlns="http://www.w3.org/2000/svg">
<path d="M37.003 5.70731C45.6942 -2.16508 59.1249 -1.90378 67.4979 6.55838C75.8671 15.0243 76.1557 28.507 68.371 37.3014L36.9956 69L5.62762 37.3014C-2.15704 28.507 -1.86474 15.0019 6.5008 6.55838C14.8811 -1.89258 28.286 -2.17627 37.003 5.70731ZM62.2588 11.8328C56.7089 6.22617 47.755 5.99847 41.9461 11.2617L37.0067 15.7335L32.0636 11.2654C26.2362 5.99474 17.3009 6.22617 11.7362 11.8402C6.22331 17.4021 5.94581 26.3047 11.0258 32.1875L36.9993 58.4325L62.9728 32.1912C68.0565 26.3047 67.7791 17.4132 62.2588 11.8328Z" fill="#DADADA"/>
</svg>
