<svg width="83" height="79" viewBox="0 0 83 79" fill="none" xmlns="http://www.w3.org/2000/svg">
<path fill-rule="evenodd" clip-rule="evenodd" d="M15.9894 8.36362C7.62112 12.9636 0.641409 16.8583 0.47883 17.0186C0.316251 17.1787 0.142013 17.6175 0.0916529 17.9935L0 18.6774L4.63625 23.3319L9.27249 27.9866L4.72839 32.5386C0.562386 36.712 0.177153 37.1446 0.0976444 37.7388C0.0273663 38.2641 0.0832325 38.4706 0.392683 38.8273C0.602545 39.0695 2.81469 40.3907 5.30842 41.7633L9.84249 44.2587L9.92346 52.9472L10.0044 61.6356L10.4092 62.0234C10.6319 62.2369 17.6085 66.1439 25.9128 70.7057C36.4252 76.4806 41.16 79 41.5 79C41.8401 79 46.5748 76.4806 57.0872 70.7057C65.3915 66.1439 72.3681 62.2369 72.5908 62.0234L72.9956 61.6356L73.0766 52.9472L73.1575 44.2587L77.6916 41.7633C80.1853 40.3907 82.3895 39.0787 82.59 38.8476C83.0096 38.3638 83.0538 37.806 82.7221 37.1803C82.5944 36.9394 80.5183 34.7725 78.1084 32.3649L73.7269 27.9873L78.3634 23.3324L83 18.6774L82.9084 17.9935C82.858 17.6175 82.6838 17.1795 82.5212 17.0205C81.973 16.4841 71.5521 10.8374 70.954 10.7526C70.4727 10.6845 70.279 10.7518 69.8553 11.1341C69.1339 11.7854 69.0218 12.5917 69.5641 13.2297C69.8047 13.5129 71.7215 14.665 74.2724 16.0595C76.6389 17.3532 78.5765 18.4489 78.5786 18.4941C78.5806 18.5395 76.9138 20.2467 74.8746 22.2881L71.1671 25.9996L57.8314 18.6653C50.4967 14.6315 44.4426 11.2796 44.3777 11.2167C44.3127 11.1539 45.9359 9.42566 47.9847 7.3762L51.7099 3.6499L52.7178 4.20598C60.3243 8.40239 60.2204 8.36183 61.1061 7.4745C61.7322 6.84737 61.7721 5.84097 61.1924 5.30273C60.5722 4.72702 51.8158 0 51.3695 0C51.1466 0 50.7838 0.119392 50.5638 0.265388C50.3435 0.411222 48.214 2.47301 45.8317 4.8469L41.5 9.16303L37.1683 4.8469C34.7859 2.47301 32.6565 0.411222 32.4362 0.265388C32.2162 0.119392 31.8488 0 31.6201 0C31.3758 0 24.9311 3.44842 15.9894 8.36362ZM35.0796 7.43784L38.7771 11.1445L38.074 11.5523C37.6872 11.7767 31.6245 15.119 24.6012 18.98L11.8315 25.9999L8.08424 22.2288C6.02319 20.1547 4.40971 18.4261 4.49877 18.3877C4.58783 18.3491 10.5995 15.04 17.8581 11.0339C25.1166 7.02776 31.129 3.74577 31.2187 3.74058C31.3085 3.73539 33.0459 5.39909 35.0796 7.43784ZM64.8801 8.04324C64.3184 8.32096 64.0084 8.86228 64.0084 9.56598C64.0084 10.2389 64.8403 11.0308 65.5468 11.0308C66.1878 11.0308 67.0011 10.415 67.1512 9.81595C67.3146 9.16384 66.8569 8.29662 66.2055 8.02393C65.5129 7.73405 65.5056 7.73405 64.8801 8.04324ZM54.8195 20.7017C62.0554 24.6826 67.9953 27.9566 68.0193 27.9775C68.102 28.05 41.7152 42.501 41.5 42.501C41.381 42.501 35.351 39.2392 28.0997 35.2523L14.9158 28.0038L15.4558 27.7163C15.7528 27.5583 21.6796 24.2913 28.6265 20.4565C35.5733 16.6215 41.3484 13.4793 41.4602 13.474C41.5717 13.4684 47.5834 16.7211 54.8195 20.7017ZM25.3106 37.4166L38.7749 44.8228L35.0785 48.5286C33.0454 50.5665 31.3128 52.2341 31.2282 52.2341C31.1005 52.2341 5.33077 38.1176 4.57973 37.6361C4.3859 37.5119 5.08982 36.7249 8.05995 33.7453C10.1076 31.691 11.7973 30.0103 11.8146 30.0103C11.8321 30.0103 17.9052 33.343 25.3106 37.4166ZM74.9326 33.7351C76.9763 35.7839 78.6128 37.4956 78.5694 37.5393C78.4062 37.7026 52.1314 52.1168 51.8817 52.1799C51.7106 52.2232 50.3476 50.968 47.9228 48.5344L44.2251 44.8228L57.6387 37.4286C65.0163 33.3618 71.0895 30.0291 71.1347 30.0224C71.18 30.0158 72.889 31.6865 74.9326 33.7351ZM22.6694 51.3221C27.6321 54.0475 31.2982 55.9651 31.5458 55.9651C31.7777 55.9651 32.1265 55.8845 32.3211 55.7858C32.5156 55.6872 34.6604 53.6254 37.0874 51.2042L41.5 46.8021L45.9126 51.2042C48.3396 53.6254 50.4844 55.6872 50.6789 55.7858C50.8735 55.8845 51.2223 55.9651 51.4542 55.9651C51.7852 55.9651 66.6265 47.9833 69.3117 46.3613L69.8379 46.0434V53.0131V59.9827L56.6112 67.2608C49.3365 71.2638 43.3266 74.5627 43.256 74.5917C43.1854 74.6206 43.1075 70.7717 43.083 66.0383L43.0383 57.4322L42.593 56.9863C41.9715 56.3638 41.0285 56.3638 40.407 56.9863L39.9617 57.4322L39.917 66.0383C39.8925 70.7717 39.8146 74.6206 39.744 74.5917C39.6734 74.5627 33.6635 71.2638 26.3888 67.2608L13.1621 59.9827V53.0131V46.0434L13.6884 46.3613C13.9777 46.5362 18.0192 48.7685 22.6694 51.3221ZM40.7584 51.2843C40.2198 51.5461 39.8339 52.339 39.9482 52.9495C40.2722 54.6797 42.7278 54.6797 43.0518 52.9495C43.2851 51.7036 41.9259 50.7167 40.7584 51.2843Z" fill="#E6E7E8"/>
</svg>
