<svg width="12" height="13" viewBox="0 0 12 13" fill="none" xmlns="http://www.w3.org/2000/svg">
<path d="M8.9165 1.75016H11.2498C11.4045 1.75016 11.5529 1.81162 11.6623 1.92102C11.7717 2.03041 11.8332 2.17879 11.8332 2.3335V11.6668C11.8332 11.8215 11.7717 11.9699 11.6623 12.0793C11.5529 12.1887 11.4045 12.2502 11.2498 12.2502H0.749837C0.595128 12.2502 0.446754 12.1887 0.337358 12.0793C0.227962 11.9699 0.166504 11.8215 0.166504 11.6668V2.3335C0.166504 2.17879 0.227962 2.03041 0.337358 1.92102C0.446754 1.81162 0.595128 1.75016 0.749837 1.75016H3.08317V0.583496H4.24984V1.75016H7.74984V0.583496H8.9165V1.75016ZM7.74984 2.91683H4.24984V4.0835H3.08317V2.91683H1.33317V5.25016H10.6665V2.91683H8.9165V4.0835H7.74984V2.91683ZM10.6665 6.41683H1.33317V11.0835H10.6665V6.41683Z" fill="black"/>
<path d="M8.9165 1.75016H11.2498C11.4045 1.75016 11.5529 1.81162 11.6623 1.92102C11.7717 2.03041 11.8332 2.17879 11.8332 2.3335V11.6668C11.8332 11.8215 11.7717 11.9699 11.6623 12.0793C11.5529 12.1887 11.4045 12.2502 11.2498 12.2502H0.749837C0.595128 12.2502 0.446754 12.1887 0.337358 12.0793C0.227962 11.9699 0.166504 11.8215 0.166504 11.6668V2.3335C0.166504 2.17879 0.227962 2.03041 0.337358 1.92102C0.446754 1.81162 0.595128 1.75016 0.749837 1.75016H3.08317V0.583496H4.24984V1.75016H7.74984V0.583496H8.9165V1.75016ZM7.74984 2.91683H4.24984V4.0835H3.08317V2.91683H1.33317V5.25016H10.6665V2.91683H8.9165V4.0835H7.74984V2.91683ZM10.6665 6.41683H1.33317V11.0835H10.6665V6.41683Z" fill="#0344A7"/>
</svg>
