<svg width="85" height="85" viewBox="0 0 85 85" fill="none" xmlns="http://www.w3.org/2000/svg">
<circle cx="42.5" cy="42.5" r="42.5" fill="#E8FEF2"/>
<path fill-rule="evenodd" clip-rule="evenodd" d="M43.6954 25.0205C42.1213 25.1893 40.5801 25.752 39.2154 26.6563C37.0764 28.0735 35.5747 30.2947 35.0164 32.8671C34.843 33.6662 34.8444 35.9268 35.0189 36.7316C35.8773 40.6918 38.9011 43.6586 42.8862 44.4506C43.7276 44.6178 45.6603 44.6171 46.5055 44.4492C50.6172 43.6327 53.6821 40.5193 54.4277 36.4017C54.5669 35.6332 54.5669 33.9535 54.4277 33.1849C53.86 30.0496 51.841 27.3478 49.0579 25.999C48.2621 25.6135 47.3497 25.3051 46.5359 25.1467C45.9788 25.0383 44.2468 24.9614 43.6954 25.0205ZM45.8994 27.1305C47.6032 27.4055 49.0781 28.1694 50.2852 29.402C52.6036 31.7695 53.1521 35.3329 51.6521 38.2819C50.8825 39.7947 49.676 40.9892 48.1641 41.7348C45.6378 42.9808 42.7302 42.7983 40.361 41.2452C39.8035 40.8798 38.877 40.0019 38.4268 39.4128C37.9537 38.7935 37.3722 37.5926 37.1507 36.777C36.9793 36.1465 36.9648 35.9913 36.9648 34.7933C36.9648 33.6037 36.9801 33.4374 37.1456 32.8297C37.5005 31.5267 38.1424 30.4084 39.1067 29.4131C40.8751 27.5879 43.4246 26.7312 45.8994 27.1305ZM44.3107 29.4478C44.0124 29.5822 43.7369 29.9365 43.6864 30.2507C43.6514 30.4686 43.6088 30.5279 43.463 30.5619C43.0848 30.6501 42.4717 31.0342 42.1497 31.3848C40.8929 32.753 41.4581 34.9857 43.2291 35.649C43.5394 35.7652 43.8371 35.8063 44.5858 35.8364C45.4675 35.8718 45.5577 35.8876 45.703 36.0322C45.9173 36.2454 45.9139 36.6055 45.6952 36.8587L45.5295 37.0506L44.3718 37.0848C43.6349 37.1066 43.1598 37.15 43.0648 37.2041C42.6734 37.4271 42.4847 37.9298 42.6217 38.3848C42.7175 38.7029 43.0941 39.0464 43.4125 39.1058C43.613 39.1433 43.6546 39.1842 43.6916 39.3808C43.7726 39.8103 44.2732 40.2314 44.7027 40.2314C44.7865 40.2314 44.9829 40.1699 45.1391 40.0946C45.4461 39.9467 45.7235 39.5497 45.7235 39.2582C45.7235 39.1195 45.7745 39.0753 46.0157 39.0051C46.7018 38.8051 47.3759 38.2085 47.7049 37.5102C47.8663 37.1677 47.8891 37.034 47.8891 36.435C47.8891 35.836 47.8663 35.7023 47.7049 35.3598C47.4477 34.8138 46.9648 34.3244 46.4199 34.0574C45.9909 33.8472 45.9156 33.8335 44.9689 33.795C44.4197 33.7726 43.918 33.7316 43.8542 33.7037C43.5765 33.5828 43.4395 33.1278 43.5943 32.84C43.744 32.5616 44.0088 32.5018 45.0911 32.5018C46.0418 32.5018 46.1325 32.4906 46.3493 32.3465C46.7733 32.0647 46.9414 31.4904 46.7229 31.07C46.5787 30.7927 46.2539 30.5425 45.969 30.4893C45.7718 30.4525 45.7235 30.4125 45.7235 30.2857C45.7235 30.0948 45.4796 29.7239 45.2363 29.5446C45.0044 29.3737 44.5749 29.3289 44.3107 29.4478ZM53.6958 46.0371C53.0556 46.1767 52.2481 46.5194 51.7271 46.8727C51.5447 46.9964 50.9894 47.4935 50.4931 47.9774L49.5907 48.8572L49.4078 48.5469C48.957 47.7814 48.0328 47.1602 47.116 47.0063C46.781 46.9501 45.4688 46.9345 42.6253 46.9526C38.2078 46.981 38.3404 46.9691 37.4078 47.4224C36.7203 47.7565 35.9316 48.5749 35.5373 49.3633C35.3679 49.7019 35.2109 50.0493 35.1884 50.1352C35.1485 50.2877 35.1296 50.291 34.3683 50.272L33.589 50.2526L33.5537 49.4659C33.5146 48.5962 33.4605 48.455 33.0734 48.2137C32.835 48.0651 32.804 48.0637 29.7612 48.0637C26.7662 48.0637 26.685 48.0672 26.4998 48.2047C26.3954 48.2823 26.2462 48.4307 26.1682 48.5346C26.0283 48.721 26.0262 48.7924 26.008 53.9517C25.9899 59.0907 25.9919 59.1845 26.1292 59.4523C26.2196 59.6284 26.3648 59.7733 26.5403 59.8624C26.7998 59.9942 26.9406 60.0001 29.7878 60C33.106 59.9999 33.0797 60.0033 33.3986 59.5283C33.5368 59.3224 33.5546 59.2114 33.5546 58.5556V57.8152L41.1 57.7936C49.5721 57.7692 48.9083 57.8099 50.0204 57.2472C50.5481 56.9801 50.7393 56.801 54.7428 52.8241C59.3656 48.2319 59.14 48.5024 58.8897 47.8502C58.6632 47.2601 57.2825 46.3622 56.1736 46.0839C55.4637 45.9057 54.391 45.8855 53.6958 46.0371ZM55.4861 48.0337C55.6562 48.0719 55.9294 48.1532 56.0932 48.2144L56.3908 48.3259L52.9321 51.7677C49.2646 55.4172 49.1476 55.5172 48.3498 55.6832C48.0965 55.736 45.7871 55.7591 40.7701 55.7591H33.5546V54.0551V52.3511L34.9468 52.3279C36.1984 52.307 36.3631 52.2906 36.5773 52.1655C36.9045 51.9742 37.063 51.6722 37.1348 51.1032C37.248 50.2059 37.6515 49.6231 38.4201 49.2465L38.8797 49.0213L42.7465 49.0011C45.3797 48.9873 46.7019 49.0045 46.8912 49.0552C48.0931 49.3772 48.0649 51.036 46.8526 51.3158C46.7042 51.35 45.6671 51.3787 44.5477 51.3796C42.5515 51.3813 42.5082 51.3842 42.2859 51.5352C41.6316 51.9795 41.6702 52.857 42.3619 53.2624C42.5777 53.3888 42.741 53.4008 44.5204 53.4205C46.8394 53.4462 47.3506 53.3922 48.061 53.0465C48.5343 52.8162 48.7545 52.6202 50.7423 50.6603C53.0332 48.4016 53.2057 48.2655 54.0267 48.0674C54.5017 47.9528 55.067 47.9398 55.4861 48.0337ZM31.4921 54.0148V57.948H29.7734H28.0546V54.0148V50.0816H29.7734H31.4921V54.0148Z" fill="#04602E"/>
</svg>
