<svg width="63" height="53" viewBox="0 0 63 53" fill="none" xmlns="http://www.w3.org/2000/svg">
<path d="M11.75 19.75C12.4793 19.75 13.1788 20.0397 13.6945 20.5555C14.2103 21.0712 14.5 21.7707 14.5 22.5C18.8206 22.4936 23.0167 23.9472 26.4075 26.625H32.375C36.0407 26.625 39.3325 28.22 41.5985 30.75H50.25C52.8495 30.7493 55.3959 31.4854 57.594 32.8731C59.792 34.2608 61.5517 36.2431 62.669 38.5902C56.1652 47.173 45.6355 52.75 33.75 52.75C26.0775 52.75 19.5875 51.0917 14.335 48.1905C14.1426 48.7214 13.7912 49.1801 13.3285 49.5039C12.8659 49.8277 12.3147 50.001 11.75 50H3.5C2.77065 50 2.07118 49.7103 1.55546 49.1945C1.03973 48.6788 0.75 47.9793 0.75 47.25V22.5C0.75 21.7707 1.03973 21.0712 1.55546 20.5555C2.07118 20.0397 2.77065 19.75 3.5 19.75H11.75ZM14.5027 28L14.5 41.8105L14.6237 41.8985C19.56 45.3635 25.9895 47.25 33.75 47.25C42.011 47.25 49.6972 44.071 55.2962 38.6425L55.662 38.2768L55.332 38.0018C54.0334 36.9847 52.4594 36.3811 50.8137 36.2692L50.25 36.25H44.4447C44.6427 37.1355 44.75 38.054 44.75 39V41.75H20V36.25L38.6725 36.2472L38.579 36.0327C38.052 34.9315 37.2413 33.9904 36.2303 33.306C35.2192 32.6217 34.0442 32.2188 32.826 32.1388L32.375 32.125H24.3175C23.0396 30.818 21.5132 29.7798 19.8282 29.0713C18.1431 28.3629 16.3334 27.9987 14.5055 28H14.5027ZM9 25.25H6.25V44.5H9V25.25ZM47.5 8.75C49.688 8.75 51.7865 9.61919 53.3336 11.1664C54.8808 12.7135 55.75 14.812 55.75 17C55.75 19.188 54.8808 21.2865 53.3336 22.8336C51.7865 24.3808 49.688 25.25 47.5 25.25C45.312 25.25 43.2135 24.3808 41.6664 22.8336C40.1192 21.2865 39.25 19.188 39.25 17C39.25 14.812 40.1192 12.7135 41.6664 11.1664C43.2135 9.61919 45.312 8.75 47.5 8.75ZM47.5 14.25C46.7706 14.25 46.0712 14.5397 45.5555 15.0555C45.0397 15.5712 44.75 16.2707 44.75 17C44.75 17.7293 45.0397 18.4288 45.5555 18.9445C46.0712 19.4603 46.7706 19.75 47.5 19.75C48.2293 19.75 48.9288 19.4603 49.4445 18.9445C49.9603 18.4288 50.25 17.7293 50.25 17C50.25 16.2707 49.9603 15.5712 49.4445 15.0555C48.9288 14.5397 48.2293 14.25 47.5 14.25ZM28.25 0.5C30.438 0.5 32.5365 1.36919 34.0836 2.91637C35.6308 4.46354 36.5 6.56196 36.5 8.75C36.5 10.938 35.6308 13.0365 34.0836 14.5836C32.5365 16.1308 30.438 17 28.25 17C26.062 17 23.9635 16.1308 22.4164 14.5836C20.8692 13.0365 20 10.938 20 8.75C20 6.56196 20.8692 4.46354 22.4164 2.91637C23.9635 1.36919 26.062 0.5 28.25 0.5ZM28.25 6C27.5207 6 26.8212 6.28973 26.3055 6.80546C25.7897 7.32118 25.5 8.02065 25.5 8.75C25.5 9.47935 25.7897 10.1788 26.3055 10.6945C26.8212 11.2103 27.5207 11.5 28.25 11.5C28.9793 11.5 29.6788 11.2103 30.1945 10.6945C30.7103 10.1788 31 9.47935 31 8.75C31 8.02065 30.7103 7.32118 30.1945 6.80546C29.6788 6.28973 28.9793 6 28.25 6Z" fill="#DADADA"/>
</svg>
