<svg width="16" height="15" viewBox="0 0 16 15" fill="none" xmlns="http://www.w3.org/2000/svg">
<path d="M7.78516 15C3.64291 15 0.285156 11.6423 0.285156 7.5C0.285156 3.35775 3.64291 0 7.78516 0C11.9274 0 15.2852 3.35775 15.2852 7.5C15.2852 11.6423 11.9274 15 7.78516 15ZM7.78516 13.5C9.37646 13.5 10.9026 12.8679 12.0278 11.7426C13.153 10.6174 13.7852 9.0913 13.7852 7.5C13.7852 5.9087 13.153 4.38258 12.0278 3.25736C10.9026 2.13214 9.37646 1.5 7.78516 1.5C6.19386 1.5 4.66773 2.13214 3.54252 3.25736C2.4173 4.38258 1.78516 5.9087 1.78516 7.5C1.78516 9.0913 2.4173 10.6174 3.54252 11.7426C4.66773 12.8679 6.19386 13.5 7.78516 13.5ZM8.53516 7.5H11.5352V9H7.03516V3.75H8.53516V7.5Z" fill="#004D39"/>
</svg>
