<svg width="13" height="14" viewBox="0 0 13 14" fill="none" xmlns="http://www.w3.org/2000/svg">
<path d="M9.625 1.87524H12.125C12.2908 1.87524 12.4497 1.94109 12.5669 2.0583C12.6842 2.17551 12.75 2.33448 12.75 2.50024V12.5002C12.75 12.666 12.6842 12.825 12.5669 12.9422C12.4497 13.0594 12.2908 13.1252 12.125 13.1252H0.875C0.70924 13.1252 0.550269 13.0594 0.433058 12.9422C0.315848 12.825 0.25 12.666 0.25 12.5002V2.50024C0.25 2.33448 0.315848 2.17551 0.433058 2.0583C0.550269 1.94109 0.70924 1.87524 0.875 1.87524H3.375V0.625244H4.625V1.87524H8.375V0.625244H9.625V1.87524ZM8.375 3.12524H4.625V4.37524H3.375V3.12524H1.5V5.62524H11.5V3.12524H9.625V4.37524H8.375V3.12524ZM11.5 6.87524H1.5V11.8752H11.5V6.87524Z" fill="black"/>
<path d="M9.625 1.87524H12.125C12.2908 1.87524 12.4497 1.94109 12.5669 2.0583C12.6842 2.17551 12.75 2.33448 12.75 2.50024V12.5002C12.75 12.666 12.6842 12.825 12.5669 12.9422C12.4497 13.0594 12.2908 13.1252 12.125 13.1252H0.875C0.70924 13.1252 0.550269 13.0594 0.433058 12.9422C0.315848 12.825 0.25 12.666 0.25 12.5002V2.50024C0.25 2.33448 0.315848 2.17551 0.433058 2.0583C0.550269 1.94109 0.70924 1.87524 0.875 1.87524H3.375V0.625244H4.625V1.87524H8.375V0.625244H9.625V1.87524ZM8.375 3.12524H4.625V4.37524H3.375V3.12524H1.5V5.62524H11.5V3.12524H9.625V4.37524H8.375V3.12524ZM11.5 6.87524H1.5V11.8752H11.5V6.87524Z" fill="#0344A7"/>
</svg>
