<svg width="61" height="84" viewBox="0 0 61 84" fill="none" xmlns="http://www.w3.org/2000/svg">
<path d="M10.1124 30.3696L10.5951 30.5L10.7235 30.0168L11.3157 27.788L20.2454 30.2009C23.2276 31.0067 26.4042 30.5847 29.0766 29.0288C31.7487 27.473 33.6978 24.911 34.496 21.907C35.2942 18.9029 34.8765 15.7015 33.3337 13.0068C31.7909 10.3119 29.2491 8.34465 26.2669 7.53885L17.3372 5.12595L17.9294 2.89723L18.0578 2.414L17.5751 2.28358L14.8858 1.55691L14.4031 1.42648L14.2747 1.90972L7.06886 29.0292L6.94046 29.5125L7.42315 29.6429L10.1124 30.3696ZM7.84577 10.3854L7.97417 9.90214L7.49148 9.77172L4.80221 9.04505L4.31952 8.91463L4.19112 9.39786L2.02936 17.5337L1.90096 18.0169L2.38365 18.1474L5.07292 18.874L5.55561 19.0045L5.684 18.5212L7.84577 10.3854ZM21.2228 26.5225L12.2931 24.1096L16.3598 8.80437L25.2896 11.2173C27.3001 11.7605 29.015 13.0872 30.0566 14.9064C31.0982 16.7257 31.3809 18.8887 30.8413 20.9195C30.3017 22.9502 28.9844 24.6809 27.1803 25.7313C25.3763 26.7816 23.2334 27.0658 21.2228 26.5225Z" fill="#BCBEC0" stroke="#BCBEC0"/>
<path d="M32.0411 55.0726H26.7759V70.8512H32.0411V55.0726Z" fill="#BCBEC0"/>
<path d="M42.5715 55.0726H37.3063V70.8512H42.5715V55.0726Z" fill="#BCBEC0"/>
<path fill-rule="evenodd" clip-rule="evenodd" d="M21.5107 41.9238H8.34766V47.1834H13.6129V81.3703C13.6129 82.0677 13.8902 82.7366 14.3839 83.2298C14.8776 83.723 15.5473 84 16.2455 84H53.1019C53.8001 84 54.4698 83.723 54.9635 83.2298C55.4572 82.7366 55.7345 82.0677 55.7345 81.3703V47.1834H60.9997V41.9238H47.8367H42.5715H26.7759H21.5107ZM18.8781 47.1834H50.4693V78.7405H18.8781V47.1834Z" fill="#BCBEC0"/>
</svg>
