<svg width="31" height="30" viewBox="0 0 31 30" fill="none" xmlns="http://www.w3.org/2000/svg">
<rect width="31" height="30" rx="3" fill="#FFF5F5"/>
<path d="M20.25 9.6H25V11.4H23.1V23.1C23.1 23.3387 22.9999 23.5676 22.8218 23.7364C22.6436 23.9052 22.402 24 22.15 24H8.85C8.59804 24 8.35641 23.9052 8.17825 23.7364C8.00009 23.5676 7.9 23.3387 7.9 23.1V11.4H6V9.6H10.75V6.9C10.75 6.66131 10.8501 6.43239 11.0282 6.2636C11.2064 6.09482 11.448 6 11.7 6H19.3C19.552 6 19.7936 6.09482 19.9718 6.2636C20.1499 6.43239 20.25 6.66131 20.25 6.9V9.6ZM21.2 11.4H9.8V22.2H21.2V11.4ZM12.65 14.1H14.55V19.5H12.65V14.1ZM16.45 14.1H18.35V19.5H16.45V14.1ZM12.65 7.8V9.6H18.35V7.8H12.65Z" fill="#F50000"/>
</svg>
