<svg width="31" height="31" viewBox="0 0 31 31" fill="none" xmlns="http://www.w3.org/2000/svg">
<rect x="0.5" y="0.5" width="30" height="30" rx="2.5" fill="#DAF1EB"/>
<rect x="0.5" y="0.5" width="30" height="30" rx="2.5" fill="#F1FFFB"/>
<path d="M11.2064 19.2811L19.9398 10.535L18.7222 9.31559L9.98882 18.0618V19.2811H11.2064ZM11.9203 21.0059H8.2666V17.3469L18.1134 7.48564C18.2749 7.32398 18.4939 7.23315 18.7222 7.23315C18.9505 7.23315 19.1695 7.32398 19.331 7.48564L21.7671 9.92529C21.9285 10.087 22.0192 10.3063 22.0192 10.535C22.0192 10.7637 21.9285 10.983 21.7671 11.1447L11.9203 21.0059ZM8.2666 22.7306H23.7666V24.4554H8.2666V22.7306Z" fill="#048D6A"/>
<rect x="0.5" y="0.5" width="30" height="30" rx="2.5" stroke="#C8ECE5"/>
</svg>
