<svg width="20" height="20" viewBox="0 0 20 20" fill="none" xmlns="http://www.w3.org/2000/svg">
<path d="M5.92204 1.85574L5.96659 1.9446L5.92204 1.85574C2.35447 3.6444 0.353181 7.62079 1.03094 11.572L1.12949 11.5551L1.03094 11.572C1.33572 13.3485 2.17453 14.9752 3.47712 16.3184C4.28903 17.1558 5.02227 17.6904 6.04025 18.1868C8.18486 19.2327 10.6042 19.3847 12.9075 18.6195C17.2317 17.183 19.84 12.65 18.9136 8.18213C18.562 6.48625 17.7328 4.92609 16.5075 3.65336C14.6173 1.68999 11.9451 0.694324 9.2149 0.935533L9.2237 1.03513L9.2149 0.935533C8.13694 1.0308 6.85136 1.38984 5.92204 1.85574ZM10.6418 2.51716L10.6506 2.41755L10.6418 2.51716C11.6634 2.60757 12.4394 2.82706 13.358 3.28539C14.1407 3.67594 14.6514 4.04477 15.2807 4.67414C17.5729 6.96665 18.1581 10.3036 16.7807 13.2233C15.7895 15.3245 13.8662 16.8484 11.5834 17.3407C9.13965 17.8679 6.64118 17.1657 4.83898 15.4459C2.37136 13.0909 1.78253 9.52245 3.36183 6.49181C3.716 5.81215 4.10356 5.29393 4.72448 4.67201C5.56781 3.82735 6.47089 3.26371 7.56703 2.89717L7.53532 2.80233L7.56704 2.89717C8.62299 2.54404 9.59388 2.42436 10.6418 2.51716ZM9.00204 12.3438V12.4438H9.10204H10.3265H10.4265V12.3438V12.2826C10.4333 11.8615 10.477 11.5149 10.5553 11.2407C10.6333 10.9679 10.7576 10.7352 10.9274 10.5407L10.9279 10.5401C11.1001 10.3395 11.3315 10.1462 11.6245 9.96084C11.9312 9.77041 12.1939 9.55094 12.4117 9.30208C12.6342 9.05188 12.8038 8.76764 12.9202 8.45003C13.0407 8.13092 13.1 7.7764 13.1 7.38776C13.1 6.83517 12.9738 6.33914 12.7192 5.90246C12.4681 5.46595 12.1108 5.12282 11.6499 4.87356C11.1905 4.62327 10.653 4.5 10.0408 4.5C9.47609 4.5 8.95921 4.61297 8.49194 4.84049L8.49167 4.84062C8.02675 5.06871 7.65091 5.399 7.36558 5.83029L7.36527 5.83077C7.08178 6.26462 6.928 6.78339 6.90011 7.38312L6.89524 7.48776H7H8.28571H8.37924L8.38549 7.39445C8.41189 7.0005 8.50866 6.6908 8.66902 6.45854C8.83299 6.22106 9.03523 6.04939 9.27593 5.94043C9.52171 5.82917 9.77638 5.77381 10.0408 5.77381C10.3461 5.77381 10.6211 5.83776 10.8677 5.96414C11.1137 6.09023 11.3094 6.26898 11.4563 6.50157C11.6012 6.7311 11.6755 7.00451 11.6755 7.32581C11.6755 7.58584 11.63 7.82011 11.5406 8.03004L11.5401 8.03124C11.4528 8.24402 11.3335 8.43153 11.1822 8.59447C11.0285 8.75651 10.8552 8.89714 10.6621 9.01644C10.3229 9.22308 10.0306 9.44993 9.78602 9.69739C9.5351 9.95129 9.34432 10.2804 9.21123 10.6809C9.07734 11.0837 9.0089 11.6185 9.00204 12.2808V12.2818V12.3438ZM10.2662 15.3616L10.2668 15.3612C10.42 15.2667 10.5421 15.1414 10.632 14.9862C10.7264 14.8294 10.7735 14.6568 10.7735 14.4707C10.7735 14.1895 10.6728 13.9458 10.4742 13.7448C10.2755 13.5438 10.0341 13.4415 9.7551 13.4415C9.47611 13.4415 9.23468 13.5438 9.03602 13.7448C8.83739 13.9458 8.73673 14.1895 8.73673 14.4707C8.73673 14.752 8.83739 14.9957 9.03602 15.1967C9.23468 15.3977 9.47611 15.5 9.7551 15.5C9.94217 15.5 10.1134 15.4543 10.2662 15.3616Z" fill="#D3D7D6" stroke="#D3D7D6" stroke-width="0.2"/>
</svg>
