<svg width="20" height="20" viewBox="0 0 20 20" fill="none" xmlns="http://www.w3.org/2000/svg">
<circle cx="10" cy="10" r="10" fill="#048D6A"/>
<path d="M12.4123 9.78728C12.6347 9.53255 12.8041 9.24324 12.9205 8.92007C13.0407 8.59546 13.1 8.23481 13.1 7.83939C13.1 7.27718 12.974 6.77253 12.7196 6.3282C12.4687 5.88399 12.1116 5.53457 11.6506 5.28063C11.191 5.02562 10.6533 4.9 10.0408 4.9C9.47581 4.9 8.9587 5.01513 8.49128 5.24693L8.49102 5.24707C8.02597 5.47944 7.65025 5.81583 7.36512 6.2548L7.36512 6.2548L7.36481 6.25528C7.08159 6.69676 6.92797 7.22458 6.9001 7.83483L6.89533 7.93939H7H8.28571H8.37935L8.3855 7.84595C8.41193 7.44421 8.50885 7.12819 8.66951 6.8912C8.83367 6.64904 9.03601 6.47419 9.27656 6.36328C9.52222 6.25002 9.77667 6.19369 10.0408 6.19369C10.3458 6.19369 10.6205 6.25875 10.867 6.38741C11.1129 6.51577 11.3088 6.69787 11.4558 6.9351C11.601 7.16931 11.6755 7.4484 11.6755 7.77629C11.6755 8.04158 11.6299 8.28066 11.5404 8.4949L11.5404 8.49489L11.5399 8.49608C11.4524 8.71312 11.3329 8.90431 11.1816 9.07039C11.0278 9.23551 10.8545 9.37878 10.6613 9.50028C10.3221 9.71075 10.0299 9.94178 9.78538 10.1937C9.53461 10.4522 9.34402 10.7871 9.21106 11.1946C9.07732 11.6045 9.0089 12.1487 9.00205 12.8231H9.00204V12.8241V12.8872V12.9872L12.3367 9.7218M12.4123 9.78728C12.4122 9.78738 12.4121 9.78748 12.4121 9.78757L12.3367 9.7218M12.4123 9.78728C12.4124 9.78718 12.4125 9.78708 12.4126 9.78698L12.3367 9.7218M12.4123 9.78728C12.1945 10.0406 11.9319 10.2641 11.6252 10.4581M12.3367 9.7218C12.1259 9.96718 11.8707 10.1845 11.5714 10.3738M11.6252 10.4581C11.6253 10.458 11.6255 10.4579 11.6256 10.4579L11.5714 10.3738M11.6252 10.4581C11.6251 10.4582 11.625 10.4582 11.6249 10.4583L11.5714 10.3738M11.6252 10.4581L11.5714 10.3738M7 7.83939C7.00153 7.80578 7.00346 7.77245 7.00577 7.73939H7V7.83939ZM7 7.83939L7.0999 7.84395C7.09997 7.84243 7.10004 7.84091 7.10011 7.83939H7ZM9.10204 12.8241C9.10217 12.8117 9.10231 12.7994 9.10248 12.7872H9.10204V12.8241ZM10.4265 12.8249V12.8241H10.3265L10.4265 12.8257C10.4265 12.8254 10.4265 12.8251 10.4265 12.8249ZM10.2669 15.9589L10.2675 15.9585C10.4207 15.8622 10.5427 15.7346 10.6324 15.5769C10.7266 15.4175 10.7735 15.2424 10.7735 15.0535C10.7735 14.7682 10.6732 14.5206 10.4748 14.3161C10.2763 14.1115 10.0347 14.0071 9.7551 14.0071C9.4755 14.0071 9.23388 14.1115 9.03538 14.3161C8.83696 14.5206 8.73673 14.7682 8.73673 15.0535C8.73673 15.3389 8.83696 15.5865 9.03538 15.791C9.23388 15.9955 9.4755 16.1 9.7551 16.1C9.94252 16.1 10.114 16.0534 10.2669 15.9589Z" fill="white" stroke="white" stroke-width="0.2"/>
</svg>
