<svg width="13" height="13" viewBox="0 0 13 13" fill="none" xmlns="http://www.w3.org/2000/svg">
<path d="M11.0499 7.52631V9.57894H12.9998V10.9474H11.0492L11.0499 13H9.74998L9.74934 10.9474H7.80012V9.57894H9.74998V7.52631H11.0499ZM11.8578 1.20215C13.328 2.75394 13.3787 5.22531 12.0112 6.83662L11.0882 5.86641C11.9533 4.82368 11.9078 3.18841 10.9375 2.16894C9.96057 1.1433 8.38963 1.09951 7.3692 2.06425L6.50151 2.88394L5.63317 2.06494C4.60949 1.09883 3.0392 1.14125 2.06231 2.1703C1.09388 3.18978 1.04513 4.82162 1.93752 5.89994L7.41794 11.6788L6.50021 12.6476L0.988586 6.83731C-0.37892 5.22531 -0.327573 2.74983 1.14198 1.20215C2.61412 -0.346909 4.96891 -0.398909 6.50021 1.04615C8.02695 -0.396856 10.3863 -0.348961 11.8571 1.20215H11.8578Z" fill="white"/>
</svg>
