<svg width="16" height="20" viewBox="0 0 16 20" fill="none" xmlns="http://www.w3.org/2000/svg">
<path d="M9.41177 11.5V6C9.41177 4.93913 9.01513 3.92172 8.30911 3.17157C7.60309 2.42143 6.64552 2 5.64706 2C4.6486 2 3.69103 2.42143 2.98501 3.17157C2.27899 3.92172 1.88235 4.93913 1.88235 6V11.5C1.88235 13.2239 2.52689 14.8772 3.67417 16.0962C4.82145 17.3152 6.3775 18 8 18C9.6225 18 11.1785 17.3152 12.3258 16.0962C13.4731 14.8772 14.1176 13.2239 14.1176 11.5V2H16V11.5C16 13.7543 15.1571 15.9163 13.6569 17.5104C12.1566 19.1045 10.1217 20 8 20C5.87827 20 3.84344 19.1045 2.34315 17.5104C0.842855 15.9163 0 13.7543 0 11.5V6C0 4.4087 0.594956 2.88258 1.65399 1.75736C2.71301 0.632141 4.14937 0 5.64706 0C7.14475 0 8.5811 0.632141 9.64013 1.75736C10.6992 2.88258 11.2941 4.4087 11.2941 6V11.5C11.2941 12.4283 10.9471 13.3185 10.3293 13.9749C9.71153 14.6313 8.87365 15 8 15C7.12635 15 6.28847 14.6313 5.67071 13.9749C5.05294 13.3185 4.70588 12.4283 4.70588 11.5V6H6.58824V11.5C6.58824 11.8978 6.73697 12.2794 7.00173 12.5607C7.26649 12.842 7.62558 13 8 13C8.37442 13 8.73351 12.842 8.99827 12.5607C9.26303 12.2794 9.41177 11.8978 9.41177 11.5Z" fill="#1F2937"/>
</svg>
