<svg width="20" height="19" viewBox="0 0 20 19" fill="none" xmlns="http://www.w3.org/2000/svg">
<path d="M16.8555 6.04482H17.7727C18.2308 6.04482 18.6702 6.22681 18.9941 6.55075C19.318 6.87469 19.5 7.31405 19.5 7.77218V11.2269C19.5 11.685 19.318 12.1244 18.9941 12.4483C18.6702 12.7723 18.2308 12.9542 17.7727 12.9542H16.8555C16.645 14.624 15.8324 16.1595 14.5701 17.2726C13.3079 18.3858 11.6829 19 10 19V17.2726C11.3743 17.2726 12.6923 16.7267 13.6641 15.7548C14.6359 14.783 15.1818 13.4649 15.1818 12.0906V6.9085C15.1818 5.53413 14.6359 4.21605 13.6641 3.24422C12.6923 2.27239 11.3743 1.72643 10 1.72643C8.6257 1.72643 7.30768 2.27239 6.3359 3.24422C5.36412 4.21605 4.81818 5.53413 4.81818 6.9085V12.9542H2.22727C1.76917 12.9542 1.32983 12.7723 1.00591 12.4483C0.68198 12.1244 0.5 11.685 0.5 11.2269V7.77218C0.5 7.31405 0.68198 6.87469 1.00591 6.55075C1.32983 6.22681 1.76917 6.04482 2.22727 6.04482H3.14445C3.35521 4.37524 4.16793 2.83994 5.43013 1.72701C6.69233 0.614078 8.31725 0 10 0C11.6827 0 13.3077 0.614078 14.5699 1.72701C15.8321 2.83994 16.6448 4.37524 16.8555 6.04482ZM2.22727 7.77218V11.2269H3.09091V7.77218H2.22727ZM16.9091 7.77218V11.2269H17.7727V7.77218H16.9091ZM6.33818 12.7686L7.25364 11.3038C8.07675 11.8194 9.02873 12.0921 10 12.0906C10.9713 12.0921 11.9233 11.8194 12.7464 11.3038L13.6618 12.7686C12.5644 13.4562 11.2951 13.8199 10 13.8179C8.70494 13.8199 7.43564 13.4562 6.33818 12.7686Z" fill="#D0D0D0"/>
<path d="M16.8555 6.04482H17.7727C18.2308 6.04482 18.6702 6.22681 18.9941 6.55075C19.318 6.87469 19.5 7.31405 19.5 7.77218V11.2269C19.5 11.685 19.318 12.1244 18.9941 12.4483C18.6702 12.7723 18.2308 12.9542 17.7727 12.9542H16.8555C16.645 14.624 15.8324 16.1595 14.5701 17.2726C13.3079 18.3858 11.6829 19 10 19V17.2726C11.3743 17.2726 12.6923 16.7267 13.6641 15.7548C14.6359 14.783 15.1818 13.4649 15.1818 12.0906V6.9085C15.1818 5.53413 14.6359 4.21605 13.6641 3.24422C12.6923 2.27239 11.3743 1.72643 10 1.72643C8.6257 1.72643 7.30768 2.27239 6.3359 3.24422C5.36412 4.21605 4.81818 5.53413 4.81818 6.9085V12.9542H2.22727C1.76917 12.9542 1.32983 12.7723 1.00591 12.4483C0.68198 12.1244 0.5 11.685 0.5 11.2269V7.77218C0.5 7.31405 0.68198 6.87469 1.00591 6.55075C1.32983 6.22681 1.76917 6.04482 2.22727 6.04482H3.14445C3.35521 4.37524 4.16793 2.83994 5.43013 1.72701C6.69233 0.614078 8.31725 0 10 0C11.6827 0 13.3077 0.614078 14.5699 1.72701C15.8321 2.83994 16.6448 4.37524 16.8555 6.04482ZM2.22727 7.77218V11.2269H3.09091V7.77218H2.22727ZM16.9091 7.77218V11.2269H17.7727V7.77218H16.9091ZM6.33818 12.7686L7.25364 11.3038C8.07675 11.8194 9.02873 12.0921 10 12.0906C10.9713 12.0921 11.9233 11.8194 12.7464 11.3038L13.6618 12.7686C12.5644 13.4562 11.2951 13.8199 10 13.8179C8.70494 13.8199 7.43564 13.4562 6.33818 12.7686Z" fill="#032963"/>
</svg>
