<svg width="18" height="18" viewBox="0 0 18 18" fill="none" xmlns="http://www.w3.org/2000/svg">
<path fill-rule="evenodd" clip-rule="evenodd" d="M4.60703 0.520744C3.35983 0.661885 2.29343 1.19122 1.42239 2.10152C0.727767 2.82746 0.303535 3.63961 0.0828784 4.666C-0.0277493 5.18064 -0.0276084 6.17315 0.0831954 6.68867C0.290821 7.65465 0.687756 8.44373 1.33793 9.18306L1.60983 9.49223L1.48268 9.64125C0.970225 10.2418 0.952685 11.1853 1.44123 11.8721C1.69936 12.2349 2.07548 12.4735 2.5554 12.5787C2.6345 12.5961 2.64422 12.617 2.65106 12.7851C2.68754 13.6809 3.36047 14.3977 4.28402 14.5246L4.44533 14.5468L4.48605 14.7663C4.60027 15.3824 5.10445 15.9423 5.71996 16.1366C5.9346 16.2044 6.31431 16.2289 6.63337 16.1954C6.70078 16.1884 6.72709 16.2195 6.7956 16.3873C7.11438 17.1682 7.9926 17.6371 8.81257 17.4642C9.27354 17.367 9.42597 17.2693 9.97312 16.7206C10.534 16.1581 10.6635 15.9511 10.7403 15.4938L10.7841 15.2331L10.9876 15.2075C11.2951 15.1688 11.6754 14.9689 11.9433 14.7055C12.2072 14.4459 12.4002 14.0796 12.4612 13.7226L12.4998 13.4966L12.7412 13.4551C13.1941 13.3772 13.6436 13.0855 13.9111 12.696C14.069 12.466 14.2134 12.0842 14.2134 11.8967C14.2134 11.7503 14.2513 11.7179 14.4221 11.7179C14.5488 11.7179 14.8913 11.5989 15.0735 11.4916C15.2939 11.3619 15.5317 11.1372 15.6702 10.928C15.8261 10.6924 15.9744 10.258 15.9744 10.0369C15.9744 9.87025 15.9755 9.8688 16.4422 9.38953C17.2778 8.53159 17.7139 7.71962 17.9342 6.61151C18.0219 6.17043 18.0219 5.18269 17.9342 4.74161C17.7166 3.64725 17.2657 2.79846 16.4874 2.01772C15.8562 1.38458 15.2664 1.01776 14.448 0.749431C13.3954 0.404299 12.2012 0.41783 11.1442 0.786915C10.4495 1.02945 9.81569 1.41288 9.30002 1.90251L9.00076 2.18666L8.70761 1.90834C7.80164 1.0481 6.61988 0.556074 5.33782 0.505305C5.09568 0.495731 4.76682 0.502656 4.60703 0.520744ZM13.5618 1.70689C15.0332 1.9868 16.3055 3.16256 16.7311 4.63565C16.9799 5.49705 16.9028 6.46105 16.5182 7.29595C16.3562 7.64779 15.9984 8.18233 15.7341 8.46757L15.5213 8.69721L13.3617 6.53541L11.202 4.37362L10.9035 4.65975C10.3225 5.21654 9.74873 5.34478 9.11776 5.05886C9.00875 5.00944 8.82462 4.86911 8.65989 4.70988L8.3844 4.44353L9.12403 3.69777C10.1967 2.61612 10.5645 2.31819 11.1977 2.01779C11.9638 1.65436 12.7454 1.55158 13.5618 1.70689ZM5.72524 1.7011C6.31005 1.79136 6.76129 1.9508 7.2398 2.23633C7.51734 2.40192 8.05963 2.84354 8.13451 2.96497C8.16705 3.01768 8.0685 3.13119 7.45869 3.74345L6.74477 4.46021L7.35328 5.06225C8.0492 5.75082 8.24866 5.91641 8.58931 6.0885C9.28555 6.4402 10.2036 6.43985 10.9077 6.08758L11.1426 5.97001L12.9405 7.77523C13.93 8.76869 14.755 9.62517 14.7753 9.6799C14.962 10.1839 14.5133 10.6879 13.9989 10.5521C13.8604 10.5155 13.6987 10.3661 12.5046 9.17137C11.7681 8.43451 11.1503 7.83165 11.1316 7.83165C11.0863 7.83165 10.3391 8.58003 10.3391 8.62535C10.3391 8.64479 10.9401 9.26506 11.6747 10.0038C12.8689 11.2047 13.0147 11.3635 13.0514 11.5036C13.1253 11.7849 13.0173 12.0623 12.7738 12.2172C12.6017 12.3267 12.3704 12.3519 12.1817 12.2815C12.1272 12.2612 11.4763 11.6372 10.7354 10.895L9.38818 9.54547L8.97452 9.96041L8.56085 10.3754L9.90624 11.7267C10.6462 12.47 11.2682 13.1228 11.2885 13.1775C11.4316 13.5637 11.1767 14.0059 10.7742 14.0697C10.573 14.1015 10.4175 14.0417 10.1561 13.8318C9.71732 13.4795 9.34007 13.3571 8.79824 13.3912C8.55374 13.4066 8.47245 13.401 8.47241 13.3686C8.47234 13.2651 8.25732 12.8856 8.099 12.7096C7.7878 12.3634 7.28062 12.1065 6.90859 12.1065H6.76094L6.72294 11.8839C6.62795 11.3276 6.24003 10.8326 5.69087 10.5668C5.59525 10.5205 5.45158 10.4722 5.37156 10.4593C5.29157 10.4465 5.22149 10.4184 5.21581 10.3968C5.21014 10.3753 5.18796 10.2226 5.16647 10.0574C5.01453 8.88852 3.71943 8.14406 2.67349 8.62437L2.48862 8.7093L2.24457 8.45161C0.938808 7.0727 0.779646 4.8914 1.87265 3.35497C2.75464 2.11516 4.24968 1.47333 5.72524 1.7011ZM3.60384 9.68813C3.7779 9.76105 3.88941 9.8687 3.96809 10.0397C4.11299 10.3547 4.03596 10.564 3.61937 10.9874C3.26558 11.3469 3.12023 11.4352 2.88203 11.4352C2.40423 11.4352 2.09665 10.9388 2.30586 10.5052C2.40511 10.2995 3.0003 9.71982 3.15936 9.67389C3.33493 9.62319 3.45838 9.62715 3.60384 9.68813ZM5.22511 11.6264C5.33468 11.6838 5.48652 11.8402 5.54685 11.9578C5.60764 12.0763 5.59997 12.3632 5.53213 12.5065C5.43922 12.7029 4.81148 13.294 4.64725 13.3398C4.45607 13.393 4.35622 13.3869 4.19171 13.3119C3.89469 13.1766 3.7492 12.8758 3.8258 12.5555C3.86148 12.4063 3.91516 12.3281 4.15406 12.0773C4.53183 11.6809 4.69585 11.5766 4.94141 11.5766C5.04514 11.5766 5.17278 11.599 5.22511 11.6264ZM7.05679 13.3348C7.27939 13.437 7.44094 13.7648 7.39368 14.0183C7.35884 14.2051 7.26646 14.3312 6.91394 14.6733C6.53863 15.0375 6.37704 15.1098 6.10225 15.0365C5.79002 14.9532 5.61958 14.73 5.61958 14.4046C5.61958 14.1643 5.68337 14.0505 6.00285 13.7205C6.45903 13.2494 6.68814 13.1656 7.05679 13.3348ZM9.34363 14.6726C9.41657 14.731 9.50395 14.8334 9.5378 14.9C9.60658 15.0353 9.6187 15.3016 9.56277 15.4491C9.50867 15.5918 8.9002 16.2031 8.7366 16.279C8.40479 16.4331 8.0292 16.2861 7.86982 15.9397C7.72831 15.6321 7.80016 15.4318 8.20157 15.0145C8.58195 14.619 8.72871 14.5352 9.00903 14.5533C9.16904 14.5636 9.23856 14.5884 9.34363 14.6726Z" fill="#038D69"/>
</svg>
