<svg width="13" height="13" viewBox="0 0 13 13" fill="none" xmlns="http://www.w3.org/2000/svg">
<path d="M9.25 2.6V3.1H9.75H12.5V3.4H11.7H11.2V3.9V12.35C11.2 12.3898 11.1842 12.4279 11.1561 12.4561C11.1279 12.4842 11.0898 12.5 11.05 12.5H1.95C1.91022 12.5 1.87206 12.4842 1.84393 12.4561C1.8158 12.4279 1.8 12.3898 1.8 12.35V3.9V3.4H1.3H0.5V3.1H3.25H3.75V2.6V0.65C3.75 0.610217 3.7658 0.572064 3.79393 0.543934C3.82206 0.515803 3.86022 0.5 3.9 0.5H9.1C9.13978 0.5 9.17794 0.515804 9.20607 0.543934C9.2342 0.572064 9.25 0.610216 9.25 0.65V2.6ZM10.9 3.9V3.4H10.4H2.6H2.1V3.9V11.7V12.2H2.6H10.4H10.9V11.7V3.9ZM4.55 0.8H4.05V1.3V2.6V3.1H4.55H8.45H8.95V2.6V1.3V0.8H8.45H4.55ZM5.05 6.35H5.35V9.25H5.05V6.35ZM7.65 6.35H7.95V9.25H7.65V6.35Z" fill="white" stroke="#140000"/>
</svg>
