<svg width="54" height="54" viewBox="0 0 54 54" fill="none" xmlns="http://www.w3.org/2000/svg">
<path d="M46.1833 17.332H48.7498C50.0317 17.332 51.2611 17.8413 52.1675 18.7477C53.0739 19.6541 53.5832 20.8835 53.5832 22.1654V31.832C53.5832 33.1139 53.0739 34.3433 52.1675 35.2497C51.2611 36.1561 50.0317 36.6654 48.7498 36.6654H46.1833C45.5942 41.3375 43.3202 45.6341 39.7882 48.7487C36.2562 51.8633 31.709 53.582 26.9998 53.582V48.7487C30.8455 48.7487 34.5336 47.221 37.2529 44.5018C39.9722 41.7825 41.4998 38.0943 41.4998 34.2487V19.7487C41.4998 15.9031 39.9722 12.2149 37.2529 9.49565C34.5336 6.77638 30.8455 5.2487 26.9998 5.2487C23.1542 5.2487 19.4661 6.77638 16.7468 9.49565C14.0275 12.2149 12.4998 15.9031 12.4998 19.7487V36.6654H5.24984C3.96796 36.6654 2.73858 36.1561 1.83215 35.2497C0.925729 34.3433 0.416504 33.1139 0.416504 31.832V22.1654C0.416504 20.8835 0.925729 19.6541 1.83215 18.7477C2.73858 17.8413 3.96796 17.332 5.24984 17.332H7.81634C8.40608 12.6604 10.6803 8.36444 14.2122 5.25033C17.7442 2.13623 22.2911 0.417969 26.9998 0.417969C31.7086 0.417969 36.2555 2.13623 39.7874 5.25033C43.3194 8.36444 45.5936 12.6604 46.1833 17.332ZM5.24984 22.1654V31.832H7.6665V22.1654H5.24984ZM46.3332 22.1654V31.832H48.7498V22.1654H46.3332ZM16.7532 36.1458L19.3148 32.0471C21.6181 33.49 24.282 34.2531 26.9998 34.2487C29.7177 34.2531 32.3816 33.49 34.6848 32.0471L37.2465 36.1458C34.1755 38.0698 30.6237 39.0876 26.9998 39.082C23.3759 39.0876 19.8241 38.0698 16.7532 36.1458Z" fill="#D0D0D0"/>
</svg>
