<svg width="19" height="23" viewBox="0 0 19 23" fill="none" xmlns="http://www.w3.org/2000/svg">
<path d="M9.5 20.0064L14.725 14.7666C15.7583 13.7303 16.4619 12.41 16.747 10.9727C17.032 9.53533 16.8856 8.0455 16.3264 6.69157C15.7671 5.33765 14.82 4.18044 13.605 3.36627C12.3899 2.5521 10.9614 2.11754 9.5 2.11754C8.03865 2.11754 6.61011 2.5521 5.39503 3.36627C4.17995 4.18044 3.2329 5.33765 2.67363 6.69157C2.11436 8.0455 1.96799 9.53533 2.25303 10.9727C2.53808 12.41 3.24172 13.7303 4.275 14.7666L9.5 20.0064ZM9.5 23L2.78245 16.2634C1.45386 14.931 0.549086 13.2335 0.182536 11.3855C-0.184014 9.53744 0.00412389 7.6219 0.723159 5.88109C1.4422 4.14028 2.65983 2.65239 4.2221 1.60557C5.78436 0.558741 7.62108 0 9.5 0C11.3789 0 13.2156 0.558741 14.7779 1.60557C16.3402 2.65239 17.5578 4.14028 18.2768 5.88109C18.9959 7.6219 19.184 9.53744 18.8175 11.3855C18.4509 13.2335 17.5461 14.931 16.2176 16.2634L9.5 23ZM9.5 11.6439C10.0599 11.6439 10.5969 11.4209 10.9928 11.0238C11.3887 10.6268 11.6111 10.0883 11.6111 9.52683C11.6111 8.96534 11.3887 8.42685 10.9928 8.02982C10.5969 7.63279 10.0599 7.40974 9.5 7.40974C8.9401 7.40974 8.40313 7.63279 8.00722 8.02982C7.61131 8.42685 7.38889 8.96534 7.38889 9.52683C7.38889 10.0883 7.61131 10.6268 8.00722 11.0238C8.40313 11.4209 8.9401 11.6439 9.5 11.6439ZM9.5 13.761C8.3802 13.761 7.30626 13.3149 6.51444 12.5208C5.72262 11.7268 5.27778 10.6498 5.27778 9.52683C5.27778 8.40385 5.72262 7.32687 6.51444 6.53281C7.30626 5.73875 8.3802 5.29265 9.5 5.29265C10.6198 5.29265 11.6937 5.73875 12.4856 6.53281C13.2774 7.32687 13.7222 8.40385 13.7222 9.52683C13.7222 10.6498 13.2774 11.7268 12.4856 12.5208C11.6937 13.3149 10.6198 13.761 9.5 13.761Z" fill="#038D69"/>
</svg>
