<svg width="18" height="16" viewBox="0 0 18 16" fill="none" xmlns="http://www.w3.org/2000/svg">
<path d="M6.366 6.82844C7.30434 8.29376 8.66952 9.50726 10.318 10.3413L11.202 9.24089C11.3442 9.06394 11.5543 8.93945 11.7928 8.89096C12.0313 8.84248 12.2814 8.87336 12.496 8.97778C13.9103 9.66482 15.4722 10.078 17.079 10.1902C17.3298 10.2079 17.5638 10.3089 17.7345 10.4732C17.9052 10.6374 18 10.8528 18 11.0764V15.0427C18.0001 15.2628 17.9083 15.475 17.7424 15.6384C17.5765 15.8018 17.3483 15.9047 17.102 15.9271C16.572 15.976 16.038 16 15.5 16C6.94 16 0 9.83111 0 2.22222C0 1.744 0.027 1.26933 0.082 0.798222C0.107255 0.579286 0.222984 0.376463 0.40679 0.229008C0.590595 0.0815531 0.829406 -4.74291e-05 1.077 2.0682e-08H5.539C5.79056 -2.80165e-05 6.0329 0.0842236 6.21768 0.235956C6.40247 0.387689 6.51613 0.595754 6.536 0.818667C6.66222 2.24693 7.12708 3.63527 7.9 4.89244C8.01746 5.08317 8.05221 5.30555 7.99767 5.51751C7.94312 5.72947 7.80306 5.9163 7.604 6.04267L6.366 6.82844ZM3.844 6.24444L5.744 5.03822C5.20478 4.00364 4.83535 2.90564 4.647 1.77778H2.01C2.004 1.92533 2.001 2.07378 2.001 2.22222C2 8.84978 8.044 14.2222 15.5 14.2222C15.667 14.2222 15.834 14.2196 16 14.2133V11.8693C14.7312 11.7019 13.4959 11.3735 12.332 10.8942L10.975 12.5831C10.4287 12.3944 9.89801 12.1716 9.387 11.9164L9.329 11.8871C7.36758 10.8949 5.74328 9.45104 4.627 7.70756L4.594 7.656C4.30691 7.20177 4.05628 6.73008 3.844 6.24444Z" fill="#038D69"/>
</svg>
