<svg width="18" height="18" viewBox="0 0 18 18" fill="none" xmlns="http://www.w3.org/2000/svg">
<path d="M8.19184 11.3094V11.2094V11.1537V11.1526C8.19801 10.5561 8.25965 10.0736 8.38061 9.70965C8.50078 9.34807 8.67319 9.05043 8.9003 8.82063C9.12106 8.59725 9.38479 8.3926 9.69063 8.20627C9.86373 8.09936 10.019 7.97335 10.1567 7.82818C10.292 7.68245 10.3987 7.51473 10.4769 7.32432L10.4774 7.32312C10.5572 7.13556 10.598 6.92607 10.598 6.69323C10.598 6.40566 10.5315 6.1615 10.4022 5.95675C10.271 5.74894 10.0962 5.58929 9.87633 5.47662C9.65593 5.36367 9.41003 5.30642 9.13673 5.30642C8.90019 5.30642 8.67239 5.35594 8.45246 5.4555C8.23761 5.55276 8.05697 5.70601 7.91035 5.91837C7.76734 6.1255 7.68059 6.40234 7.65692 6.75567L7.65067 6.84899H7.55714H6.4H6.29524L6.30011 6.74434C6.32528 6.20312 6.4641 5.73443 6.72037 5.34222L6.72068 5.34174C6.97847 4.9521 7.31808 4.65364 7.7381 4.44758L7.73836 4.44745C8.1604 4.24196 8.62711 4.14 9.13673 4.14C9.68907 4.14 10.1745 4.25122 10.5897 4.47743C11.006 4.70259 11.3289 5.01268 11.5559 5.4072C11.7861 5.80189 11.9 6.25008 11.9 6.74899C11.9 7.09972 11.8464 7.41996 11.7376 7.70842C11.6324 7.99544 11.4791 8.25235 11.2781 8.47849M8.19184 11.3094L11.2031 8.41235M8.19184 11.3094H8.29184H9.39388H9.49388V11.2094V11.1544M8.19184 11.3094L9.49388 11.1544M11.2781 8.47849C11.278 8.47859 11.2779 8.4787 11.2778 8.47881L11.2031 8.41235M11.2781 8.47849C11.2782 8.47839 11.2782 8.47831 11.2783 8.47822L11.2031 8.41235M11.2781 8.47849C11.0813 8.70325 10.8441 8.90138 10.5674 9.07323M11.2031 8.41235C11.0133 8.62918 10.7837 8.82122 10.5143 8.98849M10.5674 9.07323C10.5675 9.07315 10.5676 9.07308 10.5677 9.07301L10.5143 8.98849M10.5674 9.07323C10.3043 9.23962 10.0969 9.41303 9.94271 9.5926L9.94217 9.59322C9.79039 9.76709 9.67919 9.97519 9.60942 10.2194C9.5392 10.4651 9.49996 10.776 9.49388 11.1544M10.5674 9.07323C10.5673 9.0733 10.5672 9.07337 10.567 9.07345L10.5143 8.98849M10.5143 8.98849L9.49388 11.1544M6.4 6.74899C6.40156 6.71534 6.40358 6.68201 6.40604 6.64899H6.4V6.74899ZM6.4 6.74899L6.49989 6.75363C6.49996 6.75208 6.50004 6.75053 6.50011 6.74899H6.4ZM9.67744 13.5927C9.76328 13.4499 9.80612 13.2929 9.80612 13.1237C9.80612 12.8679 9.71448 12.646 9.53388 12.4633C9.35325 12.2805 9.13341 12.1873 8.87959 12.1873C8.62577 12.1873 8.40593 12.2805 8.2253 12.4633C8.0447 12.646 7.95306 12.8679 7.95306 13.1237C7.95306 13.3794 8.0447 13.6013 8.2253 13.784C8.40593 13.9668 8.62577 14.06 8.87959 14.06C9.04965 14.06 9.20558 14.0185 9.34475 13.934L9.34536 13.9336C9.48462 13.8477 9.59569 13.7337 9.67744 13.5927ZM9.67744 13.5927C9.67728 13.5929 9.67713 13.5932 9.67698 13.5934L9.59133 13.5418L9.67789 13.5919C9.67774 13.5922 9.67759 13.5924 9.67744 13.5927ZM5.42535 1.76123L5.4699 1.85009L5.42535 1.76123C2.21058 3.37301 0.407268 6.95609 1.01799 10.5165L1.09748 10.5029L1.01799 10.5165C1.29265 12.1174 2.04855 13.5832 3.22223 14.7936C3.95373 15.548 4.61459 16.0298 5.53184 16.4771C7.46439 17.4196 9.64455 17.5565 11.7199 16.8671C15.6165 15.5726 17.9668 11.4879 17.132 7.46189C16.8152 5.93371 16.068 4.52787 14.964 3.38109C13.2607 1.61186 10.8527 0.714666 8.39253 0.932019L8.40133 1.03163L8.39253 0.932019C7.42117 1.01786 6.26292 1.34133 5.42535 1.76123ZM9.67676 2.3754L9.68462 2.28667L9.67677 2.3754C10.5949 2.45666 11.2921 2.65386 12.1177 3.0658C12.8212 3.4168 13.28 3.74811 13.8456 4.3138C15.9055 6.37409 16.4314 9.37281 15.1936 11.9967C14.3028 13.885 12.5745 15.2544 10.523 15.6969C8.32681 16.1706 6.08156 15.5396 4.46199 13.994C2.24436 11.8777 1.7152 8.67089 3.13451 5.94725C3.45274 5.33658 3.8009 4.87099 4.35911 4.31187C5.11704 3.55274 5.92849 3.04632 6.9135 2.71694L6.88203 2.62281L6.9135 2.71694C7.86263 2.39953 8.73506 2.29201 9.67676 2.3754ZM8.29184 11.1537C8.29199 11.1388 8.29218 11.1241 8.2924 11.1094H8.29184V11.1537Z" fill="#007A58" stroke="#D3D7D6" stroke-width="0.2"/>
</svg>
