<svg width="18" height="16" viewBox="0 0 18 16" fill="none" xmlns="http://www.w3.org/2000/svg">
<path d="M15.3479 9.78278V12.0654H17.6305V13.5871H15.3479V15.8697H13.8261V13.5871H11.5435V12.0654H13.8261V9.78278H15.3479ZM15.354 0.652344C15.7709 0.652344 16.1087 0.990931 16.1087 1.40789V8.52126C15.62 8.34861 15.1054 8.26061 14.587 8.26104V2.17408H2.4131L2.41386 12.8263L9.48386 5.7555C9.61469 5.62423 9.78898 5.54529 9.97394 5.53352C10.1589 5.52175 10.3418 5.57796 10.4882 5.69158L10.559 5.75626L13.257 8.45734C12.6671 8.63711 12.1196 8.93449 11.6477 9.33155C11.1758 9.72861 10.7892 10.2171 10.5112 10.7676C10.2332 11.3182 10.0696 11.9193 10.0302 12.5348C9.99081 13.1502 10.0765 13.7673 10.282 14.3488L1.64614 14.348C1.44589 14.3478 1.25391 14.2681 1.11238 14.1264C0.970855 13.9848 0.891357 13.7927 0.891357 13.5925V1.40789C0.89275 1.20807 0.972695 1.01681 1.11392 0.875444C1.25515 0.734075 1.44632 0.653938 1.64614 0.652344H15.354ZM5.45657 3.69582C5.86017 3.69582 6.24723 3.85615 6.53261 4.14153C6.81799 4.42691 6.97831 4.81397 6.97831 5.21756C6.97831 5.62115 6.81799 6.00821 6.53261 6.29359C6.24723 6.57897 5.86017 6.7393 5.45657 6.7393C5.05298 6.7393 4.66592 6.57897 4.38054 6.29359C4.09516 6.00821 3.93484 5.62115 3.93484 5.21756C3.93484 4.81397 4.09516 4.42691 4.38054 4.14153C4.66592 3.85615 5.05298 3.69582 5.45657 3.69582Z" fill="white"/>
</svg>
