<svg width="65" height="68" viewBox="0 0 65 68" fill="none" xmlns="http://www.w3.org/2000/svg">
<path d="M36.1111 60.8421H57.7778V46.5263H43.3333V39.3684H57.7778V10.7368H50.5556V28.6316L36.1111 22.9053V60.8421ZM28.8889 60.8421V22.9053L14.4444 28.6316V10.7368H7.22222V60.8421H28.8889ZM14.4444 3.57895V0H50.5556V3.57895H61.3889C62.3466 3.57895 63.2651 3.95601 63.9423 4.6272C64.6195 5.29838 65 6.2087 65 7.15789V64.4211C65 65.3702 64.6195 66.2806 63.9423 66.9518C63.2651 67.6229 62.3466 68 61.3889 68H3.61111C2.65338 68 1.73488 67.6229 1.05767 66.9518C0.380455 66.2806 0 65.3702 0 64.4211V7.15789C0 6.2087 0.380455 5.29838 1.05767 4.6272C1.73488 3.95601 2.65338 3.57895 3.61111 3.57895H14.4444ZM32.5 17.8947L45.1389 7.15789H19.8611L32.5 17.8947Z" fill="#DADADA"/>
</svg>
