<svg width="85" height="85" viewBox="0 0 85 85" fill="none" xmlns="http://www.w3.org/2000/svg">
<circle cx="42.5" cy="42.5" r="42.5" fill="#EAFFF9"/>
<path d="M53.0187 39.092C53.0552 39.0719 53.1054 39.045 53.1681 39.0119C53.3113 38.9364 53.5185 38.8292 53.7744 38.6982C54.2863 38.4363 54.9923 38.0796 55.7691 37.6913C55.8744 37.6386 55.9762 37.5877 56.0747 37.5385C56.7462 37.203 57.2618 36.9454 57.6578 36.7381C58.1113 36.5006 58.4109 36.3276 58.609 36.1776C58.8084 36.0267 58.9092 35.896 58.9597 35.7422C59.0024 35.612 59.0078 35.4675 59.0143 35.2907C59.0153 35.2646 59.0163 35.2378 59.0174 35.2102C59.0206 35.1344 59.028 35.0709 59.0351 35.0106C59.0393 34.9743 59.0434 34.9391 59.0464 34.9031C59.0539 34.811 59.0523 34.7229 59.0155 34.6304C58.9788 34.5383 58.9094 34.4471 58.7911 34.3433C58.6729 34.2395 58.5034 34.1211 58.2629 33.9752C57.4547 33.4848 55.8206 32.6698 52.5579 31.0425C51.9436 30.7362 51.2716 30.401 50.5365 30.0338C50.3483 29.9398 50.1643 29.8479 49.9844 29.7581C46.0616 27.7985 44.0983 26.8177 43.0529 26.3486C42.5072 26.1037 42.2066 25.9958 42.006 25.9623C41.9041 25.9453 41.8269 25.9472 41.7561 25.9603C41.6989 25.9708 41.6462 25.9888 41.5915 26.0074C41.5803 26.0112 41.5689 26.0151 41.5574 26.0189V26.0189C41.5471 26.0224 41.5229 26.0334 41.4903 26.0486C41.4559 26.0647 41.4084 26.0875 41.3484 26.1164C41.2284 26.1744 41.0582 26.2576 40.8434 26.3632C40.4139 26.5745 39.8057 26.8757 39.0638 27.2446C37.5799 27.9822 35.5606 28.9905 33.3641 30.0914C29.5096 32.0233 27.5105 33.0269 26.4511 33.5822C25.9217 33.8597 25.6252 34.0262 25.4487 34.1411C25.2705 34.2572 25.2113 34.3229 25.1586 34.399L25.1586 34.399C25.0707 34.5259 25.0167 34.6182 24.9862 34.7314C24.9562 34.8432 24.95 34.972 24.95 35.1697C24.95 35.3674 24.9562 35.4962 24.9862 35.6079C25.0167 35.7211 25.0707 35.8135 25.1586 35.9403C25.2586 36.0848 25.3601 36.1834 25.7665 36.4126C26.1719 36.6413 26.8876 37.0037 28.2221 37.6741C29.0044 38.0671 29.7155 38.4281 30.231 38.6931C30.4888 38.8257 30.6975 38.9341 30.8417 39.0105C30.9053 39.0442 30.9562 39.0716 30.9931 39.092C30.9562 39.1124 30.9053 39.1398 30.8417 39.1735C30.6975 39.2499 30.4888 39.3584 30.231 39.4909C29.7155 39.7559 29.0044 40.1169 28.2221 40.5099C26.8876 41.1803 26.1719 41.5427 25.7665 41.7714C25.3601 42.0007 25.2586 42.0992 25.1586 42.2437C25.0707 42.3706 25.0167 42.4629 24.9862 42.5761C24.9562 42.6878 24.95 42.8166 24.95 43.0143C24.95 43.212 24.9562 43.3408 24.9862 43.4526C25.0167 43.5658 25.0707 43.6581 25.1586 43.785C25.2586 43.9295 25.3601 44.028 25.7665 44.2573C26.1719 44.4859 26.8876 44.8484 28.2221 45.5188C29.0044 45.9118 29.7155 46.2728 30.231 46.5378C30.4888 46.6703 30.6975 46.7787 30.8417 46.8552C30.9053 46.8889 30.9562 46.9163 30.9931 46.9367C30.9562 46.9571 30.9053 46.9844 30.8417 47.0182C30.6975 47.0946 30.4888 47.203 30.231 47.3355C29.7155 47.6005 29.0044 47.9615 28.2221 48.3545C26.8876 49.0249 26.1719 49.3874 25.7665 49.616C25.3601 49.8453 25.2586 49.9439 25.1586 50.0883C25.0707 50.2152 25.0167 50.3075 24.9862 50.4207C24.9562 50.5325 24.95 50.6613 24.95 50.859C24.95 51.0567 24.9562 51.1855 24.9862 51.2972C25.0167 51.4104 25.0707 51.5028 25.1586 51.6296L25.1997 51.6012L25.1586 51.6296C25.2114 51.7059 25.2707 51.7716 25.4505 51.8885C25.6286 52.0042 25.9282 52.1722 26.4639 52.4527C27.5359 53.0141 29.5599 54.0296 33.4639 55.9854C37.4887 58.0016 39.5115 59.0147 40.5796 59.5242C41.1132 59.7788 41.4106 59.9086 41.6011 59.975C41.7948 60.0424 41.8802 60.0449 41.9876 60.0459L42.4023 60.05L42.4144 60.0501L42.4251 60.0447L50.5082 56.0084C51.2065 55.6597 51.8475 55.34 52.4359 55.0466C55.7208 53.4084 57.3658 52.5881 58.1869 52.0976C58.6686 51.8099 58.8785 51.6295 58.9643 51.455C59.0081 51.3659 59.0182 51.2814 59.0193 51.1926C59.0197 51.1581 59.0187 51.1221 59.0177 51.085C59.0174 51.075 59.0172 51.065 59.0169 51.0549C59.0158 51.0067 59.0151 50.9557 59.0174 50.8995C59.0279 50.6466 59.0317 50.5013 59.006 50.3863C58.9796 50.2677 58.9227 50.1833 58.8259 50.0503L58.7854 50.0797L58.8258 50.0503C58.7254 49.9124 58.6086 49.809 58.1967 49.5789C57.7852 49.349 57.0724 48.9889 55.7738 48.3397C54.9958 47.9508 54.2885 47.5935 53.7758 47.3312C53.5195 47.2 53.3119 47.0926 53.1685 47.017C53.1056 46.9838 53.0553 46.9568 53.0187 46.9367C53.0552 46.9165 53.1054 46.8896 53.1681 46.8565C53.3113 46.781 53.5185 46.6738 53.7744 46.5429C54.2863 46.281 54.9923 45.9242 55.7691 45.5359C55.8745 45.4832 55.9765 45.4322 56.0751 45.383C56.7464 45.0476 57.2619 44.79 57.6578 44.5827C58.1113 44.3453 58.4109 44.1723 58.609 44.0223C58.8084 43.8714 58.9092 43.7406 58.9597 43.5868C59.0024 43.4566 59.0078 43.3122 59.0143 43.1353C59.0153 43.1092 59.0163 43.0824 59.0174 43.0549C59.0279 42.8019 59.0317 42.6567 59.006 42.5416C58.9796 42.423 58.9227 42.3386 58.8259 42.2056L58.7854 42.2351L58.8258 42.2056C58.7254 42.0677 58.6086 41.9643 58.1967 41.7342C57.7852 41.5043 57.0724 41.1443 55.7738 40.4951C54.9958 40.1061 54.2885 39.7488 53.7758 39.4865C53.5195 39.3553 53.3119 39.248 53.1685 39.1723C53.1056 39.1391 53.0553 39.1122 53.0187 39.092ZM29.4601 35.1693C29.4781 35.1596 29.4993 35.1483 29.5237 35.1355C29.6152 35.0872 29.7496 35.0177 29.9209 34.9299C30.2635 34.7543 30.7531 34.5059 31.3411 34.2091C32.517 33.6156 34.086 32.8285 35.6582 32.0427C37.2305 31.2569 38.8059 30.4725 39.9946 29.8842C40.589 29.5901 41.0867 29.345 41.4389 29.1734C41.6151 29.0875 41.7547 29.0201 41.8518 28.9741C41.9004 28.9511 41.9381 28.9336 41.9644 28.9218C41.9749 28.9171 41.9832 28.9134 41.9896 28.9107C41.995 28.9129 42.0019 28.9159 42.0103 28.9195C42.034 28.9299 42.0684 28.9456 42.1131 28.9665C42.2023 29.0081 42.3314 29.0697 42.496 29.1492C42.8252 29.3082 43.2959 29.5384 43.8734 29.8227C45.0285 30.3913 46.6102 31.1761 48.3399 32.0399C50.0696 32.9036 51.642 33.6926 52.782 34.268C53.352 34.5557 53.8138 34.7899 54.1331 34.9534C54.2927 35.0351 54.4166 35.0991 54.5005 35.1432C54.5194 35.1531 54.5362 35.162 54.5508 35.1698C54.536 35.1777 54.519 35.1867 54.4999 35.1967C54.4155 35.241 54.291 35.3053 54.1304 35.3875C53.8095 35.5518 53.3452 35.7872 52.7722 36.0764C51.6262 36.6547 50.0455 37.4478 48.3067 38.316L42.0059 41.4621L35.7051 38.316C33.9663 37.4478 32.3856 36.6547 31.2396 36.0764C30.6666 35.7872 30.2023 35.5518 29.8813 35.3875C29.7208 35.3053 29.5963 35.241 29.5119 35.1967C29.4924 35.1865 29.4752 35.1774 29.4601 35.1693ZM37.8737 42.5064C39.6739 43.4075 40.5965 43.8683 41.1194 44.1042C41.3807 44.2221 41.5447 44.2849 41.6698 44.3183C41.7966 44.3522 41.8824 44.3555 41.9851 44.3565C42.0884 44.3576 42.1722 44.3577 42.2966 44.3267C42.4192 44.2961 42.5801 44.2357 42.8413 44.1187C43.3638 43.8846 44.2986 43.4188 46.1515 42.4949L49.8605 40.6455L52.234 41.8293C52.8928 42.1579 53.4915 42.4604 53.9256 42.6831C54.1426 42.7945 54.3183 42.8858 54.4396 42.9504C54.4861 42.9752 54.5244 42.9959 54.554 43.0123C54.5384 43.0206 54.5203 43.0302 54.4998 43.0409C54.4155 43.0853 54.2909 43.1496 54.1304 43.2318C53.8095 43.3962 53.3452 43.6317 52.7722 43.9209C51.6262 44.4993 50.0455 45.2924 48.3067 46.1606L42.0059 49.3068L35.7051 46.1606C33.9663 45.2924 32.3856 44.4993 31.2396 43.921C30.6666 43.6318 30.2023 43.3963 29.8814 43.232C29.7208 43.1498 29.5963 43.0855 29.5119 43.0412C29.4909 43.0301 29.4724 43.0204 29.4566 43.0119C29.4888 42.9937 29.5317 42.9704 29.5842 42.9423C29.7118 42.8741 29.8944 42.779 30.1142 42.6661C30.5536 42.4404 31.1408 42.1437 31.7312 41.8483C32.3217 41.5529 32.9152 41.2589 33.3676 41.0384C33.5938 40.9282 33.7846 40.8364 33.9219 40.7721C33.9906 40.74 34.0456 40.7148 34.0848 40.6977C34.1045 40.6891 34.1198 40.6827 34.1307 40.6786C34.1324 40.6779 34.134 40.6773 34.1354 40.6768C34.1379 40.6778 34.1409 40.6789 34.1445 40.6803C34.159 40.6862 34.1798 40.6951 34.2069 40.7072C34.2611 40.7314 34.3384 40.7673 34.4367 40.8138C34.6331 40.9066 34.9119 41.0413 35.2527 41.2077C35.9341 41.5406 36.8626 42.0003 37.8737 42.5064ZM37.8737 50.351C39.6739 51.2521 40.5965 51.7129 41.1194 51.9488C41.3807 52.0667 41.5447 52.1296 41.6698 52.163C41.7966 52.1969 41.8824 52.2001 41.9851 52.2012C42.0884 52.2022 42.1722 52.2024 42.2966 52.1713C42.4192 52.1408 42.5801 52.0803 42.8413 51.9633C43.3638 51.7292 44.2986 51.2634 46.1515 50.3395L49.8605 48.4901L52.234 49.674C52.8928 50.0026 53.4915 50.3051 53.9256 50.5278C54.1426 50.6392 54.3183 50.7305 54.4396 50.7951C54.4861 50.8198 54.5244 50.8406 54.554 50.8569C54.5384 50.8653 54.5203 50.8748 54.4998 50.8856C54.4155 50.9299 54.2909 50.9943 54.1304 51.0765C53.8095 51.2408 53.3452 51.4763 52.7722 51.7655C51.6262 52.344 50.0455 53.1371 48.3067 54.0053L42.0059 57.1514L35.7051 54.0053C33.9663 53.1371 32.3856 52.344 31.2396 51.7656C30.6666 51.4764 30.2023 51.241 29.8814 51.0767C29.7208 50.9945 29.5963 50.9302 29.5119 50.8859C29.4909 50.8748 29.4724 50.865 29.4566 50.8566C29.4888 50.8384 29.5317 50.815 29.5842 50.7869C29.7118 50.7187 29.8944 50.6237 30.1142 50.5108C30.5536 50.285 31.1408 49.9883 31.7312 49.6929C32.3217 49.3975 32.9152 49.1035 33.3676 48.8831C33.5938 48.7728 33.7846 48.6811 33.9219 48.6168C33.9906 48.5846 34.0456 48.5595 34.0848 48.5423C34.1045 48.5338 34.1198 48.5274 34.1307 48.5232C34.1324 48.5226 34.134 48.522 34.1354 48.5214C34.1379 48.5224 34.1409 48.5236 34.1445 48.525C34.159 48.5308 34.1798 48.5398 34.2069 48.5519C34.2611 48.5761 34.3384 48.6119 34.4367 48.6584C34.6331 48.7513 34.9119 48.886 35.2527 49.0524C35.9341 49.3853 36.8626 49.8449 37.8737 50.351Z" fill="#059E77" stroke="#C5D7D2" stroke-width="0.1"/>
</svg>
