<svg width="48" height="48" viewBox="0 0 48 48" fill="none" xmlns="http://www.w3.org/2000/svg">
<rect width="48" height="48" rx="10" fill="#07C025"/>
<path d="M32.5498 25.3158V28.9474H35.9996V31.3684H32.5487L32.5498 35H30.25L30.2488 31.3684H26.8002V28.9474H30.25V25.3158H32.5498ZM33.9792 14.1269C36.5803 16.8723 36.67 21.2448 34.2505 24.0956L32.6177 22.379C34.1482 20.5342 34.0677 17.641 32.3509 15.8373C30.6225 14.0228 27.8432 13.9453 26.0378 15.6521L24.5027 17.1023L22.9664 15.6533C21.1552 13.9441 18.377 14.0191 16.6487 15.8398C14.9353 17.6435 14.8491 20.5306 16.4279 22.4384L26.1241 32.6625L24.5004 34.3766L14.749 24.0968C12.3296 21.2448 12.4204 16.8651 15.0204 14.1269C17.625 11.3862 21.7912 11.2942 24.5004 13.8509C27.2015 11.2979 31.3757 11.3826 33.978 14.1269H33.9792Z" fill="white"/>
</svg>
