<svg width="23" height="23" viewBox="0 0 23 23" fill="none" xmlns="http://www.w3.org/2000/svg">
<path d="M19.5498 13.3158V16.9474H22.9996V19.3684H19.5487L19.5498 23H17.25L17.2488 19.3684H13.8002V16.9474H17.25V13.3158H19.5498ZM20.9792 2.12687C23.5803 4.87235 23.67 9.24477 21.2505 12.0956L19.6177 10.379C21.1482 8.53419 21.0677 5.64103 19.3509 3.83735C17.6225 2.02277 14.8432 1.94529 13.0378 3.65214L11.5027 5.10235L9.96637 3.65335C8.15525 1.94408 5.37704 2.01914 3.64871 3.83977C1.93532 5.64346 1.84908 8.53056 3.42792 10.4384L13.1241 20.6625L11.5004 22.3766L1.74904 12.0968C-0.670397 9.24477 -0.579553 4.86509 2.02042 2.12687C4.62499 -0.613762 8.79115 -0.705762 11.5004 1.85087C14.2015 -0.70213 18.3757 -0.617393 20.978 2.12687H20.9792Z" fill="white"/>
</svg>
