<svg width="125" height="137" viewBox="0 0 125 137" fill="none" xmlns="http://www.w3.org/2000/svg">
<circle cx="62.4924" cy="48.633" r="48.133" fill="white" stroke="white"/>
<path d="M51.4108 39.9049C51.4108 39.4998 51.7968 39.1349 52.1966 38.968C52.5691 38.8124 52.7895 38.7759 53.2077 38.7375C53.6598 38.6959 53.9963 38.7271 54.3486 38.7704C54.9232 38.841 55.7822 39.1291 55.7866 39.1306C55.7867 39.1306 55.7866 39.1307 55.7865 39.1308C55.7865 39.1309 55.7865 39.131 55.7866 39.1311C56.8652 39.4065 57.4307 40.734 56.7932 41.8266C56.7516 41.898 56.8422 41.931 57.3815 42.0407C57.9274 42.1518 58.0591 42.2003 58.2973 42.3777C59.0034 42.9037 59.2404 43.8882 58.836 44.6154C58.6718 44.9106 58.6719 44.9239 58.8362 44.9508C59.4104 45.0449 60.0411 45.7638 60.105 46.3972C60.1408 46.751 60.0367 47.2934 59.887 47.5335L59.877 47.5497L59.8597 47.578C59.8472 47.5986 59.8353 47.6188 59.8242 47.6379C59.7836 47.7082 59.7546 47.7647 59.7521 47.7799C59.7484 47.8023 59.8477 47.8874 59.9728 47.9689C60.271 48.1635 60.5742 48.5928 60.675 48.963C60.7892 49.3826 60.6837 49.9917 60.4299 50.3789C60.239 50.6699 59.7749 51.0257 59.4825 51.1053C59.3358 51.1452 59.3182 51.1798 59.2582 51.5468C59.2502 51.5959 59.2423 51.64 59.2342 51.6801C59.2315 51.6936 59.2287 51.7067 59.226 51.7193L58.8467 53.9643C58.8434 54.0552 58.8305 54.1627 58.8096 54.2907C58.7122 54.8868 58.8019 55.1901 59.1478 55.4336C59.4452 55.6431 59.7503 55.6435 60.0678 55.4349C60.3669 55.2384 60.4547 55.015 60.6159 54.0393C60.7327 53.3329 60.7601 53.2424 60.884 53.1532C61.07 53.0194 61.3908 53.0752 61.5117 53.2624C61.5968 53.3941 61.5845 53.5411 61.3607 55.0823C61.0901 56.9446 61.0918 56.9802 61.4629 57.2373C61.8068 57.4755 62.1809 57.4544 62.5414 57.1763C62.7144 57.0429 62.7175 57.0319 62.9676 55.6867C63.2082 54.3931 63.2264 54.3268 63.3702 54.2235C63.4668 54.154 63.589 54.1284 63.711 54.1519C64.085 54.2242 64.0855 54.2328 63.8137 56.1008L63.8036 56.1703C63.8036 56.1704 63.8036 56.1706 63.8036 56.1708C63.8036 56.1709 63.8036 56.1711 63.8036 56.1712C63.6112 57.4929 63.5627 57.8268 63.6935 58.0596C63.7121 58.0926 63.7343 58.1236 63.7602 58.1552C63.7621 58.1575 63.764 58.1598 63.7659 58.162L63.7684 58.1651L63.7704 58.1673C63.7755 58.1734 63.7808 58.1795 63.7862 58.1856C63.793 58.1933 63.8 58.2011 63.8072 58.2089L63.8101 58.2121L63.8132 58.2154C63.8147 58.2171 63.8162 58.2187 63.8177 58.2203L63.8209 58.2237L63.8228 58.2259C63.8433 58.2477 63.8654 58.2707 63.8891 58.2953L63.9026 58.3092C64.1031 58.5174 64.5334 58.5829 64.8085 58.4474C65.1879 58.2604 65.254 58.0974 65.4594 56.841C65.5609 56.2198 65.6687 55.6692 65.699 55.6173C65.7818 55.4754 66.1138 55.4136 66.2787 55.5093C66.5529 55.6685 66.5532 55.7153 66.2924 57.3231C66.0187 59.0111 66.0225 59.1313 66.3606 59.4256C66.7226 59.7407 67.1988 59.7104 67.5739 59.3484C67.7206 59.2067 67.7339 59.1394 68.4034 55.1461L69.0506 51.2847C69.0714 51.1602 69.1479 51.0521 69.2583 50.9912C69.6089 50.7974 69.6541 50.8393 70.8042 52.4246C71.842 53.8552 71.8885 53.909 72.1596 53.9961C73.0504 54.2823 73.8684 53.4959 73.5863 52.6246C73.5437 52.4932 72.9306 51.59 72.2238 50.6177C71.1895 49.1947 70.8708 48.7985 70.5904 48.5877C70.3989 48.4437 68.9352 47.5874 67.3377 46.6851C65.782 45.8063 64.7071 44.8263 64.6099 44.7378L64.6042 44.7326C64.588 44.7179 64.3253 44.3343 63.8794 43.683L63.879 43.6823L63.8788 43.6821C63.0808 42.5165 61.6965 40.4946 60.0877 38.1966C59.1691 36.84 58.3787 35.7068 57.7744 34.8405L57.7656 34.828C57.272 34.1202 56.8486 33.501 56.5511 33.0531L51.0081 25.0298C51.008 25.0296 51.0077 25.0297 51.0077 25.03C51.0077 25.0302 51.0074 25.0303 51.0073 25.0301L50.4333 24.1981C50.198 23.857 49.8104 23.6534 49.3963 23.6534H43.9912C42.8713 23.6534 41.9634 24.5622 41.9634 25.6833V71.6067C41.9634 72.7278 42.8713 73.6366 43.9912 73.6366H49.383C50.5029 73.6366 51.4108 72.7278 51.4108 71.6067V39.9049Z" fill="#0BBF90"/>
<path d="M82.9951 71.6067C82.9951 72.7278 82.0873 73.6366 80.9673 73.6366H76.0126C75.347 73.6366 74.7237 73.3095 74.345 72.7615L68.0336 63.6282C68.032 63.6258 68.0315 63.6229 68.0324 63.6201C68.0332 63.6174 68.0328 63.6144 68.0312 63.612L67.516 62.8663C67.0364 62.1721 67.0819 61.242 67.6269 60.598L68.246 59.8664C68.4755 59.5952 68.6298 59.2685 68.6936 58.9188L69.5678 54.1244C69.6844 53.485 70.5148 53.3054 70.8847 53.8395L71.0873 54.1321C71.0882 54.1334 71.0885 54.1352 71.088 54.1367C71.0875 54.1383 71.0877 54.14 71.0886 54.1413L73.4742 57.5996C73.5279 57.6775 73.6165 57.724 73.711 57.724C73.87 57.724 73.9989 57.595 73.9989 57.4359V25.6833C73.9989 24.5622 74.9067 23.6534 76.0266 23.6534H80.9673C82.0873 23.6534 82.9951 24.5622 82.9951 25.6833V71.6067Z" fill="#0BBF90"/>
<path d="M73.5707 50.9552C73.5708 50.9554 73.5709 50.9556 73.571 50.9558C73.5711 50.956 73.5711 50.9562 73.5711 50.9564C73.5714 50.959 73.5681 50.9603 73.5666 50.9582C73.4891 50.8485 73.4051 50.7298 73.3136 50.601C73.3134 50.6008 73.3134 50.6005 73.3134 50.6002C73.3134 50.6 73.3135 50.5999 73.3135 50.5998C73.3136 50.5997 73.3136 50.5997 73.3137 50.5996C73.3138 50.5995 73.3139 50.5994 73.314 50.5993C73.3143 50.5992 73.3146 50.5992 73.3148 50.5993C73.3151 50.5993 73.3153 50.5995 73.3155 50.5997L73.5707 50.9552Z" fill="#0BBF90"/>
<path d="M55.4765 39.9709C55.4765 39.9711 55.4764 39.9713 55.4762 39.9712C55.4621 39.9672 54.7702 39.7708 54.3109 39.715C54.0209 39.6798 53.6263 39.6666 53.3708 39.6616C53.2082 39.6584 53.041 39.6685 52.8975 39.7452C52.3658 40.0295 52.2416 40.7638 52.7954 41.1711C52.9545 41.2882 53.1559 41.3368 54.1685 41.5027C55.181 41.6686 55.3874 41.6867 55.5755 41.6265C56.0274 41.482 56.2735 41.0278 56.1438 40.5776C56.0611 40.2906 55.8418 40.0876 55.4933 39.9755L55.4775 39.9702C55.4775 39.9702 55.4774 39.9702 55.4773 39.9701L55.4773 39.9701L55.4772 39.9702L55.4771 39.9702L55.477 39.9702L55.477 39.9702C55.4769 39.9703 55.4768 39.9703 55.4767 39.9704C55.4767 39.9705 55.4766 39.9705 55.4766 39.9706L55.4766 39.9708L55.4765 39.9709Z" fill="#0BBF90"/>
<path d="M63.1576 37.4942C63.2881 37.6047 63.7635 38.1904 64.4669 39.1862C65.3233 40.3985 65.5862 40.8178 65.6939 41.1421C65.8169 41.513 66.4286 44.5694 66.3861 44.6011C66.3765 44.6081 66.0975 44.4664 65.7663 44.2861L65.5979 44.1944C65.3128 44.0391 65.0691 43.8176 64.8873 43.5485L63.2931 41.1892C62.9576 40.6927 62.6419 40.2536 62.3688 39.8737L62.3686 39.8733L62.3685 39.8732C61.8043 39.0882 61.4218 38.5562 61.4218 38.2936C61.4218 37.6306 62.5037 36.9404 63.1576 37.4942Z" fill="#0BBF90"/>
<path d="M58.1179 43.8657C58.1367 43.5489 58.0209 43.2996 57.769 43.1143C57.6056 42.9941 57.3961 42.9468 56.0693 42.7318C54.3781 42.4576 54.2507 42.4628 53.9589 42.8159C53.6612 43.1762 53.6988 43.6406 54.0558 44.0115C54.1908 44.1518 54.2909 44.1768 55.7203 44.4272C57.2046 44.6872 57.2479 44.6915 57.5259 44.6011C57.8918 44.482 58.0964 44.2279 58.1179 43.8657Z" fill="#0BBF90"/>
<path d="M58.9282 46.0002C59.3868 46.3945 59.2546 47.203 58.6945 47.4304C58.5012 47.5089 58.3683 47.4961 56.9134 47.2577C55.4593 47.0195 55.3282 46.9891 55.1704 46.8534C54.9248 46.6421 54.8369 46.4006 54.8893 46.0809C54.9414 45.7628 55.1193 45.5384 55.4142 45.4186C55.5945 45.3455 55.758 45.3617 57.1851 45.5955C58.64 45.8339 58.7701 45.8641 58.9282 46.0002Z" fill="#0BBF90"/>
<path d="M59.7962 49.5599C59.8471 49.2484 59.7662 49.0218 59.5084 48.7543C59.3789 48.6197 59.2729 48.589 58.4361 48.4429C57.3937 48.2609 57.2786 48.2561 57.0184 48.384C56.4637 48.6568 56.3853 49.4942 56.8824 49.8385C57.1628 50.0327 58.9169 50.3134 59.228 50.2138C59.5595 50.1078 59.7407 49.8992 59.7962 49.5599Z" fill="#0BBF90"/>
<path fill-rule="evenodd" clip-rule="evenodd" d="M64.9543 132.106C65.712 130.664 66.0908 128.931 66.0908 126.909C66.0908 124.886 65.712 123.157 64.9543 121.721C64.2026 120.279 63.1761 119.176 61.8745 118.412C60.579 117.648 59.1094 117.266 57.4657 117.266C55.8219 117.266 54.3492 117.648 53.0477 118.412C51.7522 119.176 50.7256 120.279 49.9679 121.721C49.2163 123.157 48.8405 124.886 48.8405 126.909C48.8405 128.925 49.2163 130.654 49.9679 132.097C50.7256 133.533 51.7522 134.635 53.0477 135.405C54.3492 136.169 55.8219 136.551 57.4657 136.551C59.1094 136.551 60.579 136.169 61.8745 135.405C63.1761 134.642 64.2026 133.542 64.9543 132.106ZM62.0028 123.306C62.4489 124.284 62.6719 125.485 62.6719 126.909C62.6719 128.332 62.4489 129.536 62.0028 130.52C61.5628 131.498 60.9518 132.24 60.1696 132.747C59.3875 133.248 58.4861 133.499 57.4657 133.499C56.4452 133.499 55.5439 133.248 54.7617 132.747C53.9795 132.24 53.3654 131.498 52.9193 130.52C52.4794 129.536 52.2594 128.332 52.2594 126.909C52.2594 125.485 52.4794 124.284 52.9193 123.306C53.3654 122.323 53.9795 121.58 54.7617 121.079C55.5439 120.572 56.4452 120.318 57.4657 120.318C58.4861 120.318 59.3875 120.572 60.1696 121.079C60.9518 121.58 61.5628 122.323 62.0028 123.306Z" fill="white"/>
<path fill-rule="evenodd" clip-rule="evenodd" d="M17.5572 136.295C17.034 136.295 16.6679 135.778 16.8416 135.284L22.9162 118.029C23.0231 117.726 23.3099 117.523 23.6317 117.523H26.7557C27.0774 117.523 27.3641 117.726 27.4711 118.029L33.5541 135.284C33.728 135.777 33.3619 136.295 32.8387 136.295H30.826C30.5002 136.295 30.2108 136.086 30.107 135.778L28.8991 132.183C28.7953 131.874 28.5059 131.666 28.1801 131.666H22.2137C21.8877 131.666 21.5982 131.874 21.4945 132.183L20.2891 135.777C20.1855 136.086 19.8959 136.295 19.57 136.295H17.5572ZM27.6733 128.534C27.7393 128.731 27.593 128.934 27.3856 128.934H23.0059C22.7986 128.934 22.6523 128.731 22.7182 128.534L25.0969 121.442C25.1109 121.4 25.1498 121.372 25.1936 121.372C25.2374 121.372 25.2763 121.4 25.2903 121.442L27.6733 128.534Z" fill="white"/>
<path d="M46.4909 118.281C46.4909 117.862 46.1512 117.523 45.7323 117.523H43.8763C43.4574 117.523 43.1178 117.862 43.1178 118.281V130.722C43.1117 131.382 43.0078 131.938 42.8061 132.39C42.6106 132.842 42.3234 133.184 41.9445 133.416C41.5657 133.643 41.1043 133.756 40.5605 133.756C40.0594 133.756 39.6164 133.658 39.2314 133.462C38.8464 133.267 38.544 132.986 38.324 132.619C38.2225 132.445 38.1444 132.255 38.0897 132.05C37.9829 131.648 37.6599 131.308 37.2445 131.308H35.3703C34.9514 131.308 34.606 131.649 34.6514 132.065C34.7415 132.892 34.9849 133.605 35.3817 134.205C35.895 134.981 36.5886 135.567 37.4624 135.965C38.3423 136.356 39.3322 136.551 40.4322 136.551C41.6359 136.551 42.69 136.319 43.5944 135.855C44.5049 135.384 45.2137 134.715 45.7209 133.847C46.2281 132.973 46.4847 131.932 46.4909 130.722V118.281Z" fill="white"/>
<path d="M66.6901 118.281C66.6901 117.862 67.0297 117.523 67.4487 117.523H80.9087C81.3277 117.523 81.6673 117.862 81.6673 118.281V119.615C81.6673 120.034 81.3277 120.373 80.9087 120.373H76.1687C76.0011 120.373 75.8652 120.509 75.8652 120.677V135.536C75.8652 135.955 75.5256 136.295 75.1067 136.295H73.2507C72.8318 136.295 72.4922 135.955 72.4922 135.536V120.677C72.4922 120.509 72.3563 120.373 72.1888 120.373H67.4487C67.0297 120.373 66.6901 120.034 66.6901 119.615V118.281Z" fill="white"/>
<path d="M3.53409 123.643C3.53409 123.491 3.67847 123.355 3.82806 123.292C3.9674 123.234 4.04983 123.221 4.20629 123.206C4.3754 123.191 4.5013 123.202 4.63309 123.219C4.84802 123.245 5.16936 123.353 5.17099 123.353C5.17103 123.353 5.17098 123.353 5.17096 123.353C5.17095 123.353 5.17097 123.353 5.17101 123.353C5.57448 123.456 5.78602 123.952 5.54755 124.361C5.53197 124.387 5.56587 124.4 5.76763 124.441C5.97184 124.482 6.02109 124.5 6.1102 124.567C6.37434 124.763 6.463 125.131 6.31173 125.403C6.2503 125.513 6.25032 125.518 6.31179 125.528C6.52657 125.563 6.76251 125.832 6.78643 126.069C6.79982 126.201 6.76087 126.404 6.70487 126.493L6.70113 126.499L6.69466 126.51C6.68999 126.518 6.68553 126.525 6.6814 126.532C6.66621 126.559 6.65536 126.58 6.65442 126.585C6.65304 126.594 6.69018 126.625 6.73697 126.656C6.84853 126.729 6.96196 126.889 6.99966 127.027C7.04238 127.184 7.00292 127.412 6.90795 127.557C6.83657 127.665 6.66295 127.798 6.55357 127.828C6.49867 127.843 6.4921 127.856 6.46964 127.993C6.46666 128.011 6.4637 128.028 6.46067 128.043C6.45965 128.048 6.45863 128.053 6.4576 128.057L6.31573 128.896C6.31447 128.93 6.30967 128.97 6.30184 129.018C6.26539 129.241 6.29896 129.354 6.42837 129.445C6.53962 129.524 6.65376 129.524 6.77252 129.446C6.88439 129.372 6.91723 129.289 6.97755 128.924C7.02124 128.66 7.03148 128.627 7.07785 128.593C7.14743 128.543 7.26743 128.564 7.31264 128.634C7.34448 128.683 7.3399 128.738 7.25614 129.314C7.15492 130.01 7.15556 130.023 7.29438 130.119C7.42304 130.208 7.56298 130.201 7.69782 130.097C7.76254 130.047 7.76371 130.043 7.85728 129.54C7.94726 129.057 7.95409 129.032 8.00788 128.993C8.04401 128.967 8.08971 128.958 8.13535 128.966C8.27527 128.993 8.27544 128.997 8.17378 129.695L8.17001 129.721C8.17 129.721 8.17 129.721 8.17 129.721C8.17 129.721 8.17 129.721 8.16999 129.721C8.09804 130.215 8.07987 130.34 8.12881 130.427C8.13576 130.439 8.14406 130.451 8.15378 130.462C8.15448 130.463 8.15518 130.464 8.1559 130.465L8.15685 130.466L8.15757 130.467C8.1595 130.469 8.16148 130.471 8.16351 130.474C8.16604 130.477 8.16865 130.48 8.17134 130.482L8.17242 130.484L8.17358 130.485C8.17414 130.486 8.1747 130.486 8.17527 130.487L8.17646 130.488L8.1772 130.489C8.18486 130.497 8.19312 130.506 8.20199 130.515L8.20703 130.52C8.28204 130.598 8.44299 130.622 8.54592 130.572C8.68786 130.502 8.71256 130.441 8.78939 129.971C8.82739 129.739 8.86771 129.533 8.87904 129.514C8.91 129.461 9.03422 129.438 9.09588 129.474C9.19845 129.533 9.19856 129.551 9.10103 130.151C8.99861 130.782 9.00006 130.827 9.12651 130.937C9.26193 131.055 9.44008 131.044 9.58041 130.908C9.63528 130.855 9.64026 130.83 9.89069 129.338L10.1328 127.895C10.1406 127.848 10.1692 127.808 10.2105 127.785C10.3417 127.713 10.3586 127.729 10.7888 128.321C11.177 128.856 11.1944 128.876 11.2958 128.908C11.629 129.015 11.935 128.721 11.8295 128.396C11.8136 128.347 11.5842 128.009 11.3198 127.646C10.9329 127.114 10.8137 126.966 10.7088 126.887C10.6372 126.833 10.0896 126.513 9.49205 126.176C8.91008 125.848 8.50797 125.482 8.47164 125.449L8.46951 125.447C8.46343 125.441 8.36516 125.298 8.19835 125.054L8.19819 125.054L8.19813 125.054C7.89961 124.618 7.38177 123.863 6.77995 123.004C6.43631 122.497 6.14064 122.074 5.91459 121.75L5.91132 121.745C5.72667 121.481 5.56828 121.25 5.45699 121.082L3.38346 118.084C3.38341 118.084 3.3833 118.084 3.3833 118.084C3.3833 118.084 3.38319 118.084 3.38314 118.084L3.16845 117.773C3.08043 117.646 2.93541 117.57 2.7805 117.57H0.758556C0.339618 117.57 0 117.909 0 118.328V135.489C0 135.908 0.339617 136.248 0.758556 136.248H2.77553C3.19447 136.248 3.53409 135.908 3.53409 135.489V123.643Z" fill="white"/>
<path d="M15.3492 135.489C15.3492 135.908 15.0096 136.248 14.5906 136.248H12.7372C12.4881 136.248 12.255 136.125 12.1133 135.921L9.75237 132.508C9.75176 132.507 9.75159 132.506 9.75191 132.505C9.75223 132.504 9.75206 132.502 9.75145 132.502L9.55873 132.223C9.37933 131.963 9.39633 131.616 9.60021 131.375L9.83181 131.102C9.91766 131.001 9.97539 130.878 9.99924 130.748L10.3263 128.956C10.3699 128.717 10.6805 128.65 10.8189 128.85L10.8947 128.959C10.895 128.96 10.8951 128.96 10.8949 128.961C10.8948 128.961 10.8948 128.962 10.8952 128.962L11.7876 130.255C11.8077 130.284 11.8408 130.301 11.8762 130.301C11.9356 130.301 11.9839 130.253 11.9839 130.194V118.328C11.9839 117.909 12.3235 117.57 12.7424 117.57H14.5906C15.0096 117.57 15.3492 117.909 15.3492 118.328V135.489Z" fill="white"/>
<path d="M11.8237 127.772C11.8237 127.772 11.8238 127.772 11.8238 127.772C11.8238 127.772 11.8238 127.772 11.8238 127.772C11.824 127.773 11.8227 127.774 11.8221 127.773C11.7932 127.732 11.7617 127.688 11.7275 127.64C11.7274 127.639 11.7274 127.639 11.7274 127.639C11.7275 127.639 11.7275 127.639 11.7275 127.639C11.7275 127.639 11.7275 127.639 11.7275 127.639C11.7276 127.639 11.7276 127.639 11.7277 127.639C11.7278 127.639 11.7279 127.639 11.728 127.639C11.7281 127.639 11.7282 127.639 11.7282 127.639L11.8237 127.772Z" fill="white"/>
<path d="M5.05501 123.667C5.05499 123.667 5.05497 123.667 5.05487 123.667C5.0496 123.666 4.79079 123.592 4.61896 123.572C4.5105 123.558 4.36285 123.553 4.26731 123.552C4.20646 123.55 4.14393 123.554 4.09025 123.583C3.89134 123.689 3.8449 123.964 4.05205 124.116C4.11155 124.159 4.18689 124.178 4.56569 124.24C4.94447 124.302 5.02166 124.308 5.09203 124.286C5.26108 124.232 5.35314 124.062 5.30462 123.894C5.27369 123.787 5.19163 123.711 5.06129 123.669L5.05538 123.667C5.05536 123.667 5.05533 123.667 5.05531 123.667L5.05528 123.667L5.05526 123.667L5.05522 123.667L5.05519 123.667L5.05517 123.667C5.05514 123.667 5.05511 123.667 5.05509 123.667C5.05507 123.667 5.05505 123.667 5.05504 123.667L5.05502 123.667L5.05501 123.667Z" fill="white"/>
<path d="M7.92833 122.742C7.97717 122.783 8.15501 123.002 8.41811 123.374C8.73847 123.827 8.83684 123.984 8.87712 124.105C8.92315 124.243 9.15197 125.386 9.13605 125.397C9.13246 125.4 9.02812 125.347 8.9042 125.28L8.84122 125.245C8.73457 125.187 8.6434 125.105 8.57538 125.004L7.97903 124.122C7.85352 123.937 7.73544 123.773 7.63329 123.631L7.63319 123.631L7.63317 123.631C7.42208 123.337 7.27903 123.139 7.27903 123.04C7.27903 122.793 7.68372 122.535 7.92833 122.742Z" fill="white"/>
<path d="M6.04311 125.123C6.05011 125.004 6.00681 124.911 5.91259 124.842C5.85147 124.797 5.77308 124.779 5.27674 124.699C4.6441 124.596 4.59645 124.598 4.48728 124.73C4.37591 124.865 4.38999 125.039 4.52353 125.177C4.57406 125.23 4.61148 125.239 5.14619 125.332C5.70144 125.43 5.71764 125.431 5.82164 125.397C5.95851 125.353 6.03504 125.258 6.04311 125.123Z" fill="white"/>
<path d="M6.34622 125.92C6.51775 126.068 6.46832 126.37 6.25878 126.455C6.18649 126.484 6.13676 126.479 5.59249 126.39C5.04857 126.301 4.99954 126.29 4.94049 126.239C4.8486 126.16 4.81573 126.07 4.83535 125.95C4.85483 125.832 4.92139 125.748 5.0317 125.703C5.09912 125.676 5.16031 125.682 5.69413 125.769C6.2384 125.858 6.28707 125.869 6.34622 125.92Z" fill="white"/>
<path d="M6.67091 127.25C6.68994 127.134 6.65968 127.049 6.56326 126.949C6.51481 126.899 6.47514 126.888 6.16213 126.833C5.77217 126.765 5.72913 126.763 5.6318 126.811C5.42428 126.913 5.39497 127.226 5.5809 127.355C5.6858 127.427 6.34196 127.532 6.45837 127.495C6.58238 127.455 6.65014 127.377 6.67091 127.25Z" fill="white"/>
<path d="M83.3288 136.64C82.6526 136.64 82.0713 136.4 81.5848 135.921C81.0982 135.434 80.855 134.847 80.855 134.161C80.855 133.484 81.0982 132.905 81.5848 132.426C82.0713 131.939 82.6526 131.695 83.3288 131.695C84.005 131.695 84.5864 131.939 85.0729 132.426C85.5594 132.905 85.8027 133.484 85.8027 134.161C85.8027 134.616 85.6872 135.033 85.4563 135.413C85.2337 135.785 84.9368 136.082 84.5658 136.305C84.1947 136.528 83.7824 136.64 83.3288 136.64Z" fill="white"/>
<path d="M101.449 128.51V119.224C101.449 118.199 102.28 117.368 103.305 117.368V117.368C104.329 117.368 105.16 118.199 105.16 119.224V134.586C105.16 135.59 104.346 136.404 103.342 136.404H103.172C102.262 136.404 101.524 135.666 101.524 134.756V133.227C101.524 133.161 101.47 133.108 101.404 133.108V133.108C101.357 133.108 101.314 133.136 101.294 133.18C100.855 134.164 100.165 134.987 99.2229 135.648C98.2663 136.318 97.0748 136.652 95.6482 136.652C94.4277 136.652 93.3475 136.384 92.4074 135.847C91.4756 135.301 90.7417 134.496 90.2057 133.43C89.6779 132.364 89.4141 131.046 89.4141 129.476V119.217C89.4141 118.196 90.242 117.368 91.2633 117.368V117.368C92.2846 117.368 93.1125 118.196 93.1125 119.217V129.03C93.1125 130.328 93.4712 131.36 94.1886 132.129C94.906 132.897 95.8378 133.281 96.9841 133.281C97.6767 133.281 98.3653 133.108 99.0497 132.761C99.7424 132.414 100.316 131.889 100.769 131.187C101.231 130.484 101.458 129.592 101.449 128.51Z" fill="white"/>
<path d="M111.621 136.404C110.579 136.404 109.734 135.559 109.734 134.517V134.517C109.734 134.094 109.876 133.683 110.137 133.35L119.997 120.799C120.015 120.776 120.025 120.748 120.025 120.719V120.719C120.025 120.648 119.967 120.59 119.896 120.59H111.679C110.789 120.59 110.068 119.869 110.068 118.979V118.979C110.068 118.089 110.789 117.368 111.679 117.368H122.62C123.735 117.368 124.639 118.272 124.639 119.387V119.387C124.639 119.83 124.493 120.261 124.223 120.613L114.77 132.974C114.753 132.996 114.743 133.024 114.743 133.052V133.052C114.743 133.124 114.801 133.182 114.873 133.182H123.374C124.264 133.182 124.985 133.903 124.985 134.793V134.793C124.985 135.683 124.264 136.404 123.374 136.404H111.621Z" fill="white"/>
</svg>
