<svg width="118" height="118" viewBox="0 0 118 118" fill="none" xmlns="http://www.w3.org/2000/svg">
<circle cx="59" cy="59" r="58.5" fill="white" stroke="white"/>
<path d="M45.5562 48.4113C45.5562 47.9199 46.0245 47.4772 46.5096 47.2747C46.9615 47.086 47.2288 47.0417 47.7362 46.995C48.2847 46.9446 48.693 46.9825 49.1204 47.035C49.8174 47.1207 50.8596 47.4702 50.8648 47.472C50.865 47.472 50.8648 47.4721 50.8647 47.4722C50.8647 47.4723 50.8648 47.4725 50.8649 47.4725C52.1734 47.8067 52.8594 49.4172 52.086 50.7427C52.0355 50.8293 52.1454 50.8693 52.7998 51.0024C53.462 51.1371 53.6218 51.196 53.9108 51.4112C54.7674 52.0494 55.0549 53.2437 54.5643 54.1259C54.3651 54.4841 54.3652 54.5002 54.5645 54.5329C55.2611 54.647 56.0262 55.5192 56.1038 56.2876C56.1472 56.7167 56.0209 57.3748 55.8393 57.6661L55.8272 57.6857L55.8062 57.7201C55.791 57.7451 55.7766 57.7696 55.7632 57.7927C55.7139 57.878 55.6787 57.9465 55.6757 57.965C55.6712 57.9922 55.7917 58.0954 55.9434 58.1943C56.3052 58.4304 56.6731 58.9512 56.7953 59.4003C56.9339 59.9094 56.8059 60.6483 56.4979 61.118C56.2664 61.4711 55.7034 61.9028 55.3486 61.9992C55.1706 62.0477 55.1493 62.0896 55.0765 62.5349C55.0668 62.5944 55.0572 62.648 55.0473 62.6966C55.044 62.713 55.0408 62.7288 55.0374 62.7441L54.5773 65.4677C54.5732 65.578 54.5577 65.7084 54.5323 65.8638C54.4141 66.5868 54.5229 66.9549 54.9426 67.2503C55.3034 67.5044 55.6735 67.5049 56.0587 67.2518C56.4215 67.0134 56.528 66.7424 56.7236 65.5587C56.8653 64.7017 56.8985 64.592 57.0489 64.4838C57.2746 64.3214 57.6637 64.3891 57.8103 64.6161C57.9136 64.776 57.8987 64.9543 57.6271 66.8241C57.2988 69.0834 57.3009 69.1266 57.7511 69.4384C58.1684 69.7275 58.6222 69.7017 59.0595 69.3644C59.2694 69.2026 59.2732 69.1892 59.5766 67.5574C59.8685 65.9879 59.8906 65.9074 60.0651 65.7822C60.1822 65.6979 60.3304 65.6669 60.4784 65.6954C60.9322 65.7831 60.9328 65.7934 60.6031 68.0596L60.5909 68.144C60.5908 68.1442 60.5908 68.1443 60.5908 68.1445C60.5908 68.1447 60.5908 68.1449 60.5908 68.1451C60.3574 69.7485 60.2985 70.1536 60.4573 70.436C60.4798 70.4761 60.5067 70.5137 60.5382 70.552C60.5405 70.5548 60.5428 70.5575 60.5451 70.5603L60.5482 70.564L60.5505 70.5667C60.5568 70.5741 60.5632 70.5815 60.5698 70.5889C60.578 70.5982 60.5864 70.6076 60.5952 70.6172L60.5987 70.621L60.6024 70.6251C60.6042 70.6271 60.6061 70.629 60.6079 70.631L60.6118 70.6351L60.6142 70.6377C60.639 70.6643 60.6658 70.6921 60.6946 70.7219L60.7109 70.7388C60.9542 70.9914 61.4761 71.0709 61.81 70.9065C62.2703 70.6796 62.3504 70.4819 62.5995 68.9577C62.7228 68.204 62.8535 67.536 62.8903 67.4731C62.9907 67.301 63.3935 67.226 63.5935 67.3421C63.9262 67.5352 63.9265 67.592 63.6102 69.5426C63.2781 71.5903 63.2828 71.7362 63.6928 72.0932C64.132 72.4755 64.7098 72.4387 65.1649 71.9995C65.3428 71.8277 65.359 71.746 66.1711 66.9014L66.9563 62.2169C66.9816 62.0659 67.0744 61.9348 67.2083 61.8608C67.6337 61.6257 67.6885 61.6766 69.0837 63.5998C70.3428 65.3354 70.3991 65.4007 70.7281 65.5063C71.8087 65.8535 72.8011 64.8995 72.4589 63.8425C72.4072 63.6831 71.6634 62.5873 70.806 61.4077C69.5512 59.6814 69.1645 59.2007 68.8244 58.9451C68.5921 58.7703 66.8163 57.7315 64.8783 56.6368C62.991 55.5707 61.6869 54.3819 61.5691 54.2745L61.5621 54.2682C61.5424 54.2503 61.2237 53.7849 60.6828 52.9947L60.6823 52.994L60.6821 52.9937C59.7139 51.5797 58.0345 49.1267 56.0828 46.3388C54.9684 44.6931 54.0095 43.3184 53.2764 42.2673L53.2658 42.2521C52.6669 41.3935 52.1533 40.6424 51.7924 40.0989L45.0678 30.3653C45.0676 30.3651 45.0672 30.3652 45.0672 30.3655C45.0672 30.3658 45.0669 30.3659 45.0667 30.3657L44.3705 29.3564C44.085 28.9425 43.6147 28.6955 43.1123 28.6955H36.555C35.1964 28.6955 34.095 29.7981 34.095 31.1581V86.8709C34.095 88.231 35.1964 89.3335 36.555 89.3335H43.0962C44.4548 89.3335 45.5562 88.231 45.5562 86.8709V48.4113Z" fill="#0BBF90"/>
<path d="M83.8734 86.8709C83.8734 88.231 82.772 89.3335 81.4133 89.3335H75.4024C74.5949 89.3335 73.8387 88.9368 73.3793 88.2719L65.7226 77.1917C65.7206 77.1888 65.72 77.1852 65.7211 77.1819C65.7221 77.1785 65.7215 77.1749 65.7196 77.1721L65.0946 76.2674C64.5128 75.4251 64.5679 74.2969 65.2291 73.5155L65.9802 72.628C66.2586 72.299 66.4458 71.9026 66.5232 71.4784L67.5838 65.6619C67.7253 64.8862 68.7326 64.6683 69.1814 65.3164L69.4271 65.6713C69.4283 65.6729 69.4286 65.675 69.428 65.6769C69.4274 65.6788 69.4277 65.6809 69.4288 65.6825L72.3229 69.8779C72.3881 69.9724 72.4955 70.0289 72.6102 70.0289C72.8031 70.0289 72.9594 69.8724 72.9594 69.6793V31.1581C72.9594 29.7981 74.0608 28.6955 75.4194 28.6955H81.4133C82.772 28.6955 83.8734 29.7981 83.8734 31.1581V86.8709Z" fill="#0BBF90"/>
<path d="M72.4399 61.8172C72.4401 61.8174 72.4402 61.8176 72.4403 61.8179C72.4404 61.8181 72.4405 61.8184 72.4405 61.8187C72.4409 61.8218 72.4368 61.8234 72.4349 61.8208C72.341 61.6877 72.239 61.5438 72.1281 61.3875C72.1278 61.3872 72.1278 61.3868 72.1278 61.3865C72.1279 61.3863 72.1279 61.3862 72.128 61.3861C72.128 61.386 72.1281 61.3859 72.1282 61.3858C72.1283 61.3857 72.1284 61.3856 72.1286 61.3855C72.1289 61.3853 72.1292 61.3853 72.1295 61.3854C72.1298 61.3854 72.1301 61.3856 72.1303 61.3859L72.4399 61.8172Z" fill="#0BBF90"/>
<path d="M50.4887 48.4914C50.4886 48.4917 50.4886 48.4919 50.4882 48.4918C50.4712 48.4869 49.6318 48.2487 49.0746 48.181C48.7228 48.1383 48.244 48.1222 47.9341 48.1161C47.7368 48.1123 47.534 48.1245 47.3599 48.2176C46.7148 48.5625 46.5642 49.4533 47.236 49.9475C47.429 50.0894 47.6733 50.1484 48.9018 50.3497C50.1302 50.5509 50.3806 50.5729 50.6087 50.5C51.157 50.3246 51.4556 49.7735 51.2982 49.2274C51.1979 48.8793 50.9318 48.633 50.5091 48.4969L50.4899 48.4905C50.4898 48.4905 50.4898 48.4905 50.4897 48.4905L50.4896 48.4905L50.4895 48.4905L50.4894 48.4905L50.4893 48.4905L50.4892 48.4906C50.4891 48.4906 50.489 48.4907 50.489 48.4908C50.4889 48.4909 50.4888 48.491 50.4888 48.4911L50.4887 48.4912L50.4887 48.4914Z" fill="#0BBF90"/>
<path d="M59.8071 45.4867C59.9655 45.6208 60.5422 46.3314 61.3955 47.5394C62.4344 49.0102 62.7534 49.5188 62.8841 49.9122C63.0333 50.3623 63.7754 54.0702 63.7238 54.1085C63.7121 54.1171 63.3738 53.9451 62.9719 53.7264L62.7676 53.6152C62.4218 53.4268 62.1261 53.1581 61.9055 52.8316L59.9715 49.9694C59.5645 49.3671 59.1815 48.8343 58.8502 48.3734L58.8499 48.373L58.8498 48.3729C58.1653 47.4206 57.7013 46.7751 57.7013 46.4565C57.7013 45.6522 59.0138 44.8149 59.8071 45.4867Z" fill="#0BBF90"/>
<path d="M53.6932 53.2164C53.7159 52.8321 53.5755 52.5296 53.2699 52.3049C53.0717 52.159 52.8175 52.1017 51.2078 51.8408C49.1561 51.5082 49.0015 51.5144 48.6475 51.9428C48.2863 52.38 48.332 52.9433 48.7651 53.3933C48.9289 53.5635 49.0503 53.5938 50.7844 53.8977C52.5851 54.2131 52.6377 54.2182 52.9749 54.1085C53.4188 53.9641 53.667 53.6558 53.6932 53.2164Z" fill="#0BBF90"/>
<path d="M54.6762 55.8059C55.2325 56.2843 55.0722 57.2651 54.3926 57.541C54.1582 57.6363 53.9969 57.6207 52.2318 57.3315C50.4678 57.0426 50.3088 57.0056 50.1173 56.841C49.8193 56.5847 49.7127 56.2917 49.7763 55.9038C49.8395 55.5179 50.0554 55.2457 50.4131 55.1004C50.6318 55.0116 50.8302 55.0314 52.5614 55.315C54.3265 55.6042 54.4843 55.6408 54.6762 55.8059Z" fill="#0BBF90"/>
<path d="M55.7292 60.1245C55.7909 59.7466 55.6928 59.4717 55.3801 59.1471C55.2229 58.9839 55.0943 58.9465 54.0792 58.7693C52.8145 58.5485 52.6749 58.5427 52.3593 58.6979C51.6863 59.0289 51.5912 60.0447 52.1942 60.4624C52.5344 60.698 54.6624 61.0386 55.0399 60.9177C55.4421 60.7891 55.6618 60.5361 55.7292 60.1245Z" fill="#0BBF90"/>
</svg>
