<svg width="16" height="17" viewBox="0 0 16 17" fill="none" xmlns="http://www.w3.org/2000/svg">
<path d="M16 16.0925C16 16.3332 15.9064 16.564 15.7397 16.7342C15.573 16.9044 15.3469 17 15.1111 17H0.888889C0.653141 17 0.427049 16.9044 0.26035 16.7342C0.0936507 16.564 2.13965e-07 16.3332 2.13965e-07 16.0925V6.55463C-9.37633e-05 6.41633 0.0307708 6.27985 0.0902365 6.1556C0.149702 6.03134 0.236196 5.92261 0.343111 5.8377L7.45422 0.191206C7.61026 0.0672817 7.80231 0 8 0C8.19769 0 8.38974 0.0672817 8.54578 0.191206L15.6569 5.8377C15.7638 5.92261 15.8503 6.03134 15.9098 6.1556C15.9692 6.27985 16.0001 6.41633 16 6.55463V16.0925Z" fill="#048D6A"/>
</svg>
