<svg width="17" height="18" viewBox="0 0 17 18" fill="none" xmlns="http://www.w3.org/2000/svg">
<path d="M17 17.0391C17 17.294 16.9005 17.5384 16.7234 17.7186C16.5463 17.8988 16.306 18 16.0556 18H0.944445C0.693962 18 0.453739 17.8988 0.276622 17.7186C0.0995039 17.5384 2.27338e-07 17.294 2.27338e-07 17.0391V6.94019C-9.96234e-05 6.79376 0.032694 6.64925 0.0958762 6.51769C0.159058 6.38613 0.250958 6.271 0.364556 6.18109L7.92011 0.202453C8.0859 0.0712394 8.28995 0 8.5 0C8.71005 0 8.9141 0.0712394 9.07989 0.202453L16.6354 6.18109C16.749 6.271 16.8409 6.38613 16.9041 6.51769C16.9673 6.64925 17.0001 6.79376 17 6.94019V17.0391V17.0391ZM15.1111 16.0782V7.4091L8.5 2.17804L1.88889 7.4091V16.0782H15.1111Z" fill="black"/>
<path d="M17 17.0391C17 17.294 16.9005 17.5384 16.7234 17.7186C16.5463 17.8988 16.306 18 16.0556 18H0.944445C0.693962 18 0.453739 17.8988 0.276622 17.7186C0.0995039 17.5384 2.27338e-07 17.294 2.27338e-07 17.0391V6.94019C-9.96234e-05 6.79376 0.032694 6.64925 0.0958762 6.51769C0.159058 6.38613 0.250958 6.271 0.364556 6.18109L7.92011 0.202453C8.0859 0.0712394 8.28995 0 8.5 0C8.71005 0 8.9141 0.0712394 9.07989 0.202453L16.6354 6.18109C16.749 6.271 16.8409 6.38613 16.9041 6.51769C16.9673 6.64925 17.0001 6.79376 17 6.94019V17.0391V17.0391ZM15.1111 16.0782V7.4091L8.5 2.17804L1.88889 7.4091V16.0782H15.1111Z" fill="#D3D7D6"/>
</svg>
