<svg width="93" height="93" viewBox="0 0 93 93" fill="none" xmlns="http://www.w3.org/2000/svg">
<path d="M24.6032 87.5315L5.24822e-05 92.9999L5.46845 68.3968C1.86717 61.6607 -0.0114476 54.1383 5.24822e-05 46.5C5.24822e-05 20.818 20.8181 0 46.5 0C72.182 0 93 20.818 93 46.5C93 72.1819 72.182 92.9999 46.5 92.9999C38.8617 93.0114 31.3393 91.1328 24.6032 87.5315ZM25.9517 77.7061L28.9881 79.3336C34.3754 82.2126 40.3918 83.7127 46.5 83.7C53.8575 83.7 61.0497 81.5182 67.1672 77.4306C73.2847 73.343 78.0527 67.5332 80.8683 60.7358C83.6839 53.9384 84.4206 46.4587 82.9852 39.2426C81.5499 32.0265 78.0069 25.3981 72.8044 20.1956C67.6019 14.9931 60.9735 11.4502 53.7574 10.0148C46.5413 8.57941 39.0616 9.3161 32.2642 12.1317C25.4668 14.9473 19.657 19.7153 15.5694 25.8328C11.4818 31.9503 9.30005 39.1425 9.30005 46.5C9.30005 52.7031 10.8113 58.6737 13.671 64.0119L15.2939 67.0483L12.2481 80.7518L25.9517 77.7061Z" fill="#E6E7E8"/>
</svg>
