<svg width="59" height="59" viewBox="0 0 59 59" fill="none" xmlns="http://www.w3.org/2000/svg">
<path d="M41 52.5V6.5H6.5V49.625C6.5 50.3875 6.8029 51.1188 7.34207 51.6579C7.88124 52.1971 8.6125 52.5 9.375 52.5H41ZM49.625 58.25H9.375C7.08751 58.25 4.89371 57.3413 3.2762 55.7238C1.6587 54.1063 0.75 51.9125 0.75 49.625V3.625C0.75 2.8625 1.0529 2.13123 1.59207 1.59207C2.13123 1.0529 2.8625 0.75 3.625 0.75H43.875C44.6375 0.75 45.3688 1.0529 45.9079 1.59207C46.4471 2.13123 46.75 2.8625 46.75 3.625V23.75H58.25V49.625C58.25 51.9125 57.3413 54.1063 55.7238 55.7238C54.1063 57.3413 51.9125 58.25 49.625 58.25ZM46.75 29.5V49.625C46.75 50.3875 47.0529 51.1188 47.5921 51.6579C48.1312 52.1971 48.8625 52.5 49.625 52.5C50.3875 52.5 51.1188 52.1971 51.6579 51.6579C52.1971 51.1188 52.5 50.3875 52.5 49.625V29.5H46.75ZM12.25 12.25H29.5V29.5H12.25V12.25ZM18 18V23.75H23.75V18H18ZM12.25 32.375H35.25V38.125H12.25V32.375ZM12.25 41H35.25V46.75H12.25V41Z" fill="#DADADA"/>
</svg>
