<svg width="35" height="35" viewBox="0 0 35 35" fill="none" xmlns="http://www.w3.org/2000/svg">
<rect width="35" height="35" rx="2" fill="#EBEDF1"/>
<path d="M25 22H27V24H7V22H9V15C9 12.8783 9.84285 10.8434 11.3431 9.34315C12.8434 7.84285 14.8783 7 17 7C19.1217 7 21.1566 7.84285 22.6569 9.34315C24.1571 10.8434 25 12.8783 25 15V22ZM23 22V15C23 13.4087 22.3679 11.8826 21.2426 10.7574C20.1174 9.63214 18.5913 9 17 9C15.4087 9 13.8826 9.63214 12.7574 10.7574C11.6321 11.8826 11 13.4087 11 15V22H23ZM14 26H20V28H14V26Z" fill="#031A3C"/>
</svg>
