<svg width="20" height="18" viewBox="0 0 20 18" fill="none" xmlns="http://www.w3.org/2000/svg">
<path d="M17.5006 15.6667H19.1673V17.3334H0.833984V15.6667H2.50065V1.50008C2.50065 1.27907 2.58845 1.06711 2.74473 0.910826C2.90101 0.754545 3.11297 0.666748 3.33398 0.666748H16.6673C16.8883 0.666748 17.1003 0.754545 17.2566 0.910826C17.4129 1.06711 17.5006 1.27907 17.5006 1.50008V15.6667ZM6.66732 8.16675V9.83342H9.16732V8.16675H6.66732ZM6.66732 4.83342V6.50008H9.16732V4.83342H6.66732ZM6.66732 11.5001V13.1667H9.16732V11.5001H6.66732ZM10.834 11.5001V13.1667H13.334V11.5001H10.834ZM10.834 8.16675V9.83342H13.334V8.16675H10.834ZM10.834 4.83342V6.50008H13.334V4.83342H10.834Z" fill="#048D6A"/>
</svg>
