<svg width="20" height="20" viewBox="0 0 20 20" fill="none" xmlns="http://www.w3.org/2000/svg">
<path d="M17.5006 16.6667H19.1673V18.3334H0.833984V16.6667H2.50065V2.50008C2.50065 2.27907 2.58845 2.06711 2.74473 1.91083C2.90101 1.75455 3.11297 1.66675 3.33398 1.66675H16.6673C16.8883 1.66675 17.1003 1.75455 17.2566 1.91083C17.4129 2.06711 17.5006 2.27907 17.5006 2.50008V16.6667ZM15.834 16.6667V3.33341H4.16732V16.6667H15.834ZM6.66732 9.16675H9.16732V10.8334H6.66732V9.16675ZM6.66732 5.83341H9.16732V7.50008H6.66732V5.83341ZM6.66732 12.5001H9.16732V14.1667H6.66732V12.5001ZM10.834 12.5001H13.334V14.1667H10.834V12.5001ZM10.834 9.16675H13.334V10.8334H10.834V9.16675ZM10.834 5.83341H13.334V7.50008H10.834V5.83341Z" fill="black"/>
<path d="M17.5006 16.6667H19.1673V18.3334H0.833984V16.6667H2.50065V2.50008C2.50065 2.27907 2.58845 2.06711 2.74473 1.91083C2.90101 1.75455 3.11297 1.66675 3.33398 1.66675H16.6673C16.8883 1.66675 17.1003 1.75455 17.2566 1.91083C17.4129 2.06711 17.5006 2.27907 17.5006 2.50008V16.6667ZM15.834 16.6667V3.33341H4.16732V16.6667H15.834ZM6.66732 9.16675H9.16732V10.8334H6.66732V9.16675ZM6.66732 5.83341H9.16732V7.50008H6.66732V5.83341ZM6.66732 12.5001H9.16732V14.1667H6.66732V12.5001ZM10.834 12.5001H13.334V14.1667H10.834V12.5001ZM10.834 9.16675H13.334V10.8334H10.834V9.16675ZM10.834 5.83341H13.334V7.50008H10.834V5.83341Z" fill="#D3D7D6"/>
</svg>
