<svg width="10" height="13" viewBox="0 0 10 13" fill="none" xmlns="http://www.w3.org/2000/svg">
<path d="M0 13C0 11.6865 0.526784 10.4269 1.46447 9.49814C2.40215 8.56939 3.67392 8.04762 5 8.04762C6.32608 8.04762 7.59785 8.56939 8.53553 9.49814C9.47322 10.4269 10 11.6865 10 13H0ZM5 7.42857C2.92812 7.42857 1.25 5.76643 1.25 3.71429C1.25 1.66214 2.92812 0 5 0C7.07188 0 8.75 1.66214 8.75 3.71429C8.75 5.76643 7.07188 7.42857 5 7.42857Z" fill="black"/>
<path d="M0 13C0 11.6865 0.526784 10.4269 1.46447 9.49814C2.40215 8.56939 3.67392 8.04762 5 8.04762C6.32608 8.04762 7.59785 8.56939 8.53553 9.49814C9.47322 10.4269 10 11.6865 10 13H0ZM5 7.42857C2.92812 7.42857 1.25 5.76643 1.25 3.71429C1.25 1.66214 2.92812 0 5 0C7.07188 0 8.75 1.66214 8.75 3.71429C8.75 5.76643 7.07188 7.42857 5 7.42857Z" fill="#0344A7"/>
</svg>
