<svg width="19" height="17" viewBox="0 0 19 17" fill="none" xmlns="http://www.w3.org/2000/svg">
<path fill-rule="evenodd" clip-rule="evenodd" d="M4.76272 0.103796C4.65139 0.165607 4.54246 0.28339 4.48259 0.406756C4.38725 0.60325 4.38462 0.703262 4.38462 4.14418V7.67974H2.48267C0.672649 7.67974 0.571461 7.6847 0.388477 7.78282C0.264685 7.84919 0.161208 7.95796 0.0980693 8.08809C0.00224105 8.2856 0 8.38224 0 12.3399C0 16.2975 0.00224105 16.3941 0.0980693 16.5917C0.161208 16.7218 0.264685 16.8305 0.388477 16.8969C0.57911 16.9991 0.65701 17 9.5 17C18.343 17 18.4209 16.9991 18.6115 16.8969C18.7353 16.8305 18.8388 16.7218 18.9019 16.5917C18.9978 16.3941 19 16.2975 19 12.3399C19 8.38224 18.9978 8.2856 18.9019 8.08809C18.8388 7.95796 18.7353 7.84919 18.6115 7.78282C18.4285 7.6847 18.3274 7.67974 16.5173 7.67974H14.6154V4.14418C14.6154 0.701828 14.6128 0.603301 14.5173 0.406551C14.4542 0.276426 14.3507 0.167655 14.2269 0.101287C14.0382 9.55025e-05 13.9508 -0.00174777 9.48977 0.000454269C5.06097 0.00265631 4.9402 0.00531873 4.76272 0.103796ZM7.30769 2.7656C7.30769 3.89837 7.31554 4.01283 7.40576 4.19877C7.4689 4.3289 7.57238 4.43767 7.69617 4.50404C7.8774 4.60118 7.98097 4.60712 9.5 4.60712C11.019 4.60712 11.1226 4.60118 11.3038 4.50404C11.4276 4.43767 11.5311 4.3289 11.5942 4.19877C11.6845 4.01283 11.6923 3.89837 11.6923 2.7656V1.53451H12.4231H13.1538V4.60712V7.67974H9.5H5.84615V4.60712V1.53451H6.57692H7.30769V2.7656ZM10.2308 2.30266V3.07081H9.5H8.76923V2.30266V1.53451H9.5H10.2308V2.30266ZM2.92308 10.4471C2.92308 11.5799 2.93092 11.6944 3.02115 11.8803C3.08428 12.0104 3.18776 12.1192 3.31155 12.1856C3.49278 12.2827 3.59636 12.2887 5.11538 12.2887C6.63441 12.2887 6.73798 12.2827 6.91922 12.1856C7.04301 12.1192 7.14648 12.0104 7.20962 11.8803C7.29985 11.6944 7.30769 11.5799 7.30769 10.4471V9.21604H8.03846H8.76923V12.3399V15.4637H5.11538H1.46154V12.3399V9.21604H2.19231H2.92308V10.4471ZM5.84615 9.9842V10.7524H5.11538H4.38462V9.9842V9.21604H5.11538H5.84615V9.9842ZM11.6923 10.4471C11.6923 11.5799 11.7002 11.6944 11.7904 11.8803C11.8535 12.0104 11.957 12.1192 12.0808 12.1856C12.262 12.2827 12.3656 12.2887 13.8846 12.2887C15.4036 12.2887 15.5072 12.2827 15.6884 12.1856C15.8122 12.1192 15.9157 12.0104 15.9789 11.8803C16.0691 11.6944 16.0769 11.5799 16.0769 10.4471V9.21604H16.8077H17.5385V12.3399V15.4637H13.8846H10.2308V12.3399V9.21604H10.9615H11.6923V10.4471ZM14.6154 9.9842V10.7524H13.8846H13.1538V9.9842V9.21604H13.8846H14.6154V9.9842Z" fill="black"/>
<path fill-rule="evenodd" clip-rule="evenodd" d="M4.76272 0.103796C4.65139 0.165607 4.54246 0.28339 4.48259 0.406756C4.38725 0.60325 4.38462 0.703262 4.38462 4.14418V7.67974H2.48267C0.672649 7.67974 0.571461 7.6847 0.388477 7.78282C0.264685 7.84919 0.161208 7.95796 0.0980693 8.08809C0.00224105 8.2856 0 8.38224 0 12.3399C0 16.2975 0.00224105 16.3941 0.0980693 16.5917C0.161208 16.7218 0.264685 16.8305 0.388477 16.8969C0.57911 16.9991 0.65701 17 9.5 17C18.343 17 18.4209 16.9991 18.6115 16.8969C18.7353 16.8305 18.8388 16.7218 18.9019 16.5917C18.9978 16.3941 19 16.2975 19 12.3399C19 8.38224 18.9978 8.2856 18.9019 8.08809C18.8388 7.95796 18.7353 7.84919 18.6115 7.78282C18.4285 7.6847 18.3274 7.67974 16.5173 7.67974H14.6154V4.14418C14.6154 0.701828 14.6128 0.603301 14.5173 0.406551C14.4542 0.276426 14.3507 0.167655 14.2269 0.101287C14.0382 9.55025e-05 13.9508 -0.00174777 9.48977 0.000454269C5.06097 0.00265631 4.9402 0.00531873 4.76272 0.103796ZM7.30769 2.7656C7.30769 3.89837 7.31554 4.01283 7.40576 4.19877C7.4689 4.3289 7.57238 4.43767 7.69617 4.50404C7.8774 4.60118 7.98097 4.60712 9.5 4.60712C11.019 4.60712 11.1226 4.60118 11.3038 4.50404C11.4276 4.43767 11.5311 4.3289 11.5942 4.19877C11.6845 4.01283 11.6923 3.89837 11.6923 2.7656V1.53451H12.4231H13.1538V4.60712V7.67974H9.5H5.84615V4.60712V1.53451H6.57692H7.30769V2.7656ZM10.2308 2.30266V3.07081H9.5H8.76923V2.30266V1.53451H9.5H10.2308V2.30266ZM2.92308 10.4471C2.92308 11.5799 2.93092 11.6944 3.02115 11.8803C3.08428 12.0104 3.18776 12.1192 3.31155 12.1856C3.49278 12.2827 3.59636 12.2887 5.11538 12.2887C6.63441 12.2887 6.73798 12.2827 6.91922 12.1856C7.04301 12.1192 7.14648 12.0104 7.20962 11.8803C7.29985 11.6944 7.30769 11.5799 7.30769 10.4471V9.21604H8.03846H8.76923V12.3399V15.4637H5.11538H1.46154V12.3399V9.21604H2.19231H2.92308V10.4471ZM5.84615 9.9842V10.7524H5.11538H4.38462V9.9842V9.21604H5.11538H5.84615V9.9842ZM11.6923 10.4471C11.6923 11.5799 11.7002 11.6944 11.7904 11.8803C11.8535 12.0104 11.957 12.1192 12.0808 12.1856C12.262 12.2827 12.3656 12.2887 13.8846 12.2887C15.4036 12.2887 15.5072 12.2827 15.6884 12.1856C15.8122 12.1192 15.9157 12.0104 15.9789 11.8803C16.0691 11.6944 16.0769 11.5799 16.0769 10.4471V9.21604H16.8077H17.5385V12.3399V15.4637H13.8846H10.2308V12.3399V9.21604H10.9615H11.6923V10.4471ZM14.6154 9.9842V10.7524H13.8846H13.1538V9.9842V9.21604H13.8846H14.6154V9.9842Z" fill="#D3D7D6"/>
</svg>
