<svg width="20" height="20" viewBox="0 0 20 20" fill="none" xmlns="http://www.w3.org/2000/svg">
<path d="M0.0704807 5.68102L0.0704849 5.68101C0.10197 5.63556 0.137366 5.59696 0.238727 5.53094C0.33832 5.46608 0.504873 5.37262 0.800644 5.21758C1.3929 4.90713 2.51028 4.34619 4.66415 3.26667C5.89162 2.65146 7.02007 2.08798 7.84934 1.67574C8.26397 1.46962 8.60386 1.30128 8.84394 1.18319C8.96397 1.12415 9.05914 1.07762 9.12627 1.0452C9.15981 1.02899 9.18648 1.01625 9.2058 1.0072L0.0704807 5.68102ZM0.0704807 5.68102C0.0210267 5.75242 -0.0109571 5.80656 -0.0289928 5.8736C-0.0466412 5.93919 -0.05 6.01386 -0.05 6.12423C-0.05 6.23461 -0.0466412 6.30928 -0.0289928 6.37487C-0.0109571 6.44191 0.0210267 6.49605 0.0704807 6.56745C0.129216 6.65225 0.189322 6.70932 0.417514 6.83804C0.64462 6.96614 1.04521 7.16899 1.79066 7.54349C2.22779 7.76309 2.62512 7.96479 2.91311 8.11284C3.05713 8.18688 3.17367 8.24743 3.25414 8.29006C3.27234 8.29971 3.28864 8.30841 3.30296 8.31612C3.28864 8.32383 3.27234 8.33253 3.25414 8.34218C3.17367 8.38482 3.05713 8.44536 2.91311 8.5194C2.62512 8.66745 2.22779 8.86915 1.79066 9.08876C1.04521 9.46326 0.64462 9.6661 0.417514 9.79421C0.189322 9.92293 0.129216 9.97999 0.0704815 10.0648C0.0210267 10.1362 -0.0109571 10.1903 -0.0289928 10.2574C-0.0466412 10.323 -0.05 10.3976 -0.05 10.508C-0.05 10.6184 -0.0466412 10.6931 -0.0289928 10.7586C-0.0109571 10.8257 0.0210267 10.8798 0.0704808 10.9512C0.129216 11.036 0.189322 11.0931 0.417514 11.2218C0.64462 11.3499 1.04521 11.5528 1.79066 11.9273C2.22779 12.1469 2.62512 12.3486 2.91311 12.4966C3.05713 12.5707 3.17367 12.6312 3.25414 12.6738C3.27234 12.6835 3.28864 12.6922 3.30296 12.6999C3.28864 12.7076 3.27234 12.7163 3.25414 12.726C3.17367 12.7686 3.05713 12.8291 2.91311 12.9032C2.62512 13.0512 2.22779 13.2529 1.79066 13.4725C1.04521 13.847 0.64462 14.0499 0.417514 14.178C0.189322 14.3067 0.129216 14.3638 0.0704815 14.4486C0.0210267 14.52 -0.0109571 14.5741 -0.0289928 14.6411C-0.0466412 14.7067 -0.05 14.7814 -0.05 14.8918C-0.05 15.0022 -0.0466412 15.0768 -0.0289928 15.1424C-0.0109572 15.2095 0.0210266 15.2636 0.0704807 15.335L0.0704832 15.335M0.0704807 5.68102L0.0704832 15.335M0.0704832 15.335C0.102011 15.3805 0.137477 15.4192 0.239722 15.4856C0.340211 15.5509 0.508537 15.6452 0.807817 15.8019C1.4071 16.1158 2.5384 16.6834 4.71995 17.7762C6.96894 18.9029 8.09962 19.4692 8.69676 19.754C8.99489 19.8963 9.16211 19.9693 9.2698 20.0068C9.38079 20.0455 9.431 20.0471 9.49284 20.0477L9.7246 20.05L9.73665 20.0501L9.74743 20.0447L14.2644 17.7891C14.6546 17.5943 15.0128 17.4157 15.3416 17.2517C17.1771 16.3364 18.0973 15.8774 18.5569 15.6029C18.8256 15.4425 18.9486 15.3387 18.9998 15.2346C19.0264 15.1807 19.0322 15.1297 19.0328 15.0785C19.0331 15.0588 19.0325 15.0381 19.0319 15.0173C19.0318 15.0118 19.0317 15.0063 19.0315 15.0008C19.0309 14.974 19.0305 14.946 19.0318 14.9154C19.0376 14.7751 19.04 14.6906 19.0249 14.6228C19.009 14.5515 18.9745 14.501 18.9205 14.4269L18.9205 14.4269C18.8615 14.3458 18.7927 14.2862 18.5619 14.1572C18.3314 14.0284 17.9324 13.8269 17.207 13.4642C16.7722 13.2469 16.3771 13.0473 16.0907 12.9007C15.9474 12.8274 15.8315 12.7675 15.7515 12.7253C15.7337 12.7159 15.7178 12.7074 15.7038 12.6999M0.0704832 15.335L15.7038 12.6999M15.7038 12.6999C15.7178 12.6924 15.7336 12.684 15.7513 12.6746C15.8312 12.6325 15.9469 12.5726 16.0899 12.4995C16.3758 12.3532 16.7703 12.1538 17.2044 11.9369C17.2632 11.9074 17.3201 11.879 17.3752 11.8515C17.7503 11.664 18.0387 11.52 18.2602 11.404C18.5136 11.2713 18.6825 11.1739 18.7948 11.0889C18.9084 11.0029 18.9683 10.9264 18.9984 10.8348C19.0234 10.7589 19.0265 10.6746 19.0301 10.5763C19.0306 10.5617 19.0311 10.5468 19.0318 10.5316C19.0376 10.3913 19.04 10.3068 19.0249 10.2391C19.009 10.1678 18.9745 10.1172 18.9205 10.0431L18.9205 10.0431C18.8615 9.96205 18.7927 9.90238 18.5619 9.77341C18.3314 9.6446 17.9324 9.44314 17.207 9.08047C16.7722 8.86313 16.3771 8.66349 16.0907 8.51693C15.9474 8.44364 15.8315 8.3837 15.7515 8.34149C15.7337 8.33212 15.7178 8.32365 15.7038 8.31612C15.7178 8.30862 15.7336 8.30019 15.7513 8.29086C15.8312 8.24871 15.9469 8.18887 16.0899 8.11569C16.3758 7.96938 16.7703 7.77006 17.2044 7.55308C17.2632 7.52365 17.3202 7.49521 17.3752 7.4677C17.7504 7.28026 18.0387 7.13619 18.2602 7.02022C18.5136 6.88755 18.6825 6.79013 18.7948 6.70509C18.9084 6.61911 18.9683 6.54267 18.9984 6.45103C19.0234 6.3751 19.0265 6.29086 19.0301 6.1925C19.0306 6.17792 19.0311 6.16303 19.0318 6.14781C19.0335 6.10591 19.0375 6.07225 19.0413 6.03936C19.0437 6.0189 19.0461 5.99873 19.0479 5.97707C19.0522 5.92418 19.0516 5.87101 19.0291 5.8147C19.0069 5.75887 18.9654 5.70516 18.8978 5.64582C18.8303 5.58661 18.7343 5.51964 18.5995 5.43785C18.1471 5.16328 17.2328 4.70732 15.4098 3.79813C15.0665 3.62692 14.691 3.43964 14.2803 3.23447C14.1747 3.18174 14.0715 3.13019 13.9706 3.0798C11.7795 1.98523 10.682 1.43702 10.0974 1.17466C9.79268 1.03791 9.62227 0.976431 9.50697 0.957173C9.4478 0.947289 9.40206 0.948285 9.3597 0.956106C9.32601 0.962328 9.29475 0.972983 9.26418 0.983402C9.258 0.985509 9.25185 0.987605 9.24571 0.989654L15.7038 12.6999ZM2.73786 6.22632C2.65307 6.18291 2.5863 6.14847 2.53952 6.12396C2.5905 6.09707 2.66506 6.0585 2.75998 6.00985C2.95136 5.91175 3.22492 5.77299 3.55348 5.60715C4.21058 5.27548 5.08734 4.83565 5.96593 4.39655C6.84452 3.95744 7.72487 3.51909 8.38914 3.19037C8.72129 3.026 8.99934 2.88907 9.19611 2.79318C9.29453 2.74522 9.37247 2.70759 9.42663 2.68194C9.45376 2.6691 9.47467 2.65938 9.48912 2.6529L9.49438 2.65061C9.49518 2.65096 9.49602 2.65133 9.49689 2.65171C9.50994 2.65741 9.52896 2.66609 9.55388 2.67772C9.60361 2.70092 9.67562 2.7353 9.76759 2.77972C9.95146 2.86852 10.2145 2.99713 10.5372 3.156C11.1826 3.47371 12.0665 3.91226 13.033 4.39495C13.9996 4.87763 14.8783 5.31852 15.5153 5.64004C15.8338 5.8008 16.0918 5.93168 16.2702 6.023C16.3539 6.06586 16.42 6.09995 16.4664 6.1243C16.4197 6.14878 16.3531 6.18311 16.2687 6.22632C16.0894 6.3181 15.83 6.44964 15.5098 6.61123C14.8695 6.93439 13.9861 7.37757 13.0145 7.86273L9.50329 9.61594L5.99212 7.86273C5.02044 7.37757 4.13713 6.93439 3.49676 6.61123C3.17656 6.44964 2.91717 6.3181 2.73786 6.22632ZM7.18428 10.2439C8.18996 10.7473 8.7061 11.0051 8.99882 11.1371C9.1451 11.2031 9.23808 11.2389 9.30977 11.258C9.38326 11.2777 9.43332 11.2795 9.49144 11.2801C9.54961 11.2807 9.59871 11.2808 9.67109 11.2628C9.74157 11.2452 9.83299 11.2108 9.97914 11.1453C10.2717 11.0142 10.7947 10.7536 11.8298 10.2375L13.8926 9.20889L15.2092 9.86554C15.5772 10.0491 15.9118 10.2182 16.1542 10.3426C16.2755 10.4048 16.3735 10.4557 16.4412 10.4918C16.4511 10.497 16.4603 10.502 16.4688 10.5066C16.422 10.5311 16.3546 10.5659 16.2687 10.6099C16.0894 10.7017 15.83 10.8333 15.5098 10.9949C14.8695 11.3181 13.9861 11.7613 13.0145 12.2465L9.50329 13.9997L5.99212 12.2465C5.02044 11.7613 4.13713 11.3182 3.49676 10.995C3.17657 10.8334 2.91717 10.7018 2.73787 10.61C2.65144 10.5658 2.58375 10.5308 2.53685 10.5062C2.54754 10.5004 2.55932 10.4941 2.57216 10.4872C2.6433 10.4492 2.74523 10.3961 2.86801 10.333C3.11349 10.2069 3.44152 10.0412 3.77143 9.87613C4.10134 9.71107 4.43298 9.54679 4.68569 9.42365C4.81207 9.36206 4.91853 9.31085 4.9951 9.27499C5.03343 9.25704 5.06396 9.24308 5.08564 9.23364C5.09348 9.23022 5.09991 9.2275 5.105 9.22544C5.11255 9.22855 5.12288 9.23301 5.13606 9.2389C5.16608 9.2523 5.20915 9.27227 5.26401 9.29822C5.37365 9.35007 5.52936 9.42527 5.71974 9.51827C6.10046 9.70423 6.61928 9.96107 7.18428 10.2439ZM5.11555 9.22145C5.11651 9.22114 5.11639 9.22123 5.11549 9.22147L5.11555 9.22145ZM7.18428 14.6277C8.18996 15.1311 8.7061 15.3889 8.99882 15.5209C9.1451 15.5869 9.23808 15.6227 9.30977 15.6418C9.38326 15.6614 9.43332 15.6633 9.49144 15.6639C9.54961 15.6645 9.59871 15.6646 9.67109 15.6466C9.74157 15.629 9.83299 15.5945 9.97914 15.5291C10.2717 15.398 10.7947 15.1374 11.8298 14.6212L13.8926 13.5927L15.2092 14.2493C15.5772 14.4329 15.9118 14.6019 16.1542 14.7263C16.2755 14.7886 16.3735 14.8395 16.4412 14.8755C16.4511 14.8808 16.4603 14.8857 16.4688 14.8903C16.422 14.9149 16.3546 14.9497 16.2687 14.9937C16.0894 15.0855 15.83 15.2171 15.5098 15.3787C14.8695 15.7019 13.9861 16.1451 13.0145 16.6303L9.50329 18.3835L5.99212 16.6303C5.02044 16.1451 4.13713 15.7019 3.49676 15.3788C3.17657 15.2172 2.91717 15.0856 2.73787 14.9938C2.65144 14.9495 2.58375 14.9146 2.53685 14.89C2.54754 14.8842 2.55932 14.8778 2.57216 14.871C2.6433 14.8329 2.74523 14.7799 2.86801 14.7168C3.11349 14.5907 3.44152 14.425 3.77143 14.2599C4.10134 14.0948 4.43298 13.9306 4.68569 13.8074C4.81207 13.7458 4.91853 13.6946 4.9951 13.6588C5.03343 13.6408 5.06396 13.6269 5.08564 13.6174C5.09348 13.614 5.09991 13.6113 5.105 13.6092C5.11255 13.6123 5.12288 13.6168 5.13606 13.6227C5.16608 13.6361 5.20915 13.656 5.26401 13.682C5.37365 13.7338 5.52936 13.809 5.71974 13.902C6.10046 14.088 6.61928 14.3449 7.18428 14.6277ZM5.11555 13.6052C5.11651 13.6049 5.11639 13.605 5.11549 13.6052L5.11555 13.6052Z" fill="#D3D7D6" stroke="#D3D7D6" stroke-width="0.1"/>
</svg>
