<svg width="14" height="14" viewBox="0 0 14 14" fill="none" xmlns="http://www.w3.org/2000/svg">
<path d="M6.30136 8.66252V8.56252V8.52122V8.52019H6.30137C6.30595 8.07704 6.35171 7.71664 6.44252 7.44341C6.53253 7.17259 6.66208 6.94842 6.83364 6.77483C6.99881 6.6077 7.19585 6.45486 7.42387 6.31592C7.55019 6.23791 7.66343 6.14601 7.76383 6.04015C7.86183 5.93457 7.93919 5.81304 7.99593 5.67483L7.99642 5.67364L7.99643 5.67364C8.05405 5.53827 8.08367 5.3866 8.08367 5.21721C8.08367 5.00834 8.03542 4.83243 7.94266 4.68551C7.84795 4.53552 7.72197 4.42044 7.56323 4.33909C7.40394 4.25745 7.2259 4.21587 7.02721 4.21587C6.85574 4.21587 6.69064 4.25174 6.53103 4.32399C6.3765 4.39394 6.24626 4.50424 6.14011 4.65796C6.03757 4.80648 5.97424 5.00662 5.95692 5.26519L5.95067 5.35851H5.85714H5H4.89524L4.90011 5.25386C4.91893 4.84917 5.02283 4.49731 5.21561 4.20228L5.21592 4.2018C5.40942 3.90932 5.66451 3.68515 5.97976 3.53049L5.98003 3.53036C6.29652 3.37626 6.64616 3.3 7.02721 3.3C7.43987 3.3 7.80387 3.38311 8.11587 3.55311C8.42824 3.72206 8.67101 3.95505 8.84164 4.2516C9.01463 4.54831 9.1 4.88488 9.1 5.25851C9.1 5.52092 9.05993 5.76128 8.97808 5.97827C8.89903 6.19382 8.78387 6.38688 8.6328 6.5568C8.48521 6.72534 8.30754 6.87368 8.1007 7.00215M6.30136 8.66252L8.04762 6.9174M6.30136 8.66252H6.40136H7.21769H7.31769V8.56252V8.52204M6.30136 8.66252L7.11769 8.56252H7.21769V8.52122M8.1007 7.00215C8.10059 7.00222 8.10048 7.00229 8.10037 7.00236L8.04762 6.9174M8.1007 7.00215C8.10082 7.00207 8.10094 7.002 8.10107 7.00192L8.04762 6.9174M8.1007 7.00215C7.9075 7.12437 7.75602 7.2512 7.6439 7.38178L7.64336 7.3824C7.53364 7.50808 7.453 7.65877 7.40227 7.83627C7.3511 8.01534 7.32218 8.24318 7.31769 8.52204M8.04762 6.9174C7.84807 7.04359 7.68821 7.17667 7.56803 7.31663C7.44785 7.4543 7.36054 7.61836 7.30612 7.8088C7.2517 7.99924 7.22222 8.23671 7.21769 8.52122M7.31769 8.52204V8.52122H7.21769M7.31769 8.52204C7.31768 8.5223 7.31768 8.52256 7.31767 8.52282L7.21769 8.52122M5 5.25851C5.00157 5.22475 5.00375 5.19142 5.00654 5.15851H5V5.25851ZM5 5.25851L5.09989 5.26315C5.09996 5.2616 5.10004 5.26006 5.10011 5.25851H5ZM4.26642 1.5407L4.26642 1.5407C1.87484 2.73976 0.533469 5.40512 0.987773 8.05365L0.987774 8.05365C1.19214 9.24489 1.75461 10.3353 2.62749 11.2355C3.17137 11.7964 3.66332 12.1551 4.34555 12.4878L4.38939 12.398L4.34556 12.4878C5.78329 13.189 7.40524 13.2908 8.94881 12.778C11.8477 11.8149 13.596 8.77642 12.975 5.78132C12.7393 4.64445 12.1835 3.5987 11.3624 2.74579C10.0952 1.42956 8.30376 0.762131 6.47367 0.923818L6.48247 1.02343L6.47366 0.923818C5.75103 0.987682 4.88988 1.22814 4.26642 1.5407ZM7.42494 2.04464L7.42495 2.04464C8.10182 2.10455 8.61514 2.24973 9.22378 2.55342C9.7423 2.81216 10.0799 3.05591 10.4969 3.47299C12.0151 4.99144 12.4025 7.20097 11.4903 9.13464C10.834 10.526 9.56038 11.5352 8.04857 11.8612C6.43016 12.2103 4.77577 11.7454 3.58234 10.6065C1.94802 9.04678 1.55809 6.68391 2.60411 4.67661C2.83846 4.2269 3.09469 3.88411 3.50658 3.47156C4.06526 2.91199 4.66289 2.53906 5.38859 2.29639L5.35688 2.20156L5.3886 2.29639C6.08847 2.06234 6.73113 1.9832 7.42494 2.04464ZM6.40136 8.52122C6.40156 8.50148 6.40185 8.48191 6.40222 8.46252H6.40136V8.52122ZM7.19475 10.6029L7.19536 10.6025C7.30208 10.5367 7.38735 10.4492 7.45006 10.3411C7.51606 10.2313 7.54898 10.1104 7.54898 9.9805C7.54898 9.78418 7.47837 9.61329 7.33983 9.47311C7.20126 9.3329 7.03182 9.26099 6.83673 9.26099C6.64165 9.26099 6.4722 9.3329 6.33364 9.47311C6.1951 9.61329 6.12449 9.78418 6.12449 9.9805C6.12449 10.1768 6.1951 10.3477 6.33364 10.4879C6.4722 10.6281 6.64165 10.7 6.83673 10.7C6.96711 10.7 7.08733 10.6681 7.19475 10.6029Z" fill="#58595B" stroke="#58595B" stroke-width="0.2"/>
</svg>
