<svg width="18" height="18" viewBox="0 0 18 18" fill="none" xmlns="http://www.w3.org/2000/svg">
<path d="M15.1545 0C15.6466 0 16.046 0.4032 16.046 0.9V4.2813L14.2631 6.0813V1.8H1.78288V16.2H14.2631V13.7178L16.046 11.9178V17.1C16.046 17.5968 15.6466 18 15.1545 18H0.891442C0.399366 18 0 17.5968 0 17.1V0.9C0 0.4032 0.399366 0 0.891442 0H15.1545ZM16.7395 6.1272L18 7.3998L11.0664 14.4L9.80408 14.3982L9.80586 13.1274L16.7395 6.1272ZM8.91442 9V10.8H4.45721V9H8.91442ZM11.5887 5.4V7.2H4.45721V5.4H11.5887Z" fill="#D3D7D6"/>
</svg>
