<svg width="19" height="19" viewBox="0 0 19 19" fill="none" xmlns="http://www.w3.org/2000/svg">
<path d="M15.9964 0C16.5158 0 16.9374 0.4256 16.9374 0.95V4.51915L8.46964 13.0691L8.464 17.0953L12.4593 17.1009L16.9374 12.5799V18.05C16.9374 18.5744 16.5158 19 15.9964 19H0.940967C0.421553 19 0 18.5744 0 18.05V0.95C0 0.4256 0.421553 0 0.940967 0H15.9964ZM17.6695 6.4676L19 7.8109L11.6812 15.2L10.3488 15.1981L10.3506 13.8567L17.6695 6.4676ZM8.4687 9.5H3.76387V11.4H8.4687V9.5ZM11.2916 5.7H3.76387V7.6H11.2916V5.7Z" fill="#048D6A"/>
</svg>
