<svg width="20" height="19" viewBox="0 0 20 19" fill="none" xmlns="http://www.w3.org/2000/svg">
<mask id="path-1-outside-1_343_16891" maskUnits="userSpaceOnUse" x="0" y="0" width="20" height="19" fill="black">
<rect fill="white" width="20" height="19"/>
<path fill-rule="evenodd" clip-rule="evenodd" d="M5.60703 1.02074C4.35983 1.16188 3.29343 1.69122 2.42239 2.60152C1.72777 3.32746 1.30354 4.13961 1.08288 5.166C0.972251 5.68064 0.972392 6.67315 1.0832 7.18867C1.29082 8.15465 1.68776 8.94373 2.33793 9.68306L2.60983 9.99223L2.48268 10.1412C1.97022 10.7418 1.95268 11.6853 2.44123 12.3721C2.69936 12.7349 3.07548 12.9735 3.5554 13.0787C3.6345 13.0961 3.64422 13.117 3.65106 13.2851C3.68754 14.1809 4.36047 14.8977 5.28402 15.0246L5.44533 15.0468L5.48605 15.2663C5.60027 15.8824 6.10445 16.4423 6.71996 16.6366C6.9346 16.7044 7.31431 16.7289 7.63337 16.6954C7.70078 16.6884 7.72709 16.7195 7.7956 16.8873C8.11438 17.6682 8.9926 18.1371 9.81257 17.9642C10.2735 17.867 10.426 17.7693 10.9731 17.2206C11.534 16.6581 11.6635 16.4511 11.7403 15.9938L11.7841 15.7331L11.9876 15.7075C12.2951 15.6688 12.6754 15.4689 12.9433 15.2055C13.2072 14.9459 13.4002 14.5796 13.4612 14.2226L13.4998 13.9966L13.7412 13.9551C14.1941 13.8772 14.6436 13.5855 14.9111 13.196C15.069 12.966 15.2134 12.5842 15.2134 12.3967C15.2134 12.2503 15.2513 12.2179 15.4221 12.2179C15.5488 12.2179 15.8913 12.0989 16.0735 11.9916C16.2939 11.8619 16.5317 11.6372 16.6702 11.428C16.8261 11.1924 16.9744 10.758 16.9744 10.5369C16.9744 10.3703 16.9755 10.3688 17.4422 9.88953C18.2778 9.03159 18.7139 8.21962 18.9342 7.11151C19.0219 6.67043 19.0219 5.68269 18.9342 5.24161C18.7166 4.14725 18.2657 3.29846 17.4874 2.51772C16.8562 1.88458 16.2664 1.51776 15.448 1.24943C14.3954 0.904299 13.2012 0.91783 12.1442 1.28692C11.4495 1.52945 10.8157 1.91288 10.3 2.40251L10.0008 2.68666L9.70761 2.40834C8.80164 1.5481 7.61988 1.05607 6.33782 1.00531C6.09568 0.995731 5.76682 1.00266 5.60703 1.02074ZM14.5618 2.20689C16.0332 2.4868 17.3055 3.66256 17.7311 5.13565C17.9799 5.99705 17.9028 6.96105 17.5182 7.79595C17.3562 8.14779 16.9984 8.68233 16.7341 8.96757L16.5213 9.19721L14.3617 7.03541L12.202 4.87362L11.9035 5.15975C11.3225 5.71654 10.7487 5.84478 10.1178 5.55886C10.0088 5.50944 9.82462 5.36911 9.65989 5.20988L9.3844 4.94353L10.124 4.19777C11.1967 3.11612 11.5645 2.81819 12.1977 2.51779C12.9638 2.15436 13.7454 2.05158 14.5618 2.20689ZM6.72524 2.2011C7.31005 2.29136 7.76129 2.4508 8.2398 2.73633C8.51734 2.90192 9.05963 3.34354 9.13451 3.46497C9.16705 3.51768 9.0685 3.63119 8.45869 4.24345L7.74477 4.96021L8.35328 5.56225C9.0492 6.25082 9.24866 6.41641 9.58931 6.5885C10.2855 6.9402 11.2036 6.93985 11.9077 6.58758L12.1426 6.47001L13.9405 8.27523C14.93 9.26869 15.755 10.1252 15.7753 10.1799C15.962 10.6839 15.5133 11.1879 14.9989 11.0521C14.8604 11.0155 14.6987 10.8661 13.5046 9.67137C12.7681 8.93451 12.1503 8.33165 12.1316 8.33165C12.0863 8.33165 11.3391 9.08003 11.3391 9.12535C11.3391 9.14479 11.9401 9.76506 12.6747 10.5038C13.8689 11.7047 14.0147 11.8635 14.0514 12.0036C14.1253 12.2849 14.0173 12.5623 13.7738 12.7172C13.6017 12.8267 13.3704 12.8519 13.1817 12.7815C13.1272 12.7612 12.4763 12.1372 11.7354 11.395L10.3882 10.0455L9.97452 10.4604L9.56085 10.8754L10.9062 12.2267C11.6462 12.97 12.2682 13.6228 12.2885 13.6775C12.4316 14.0637 12.1767 14.5059 11.7742 14.5697C11.573 14.6015 11.4175 14.5417 11.1561 14.3318C10.7173 13.9795 10.3401 13.8571 9.79824 13.8912C9.55374 13.9066 9.47245 13.901 9.47241 13.8686C9.47234 13.7651 9.25732 13.3856 9.099 13.2096C8.7878 12.8634 8.28062 12.6065 7.90859 12.6065H7.76094L7.72294 12.3839C7.62795 11.8276 7.24003 11.3326 6.69087 11.0668C6.59525 11.0205 6.45158 10.9722 6.37156 10.9593C6.29157 10.9465 6.22149 10.9184 6.21581 10.8968C6.21014 10.8753 6.18796 10.7226 6.16647 10.5574C6.01453 9.38852 4.71943 8.64406 3.67349 9.12437L3.48862 9.2093L3.24457 8.95161C1.93881 7.5727 1.77965 5.3914 2.87265 3.85497C3.75464 2.61516 5.24968 1.97333 6.72524 2.2011ZM4.60384 10.1881C4.7779 10.2611 4.88941 10.3687 4.96809 10.5397C5.11299 10.8547 5.03596 11.064 4.61937 11.4874C4.26558 11.8469 4.12023 11.9352 3.88203 11.9352C3.40423 11.9352 3.09665 11.4388 3.30586 11.0052C3.40511 10.7995 4.0003 10.2198 4.15936 10.1739C4.33493 10.1232 4.45838 10.1272 4.60384 10.1881ZM6.22511 12.1264C6.33468 12.1838 6.48652 12.3402 6.54685 12.4578C6.60764 12.5763 6.59997 12.8632 6.53213 13.0065C6.43922 13.2029 5.81148 13.794 5.64725 13.8398C5.45607 13.893 5.35622 13.8869 5.19171 13.8119C4.89469 13.6766 4.7492 13.3758 4.8258 13.0555C4.86148 12.9063 4.91516 12.8281 5.15406 12.5773C5.53183 12.1809 5.69585 12.0766 5.94141 12.0766C6.04514 12.0766 6.17278 12.099 6.22511 12.1264ZM8.05679 13.8348C8.27939 13.937 8.44094 14.2648 8.39368 14.5183C8.35884 14.7051 8.26646 14.8312 7.91394 15.1733C7.53863 15.5375 7.37704 15.6098 7.10225 15.5365C6.79002 15.4532 6.61958 15.23 6.61958 14.9046C6.61958 14.6643 6.68337 14.5505 7.00285 14.2205C7.45903 13.7494 7.68814 13.6656 8.05679 13.8348ZM10.3436 15.1726C10.4166 15.231 10.504 15.3334 10.5378 15.4C10.6066 15.5353 10.6187 15.8016 10.5628 15.9491C10.5087 16.0918 9.9002 16.7031 9.7366 16.779C9.40479 16.9331 9.0292 16.7861 8.86982 16.4397C8.72831 16.1321 8.80016 15.9318 9.20157 15.5145C9.58195 15.119 9.72871 15.0352 10.009 15.0533C10.169 15.0636 10.2386 15.0884 10.3436 15.1726Z"/>
</mask>
<path fill-rule="evenodd" clip-rule="evenodd" d="M5.60703 1.02074C4.35983 1.16188 3.29343 1.69122 2.42239 2.60152C1.72777 3.32746 1.30354 4.13961 1.08288 5.166C0.972251 5.68064 0.972392 6.67315 1.0832 7.18867C1.29082 8.15465 1.68776 8.94373 2.33793 9.68306L2.60983 9.99223L2.48268 10.1412C1.97022 10.7418 1.95268 11.6853 2.44123 12.3721C2.69936 12.7349 3.07548 12.9735 3.5554 13.0787C3.6345 13.0961 3.64422 13.117 3.65106 13.2851C3.68754 14.1809 4.36047 14.8977 5.28402 15.0246L5.44533 15.0468L5.48605 15.2663C5.60027 15.8824 6.10445 16.4423 6.71996 16.6366C6.9346 16.7044 7.31431 16.7289 7.63337 16.6954C7.70078 16.6884 7.72709 16.7195 7.7956 16.8873C8.11438 17.6682 8.9926 18.1371 9.81257 17.9642C10.2735 17.867 10.426 17.7693 10.9731 17.2206C11.534 16.6581 11.6635 16.4511 11.7403 15.9938L11.7841 15.7331L11.9876 15.7075C12.2951 15.6688 12.6754 15.4689 12.9433 15.2055C13.2072 14.9459 13.4002 14.5796 13.4612 14.2226L13.4998 13.9966L13.7412 13.9551C14.1941 13.8772 14.6436 13.5855 14.9111 13.196C15.069 12.966 15.2134 12.5842 15.2134 12.3967C15.2134 12.2503 15.2513 12.2179 15.4221 12.2179C15.5488 12.2179 15.8913 12.0989 16.0735 11.9916C16.2939 11.8619 16.5317 11.6372 16.6702 11.428C16.8261 11.1924 16.9744 10.758 16.9744 10.5369C16.9744 10.3703 16.9755 10.3688 17.4422 9.88953C18.2778 9.03159 18.7139 8.21962 18.9342 7.11151C19.0219 6.67043 19.0219 5.68269 18.9342 5.24161C18.7166 4.14725 18.2657 3.29846 17.4874 2.51772C16.8562 1.88458 16.2664 1.51776 15.448 1.24943C14.3954 0.904299 13.2012 0.91783 12.1442 1.28692C11.4495 1.52945 10.8157 1.91288 10.3 2.40251L10.0008 2.68666L9.70761 2.40834C8.80164 1.5481 7.61988 1.05607 6.33782 1.00531C6.09568 0.995731 5.76682 1.00266 5.60703 1.02074ZM14.5618 2.20689C16.0332 2.4868 17.3055 3.66256 17.7311 5.13565C17.9799 5.99705 17.9028 6.96105 17.5182 7.79595C17.3562 8.14779 16.9984 8.68233 16.7341 8.96757L16.5213 9.19721L14.3617 7.03541L12.202 4.87362L11.9035 5.15975C11.3225 5.71654 10.7487 5.84478 10.1178 5.55886C10.0088 5.50944 9.82462 5.36911 9.65989 5.20988L9.3844 4.94353L10.124 4.19777C11.1967 3.11612 11.5645 2.81819 12.1977 2.51779C12.9638 2.15436 13.7454 2.05158 14.5618 2.20689ZM6.72524 2.2011C7.31005 2.29136 7.76129 2.4508 8.2398 2.73633C8.51734 2.90192 9.05963 3.34354 9.13451 3.46497C9.16705 3.51768 9.0685 3.63119 8.45869 4.24345L7.74477 4.96021L8.35328 5.56225C9.0492 6.25082 9.24866 6.41641 9.58931 6.5885C10.2855 6.9402 11.2036 6.93985 11.9077 6.58758L12.1426 6.47001L13.9405 8.27523C14.93 9.26869 15.755 10.1252 15.7753 10.1799C15.962 10.6839 15.5133 11.1879 14.9989 11.0521C14.8604 11.0155 14.6987 10.8661 13.5046 9.67137C12.7681 8.93451 12.1503 8.33165 12.1316 8.33165C12.0863 8.33165 11.3391 9.08003 11.3391 9.12535C11.3391 9.14479 11.9401 9.76506 12.6747 10.5038C13.8689 11.7047 14.0147 11.8635 14.0514 12.0036C14.1253 12.2849 14.0173 12.5623 13.7738 12.7172C13.6017 12.8267 13.3704 12.8519 13.1817 12.7815C13.1272 12.7612 12.4763 12.1372 11.7354 11.395L10.3882 10.0455L9.97452 10.4604L9.56085 10.8754L10.9062 12.2267C11.6462 12.97 12.2682 13.6228 12.2885 13.6775C12.4316 14.0637 12.1767 14.5059 11.7742 14.5697C11.573 14.6015 11.4175 14.5417 11.1561 14.3318C10.7173 13.9795 10.3401 13.8571 9.79824 13.8912C9.55374 13.9066 9.47245 13.901 9.47241 13.8686C9.47234 13.7651 9.25732 13.3856 9.099 13.2096C8.7878 12.8634 8.28062 12.6065 7.90859 12.6065H7.76094L7.72294 12.3839C7.62795 11.8276 7.24003 11.3326 6.69087 11.0668C6.59525 11.0205 6.45158 10.9722 6.37156 10.9593C6.29157 10.9465 6.22149 10.9184 6.21581 10.8968C6.21014 10.8753 6.18796 10.7226 6.16647 10.5574C6.01453 9.38852 4.71943 8.64406 3.67349 9.12437L3.48862 9.2093L3.24457 8.95161C1.93881 7.5727 1.77965 5.3914 2.87265 3.85497C3.75464 2.61516 5.24968 1.97333 6.72524 2.2011ZM4.60384 10.1881C4.7779 10.2611 4.88941 10.3687 4.96809 10.5397C5.11299 10.8547 5.03596 11.064 4.61937 11.4874C4.26558 11.8469 4.12023 11.9352 3.88203 11.9352C3.40423 11.9352 3.09665 11.4388 3.30586 11.0052C3.40511 10.7995 4.0003 10.2198 4.15936 10.1739C4.33493 10.1232 4.45838 10.1272 4.60384 10.1881ZM6.22511 12.1264C6.33468 12.1838 6.48652 12.3402 6.54685 12.4578C6.60764 12.5763 6.59997 12.8632 6.53213 13.0065C6.43922 13.2029 5.81148 13.794 5.64725 13.8398C5.45607 13.893 5.35622 13.8869 5.19171 13.8119C4.89469 13.6766 4.7492 13.3758 4.8258 13.0555C4.86148 12.9063 4.91516 12.8281 5.15406 12.5773C5.53183 12.1809 5.69585 12.0766 5.94141 12.0766C6.04514 12.0766 6.17278 12.099 6.22511 12.1264ZM8.05679 13.8348C8.27939 13.937 8.44094 14.2648 8.39368 14.5183C8.35884 14.7051 8.26646 14.8312 7.91394 15.1733C7.53863 15.5375 7.37704 15.6098 7.10225 15.5365C6.79002 15.4532 6.61958 15.23 6.61958 14.9046C6.61958 14.6643 6.68337 14.5505 7.00285 14.2205C7.45903 13.7494 7.68814 13.6656 8.05679 13.8348ZM10.3436 15.1726C10.4166 15.231 10.504 15.3334 10.5378 15.4C10.6066 15.5353 10.6187 15.8016 10.5628 15.9491C10.5087 16.0918 9.9002 16.7031 9.7366 16.779C9.40479 16.9331 9.0292 16.7861 8.86982 16.4397C8.72831 16.1321 8.80016 15.9318 9.20157 15.5145C9.58195 15.119 9.72871 15.0352 10.009 15.0533C10.169 15.0636 10.2386 15.0884 10.3436 15.1726Z" fill="#048D6A"/>
<path fill-rule="evenodd" clip-rule="evenodd" d="M5.60703 1.02074C4.35983 1.16188 3.29343 1.69122 2.42239 2.60152C1.72777 3.32746 1.30354 4.13961 1.08288 5.166C0.972251 5.68064 0.972392 6.67315 1.0832 7.18867C1.29082 8.15465 1.68776 8.94373 2.33793 9.68306L2.60983 9.99223L2.48268 10.1412C1.97022 10.7418 1.95268 11.6853 2.44123 12.3721C2.69936 12.7349 3.07548 12.9735 3.5554 13.0787C3.6345 13.0961 3.64422 13.117 3.65106 13.2851C3.68754 14.1809 4.36047 14.8977 5.28402 15.0246L5.44533 15.0468L5.48605 15.2663C5.60027 15.8824 6.10445 16.4423 6.71996 16.6366C6.9346 16.7044 7.31431 16.7289 7.63337 16.6954C7.70078 16.6884 7.72709 16.7195 7.7956 16.8873C8.11438 17.6682 8.9926 18.1371 9.81257 17.9642C10.2735 17.867 10.426 17.7693 10.9731 17.2206C11.534 16.6581 11.6635 16.4511 11.7403 15.9938L11.7841 15.7331L11.9876 15.7075C12.2951 15.6688 12.6754 15.4689 12.9433 15.2055C13.2072 14.9459 13.4002 14.5796 13.4612 14.2226L13.4998 13.9966L13.7412 13.9551C14.1941 13.8772 14.6436 13.5855 14.9111 13.196C15.069 12.966 15.2134 12.5842 15.2134 12.3967C15.2134 12.2503 15.2513 12.2179 15.4221 12.2179C15.5488 12.2179 15.8913 12.0989 16.0735 11.9916C16.2939 11.8619 16.5317 11.6372 16.6702 11.428C16.8261 11.1924 16.9744 10.758 16.9744 10.5369C16.9744 10.3703 16.9755 10.3688 17.4422 9.88953C18.2778 9.03159 18.7139 8.21962 18.9342 7.11151C19.0219 6.67043 19.0219 5.68269 18.9342 5.24161C18.7166 4.14725 18.2657 3.29846 17.4874 2.51772C16.8562 1.88458 16.2664 1.51776 15.448 1.24943C14.3954 0.904299 13.2012 0.91783 12.1442 1.28692C11.4495 1.52945 10.8157 1.91288 10.3 2.40251L10.0008 2.68666L9.70761 2.40834C8.80164 1.5481 7.61988 1.05607 6.33782 1.00531C6.09568 0.995731 5.76682 1.00266 5.60703 1.02074ZM14.5618 2.20689C16.0332 2.4868 17.3055 3.66256 17.7311 5.13565C17.9799 5.99705 17.9028 6.96105 17.5182 7.79595C17.3562 8.14779 16.9984 8.68233 16.7341 8.96757L16.5213 9.19721L14.3617 7.03541L12.202 4.87362L11.9035 5.15975C11.3225 5.71654 10.7487 5.84478 10.1178 5.55886C10.0088 5.50944 9.82462 5.36911 9.65989 5.20988L9.3844 4.94353L10.124 4.19777C11.1967 3.11612 11.5645 2.81819 12.1977 2.51779C12.9638 2.15436 13.7454 2.05158 14.5618 2.20689ZM6.72524 2.2011C7.31005 2.29136 7.76129 2.4508 8.2398 2.73633C8.51734 2.90192 9.05963 3.34354 9.13451 3.46497C9.16705 3.51768 9.0685 3.63119 8.45869 4.24345L7.74477 4.96021L8.35328 5.56225C9.0492 6.25082 9.24866 6.41641 9.58931 6.5885C10.2855 6.9402 11.2036 6.93985 11.9077 6.58758L12.1426 6.47001L13.9405 8.27523C14.93 9.26869 15.755 10.1252 15.7753 10.1799C15.962 10.6839 15.5133 11.1879 14.9989 11.0521C14.8604 11.0155 14.6987 10.8661 13.5046 9.67137C12.7681 8.93451 12.1503 8.33165 12.1316 8.33165C12.0863 8.33165 11.3391 9.08003 11.3391 9.12535C11.3391 9.14479 11.9401 9.76506 12.6747 10.5038C13.8689 11.7047 14.0147 11.8635 14.0514 12.0036C14.1253 12.2849 14.0173 12.5623 13.7738 12.7172C13.6017 12.8267 13.3704 12.8519 13.1817 12.7815C13.1272 12.7612 12.4763 12.1372 11.7354 11.395L10.3882 10.0455L9.97452 10.4604L9.56085 10.8754L10.9062 12.2267C11.6462 12.97 12.2682 13.6228 12.2885 13.6775C12.4316 14.0637 12.1767 14.5059 11.7742 14.5697C11.573 14.6015 11.4175 14.5417 11.1561 14.3318C10.7173 13.9795 10.3401 13.8571 9.79824 13.8912C9.55374 13.9066 9.47245 13.901 9.47241 13.8686C9.47234 13.7651 9.25732 13.3856 9.099 13.2096C8.7878 12.8634 8.28062 12.6065 7.90859 12.6065H7.76094L7.72294 12.3839C7.62795 11.8276 7.24003 11.3326 6.69087 11.0668C6.59525 11.0205 6.45158 10.9722 6.37156 10.9593C6.29157 10.9465 6.22149 10.9184 6.21581 10.8968C6.21014 10.8753 6.18796 10.7226 6.16647 10.5574C6.01453 9.38852 4.71943 8.64406 3.67349 9.12437L3.48862 9.2093L3.24457 8.95161C1.93881 7.5727 1.77965 5.3914 2.87265 3.85497C3.75464 2.61516 5.24968 1.97333 6.72524 2.2011ZM4.60384 10.1881C4.7779 10.2611 4.88941 10.3687 4.96809 10.5397C5.11299 10.8547 5.03596 11.064 4.61937 11.4874C4.26558 11.8469 4.12023 11.9352 3.88203 11.9352C3.40423 11.9352 3.09665 11.4388 3.30586 11.0052C3.40511 10.7995 4.0003 10.2198 4.15936 10.1739C4.33493 10.1232 4.45838 10.1272 4.60384 10.1881ZM6.22511 12.1264C6.33468 12.1838 6.48652 12.3402 6.54685 12.4578C6.60764 12.5763 6.59997 12.8632 6.53213 13.0065C6.43922 13.2029 5.81148 13.794 5.64725 13.8398C5.45607 13.893 5.35622 13.8869 5.19171 13.8119C4.89469 13.6766 4.7492 13.3758 4.8258 13.0555C4.86148 12.9063 4.91516 12.8281 5.15406 12.5773C5.53183 12.1809 5.69585 12.0766 5.94141 12.0766C6.04514 12.0766 6.17278 12.099 6.22511 12.1264ZM8.05679 13.8348C8.27939 13.937 8.44094 14.2648 8.39368 14.5183C8.35884 14.7051 8.26646 14.8312 7.91394 15.1733C7.53863 15.5375 7.37704 15.6098 7.10225 15.5365C6.79002 15.4532 6.61958 15.23 6.61958 14.9046C6.61958 14.6643 6.68337 14.5505 7.00285 14.2205C7.45903 13.7494 7.68814 13.6656 8.05679 13.8348ZM10.3436 15.1726C10.4166 15.231 10.504 15.3334 10.5378 15.4C10.6066 15.5353 10.6187 15.8016 10.5628 15.9491C10.5087 16.0918 9.9002 16.7031 9.7366 16.779C9.40479 16.9331 9.0292 16.7861 8.86982 16.4397C8.72831 16.1321 8.80016 15.9318 9.20157 15.5145C9.58195 15.119 9.72871 15.0352 10.009 15.0533C10.169 15.0636 10.2386 15.0884 10.3436 15.1726Z" stroke="#048D6A" stroke-width="0.4" mask="url(#path-1-outside-1_343_16891)"/>
</svg>
