<svg width="18" height="17" viewBox="0 0 18 17" fill="none" xmlns="http://www.w3.org/2000/svg">
<path fill-rule="evenodd" clip-rule="evenodd" d="M4.60703 0.0207442C3.35983 0.161885 2.29343 0.691224 1.42239 1.60152C0.727767 2.32746 0.303535 3.13961 0.0828784 4.166C-0.0277493 4.68064 -0.0276084 5.67315 0.0831954 6.18867C0.290821 7.15465 0.687756 7.94373 1.33793 8.68306L1.60983 8.99223L1.48268 9.14125C0.970225 9.74181 0.952685 10.6853 1.44123 11.3721C1.69936 11.7349 2.07548 11.9735 2.5554 12.0787C2.6345 12.0961 2.64422 12.117 2.65106 12.2851C2.68754 13.1809 3.36047 13.8977 4.28402 14.0246L4.44533 14.0468L4.48605 14.2663C4.60027 14.8824 5.10445 15.4423 5.71996 15.6366C5.9346 15.7044 6.31431 15.7289 6.63337 15.6954C6.70078 15.6884 6.72709 15.7195 6.7956 15.8873C7.11438 16.6682 7.9926 17.1371 8.81257 16.9642C9.27354 16.867 9.42597 16.7693 9.97312 16.2206C10.534 15.6581 10.6635 15.4511 10.7403 14.9938L10.7841 14.7331L10.9876 14.7075C11.2951 14.6688 11.6754 14.4689 11.9433 14.2055C12.2072 13.9459 12.4002 13.5796 12.4612 13.2226L12.4998 12.9966L12.7412 12.9551C13.1941 12.8772 13.6436 12.5855 13.9111 12.196C14.069 11.966 14.2134 11.5842 14.2134 11.3967C14.2134 11.2503 14.2513 11.2179 14.4221 11.2179C14.5488 11.2179 14.8913 11.0989 15.0735 10.9916C15.2939 10.8619 15.5317 10.6372 15.6702 10.428C15.8261 10.1924 15.9744 9.75796 15.9744 9.5369C15.9744 9.37025 15.9755 9.3688 16.4422 8.88953C17.2778 8.03159 17.7139 7.21962 17.9342 6.11151C18.0219 5.67043 18.0219 4.68269 17.9342 4.24161C17.7166 3.14725 17.2657 2.29846 16.4874 1.51772C15.8562 0.884581 15.2664 0.517757 14.448 0.249431C13.3954 -0.0957011 12.2012 -0.08217 11.1442 0.286915C10.4495 0.529451 9.81569 0.91288 9.30002 1.40251L9.00076 1.68666L8.70761 1.40834C7.80164 0.548105 6.61988 0.0560736 5.33782 0.00530535C5.09568 -0.00426888 4.76682 0.00265563 4.60703 0.0207442ZM13.5618 1.20689C15.0332 1.4868 16.3055 2.66256 16.7311 4.13565C16.9799 4.99705 16.9028 5.96105 16.5182 6.79595C16.3562 7.14779 15.9984 7.68233 15.7341 7.96757L15.5213 8.19721L13.3617 6.03541L11.202 3.87362L10.9035 4.15975C10.3225 4.71654 9.74873 4.84478 9.11776 4.55886C9.00875 4.50944 8.82462 4.36911 8.65989 4.20988L8.3844 3.94353L9.12403 3.19777C10.1967 2.11612 10.5645 1.81819 11.1977 1.51779C11.9638 1.15436 12.7454 1.05158 13.5618 1.20689ZM5.72524 1.2011C6.31005 1.29136 6.76129 1.4508 7.2398 1.73633C7.51734 1.90192 8.05963 2.34354 8.13451 2.46497C8.16705 2.51768 8.0685 2.63119 7.45869 3.24345L6.74477 3.96021L7.35328 4.56225C8.0492 5.25082 8.24866 5.41641 8.58931 5.5885C9.28555 5.9402 10.2036 5.93985 10.9077 5.58758L11.1426 5.47001L12.9405 7.27523C13.93 8.26869 14.755 9.12517 14.7753 9.1799C14.962 9.68387 14.5133 10.1879 13.9989 10.0521C13.8604 10.0155 13.6987 9.8661 12.5046 8.67137C11.7681 7.93451 11.1503 7.33165 11.1316 7.33165C11.0863 7.33165 10.3391 8.08003 10.3391 8.12535C10.3391 8.14479 10.9401 8.76506 11.6747 9.5038C12.8689 10.7047 13.0147 10.8635 13.0514 11.0036C13.1253 11.2849 13.0173 11.5623 12.7738 11.7172C12.6017 11.8267 12.3704 11.8519 12.1817 11.7815C12.1272 11.7612 11.4763 11.1372 10.7354 10.395L9.38818 9.04547L8.97452 9.46041L8.56085 9.87536L9.90624 11.2267C10.6462 11.97 11.2682 12.6228 11.2885 12.6775C11.4316 13.0637 11.1767 13.5059 10.7742 13.5697C10.573 13.6015 10.4175 13.5417 10.1561 13.3318C9.71732 12.9795 9.34007 12.8571 8.79824 12.8912C8.55374 12.9066 8.47245 12.901 8.47241 12.8686C8.47234 12.7651 8.25732 12.3856 8.099 12.2096C7.7878 11.8634 7.28062 11.6065 6.90859 11.6065H6.76094L6.72294 11.3839C6.62795 10.8276 6.24003 10.3326 5.69087 10.0668C5.59525 10.0205 5.45158 9.97219 5.37156 9.95933C5.29157 9.94651 5.22149 9.91839 5.21581 9.89684C5.21014 9.87532 5.18796 9.72256 5.16647 9.55739C5.01453 8.38852 3.71943 7.64406 2.67349 8.12437L2.48862 8.2093L2.24457 7.95161C0.938808 6.5727 0.779646 4.3914 1.87265 2.85497C2.75464 1.61516 4.24968 0.973328 5.72524 1.2011ZM3.60384 9.18813C3.7779 9.26105 3.88941 9.3687 3.96809 9.53973C4.11299 9.85469 4.03596 10.064 3.61937 10.4874C3.26558 10.8469 3.12023 10.9352 2.88203 10.9352C2.40423 10.9352 2.09665 10.4388 2.30586 10.0052C2.40511 9.79954 3.0003 9.21982 3.15936 9.17389C3.33493 9.12319 3.45838 9.12715 3.60384 9.18813ZM5.22511 11.1264C5.33468 11.1838 5.48652 11.3402 5.54685 11.4578C5.60764 11.5763 5.59997 11.8632 5.53213 12.0065C5.43922 12.2029 4.81148 12.794 4.64725 12.8398C4.45607 12.893 4.35622 12.8869 4.19171 12.8119C3.89469 12.6766 3.7492 12.3758 3.8258 12.0555C3.86148 11.9063 3.91516 11.8281 4.15406 11.5773C4.53183 11.1809 4.69585 11.0766 4.94141 11.0766C5.04514 11.0766 5.17278 11.099 5.22511 11.1264ZM7.05679 12.8348C7.27939 12.937 7.44094 13.2648 7.39368 13.5183C7.35884 13.7051 7.26646 13.8312 6.91394 14.1733C6.53863 14.5375 6.37704 14.6098 6.10225 14.5365C5.79002 14.4532 5.61958 14.23 5.61958 13.9046C5.61958 13.6643 5.68337 13.5505 6.00285 13.2205C6.45903 12.7494 6.68814 12.6656 7.05679 12.8348ZM9.34363 14.1726C9.41657 14.231 9.50395 14.3334 9.5378 14.4C9.60658 14.5353 9.6187 14.8016 9.56277 14.9491C9.50867 15.0918 8.9002 15.7031 8.7366 15.779C8.40479 15.9331 8.0292 15.7861 7.86982 15.4397C7.72831 15.1321 7.80016 14.9318 8.20157 14.5145C8.58195 14.119 8.72871 14.0352 9.00903 14.0533C9.16904 14.0636 9.23856 14.0884 9.34363 14.1726Z" fill="#D3D7D6"/>
</svg>
