<svg width="19" height="20" viewBox="0 0 19 20" fill="none" xmlns="http://www.w3.org/2000/svg">
<path d="M14.25 4H19V6H17.1V19C17.1 19.2652 16.9999 19.5196 16.8218 19.7071C16.6436 19.8946 16.402 20 16.15 20H2.85C2.59804 20 2.35641 19.8946 2.17825 19.7071C2.00009 19.5196 1.9 19.2652 1.9 19V6H0V4H4.75V1C4.75 0.734784 4.85009 0.48043 5.02825 0.292893C5.20641 0.105357 5.44804 0 5.7 0H13.3C13.552 0 13.7936 0.105357 13.9718 0.292893C14.1499 0.48043 14.25 0.734784 14.25 1V4ZM15.2 6H3.8V18H15.2V6ZM6.65 9H8.55V15H6.65V9ZM10.45 9H12.35V15H10.45V9ZM6.65 2V4H12.35V2H6.65Z" fill="#414042"/>
</svg>
