<svg width="24" height="24" viewBox="0 0 24 24" fill="none" xmlns="http://www.w3.org/2000/svg">
<rect width="24" height="24" rx="2" fill="#FFE7E7"/>
<path d="M16.8578 7.20215C18.328 8.75394 18.3787 11.2253 17.0112 12.8366L16.0882 11.8664C16.9533 10.8237 16.9078 9.18841 15.9375 8.16894C14.9606 7.1433 13.3896 7.09951 12.3692 8.06425L11.5015 8.88394L10.6332 8.06494C9.60949 7.09883 8.0392 7.14125 7.06231 8.1703C6.09388 9.18978 6.04513 10.8216 6.93752 11.8999L12.4179 17.6788L11.5002 18.6476L5.98859 12.8373C4.62108 11.2253 4.67243 8.74983 6.14198 7.20215C7.61412 5.65309 9.96891 5.60109 11.5002 7.04615C13.027 5.60314 15.3869 5.65104 16.8578 7.20215Z" fill="#680000"/>
<path d="M18.1996 14H13V15.3684H18.1996V14Z" fill="#680000"/>
</svg>
