<svg width="27" height="26" viewBox="0 0 27 26" fill="none" xmlns="http://www.w3.org/2000/svg">
<path d="M23.7156 2.40429C26.656 5.50787 26.7574 10.4506 24.0224 13.6732L22.1765 11.7328C23.9067 9.64735 23.8157 6.37682 21.8749 4.33787C19.9211 2.28661 16.7793 2.19903 14.7384 4.1285L13.003 5.76787L11.2663 4.12987C9.21898 2.19766 6.07839 2.2825 4.12463 4.34061C2.18776 6.37956 2.09026 9.64324 3.87504 11.7999L14.8359 23.3576L13.0004 25.2953L1.97717 13.6746C-0.75784 10.4506 -0.655147 5.49966 2.28395 2.40429C5.22825 -0.693817 9.93783 -0.797818 13.0004 2.09229C16.0539 -0.793712 20.7739 -0.697923 23.7156 2.40429Z" fill="#680000"/>
<path d="M26.3993 16H16V18.7368H26.3993V16Z" fill="#680000"/>
</svg>
