<svg width="48" height="48" viewBox="0 0 48 48" fill="none" xmlns="http://www.w3.org/2000/svg">
<rect width="48" height="48" rx="2" fill="#FFE7E7"/>
<path d="M33.7156 14.4043C36.656 17.5079 36.7574 22.4506 34.0224 25.6732L32.1765 23.7328C33.9067 21.6473 33.8157 18.3768 31.8749 16.3379C29.9211 14.2866 26.7793 14.199 24.7384 16.1285L23.003 17.7679L21.2663 16.1299C19.219 14.1977 16.0784 14.2825 14.1246 16.3406C12.1878 18.3796 12.0903 21.6432 13.875 23.7999L24.8359 35.3576L23.0004 37.2953L11.9772 25.6746C9.24216 22.4506 9.34485 17.4997 12.284 14.4043C15.2283 11.3062 19.9378 11.2022 23.0004 14.0923C26.0539 11.2063 30.7739 11.3021 33.7156 14.4043Z" fill="#680000"/>
<path d="M36.3993 28H26V30.7368H36.3993V28Z" fill="#680000"/>
</svg>
