<svg width="80" height="80" viewBox="0 0 80 80" fill="none" xmlns="http://www.w3.org/2000/svg">
<rect width="80" height="80" rx="40" fill="#E9FFF9"/>
<path d="M45.0989 21.0527C45.0989 20.6307 44.8358 20.2495 44.4305 20.0841C44.025 19.9188 43.5558 20.0014 43.2382 20.2939L39.3307 23.893C33.5126 29.2517 28.5965 35.4416 24.7574 42.2423C24.667 42.3953 24.6154 42.572 24.6154 42.7604C24.6154 43.3416 25.1074 43.813 25.7143 43.813H35.1868V58.9473C35.1868 59.3641 35.4436 59.7418 35.8416 59.9102C36.2397 60.0787 36.7039 60.0062 37.0257 59.7254L38.774 58.1999C44.8942 52.8595 50.0883 46.6202 54.1608 39.7157L55.2424 37.8825C55.4347 37.5566 55.4318 37.1574 55.2347 36.8341C55.0377 36.5107 54.6764 36.312 54.2857 36.312H45.0989V21.0527Z" fill="#0BBF90"/>
</svg>
