<svg width="27" height="18" viewBox="0 0 27 18" fill="none" xmlns="http://www.w3.org/2000/svg">
<path d="M4.04975 9.84284L3.9773 9.91176C2.87382 8.75189 2.87539 6.95241 3.98135 5.79791C4.38903 5.37234 4.89022 5.08947 5.4444 4.97415C5.44441 4.97415 5.44441 4.97414 5.44441 4.97414L5.46478 5.07205L4.04975 9.84284ZM4.04975 9.84284L3.97731 9.91177C4.53345 10.4963 5.17401 10.7783 5.95504 10.7795C6.87404 10.7809 7.66785 10.3713 8.21127 9.61675L8.13013 9.55831M4.04975 9.84284L8.13013 9.55831M8.13013 9.55831L8.21128 9.61675C8.56509 9.12544 8.72119 8.65724 8.75107 8.00771M8.13013 9.55831L8.75107 8.00771M7.68313 12.0863L7.68314 12.0863L7.94317 12.1949L8.42711 11.6914C9.21319 10.8735 9.91461 10.3888 10.901 9.98327C11.4348 9.7638 12.0978 9.58691 12.6678 9.51184C13.2201 9.43914 14.2943 9.48709 14.8705 9.60965C16.3335 9.92086 17.484 10.5647 18.5495 11.6673L19.0597 12.1953L19.3695 12.0705L19.3695 12.0705C19.9857 11.8225 20.5433 11.7367 21.3193 11.7673C22.0913 11.7976 22.5667 11.9115 23.1968 12.2193L23.153 12.3091L23.1969 12.2193C24.8577 13.0306 25.9593 14.698 26.088 16.5896C26.1119 16.9415 26.1049 17.0819 26.0254 17.2424L26.0254 17.2424C25.831 17.6348 25.2948 17.7262 25.0022 17.4012L25.0765 17.3343L25.0022 17.4011C24.8824 17.2681 24.8518 17.111 24.8002 16.6449C24.6378 15.1791 23.9345 14.1004 22.7594 13.4943C22.4441 13.3317 22.2138 13.2351 21.9719 13.178C21.7297 13.1208 21.4705 13.102 21.0956 13.1019C20.5867 13.1017 20.4068 13.1231 20.1278 13.2097C20.1278 13.2097 20.1277 13.2097 20.1277 13.2097L7.68313 12.0863ZM7.68313 12.0863C7.07795 11.8335 6.4873 11.7397 5.7054 11.768C4.90749 11.7969 4.44436 11.9061 3.80315 12.2193C2.14227 13.0306 1.0407 14.698 0.912036 16.5895L1.01181 16.5963M7.68313 12.0863L1.01181 16.5963M1.01181 16.5963L0.912035 16.5896C0.888127 16.9415 0.895144 17.0819 0.974604 17.2424L0.97461 17.2424M1.01181 16.5963L0.97461 17.2424M0.97461 17.2424C1.16902 17.6348 1.70525 17.7262 1.99786 17.401C2.11752 17.2681 2.14808 17.1122 2.19814 16.6554C2.29545 15.7672 2.53285 15.1457 3.01698 14.5024L3.01699 14.5024M0.97461 17.2424L3.01699 14.5024M3.01699 14.5024C3.44244 13.9371 4.13418 13.4589 4.88504 13.2155L4.8542 13.1203M3.01699 14.5024L4.8542 13.1203M4.8542 13.1203L4.88504 13.2155C5.13119 13.1357 5.49887 13.093 5.8746 13.0918M4.8542 13.1203L5.8746 13.0918M6.48836 17.1693L6.39732 17.2107C6.31994 17.0404 6.31427 16.8983 6.34172 16.5185C6.41484 15.5075 6.65379 14.5606 7.06057 13.6724C7.06057 13.6724 7.06057 13.6724 7.06058 13.6724L6.48836 17.1693ZM6.48836 17.1693L6.39732 17.2107C6.59503 17.6456 7.14172 17.7418 7.44173 17.3696C7.51583 17.2777 7.56075 17.1916 7.59198 17.0351C7.62168 16.8862 7.64014 16.6681 7.66369 16.3111L7.5639 16.3045M6.48836 17.1693L7.5639 16.3045M7.5639 16.3045L7.66369 16.3111C7.7689 14.715 8.69957 13.019 10.0408 11.9868C10.7434 11.4462 11.6944 11.03 12.5819 10.8752C12.7818 10.8404 13.1378 10.8221 13.5 10.8221C13.8622 10.8221 14.2182 10.8404 14.4181 10.8752C16.0384 11.1578 17.4738 12.1236 18.378 13.5415L18.4623 13.4877M7.5639 16.3045L18.4623 13.4877M18.4623 13.4877L18.378 13.5415C18.9662 14.4638 19.2808 15.4285 19.3548 16.5385C19.3743 16.8314 19.3872 17.0012 19.4131 17.1142C19.4267 17.1737 19.4446 17.2213 19.4705 17.2653C19.4958 17.3082 19.5265 17.3437 19.5594 17.3795L19.633 17.3119M18.4623 13.4877L19.633 17.3119M19.633 17.3119L19.5594 17.3795C19.7184 17.5528 19.9291 17.6234 20.1287 17.5906C20.3281 17.5578 20.506 17.4234 20.6036 17.2087L20.6036 17.2087M19.633 17.3119L20.6036 17.2087M20.6036 17.2087C20.6802 17.04 20.6876 16.9005 20.6616 16.567M20.6036 17.2087L20.6616 16.567M8.75107 8.00771C8.77197 7.55312 8.72282 7.15917 8.58833 6.79637M8.75107 8.00771L8.58833 6.79637M8.58833 6.79637C8.4538 6.43347 8.23594 6.10729 7.92691 5.78553L8.58833 6.79637ZM5.8746 13.0918C6.2502 13.0906 6.62067 13.1308 6.87214 13.2092M5.8746 13.0918L6.87214 13.2092M6.87214 13.2092C6.97022 13.2397 7.06298 13.2718 7.13308 13.2986M6.87214 13.2092C6.87213 13.2092 6.87213 13.2092 6.87213 13.2092L7.13308 13.2986M7.13308 13.2986C7.15742 13.3079 7.1785 13.3163 7.19581 13.3237L7.13308 13.2986ZM20.6616 16.567C20.5784 15.5023 20.3311 14.5077 19.9419 13.6813L20.6616 16.567ZM9.70975 5.45344L9.70975 5.45345C10.1078 6.97322 11.2663 8.12374 12.7271 8.44019C13.8474 8.68285 15.036 8.38119 15.9357 7.62802L15.8715 7.55134L15.9357 7.62802C16.5654 7.10083 17.0764 6.2798 17.291 5.45324L17.1942 5.42811L17.291 5.45324C17.3601 5.18722 17.3903 4.80572 17.3861 4.42807C17.3818 4.05019 17.3428 3.66477 17.268 3.39056C16.888 1.99908 15.8689 0.928417 14.5453 0.538004C14.3341 0.4757 14.0133 0.431938 13.7032 0.412078C13.394 0.392275 13.081 0.395301 12.8868 0.432499L12.9056 0.5307L12.8868 0.4325C11.3391 0.728937 10.1553 1.84041 9.73205 3.39057C9.65694 3.66564 9.61797 4.05134 9.61383 4.4292C9.6097 4.80679 9.64022 5.18792 9.70975 5.45344ZM15.3378 2.5346L15.3378 2.53461C16.1916 3.42581 16.353 4.78171 15.7324 5.86273C14.9913 7.15337 13.4001 7.56404 12.152 6.79057C11.3795 6.31182 10.908 5.44701 10.9009 4.48406C10.8953 3.71227 11.145 3.07447 11.6622 2.53461L11.6622 2.53461C12.0712 2.10756 12.6089 1.82774 13.198 1.73559C13.3012 1.71944 13.4874 1.72263 13.688 1.74215C13.8872 1.76153 14.0874 1.79567 14.217 1.83582C14.6513 1.97041 15.0133 2.19584 15.3378 2.5346ZM20.504 10.7273L20.5274 10.6301L20.504 10.7273C20.7157 10.7782 21.0095 10.7877 21.2972 10.7662C21.5851 10.7447 21.8792 10.6913 22.0913 10.6094L22.0552 10.5161L22.0913 10.6094C22.5512 10.4317 23.0379 10.0566 23.3279 9.65631C23.743 9.08366 23.905 8.5836 23.906 7.87373C23.9071 7.03184 23.6545 6.39835 23.0745 5.78839C22.3648 5.04199 21.3905 4.76135 20.4191 5.02699C19.3642 5.31545 18.5837 6.17101 18.3591 7.27777C18.2678 7.72767 18.2671 8.02043 18.3568 8.46229C18.5791 9.55715 19.4446 10.4724 20.504 10.7273ZM6.55454 6.39354L6.55456 6.39355C6.84813 6.50818 7.1596 6.80908 7.3376 7.16305L7.3376 7.16306C7.39668 7.28052 7.42606 7.35262 7.44271 7.44126C7.46 7.53329 7.46439 7.64728 7.46449 7.85019C7.46461 8.11566 7.44168 8.30326 7.38363 8.46645C7.32589 8.62876 7.23067 8.77455 7.07409 8.95188C6.26423 9.86901 4.80063 9.47851 4.48738 8.23366C4.31468 7.54726 4.65028 6.7776 5.26057 6.45168L5.26058 6.45168C5.68411 6.22548 6.07534 6.20633 6.55454 6.39354ZM21.0877 6.24736L21.0878 6.24735C21.0877 6.24736 21.0886 6.2473 21.0906 6.2473L21.0985 6.24751C21.1051 6.24782 21.1136 6.24844 21.124 6.24944C21.1448 6.25145 21.1709 6.25479 21.2008 6.2593C21.2604 6.26831 21.3323 6.28157 21.4013 6.29683L21.4229 6.19918L21.4014 6.29683C21.8804 6.40265 22.2196 6.66651 22.4472 7.11245L22.5363 7.06699L22.4472 7.11246C22.7568 7.71873 22.6748 8.41766 22.2361 8.92711C21.5875 9.68012 20.4572 9.61807 19.8751 8.79175C19.6854 8.52249 19.6005 8.23748 19.5988 7.8412C19.5952 6.99976 20.2446 6.30405 21.0877 6.24736ZM7.24023 13.3449C7.24019 13.3449 7.23977 13.3446 7.23905 13.3441L7.24023 13.3449ZM19.8199 13.3868C19.8117 13.3628 19.8054 13.3423 19.8008 13.3255L19.8199 13.3868Z" fill="white" stroke="white" stroke-width="0.2"/>
</svg>
