<svg width="66" height="66" viewBox="0 0 66 66" fill="none" xmlns="http://www.w3.org/2000/svg">
<path d="M31.7422 16.7389C28.7524 17.1134 26.3467 18.2277 24.2749 20.1984C19.6948 24.5541 19.2041 31.611 23.1353 36.5958C26.9165 41.3905 33.8228 42.7426 39.1299 39.7264C43.8188 37.0621 46.2393 31.8873 45.2363 26.6732C44.311 21.8639 40.3745 17.9423 35.4795 16.9528C34.5483 16.7643 32.4819 16.6464 31.7422 16.7389Z" fill="#79B4A8"/>
<path fill-rule="evenodd" clip-rule="evenodd" d="M66 32.9999C66 51.2255 51.2256 65.9999 33 65.9999C14.7744 65.9999 0 51.2255 0 32.9999C0 14.7745 14.7744 0 33 0C51.2256 0 66 14.7745 66 32.9999ZM10.5903 54.4196C10.7861 53.7111 11.1987 52.2513 11.5532 51.2059C11.6475 50.9633 11.7812 50.6659 11.9326 50.3629C12.1182 49.9921 12.3291 49.6124 12.5249 49.3134C14.9077 45.6637 18.729 43.1134 22.895 42.392C23.2334 42.3334 23.5576 42.2865 23.7734 42.2635C23.8589 42.2543 23.9268 42.2489 23.9722 42.2479L24.0034 42.2482C24.0122 42.2484 24.019 42.2491 24.0244 42.2504L24.4248 42.3365C24.5669 42.3676 25.0703 42.6437 25.543 42.9498C27.7158 44.3571 29.894 45.0453 32.4951 45.1471C34.5322 45.2272 36.4404 44.8744 38.3081 44.0739C39.0664 43.7487 39.4932 43.5128 40.854 42.6656C40.9297 42.6185 41.0005 42.5773 41.0693 42.5411C41.125 42.5118 41.1787 42.4862 41.2319 42.4635C41.438 42.3759 41.6353 42.3344 41.8911 42.3158C43.0464 42.2338 45.3325 42.8578 47.168 43.757C49.6826 44.9886 51.9224 47.0072 53.5288 49.4899C53.7363 49.8104 53.959 50.2203 54.1401 50.5985L54.2017 50.7279L54.2607 50.8593C54.3037 50.9557 54.3433 51.0477 54.377 51.1329L55.3159 54.5175C60.6929 48.9423 64 41.3573 64 32.9999C64 15.8793 50.1206 2 33 2C15.8794 2 2 15.8793 2 32.9999C2 41.3085 5.26855 48.8536 10.5903 54.4196Z" fill="#79B4A8"/>
</svg>
