<svg width="107" height="129" viewBox="0 0 107 129" fill="none" xmlns="http://www.w3.org/2000/svg">
<path d="M107 53.5C107 83.0472 83.0472 107 53.5 107C23.9528 107 0 83.0472 0 53.5C0 23.9528 23.9528 0 53.5 0C83.0472 0 107 23.9528 107 53.5Z" fill="white"/>
<path d="M51.4608 27.1373C46.6138 27.7445 42.7136 29.5509 39.3548 32.7458C31.9295 39.8074 31.1339 51.2481 37.5072 59.3296C43.6374 67.1028 54.8339 69.2948 63.4378 64.405C71.0396 60.0856 74.9636 51.6961 73.3377 43.2429C71.8376 35.446 65.4557 29.0882 57.5198 27.484C56.0102 27.1785 52.6601 26.9873 51.4608 27.1373Z" fill="#79B4A8"/>
<path fill-rule="evenodd" clip-rule="evenodd" d="M107 53.4998C107 83.0473 83.0475 107 53.5 107C23.9525 107 0 83.0473 0 53.4998C0 23.9527 23.9525 0 53.5 0C83.0475 0 107 23.9527 107 53.4998ZM17.1692 88.2256C17.4866 87.077 18.1555 84.7105 18.7302 83.0157C18.883 82.6223 19.0999 82.1402 19.3453 81.649C19.6461 81.0478 19.9881 80.4323 20.3055 79.9474C24.1686 74.0305 30.3637 69.896 37.1177 68.7264C37.6663 68.6314 38.1919 68.5554 38.5418 68.5182C38.6803 68.5031 38.7903 68.4944 38.864 68.4929L38.9146 68.4932C38.9289 68.4936 38.94 68.4948 38.9487 68.4968L39.5978 68.6365C39.8281 68.6868 40.6443 69.1345 41.4106 69.6308C44.9332 71.9122 48.4646 73.028 52.6815 73.193C55.9841 73.3228 59.0777 72.7509 62.1056 71.4531C63.3349 70.9259 64.0268 70.5435 66.233 69.1701C66.3557 69.0937 66.4705 69.0268 66.5821 68.9682C66.6723 68.9207 66.7594 68.8792 66.8457 68.8423C67.1798 68.7003 67.4996 68.633 67.9144 68.6029C69.7873 68.4699 73.4936 69.4816 76.4693 70.9393C80.5461 72.9361 84.1772 76.2086 86.7816 80.2336C87.118 80.7533 87.479 81.4178 87.7726 82.0309L87.8724 82.2407L87.9682 82.4536C88.0378 82.61 88.102 82.7592 88.1566 82.8973L89.6788 88.3844C98.396 79.3458 103.758 67.049 103.758 53.4998C103.758 25.7437 81.2561 3.24242 53.5 3.24242C25.7439 3.24242 3.24242 25.7437 3.24242 53.4998C3.24242 66.9698 8.54144 79.2021 17.1692 88.2256Z" fill="#79B4A8"/>
<path d="M70.4836 103.616C73.7304 110.771 70.5667 119.205 63.418 122.454C56.2694 125.703 47.842 122.537 44.5952 115.383C41.3484 108.228 44.512 99.7941 51.6607 96.545C58.8094 93.296 67.2368 96.4616 70.4836 103.616Z" fill="#0BBF90" stroke="white"/>
<path d="M56.3517 103.683C56.394 107.517 56.4787 111.352 56.521 115.231C56.5633 116.658 58.6798 116.658 58.6375 115.231C58.5951 111.396 58.5105 107.562 58.4682 103.683C58.4258 102.211 56.3094 102.211 56.3517 103.683Z" fill="white"/>
<path d="M51.6466 110.583C55.5311 110.5 59.4155 110.459 63.3421 110.375C64.6932 110.334 64.6932 108.256 63.3421 108.297C59.4577 108.381 55.5733 108.422 51.6466 108.505C50.2955 108.547 50.2955 110.625 51.6466 110.583Z" fill="white"/>
</svg>
