<svg width="19" height="27" viewBox="0 0 19 27" fill="none" xmlns="http://www.w3.org/2000/svg">
<path fill-rule="evenodd" clip-rule="evenodd" d="M18.3927 11.2911C18.3927 14.6212 17.6307 17.1053 16.1067 18.7209C14.5828 20.3365 12.2292 21.1465 9.05502 21.1465C6.08824 21.1465 3.83837 20.3365 2.30538 18.7209C0.772401 17.1053 0.00590914 14.6662 0.00590914 11.4036V0.463523C0.00590914 0.20701 0.213312 0 0.470312 0H5.84928C6.10628 0 6.31368 0.20701 6.31368 0.463523V11.6421C6.31368 12.9741 6.56167 13.9957 7.06214 14.7202C7.9684 15.9173 9.67272 16.1558 10.8675 15.2512C11.0479 15.1162 11.2102 14.9587 11.35 14.7832C11.8414 14.1037 12.0849 13.1046 12.0849 11.7861V9.69347H18.3927V11.2911Z" fill="#203E7A"/>
<path fill-rule="evenodd" clip-rule="evenodd" d="M17.9057 8.46942H12.0849V0.486024C12.0849 0.216011 12.3013 0 12.5719 0H13.4421C13.4421 2.72713 15.6604 4.93674 18.3882 4.93674V8.47392H17.9057V8.46942Z" fill="#203E7A"/>
<path fill-rule="evenodd" clip-rule="evenodd" d="M14.6865 0H17.9057C18.1763 0 18.3927 0.216011 18.3927 0.486025V3.70819C16.3457 3.70819 14.6865 2.0476 14.6865 0Z" fill="#F4821F"/>
<path fill-rule="evenodd" clip-rule="evenodd" d="M1.05956 26.4555C1.77195 26.4555 2.11462 26.0595 2.11462 25.4789V24.0794H1.60513V25.4654C1.60513 25.7669 1.35714 26.0145 1.05506 26.0145C0.752967 26.0145 0.504984 25.7669 0.504984 25.4654V24.0794H0V25.4834C0.00450878 26.0595 0.347176 26.46 1.05956 26.4555ZM5.18961 26.415V25.9785H4.06241L5.16706 24.4799V24.0794H3.40864V24.5159H4.51329L3.40864 26.01V26.4105L5.18961 26.415ZM7.57024 26.4555C7.98054 26.4645 8.35928 26.244 8.54865 25.8794L8.12031 25.6724C8.0121 25.8794 7.80019 26.01 7.57024 26.01C7.14642 25.9875 6.81728 25.6274 6.83982 25.2044C6.85786 24.8084 7.17347 24.4934 7.57024 24.4754C7.80019 24.4799 8.0121 24.6104 8.12031 24.8129L8.54865 24.6014C8.35928 24.2414 7.98054 24.0209 7.57024 24.0299C6.90294 24.0119 6.34385 24.5339 6.32582 25.1999C6.30778 25.8659 6.8308 26.424 7.4981 26.442C7.52515 26.46 7.5477 26.46 7.57024 26.4555ZM11.9212 26.415L11.0195 24.0794H10.3972L9.49098 26.415H10.0591L10.2079 26.019H11.2088L11.3531 26.415H11.9212ZM11.0736 25.5824H10.3431L10.7084 24.5789L11.0736 25.5824ZM15.2848 27L14.4281 25.5239C14.7437 25.4474 14.9601 25.1549 14.9421 24.8309C14.9556 24.4304 14.6445 24.0929 14.2432 24.0749C14.2162 24.0749 14.1846 24.0749 14.1576 24.0749H13.0619V26.4105H13.5579V25.5869H13.9231L14.7167 27H15.2848ZM14.0809 25.1504H13.5579V24.5204H14.0809C14.2568 24.5024 14.4101 24.6284 14.4281 24.8039C14.4461 24.9794 14.3199 25.1324 14.144 25.1504C14.1215 25.1504 14.099 25.1504 14.0809 25.1504ZM17.1559 26.415C17.8908 26.415 18.3958 25.9515 18.3958 25.2494C18.3958 24.5474 17.8863 24.0794 17.1559 24.0794H16.2316V26.415H17.1559ZM17.1559 25.9785H16.7321V24.5204H17.1559C17.5346 24.4934 17.8593 24.7769 17.8908 25.1504C17.8953 25.1819 17.8953 25.2179 17.8908 25.2494C17.9089 25.6364 17.6068 25.9604 17.219 25.9785C17.1965 25.9785 17.1739 25.9785 17.1559 25.9785Z" fill="#233C7E"/>
<path fill-rule="evenodd" clip-rule="evenodd" d="M19 24.0434C19 24.2819 18.8061 24.4799 18.5626 24.4799C18.3237 24.4799 18.1253 24.2864 18.1253 24.0434C18.1253 23.8049 18.3192 23.6068 18.5626 23.6068H19V24.0434Z" fill="#233C7E"/>
</svg>
