<svg width="17" height="17" viewBox="0 0 17 17" fill="none" xmlns="http://www.w3.org/2000/svg">
<mask id="path-1-outside-1_492_18033" maskUnits="userSpaceOnUse" x="0" y="0" width="17" height="17" fill="black">
<rect fill="white" width="17" height="17"/>
<path fill-rule="evenodd" clip-rule="evenodd" d="M4.83919 1.0183C3.79986 1.14284 2.91119 1.6099 2.18532 2.4131C1.60647 3.05365 1.25295 3.77025 1.06907 4.67588C0.976876 5.12998 0.976993 6.00572 1.06933 6.46059C1.24235 7.31292 1.57313 8.00917 2.11494 8.66153L2.34152 8.93432L2.23557 9.06581C1.80852 9.59572 1.7939 10.4282 2.20102 11.0342C2.41613 11.3544 2.72957 11.5648 3.1295 11.6577C3.19542 11.673 3.20352 11.6915 3.20921 11.8398C3.23962 12.6302 3.80039 13.2627 4.57002 13.3746L4.70444 13.3942L4.73837 13.5879C4.83355 14.1316 5.25371 14.6256 5.76663 14.797C5.9455 14.8568 6.26192 14.8784 6.52781 14.8489C6.58399 14.8427 6.60591 14.8701 6.663 15.0182C6.92865 15.7073 7.6605 16.121 8.34381 15.9684C8.72795 15.8826 8.85498 15.7965 9.31094 15.3123C9.77837 14.816 9.88626 14.6333 9.95025 14.2298L9.98673 13.9998L10.1563 13.9772C10.4125 13.943 10.7295 13.7667 10.9527 13.5343C11.1727 13.3052 11.3335 12.982 11.3843 12.667L11.4165 12.4676L11.6177 12.431C11.9951 12.3622 12.3697 12.1049 12.5926 11.7612C12.7242 11.5583 12.8445 11.2214 12.8445 11.0559C12.8445 10.9268 12.8761 10.8981 13.0184 10.8981C13.124 10.8981 13.4094 10.7932 13.5612 10.6985C13.7449 10.584 13.9431 10.3858 14.0585 10.2012C14.1884 9.99326 14.312 9.60996 14.312 9.41491C14.312 9.26787 14.3129 9.26659 14.7019 8.8437C15.3981 8.0867 15.7615 7.37025 15.9452 6.39251C16.0183 6.00332 16.0183 5.13179 15.9452 4.74259C15.7638 3.77698 15.3881 3.02805 14.7395 2.33916C14.2135 1.78051 13.722 1.45684 13.04 1.22009C12.1628 0.915558 11.1677 0.927497 10.2868 1.25316C9.7079 1.46716 9.17974 1.80548 8.75002 2.23751L8.50063 2.48823L8.25635 2.24265C7.50136 1.48362 6.51657 1.04948 5.44818 1.00468C5.2464 0.996233 4.97235 1.00234 4.83919 1.0183ZM12.3015 2.0649C13.5277 2.31189 14.5879 3.34932 14.9426 4.64911C15.1499 5.40916 15.0856 6.25975 14.7652 6.99643C14.6301 7.30688 14.332 7.77852 14.1117 8.03021L13.9344 8.23284L12.1347 6.32537L10.335 4.4179L10.0863 4.67037C9.60206 5.16165 9.12395 5.27481 8.59813 5.02253C8.50729 4.97891 8.35385 4.8551 8.21658 4.7146L7.987 4.47959L8.60336 3.82156C9.49725 2.86717 9.80373 2.60429 10.3314 2.33922C10.9698 2.01855 11.6212 1.92787 12.3015 2.0649ZM5.77104 2.05979C6.25837 2.13944 6.63441 2.28012 7.03316 2.53206C7.26445 2.67817 7.71636 3.06783 7.77875 3.17497C7.80587 3.22148 7.72375 3.32164 7.21558 3.86187L6.62064 4.4943L7.12773 5.02552C7.70767 5.63308 7.87388 5.77919 8.15776 5.93103C8.73796 6.24135 9.50304 6.24104 10.0897 5.93022L10.2855 5.82647L11.7838 7.41932C12.6083 8.2959 13.2958 9.05162 13.3128 9.09991C13.4683 9.54459 13.0944 9.98934 12.6657 9.86948C12.5503 9.83721 12.4156 9.70538 11.4205 8.65121C10.8068 8.00103 10.2919 7.4691 10.2763 7.4691C10.2386 7.4691 9.61595 8.12944 9.61595 8.16943C9.61595 8.18658 10.1168 8.73388 10.7289 9.3857C11.7241 10.4453 11.8456 10.5855 11.8762 10.709C11.9377 10.9572 11.8478 11.2021 11.6448 11.3387C11.5014 11.4354 11.3086 11.4575 11.1514 11.3955C11.106 11.3775 10.5636 10.827 9.94614 10.1721L8.82348 8.9813L8.47876 9.34742L8.13404 9.71355L9.2552 10.9059C9.87182 11.5617 10.3902 12.1378 10.4071 12.186C10.5263 12.5268 10.3139 12.9169 9.97851 12.9732C9.8108 13.0014 9.68128 12.9486 9.46338 12.7633C9.09776 12.4525 8.78339 12.3445 8.33186 12.3746C8.12811 12.3882 8.06037 12.3832 8.06034 12.3546C8.06028 12.2633 7.8811 11.9285 7.74917 11.7731C7.48983 11.4677 7.06718 11.241 6.75715 11.241H6.63412L6.60245 11.0446C6.52329 10.5538 6.20002 10.117 5.74239 9.88247C5.6627 9.84164 5.54298 9.79899 5.4763 9.78765C5.40964 9.77633 5.35124 9.75152 5.34651 9.7325C5.34179 9.71352 5.3233 9.57873 5.30539 9.43299C5.17877 8.40164 4.09953 7.74476 3.22791 8.16856L3.07385 8.2435L2.87048 8.01612C1.78234 6.79944 1.64971 4.87477 2.56054 3.51909C3.29553 2.42514 4.5414 1.85882 5.77104 2.05979ZM4.0032 9.10717C4.14825 9.17151 4.24117 9.2665 4.30674 9.41741C4.42749 9.69531 4.3633 9.88001 4.01614 10.2536C3.72132 10.5708 3.60019 10.6487 3.40169 10.6487C3.00352 10.6487 2.74721 10.2107 2.92155 9.82811C3.00426 9.64665 3.50025 9.13514 3.6328 9.09461C3.77911 9.04988 3.88198 9.05337 4.0032 9.10717ZM5.35426 10.8174C5.44557 10.8681 5.5721 11.0061 5.62238 11.1098C5.67304 11.2144 5.66664 11.4675 5.61011 11.594C5.53268 11.7673 5.00957 12.2888 4.87271 12.3292C4.71339 12.3762 4.63019 12.3708 4.49309 12.3046C4.24558 12.1852 4.12433 11.9198 4.18817 11.6372C4.2179 11.5056 4.26263 11.4366 4.46171 11.2153C4.77653 10.8655 4.91321 10.7734 5.11784 10.7734C5.20428 10.7734 5.31065 10.7932 5.35426 10.8174ZM6.88066 12.3248C7.06615 12.415 7.20079 12.7042 7.1614 12.9279C7.13237 13.0928 7.05538 13.204 6.76161 13.5059C6.44886 13.8272 6.3142 13.891 6.0852 13.8263C5.82501 13.7528 5.68299 13.5559 5.68299 13.2688C5.68299 13.0568 5.73614 12.9563 6.00238 12.6652C6.38252 12.2495 6.57345 12.1755 6.88066 12.3248ZM8.78636 13.5052C8.84714 13.5568 8.91996 13.6471 8.94816 13.7059C9.00549 13.8253 9.01558 14.0602 8.96897 14.1904C8.92389 14.3163 8.41683 14.8556 8.2805 14.9227C8.00399 15.0586 7.691 14.9289 7.55819 14.6233C7.44026 14.3519 7.50013 14.1751 7.83464 13.8069C8.15162 13.458 8.27393 13.384 8.50753 13.4C8.64086 13.4091 8.6988 13.4309 8.78636 13.5052Z"/>
</mask>
<path fill-rule="evenodd" clip-rule="evenodd" d="M4.83919 1.0183C3.79986 1.14284 2.91119 1.6099 2.18532 2.4131C1.60647 3.05365 1.25295 3.77025 1.06907 4.67588C0.976876 5.12998 0.976993 6.00572 1.06933 6.46059C1.24235 7.31292 1.57313 8.00917 2.11494 8.66153L2.34152 8.93432L2.23557 9.06581C1.80852 9.59572 1.7939 10.4282 2.20102 11.0342C2.41613 11.3544 2.72957 11.5648 3.1295 11.6577C3.19542 11.673 3.20352 11.6915 3.20921 11.8398C3.23962 12.6302 3.80039 13.2627 4.57002 13.3746L4.70444 13.3942L4.73837 13.5879C4.83355 14.1316 5.25371 14.6256 5.76663 14.797C5.9455 14.8568 6.26192 14.8784 6.52781 14.8489C6.58399 14.8427 6.60591 14.8701 6.663 15.0182C6.92865 15.7073 7.6605 16.121 8.34381 15.9684C8.72795 15.8826 8.85498 15.7965 9.31094 15.3123C9.77837 14.816 9.88626 14.6333 9.95025 14.2298L9.98673 13.9998L10.1563 13.9772C10.4125 13.943 10.7295 13.7667 10.9527 13.5343C11.1727 13.3052 11.3335 12.982 11.3843 12.667L11.4165 12.4676L11.6177 12.431C11.9951 12.3622 12.3697 12.1049 12.5926 11.7612C12.7242 11.5583 12.8445 11.2214 12.8445 11.0559C12.8445 10.9268 12.8761 10.8981 13.0184 10.8981C13.124 10.8981 13.4094 10.7932 13.5612 10.6985C13.7449 10.584 13.9431 10.3858 14.0585 10.2012C14.1884 9.99326 14.312 9.60996 14.312 9.41491C14.312 9.26787 14.3129 9.26659 14.7019 8.8437C15.3981 8.0867 15.7615 7.37025 15.9452 6.39251C16.0183 6.00332 16.0183 5.13179 15.9452 4.74259C15.7638 3.77698 15.3881 3.02805 14.7395 2.33916C14.2135 1.78051 13.722 1.45684 13.04 1.22009C12.1628 0.915558 11.1677 0.927497 10.2868 1.25316C9.7079 1.46716 9.17974 1.80548 8.75002 2.23751L8.50063 2.48823L8.25635 2.24265C7.50136 1.48362 6.51657 1.04948 5.44818 1.00468C5.2464 0.996233 4.97235 1.00234 4.83919 1.0183ZM12.3015 2.0649C13.5277 2.31189 14.5879 3.34932 14.9426 4.64911C15.1499 5.40916 15.0856 6.25975 14.7652 6.99643C14.6301 7.30688 14.332 7.77852 14.1117 8.03021L13.9344 8.23284L12.1347 6.32537L10.335 4.4179L10.0863 4.67037C9.60206 5.16165 9.12395 5.27481 8.59813 5.02253C8.50729 4.97891 8.35385 4.8551 8.21658 4.7146L7.987 4.47959L8.60336 3.82156C9.49725 2.86717 9.80373 2.60429 10.3314 2.33922C10.9698 2.01855 11.6212 1.92787 12.3015 2.0649ZM5.77104 2.05979C6.25837 2.13944 6.63441 2.28012 7.03316 2.53206C7.26445 2.67817 7.71636 3.06783 7.77875 3.17497C7.80587 3.22148 7.72375 3.32164 7.21558 3.86187L6.62064 4.4943L7.12773 5.02552C7.70767 5.63308 7.87388 5.77919 8.15776 5.93103C8.73796 6.24135 9.50304 6.24104 10.0897 5.93022L10.2855 5.82647L11.7838 7.41932C12.6083 8.2959 13.2958 9.05162 13.3128 9.09991C13.4683 9.54459 13.0944 9.98934 12.6657 9.86948C12.5503 9.83721 12.4156 9.70538 11.4205 8.65121C10.8068 8.00103 10.2919 7.4691 10.2763 7.4691C10.2386 7.4691 9.61595 8.12944 9.61595 8.16943C9.61595 8.18658 10.1168 8.73388 10.7289 9.3857C11.7241 10.4453 11.8456 10.5855 11.8762 10.709C11.9377 10.9572 11.8478 11.2021 11.6448 11.3387C11.5014 11.4354 11.3086 11.4575 11.1514 11.3955C11.106 11.3775 10.5636 10.827 9.94614 10.1721L8.82348 8.9813L8.47876 9.34742L8.13404 9.71355L9.2552 10.9059C9.87182 11.5617 10.3902 12.1378 10.4071 12.186C10.5263 12.5268 10.3139 12.9169 9.97851 12.9732C9.8108 13.0014 9.68128 12.9486 9.46338 12.7633C9.09776 12.4525 8.78339 12.3445 8.33186 12.3746C8.12811 12.3882 8.06037 12.3832 8.06034 12.3546C8.06028 12.2633 7.8811 11.9285 7.74917 11.7731C7.48983 11.4677 7.06718 11.241 6.75715 11.241H6.63412L6.60245 11.0446C6.52329 10.5538 6.20002 10.117 5.74239 9.88247C5.6627 9.84164 5.54298 9.79899 5.4763 9.78765C5.40964 9.77633 5.35124 9.75152 5.34651 9.7325C5.34179 9.71352 5.3233 9.57873 5.30539 9.43299C5.17877 8.40164 4.09953 7.74476 3.22791 8.16856L3.07385 8.2435L2.87048 8.01612C1.78234 6.79944 1.64971 4.87477 2.56054 3.51909C3.29553 2.42514 4.5414 1.85882 5.77104 2.05979ZM4.0032 9.10717C4.14825 9.17151 4.24117 9.2665 4.30674 9.41741C4.42749 9.69531 4.3633 9.88001 4.01614 10.2536C3.72132 10.5708 3.60019 10.6487 3.40169 10.6487C3.00352 10.6487 2.74721 10.2107 2.92155 9.82811C3.00426 9.64665 3.50025 9.13514 3.6328 9.09461C3.77911 9.04988 3.88198 9.05337 4.0032 9.10717ZM5.35426 10.8174C5.44557 10.8681 5.5721 11.0061 5.62238 11.1098C5.67304 11.2144 5.66664 11.4675 5.61011 11.594C5.53268 11.7673 5.00957 12.2888 4.87271 12.3292C4.71339 12.3762 4.63019 12.3708 4.49309 12.3046C4.24558 12.1852 4.12433 11.9198 4.18817 11.6372C4.2179 11.5056 4.26263 11.4366 4.46171 11.2153C4.77653 10.8655 4.91321 10.7734 5.11784 10.7734C5.20428 10.7734 5.31065 10.7932 5.35426 10.8174ZM6.88066 12.3248C7.06615 12.415 7.20079 12.7042 7.1614 12.9279C7.13237 13.0928 7.05538 13.204 6.76161 13.5059C6.44886 13.8272 6.3142 13.891 6.0852 13.8263C5.82501 13.7528 5.68299 13.5559 5.68299 13.2688C5.68299 13.0568 5.73614 12.9563 6.00238 12.6652C6.38252 12.2495 6.57345 12.1755 6.88066 12.3248ZM8.78636 13.5052C8.84714 13.5568 8.91996 13.6471 8.94816 13.7059C9.00549 13.8253 9.01558 14.0602 8.96897 14.1904C8.92389 14.3163 8.41683 14.8556 8.2805 14.9227C8.00399 15.0586 7.691 14.9289 7.55819 14.6233C7.44026 14.3519 7.50013 14.1751 7.83464 13.8069C8.15162 13.458 8.27393 13.384 8.50753 13.4C8.64086 13.4091 8.6988 13.4309 8.78636 13.5052Z" fill="#048D6A"/>
<path fill-rule="evenodd" clip-rule="evenodd" d="M4.83919 1.0183C3.79986 1.14284 2.91119 1.6099 2.18532 2.4131C1.60647 3.05365 1.25295 3.77025 1.06907 4.67588C0.976876 5.12998 0.976993 6.00572 1.06933 6.46059C1.24235 7.31292 1.57313 8.00917 2.11494 8.66153L2.34152 8.93432L2.23557 9.06581C1.80852 9.59572 1.7939 10.4282 2.20102 11.0342C2.41613 11.3544 2.72957 11.5648 3.1295 11.6577C3.19542 11.673 3.20352 11.6915 3.20921 11.8398C3.23962 12.6302 3.80039 13.2627 4.57002 13.3746L4.70444 13.3942L4.73837 13.5879C4.83355 14.1316 5.25371 14.6256 5.76663 14.797C5.9455 14.8568 6.26192 14.8784 6.52781 14.8489C6.58399 14.8427 6.60591 14.8701 6.663 15.0182C6.92865 15.7073 7.6605 16.121 8.34381 15.9684C8.72795 15.8826 8.85498 15.7965 9.31094 15.3123C9.77837 14.816 9.88626 14.6333 9.95025 14.2298L9.98673 13.9998L10.1563 13.9772C10.4125 13.943 10.7295 13.7667 10.9527 13.5343C11.1727 13.3052 11.3335 12.982 11.3843 12.667L11.4165 12.4676L11.6177 12.431C11.9951 12.3622 12.3697 12.1049 12.5926 11.7612C12.7242 11.5583 12.8445 11.2214 12.8445 11.0559C12.8445 10.9268 12.8761 10.8981 13.0184 10.8981C13.124 10.8981 13.4094 10.7932 13.5612 10.6985C13.7449 10.584 13.9431 10.3858 14.0585 10.2012C14.1884 9.99326 14.312 9.60996 14.312 9.41491C14.312 9.26787 14.3129 9.26659 14.7019 8.8437C15.3981 8.0867 15.7615 7.37025 15.9452 6.39251C16.0183 6.00332 16.0183 5.13179 15.9452 4.74259C15.7638 3.77698 15.3881 3.02805 14.7395 2.33916C14.2135 1.78051 13.722 1.45684 13.04 1.22009C12.1628 0.915558 11.1677 0.927497 10.2868 1.25316C9.7079 1.46716 9.17974 1.80548 8.75002 2.23751L8.50063 2.48823L8.25635 2.24265C7.50136 1.48362 6.51657 1.04948 5.44818 1.00468C5.2464 0.996233 4.97235 1.00234 4.83919 1.0183ZM12.3015 2.0649C13.5277 2.31189 14.5879 3.34932 14.9426 4.64911C15.1499 5.40916 15.0856 6.25975 14.7652 6.99643C14.6301 7.30688 14.332 7.77852 14.1117 8.03021L13.9344 8.23284L12.1347 6.32537L10.335 4.4179L10.0863 4.67037C9.60206 5.16165 9.12395 5.27481 8.59813 5.02253C8.50729 4.97891 8.35385 4.8551 8.21658 4.7146L7.987 4.47959L8.60336 3.82156C9.49725 2.86717 9.80373 2.60429 10.3314 2.33922C10.9698 2.01855 11.6212 1.92787 12.3015 2.0649ZM5.77104 2.05979C6.25837 2.13944 6.63441 2.28012 7.03316 2.53206C7.26445 2.67817 7.71636 3.06783 7.77875 3.17497C7.80587 3.22148 7.72375 3.32164 7.21558 3.86187L6.62064 4.4943L7.12773 5.02552C7.70767 5.63308 7.87388 5.77919 8.15776 5.93103C8.73796 6.24135 9.50304 6.24104 10.0897 5.93022L10.2855 5.82647L11.7838 7.41932C12.6083 8.2959 13.2958 9.05162 13.3128 9.09991C13.4683 9.54459 13.0944 9.98934 12.6657 9.86948C12.5503 9.83721 12.4156 9.70538 11.4205 8.65121C10.8068 8.00103 10.2919 7.4691 10.2763 7.4691C10.2386 7.4691 9.61595 8.12944 9.61595 8.16943C9.61595 8.18658 10.1168 8.73388 10.7289 9.3857C11.7241 10.4453 11.8456 10.5855 11.8762 10.709C11.9377 10.9572 11.8478 11.2021 11.6448 11.3387C11.5014 11.4354 11.3086 11.4575 11.1514 11.3955C11.106 11.3775 10.5636 10.827 9.94614 10.1721L8.82348 8.9813L8.47876 9.34742L8.13404 9.71355L9.2552 10.9059C9.87182 11.5617 10.3902 12.1378 10.4071 12.186C10.5263 12.5268 10.3139 12.9169 9.97851 12.9732C9.8108 13.0014 9.68128 12.9486 9.46338 12.7633C9.09776 12.4525 8.78339 12.3445 8.33186 12.3746C8.12811 12.3882 8.06037 12.3832 8.06034 12.3546C8.06028 12.2633 7.8811 11.9285 7.74917 11.7731C7.48983 11.4677 7.06718 11.241 6.75715 11.241H6.63412L6.60245 11.0446C6.52329 10.5538 6.20002 10.117 5.74239 9.88247C5.6627 9.84164 5.54298 9.79899 5.4763 9.78765C5.40964 9.77633 5.35124 9.75152 5.34651 9.7325C5.34179 9.71352 5.3233 9.57873 5.30539 9.43299C5.17877 8.40164 4.09953 7.74476 3.22791 8.16856L3.07385 8.2435L2.87048 8.01612C1.78234 6.79944 1.64971 4.87477 2.56054 3.51909C3.29553 2.42514 4.5414 1.85882 5.77104 2.05979ZM4.0032 9.10717C4.14825 9.17151 4.24117 9.2665 4.30674 9.41741C4.42749 9.69531 4.3633 9.88001 4.01614 10.2536C3.72132 10.5708 3.60019 10.6487 3.40169 10.6487C3.00352 10.6487 2.74721 10.2107 2.92155 9.82811C3.00426 9.64665 3.50025 9.13514 3.6328 9.09461C3.77911 9.04988 3.88198 9.05337 4.0032 9.10717ZM5.35426 10.8174C5.44557 10.8681 5.5721 11.0061 5.62238 11.1098C5.67304 11.2144 5.66664 11.4675 5.61011 11.594C5.53268 11.7673 5.00957 12.2888 4.87271 12.3292C4.71339 12.3762 4.63019 12.3708 4.49309 12.3046C4.24558 12.1852 4.12433 11.9198 4.18817 11.6372C4.2179 11.5056 4.26263 11.4366 4.46171 11.2153C4.77653 10.8655 4.91321 10.7734 5.11784 10.7734C5.20428 10.7734 5.31065 10.7932 5.35426 10.8174ZM6.88066 12.3248C7.06615 12.415 7.20079 12.7042 7.1614 12.9279C7.13237 13.0928 7.05538 13.204 6.76161 13.5059C6.44886 13.8272 6.3142 13.891 6.0852 13.8263C5.82501 13.7528 5.68299 13.5559 5.68299 13.2688C5.68299 13.0568 5.73614 12.9563 6.00238 12.6652C6.38252 12.2495 6.57345 12.1755 6.88066 12.3248ZM8.78636 13.5052C8.84714 13.5568 8.91996 13.6471 8.94816 13.7059C9.00549 13.8253 9.01558 14.0602 8.96897 14.1904C8.92389 14.3163 8.41683 14.8556 8.2805 14.9227C8.00399 15.0586 7.691 14.9289 7.55819 14.6233C7.44026 14.3519 7.50013 14.1751 7.83464 13.8069C8.15162 13.458 8.27393 13.384 8.50753 13.4C8.64086 13.4091 8.6988 13.4309 8.78636 13.5052Z" stroke="#048D6A" stroke-width="0.4" mask="url(#path-1-outside-1_492_18033)"/>
</svg>
