<svg width="85" height="85" viewBox="0 0 85 85" fill="none" xmlns="http://www.w3.org/2000/svg">
<circle cx="42.5" cy="42.5" r="42.5" fill="#EAF2FF"/>
<path fill-rule="evenodd" clip-rule="evenodd" d="M35.9581 27.0403C33.533 27.3142 31.4594 28.3418 29.7658 30.1088C28.4151 31.518 27.5902 33.0945 27.1612 35.0869C26.946 36.086 26.9463 38.0126 27.1618 39.0133C27.5655 40.8884 28.3373 42.4202 29.6015 43.8554L30.1302 44.4555L29.883 44.7448C28.8865 45.9106 28.8524 47.7421 29.8024 49.0752C30.3043 49.7796 31.0357 50.2427 31.9688 50.447C32.1226 50.4806 32.1415 50.5213 32.1548 50.8475C32.2258 52.5865 33.5342 53.978 35.33 54.2242L35.6437 54.2672L35.7229 54.6934C35.945 55.8894 36.9253 56.9763 38.1221 57.3535C38.5395 57.485 39.2778 57.5325 39.8982 57.4676C40.0293 57.454 40.0805 57.5143 40.2137 57.8401C40.8335 59.356 42.5412 60.2662 44.1356 59.9305C45.0319 59.7418 45.3283 59.5522 46.3922 58.4871C47.4829 57.3952 47.7346 56.9933 47.8839 56.1057L47.969 55.5996L48.3647 55.5498C48.9626 55.4747 49.7022 55.0868 50.2231 54.5754C50.7363 54.0714 51.1116 53.3605 51.2301 52.6674L51.3052 52.2287L51.7746 52.1481C52.6553 51.9969 53.5293 51.4307 54.0494 50.6746C54.3564 50.2282 54.6372 49.487 54.6372 49.1229C54.6372 48.8389 54.7108 48.7759 55.0429 48.7759C55.2893 48.7759 55.9552 48.545 56.3095 48.3367C56.7382 48.0848 57.2005 47.6487 57.4697 47.2426C57.773 46.7852 58.0614 45.9419 58.0614 45.5128C58.0614 45.1893 58.0634 45.1865 58.971 44.2561C60.5956 42.5907 61.4436 41.0146 61.8721 38.8635C62.0426 38.0073 62.0426 36.0899 61.8721 35.2337C61.4489 33.1094 60.5723 31.4617 59.0588 29.9462C57.8315 28.7171 56.6846 28.0051 55.0934 27.4842C53.0465 26.8142 50.7246 26.8405 48.6692 27.557C47.3184 28.0278 46.0861 28.7721 45.0834 29.7225L44.5015 30.2741L43.9315 29.7338C42.1698 28.064 39.872 27.1088 37.3791 27.0103C36.9083 26.9917 36.2688 27.0052 35.9581 27.0403ZM53.3702 29.3428C56.2312 29.8861 58.7051 32.1685 59.5326 35.028C60.0165 36.7002 59.8665 38.5714 59.1188 40.1921C58.8037 40.8751 58.108 41.9127 57.594 42.4665L57.1803 42.9122L52.981 38.7158L48.7817 34.5194L48.2013 35.0748C47.0715 36.1556 45.9559 36.4046 44.729 35.8496C44.517 35.7536 44.159 35.4812 43.8387 35.1721L43.303 34.6551L44.7412 33.2074C46.8269 31.1078 47.542 30.5294 48.7733 29.9463C50.2629 29.2408 51.7828 29.0413 53.3702 29.3428ZM38.1324 29.3315C39.2695 29.5068 40.147 29.8163 41.0774 30.3705C41.617 30.692 42.6715 31.5492 42.8171 31.7849C42.8804 31.8873 42.6888 32.1076 41.503 33.2961L40.1148 34.6875L41.298 35.8561C42.6512 37.1928 43.0391 37.5142 43.7014 37.8483C45.0552 38.531 46.8404 38.5303 48.2094 37.8465L48.6662 37.6182L52.1621 41.1225C54.0861 43.051 55.6903 44.7136 55.7298 44.8198C56.0927 45.7981 55.2202 46.7765 54.22 46.5128C53.9507 46.4419 53.6364 46.1518 51.3145 43.8327C49.8825 42.4023 48.6811 41.232 48.6447 41.232C48.5568 41.232 47.1039 42.6848 47.1039 42.7727C47.1039 42.8105 48.2725 44.0145 49.7009 45.4485C52.0228 47.7797 52.3063 48.088 52.3778 48.3599C52.5213 48.9059 52.3114 49.4445 51.8379 49.7452C51.5032 49.9578 51.0535 50.0065 50.6866 49.87C50.5806 49.8305 49.3151 48.6194 47.8743 47.1786L45.2548 44.5589L44.4504 45.3643L43.6461 46.1698L46.2621 48.793C47.7009 50.2358 48.9104 51.5031 48.9498 51.6093C49.2281 52.3589 48.7324 53.2173 47.9499 53.3411C47.5585 53.403 47.2563 53.2869 46.7479 52.8794C45.8948 52.1956 45.1612 51.9579 44.1077 52.0242C43.6323 52.0541 43.4742 52.0431 43.4741 51.9801C43.474 51.7793 43.0559 51.0427 42.7481 50.7009C42.1429 50.029 41.1568 49.5302 40.4334 49.5302H40.1463L40.0724 49.0982C39.8877 48.0183 39.1334 47.0573 38.0656 46.5414C37.8796 46.4516 37.6003 46.3578 37.4447 46.3328C37.2892 46.3079 37.1529 46.2533 37.1419 46.2115C37.1308 46.1697 37.0877 45.8732 37.0459 45.5526C36.7505 43.2836 34.2322 41.8385 32.1985 42.7708L31.839 42.9357L31.3645 42.4355C28.8255 39.7588 28.516 35.5245 30.6413 32.542C32.3562 30.1353 35.2633 28.8894 38.1324 29.3315ZM34.0075 44.8358C34.3459 44.9773 34.5627 45.1863 34.7157 45.5183C34.9975 46.1297 34.8477 46.536 34.0377 47.3579C33.3497 48.0558 33.0671 48.2272 32.6039 48.2272C31.6749 48.2272 31.0768 47.2635 31.4836 46.4218C31.6766 46.0226 32.8339 44.8973 33.1432 44.8081C33.4846 44.7097 33.7246 44.7174 34.0075 44.8358ZM37.1599 48.5983C37.373 48.7098 37.6682 49.0134 37.7855 49.2417C37.9038 49.4716 37.8888 50.0285 37.7569 50.3068C37.5763 50.688 36.3557 51.8354 36.0363 51.9242C35.6646 52.0276 35.4704 52.0157 35.1505 51.8702C34.573 51.6075 34.2901 51.0237 34.4391 50.4019C34.5084 50.1122 34.6128 49.9605 35.0773 49.4737C35.8119 48.7041 36.1308 48.5015 36.6083 48.5015C36.81 48.5015 37.0582 48.5451 37.1599 48.5983ZM40.7215 51.9146C41.1544 52.113 41.4685 52.7493 41.3766 53.2415C41.3089 53.6041 41.1292 53.8488 40.4438 54.513C39.714 55.2199 39.3998 55.3603 38.8655 55.2179C38.2584 55.0562 37.927 54.623 37.927 53.9913C37.927 53.5248 38.051 53.3038 38.6722 52.6634C39.5592 51.7489 40.0047 51.5861 40.7215 51.9146ZM45.1682 54.5115C45.31 54.6249 45.4799 54.8236 45.5457 54.953C45.6795 55.2156 45.703 55.7325 45.5943 56.0189C45.4891 56.2959 44.3059 57.4824 43.9878 57.6299C43.3426 57.929 42.6123 57.6436 42.3024 56.9712C42.0273 56.3742 42.167 55.9852 42.9475 55.1752C43.6871 54.4075 43.9725 54.2449 44.5176 54.2799C44.8287 54.2999 44.9639 54.348 45.1682 54.5115Z" fill="#093D8D"/>
</svg>
