<svg width="77" height="73" viewBox="0 0 77 73" fill="none" xmlns="http://www.w3.org/2000/svg">
<mask id="path-1-outside-1_309_13012" maskUnits="userSpaceOnUse" x="0" y="0" width="77" height="73" fill="black">
<rect fill="white" width="77" height="73"/>
<path fill-rule="evenodd" clip-rule="evenodd" d="M20.1959 1.08664C14.9993 1.67611 10.5559 3.88687 6.92661 7.68869C4.03236 10.7206 2.26473 14.1125 1.34533 18.3992C0.884378 20.5486 0.884965 24.6937 1.34665 26.8468C2.21175 30.8812 3.86565 34.1767 6.5747 37.2646L7.70762 38.5558L7.17785 39.1782C5.0426 41.6864 4.96952 45.6269 7.00512 48.4952C8.08067 50.0107 9.64784 51.0069 11.6475 51.4465C11.9771 51.5189 12.0176 51.6064 12.0461 52.3082C12.1981 56.0497 15.0019 59.0435 18.8501 59.5732L19.5222 59.6659L19.6919 60.5827C20.1678 63.1561 22.2685 65.4945 24.8332 66.306C25.7275 66.589 27.3096 66.6911 28.639 66.5515C28.9199 66.5221 29.0296 66.652 29.315 67.3529C30.6432 70.6143 34.3025 72.5727 37.719 71.8505C39.6397 71.4445 40.2749 71.0366 42.5547 68.745C44.8919 66.3957 45.4313 65.531 45.7512 63.6213L45.9337 62.5325L46.7816 62.4254C48.0627 62.2637 49.6475 61.4291 50.7637 60.3288C51.8635 59.2446 52.6677 57.7149 52.9217 56.2238L53.0825 55.28L54.0885 55.1065C55.9756 54.7812 57.8485 53.5631 58.9629 51.9362C59.6208 50.9758 60.2225 49.3811 60.2225 48.5979C60.2225 47.9867 60.3804 47.8511 61.092 47.8511C61.6199 47.8511 63.0469 47.3543 63.8062 46.9062C64.7247 46.3642 65.7154 45.4261 66.2923 44.5523C66.9421 43.5681 67.5601 41.7538 67.5601 40.8306C67.5601 40.1346 67.5645 40.1285 69.5093 38.1268C72.9907 34.5437 74.8078 31.1525 75.7258 26.5246C76.0914 24.6824 76.0914 20.5571 75.7258 18.7149C74.8191 14.1444 72.9406 10.5994 69.6974 7.3387C67.0676 4.69443 64.6099 3.1624 61.2001 2.04174C56.814 0.600307 51.8385 0.65682 47.4341 2.19829C44.5395 3.21124 41.8987 4.81261 39.7501 6.85753L38.5031 8.04429L37.2817 6.88188C33.5068 3.28914 28.5828 1.23419 23.2409 1.02216C22.232 0.982171 20.8618 1.01109 20.1959 1.08664ZM57.5076 6.04054C63.6383 7.20959 68.9396 12.1201 70.7128 18.2724C71.7496 21.87 71.4282 25.8961 69.826 29.3831C69.1507 30.8525 67.66 33.085 66.5587 34.2763L65.672 35.2354L56.6736 26.2067L47.6752 17.178L46.4313 18.3731C44.0103 20.6985 41.6197 21.2341 38.9907 20.04C38.5365 19.8335 37.7692 19.2475 37.0829 18.5824L35.935 17.47L39.0168 14.3554C43.4863 9.83793 45.0187 8.59363 47.6571 7.339C50.8491 5.82113 54.106 5.3919 57.5076 6.04054ZM24.8552 6.01634C27.2919 6.39334 29.1721 7.05924 31.1658 8.25175C32.3222 8.94333 34.5818 10.7877 34.8938 11.2949C35.0294 11.515 34.6188 11.9891 32.0779 14.5462L29.1032 17.5397L31.6387 20.0541C34.5383 22.9299 35.3694 23.6215 36.7888 24.3402C39.6898 25.8091 43.5152 25.8076 46.4486 24.3364L47.4276 23.8453L54.9189 31.3848C59.0416 35.5339 62.4792 39.111 62.5638 39.3396C63.3416 41.4444 61.4719 43.5495 59.3286 42.9822C58.7516 42.8295 58.078 42.2055 53.1025 37.2157C50.0339 34.1382 47.4596 31.6204 47.3815 31.6204C47.1931 31.6204 44.0797 34.746 44.0797 34.9353C44.0797 35.0165 46.5839 37.607 49.6447 40.6923C54.6204 45.7078 55.2278 46.3712 55.381 46.956C55.6886 48.1309 55.2388 49.2897 54.2241 49.9367C53.507 50.394 52.5432 50.4989 51.7571 50.2051C51.5299 50.1201 48.8181 47.5144 45.7307 44.4145L40.1174 38.7781L38.3938 40.5111L36.6702 42.2441L42.276 47.888C45.3591 50.9922 47.9508 53.7188 48.0353 53.9472C48.6316 55.5601 47.5695 57.4068 45.8926 57.6733C45.054 57.8064 44.4064 57.5566 43.3169 56.6799C41.4888 55.2086 39.917 54.6973 37.6593 54.8399C36.6406 54.9042 36.3019 54.8806 36.3017 54.7452C36.3014 54.3131 35.4055 52.7283 34.7458 51.9929C33.4491 50.5472 31.3359 49.4742 29.7858 49.4742H29.1706L29.0122 48.5446C28.6164 46.2211 27.0001 44.1536 24.712 43.0437C24.3135 42.8504 23.7149 42.6486 23.3815 42.5949C23.0482 42.5413 22.7562 42.4238 22.7326 42.3338C22.7089 42.244 22.6165 41.606 22.527 40.9162C21.8939 36.0344 16.4976 32.9252 12.1395 34.9312L11.3692 35.2859L10.3524 34.2096C4.9117 28.4507 4.24853 19.3406 8.80269 12.9237C12.4777 7.74565 18.707 5.06508 24.8552 6.01634ZM16.016 39.374C16.7413 39.6785 17.2059 40.1281 17.5337 40.8424C18.1375 42.1578 17.8165 43.0321 16.0807 44.8003C14.6066 46.302 14.0009 46.6707 13.0085 46.6707C11.0176 46.6707 9.73604 44.5971 10.6077 42.7864C11.0213 41.9275 13.5013 39.5063 14.164 39.3145C14.8956 39.1028 15.4099 39.1193 16.016 39.374ZM22.7713 47.4691C23.2278 47.7089 23.8605 48.3621 24.1119 48.8533C24.3652 49.348 24.3332 50.5461 24.0505 51.1449C23.6634 51.9651 21.0478 54.4338 20.3635 54.6249C19.567 54.8473 19.1509 54.8217 18.4654 54.5086C17.2279 53.9435 16.6217 52.6873 16.9408 51.3495C17.0895 50.7263 17.3131 50.3998 18.3086 49.3524C19.8826 47.6966 20.5661 47.2609 21.5892 47.2609C22.0214 47.2609 22.5532 47.3546 22.7713 47.4691ZM30.4033 54.6042C31.3308 55.031 32.0039 56.4001 31.807 57.4589C31.6618 58.239 31.2769 58.7656 29.8081 60.1945C28.2443 61.7155 27.571 62.0175 26.426 61.7112C25.1251 61.3633 24.4149 60.4314 24.4149 59.0723C24.4149 58.0686 24.6807 57.5931 26.0119 56.2152C27.9126 54.2476 28.8672 53.8975 30.4033 54.6042ZM39.9318 60.1914C40.2357 60.4355 40.5998 60.8629 40.7408 61.1412C41.0274 61.7064 41.0779 62.8183 40.8449 63.4346C40.6195 64.0306 38.0842 66.5834 37.4025 66.9006C36.02 67.5442 34.455 66.9301 33.7909 65.4835C33.2013 64.1989 33.5007 63.362 35.1732 61.6193C36.7581 59.9678 37.3696 59.6178 38.5376 59.6932C39.2043 59.7362 39.494 59.8397 39.9318 60.1914Z"/>
</mask>
<path fill-rule="evenodd" clip-rule="evenodd" d="M20.1959 1.08664C14.9993 1.67611 10.5559 3.88687 6.92661 7.68869C4.03236 10.7206 2.26473 14.1125 1.34533 18.3992C0.884378 20.5486 0.884965 24.6937 1.34665 26.8468C2.21175 30.8812 3.86565 34.1767 6.5747 37.2646L7.70762 38.5558L7.17785 39.1782C5.0426 41.6864 4.96952 45.6269 7.00512 48.4952C8.08067 50.0107 9.64784 51.0069 11.6475 51.4465C11.9771 51.5189 12.0176 51.6064 12.0461 52.3082C12.1981 56.0497 15.0019 59.0435 18.8501 59.5732L19.5222 59.6659L19.6919 60.5827C20.1678 63.1561 22.2685 65.4945 24.8332 66.306C25.7275 66.589 27.3096 66.6911 28.639 66.5515C28.9199 66.5221 29.0296 66.652 29.315 67.3529C30.6432 70.6143 34.3025 72.5727 37.719 71.8505C39.6397 71.4445 40.2749 71.0366 42.5547 68.745C44.8919 66.3957 45.4313 65.531 45.7512 63.6213L45.9337 62.5325L46.7816 62.4254C48.0627 62.2637 49.6475 61.4291 50.7637 60.3288C51.8635 59.2446 52.6677 57.7149 52.9217 56.2238L53.0825 55.28L54.0885 55.1065C55.9756 54.7812 57.8485 53.5631 58.9629 51.9362C59.6208 50.9758 60.2225 49.3811 60.2225 48.5979C60.2225 47.9867 60.3804 47.8511 61.092 47.8511C61.6199 47.8511 63.0469 47.3543 63.8062 46.9062C64.7247 46.3642 65.7154 45.4261 66.2923 44.5523C66.9421 43.5681 67.5601 41.7538 67.5601 40.8306C67.5601 40.1346 67.5645 40.1285 69.5093 38.1268C72.9907 34.5437 74.8078 31.1525 75.7258 26.5246C76.0914 24.6824 76.0914 20.5571 75.7258 18.7149C74.8191 14.1444 72.9406 10.5994 69.6974 7.3387C67.0676 4.69443 64.6099 3.1624 61.2001 2.04174C56.814 0.600307 51.8385 0.65682 47.4341 2.19829C44.5395 3.21124 41.8987 4.81261 39.7501 6.85753L38.5031 8.04429L37.2817 6.88188C33.5068 3.28914 28.5828 1.23419 23.2409 1.02216C22.232 0.982171 20.8618 1.01109 20.1959 1.08664ZM57.5076 6.04054C63.6383 7.20959 68.9396 12.1201 70.7128 18.2724C71.7496 21.87 71.4282 25.8961 69.826 29.3831C69.1507 30.8525 67.66 33.085 66.5587 34.2763L65.672 35.2354L56.6736 26.2067L47.6752 17.178L46.4313 18.3731C44.0103 20.6985 41.6197 21.2341 38.9907 20.04C38.5365 19.8335 37.7692 19.2475 37.0829 18.5824L35.935 17.47L39.0168 14.3554C43.4863 9.83793 45.0187 8.59363 47.6571 7.339C50.8491 5.82113 54.106 5.3919 57.5076 6.04054ZM24.8552 6.01634C27.2919 6.39334 29.1721 7.05924 31.1658 8.25175C32.3222 8.94333 34.5818 10.7877 34.8938 11.2949C35.0294 11.515 34.6188 11.9891 32.0779 14.5462L29.1032 17.5397L31.6387 20.0541C34.5383 22.9299 35.3694 23.6215 36.7888 24.3402C39.6898 25.8091 43.5152 25.8076 46.4486 24.3364L47.4276 23.8453L54.9189 31.3848C59.0416 35.5339 62.4792 39.111 62.5638 39.3396C63.3416 41.4444 61.4719 43.5495 59.3286 42.9822C58.7516 42.8295 58.078 42.2055 53.1025 37.2157C50.0339 34.1382 47.4596 31.6204 47.3815 31.6204C47.1931 31.6204 44.0797 34.746 44.0797 34.9353C44.0797 35.0165 46.5839 37.607 49.6447 40.6923C54.6204 45.7078 55.2278 46.3712 55.381 46.956C55.6886 48.1309 55.2388 49.2897 54.2241 49.9367C53.507 50.394 52.5432 50.4989 51.7571 50.2051C51.5299 50.1201 48.8181 47.5144 45.7307 44.4145L40.1174 38.7781L38.3938 40.5111L36.6702 42.2441L42.276 47.888C45.3591 50.9922 47.9508 53.7188 48.0353 53.9472C48.6316 55.5601 47.5695 57.4068 45.8926 57.6733C45.054 57.8064 44.4064 57.5566 43.3169 56.6799C41.4888 55.2086 39.917 54.6973 37.6593 54.8399C36.6406 54.9042 36.3019 54.8806 36.3017 54.7452C36.3014 54.3131 35.4055 52.7283 34.7458 51.9929C33.4491 50.5472 31.3359 49.4742 29.7858 49.4742H29.1706L29.0122 48.5446C28.6164 46.2211 27.0001 44.1536 24.712 43.0437C24.3135 42.8504 23.7149 42.6486 23.3815 42.5949C23.0482 42.5413 22.7562 42.4238 22.7326 42.3338C22.7089 42.244 22.6165 41.606 22.527 40.9162C21.8939 36.0344 16.4976 32.9252 12.1395 34.9312L11.3692 35.2859L10.3524 34.2096C4.9117 28.4507 4.24853 19.3406 8.80269 12.9237C12.4777 7.74565 18.707 5.06508 24.8552 6.01634ZM16.016 39.374C16.7413 39.6785 17.2059 40.1281 17.5337 40.8424C18.1375 42.1578 17.8165 43.0321 16.0807 44.8003C14.6066 46.302 14.0009 46.6707 13.0085 46.6707C11.0176 46.6707 9.73604 44.5971 10.6077 42.7864C11.0213 41.9275 13.5013 39.5063 14.164 39.3145C14.8956 39.1028 15.4099 39.1193 16.016 39.374ZM22.7713 47.4691C23.2278 47.7089 23.8605 48.3621 24.1119 48.8533C24.3652 49.348 24.3332 50.5461 24.0505 51.1449C23.6634 51.9651 21.0478 54.4338 20.3635 54.6249C19.567 54.8473 19.1509 54.8217 18.4654 54.5086C17.2279 53.9435 16.6217 52.6873 16.9408 51.3495C17.0895 50.7263 17.3131 50.3998 18.3086 49.3524C19.8826 47.6966 20.5661 47.2609 21.5892 47.2609C22.0214 47.2609 22.5532 47.3546 22.7713 47.4691ZM30.4033 54.6042C31.3308 55.031 32.0039 56.4001 31.807 57.4589C31.6618 58.239 31.2769 58.7656 29.8081 60.1945C28.2443 61.7155 27.571 62.0175 26.426 61.7112C25.1251 61.3633 24.4149 60.4314 24.4149 59.0723C24.4149 58.0686 24.6807 57.5931 26.0119 56.2152C27.9126 54.2476 28.8672 53.8975 30.4033 54.6042ZM39.9318 60.1914C40.2357 60.4355 40.5998 60.8629 40.7408 61.1412C41.0274 61.7064 41.0779 62.8183 40.8449 63.4346C40.6195 64.0306 38.0842 66.5834 37.4025 66.9006C36.02 67.5442 34.455 66.9301 33.7909 65.4835C33.2013 64.1989 33.5007 63.362 35.1732 61.6193C36.7581 59.9678 37.3696 59.6178 38.5376 59.6932C39.2043 59.7362 39.494 59.8397 39.9318 60.1914Z" fill="#DADADA"/>
<path fill-rule="evenodd" clip-rule="evenodd" d="M20.1959 1.08664C14.9993 1.67611 10.5559 3.88687 6.92661 7.68869C4.03236 10.7206 2.26473 14.1125 1.34533 18.3992C0.884378 20.5486 0.884965 24.6937 1.34665 26.8468C2.21175 30.8812 3.86565 34.1767 6.5747 37.2646L7.70762 38.5558L7.17785 39.1782C5.0426 41.6864 4.96952 45.6269 7.00512 48.4952C8.08067 50.0107 9.64784 51.0069 11.6475 51.4465C11.9771 51.5189 12.0176 51.6064 12.0461 52.3082C12.1981 56.0497 15.0019 59.0435 18.8501 59.5732L19.5222 59.6659L19.6919 60.5827C20.1678 63.1561 22.2685 65.4945 24.8332 66.306C25.7275 66.589 27.3096 66.6911 28.639 66.5515C28.9199 66.5221 29.0296 66.652 29.315 67.3529C30.6432 70.6143 34.3025 72.5727 37.719 71.8505C39.6397 71.4445 40.2749 71.0366 42.5547 68.745C44.8919 66.3957 45.4313 65.531 45.7512 63.6213L45.9337 62.5325L46.7816 62.4254C48.0627 62.2637 49.6475 61.4291 50.7637 60.3288C51.8635 59.2446 52.6677 57.7149 52.9217 56.2238L53.0825 55.28L54.0885 55.1065C55.9756 54.7812 57.8485 53.5631 58.9629 51.9362C59.6208 50.9758 60.2225 49.3811 60.2225 48.5979C60.2225 47.9867 60.3804 47.8511 61.092 47.8511C61.6199 47.8511 63.0469 47.3543 63.8062 46.9062C64.7247 46.3642 65.7154 45.4261 66.2923 44.5523C66.9421 43.5681 67.5601 41.7538 67.5601 40.8306C67.5601 40.1346 67.5645 40.1285 69.5093 38.1268C72.9907 34.5437 74.8078 31.1525 75.7258 26.5246C76.0914 24.6824 76.0914 20.5571 75.7258 18.7149C74.8191 14.1444 72.9406 10.5994 69.6974 7.3387C67.0676 4.69443 64.6099 3.1624 61.2001 2.04174C56.814 0.600307 51.8385 0.65682 47.4341 2.19829C44.5395 3.21124 41.8987 4.81261 39.7501 6.85753L38.5031 8.04429L37.2817 6.88188C33.5068 3.28914 28.5828 1.23419 23.2409 1.02216C22.232 0.982171 20.8618 1.01109 20.1959 1.08664ZM57.5076 6.04054C63.6383 7.20959 68.9396 12.1201 70.7128 18.2724C71.7496 21.87 71.4282 25.8961 69.826 29.3831C69.1507 30.8525 67.66 33.085 66.5587 34.2763L65.672 35.2354L56.6736 26.2067L47.6752 17.178L46.4313 18.3731C44.0103 20.6985 41.6197 21.2341 38.9907 20.04C38.5365 19.8335 37.7692 19.2475 37.0829 18.5824L35.935 17.47L39.0168 14.3554C43.4863 9.83793 45.0187 8.59363 47.6571 7.339C50.8491 5.82113 54.106 5.3919 57.5076 6.04054ZM24.8552 6.01634C27.2919 6.39334 29.1721 7.05924 31.1658 8.25175C32.3222 8.94333 34.5818 10.7877 34.8938 11.2949C35.0294 11.515 34.6188 11.9891 32.0779 14.5462L29.1032 17.5397L31.6387 20.0541C34.5383 22.9299 35.3694 23.6215 36.7888 24.3402C39.6898 25.8091 43.5152 25.8076 46.4486 24.3364L47.4276 23.8453L54.9189 31.3848C59.0416 35.5339 62.4792 39.111 62.5638 39.3396C63.3416 41.4444 61.4719 43.5495 59.3286 42.9822C58.7516 42.8295 58.078 42.2055 53.1025 37.2157C50.0339 34.1382 47.4596 31.6204 47.3815 31.6204C47.1931 31.6204 44.0797 34.746 44.0797 34.9353C44.0797 35.0165 46.5839 37.607 49.6447 40.6923C54.6204 45.7078 55.2278 46.3712 55.381 46.956C55.6886 48.1309 55.2388 49.2897 54.2241 49.9367C53.507 50.394 52.5432 50.4989 51.7571 50.2051C51.5299 50.1201 48.8181 47.5144 45.7307 44.4145L40.1174 38.7781L38.3938 40.5111L36.6702 42.2441L42.276 47.888C45.3591 50.9922 47.9508 53.7188 48.0353 53.9472C48.6316 55.5601 47.5695 57.4068 45.8926 57.6733C45.054 57.8064 44.4064 57.5566 43.3169 56.6799C41.4888 55.2086 39.917 54.6973 37.6593 54.8399C36.6406 54.9042 36.3019 54.8806 36.3017 54.7452C36.3014 54.3131 35.4055 52.7283 34.7458 51.9929C33.4491 50.5472 31.3359 49.4742 29.7858 49.4742H29.1706L29.0122 48.5446C28.6164 46.2211 27.0001 44.1536 24.712 43.0437C24.3135 42.8504 23.7149 42.6486 23.3815 42.5949C23.0482 42.5413 22.7562 42.4238 22.7326 42.3338C22.7089 42.244 22.6165 41.606 22.527 40.9162C21.8939 36.0344 16.4976 32.9252 12.1395 34.9312L11.3692 35.2859L10.3524 34.2096C4.9117 28.4507 4.24853 19.3406 8.80269 12.9237C12.4777 7.74565 18.707 5.06508 24.8552 6.01634ZM16.016 39.374C16.7413 39.6785 17.2059 40.1281 17.5337 40.8424C18.1375 42.1578 17.8165 43.0321 16.0807 44.8003C14.6066 46.302 14.0009 46.6707 13.0085 46.6707C11.0176 46.6707 9.73604 44.5971 10.6077 42.7864C11.0213 41.9275 13.5013 39.5063 14.164 39.3145C14.8956 39.1028 15.4099 39.1193 16.016 39.374ZM22.7713 47.4691C23.2278 47.7089 23.8605 48.3621 24.1119 48.8533C24.3652 49.348 24.3332 50.5461 24.0505 51.1449C23.6634 51.9651 21.0478 54.4338 20.3635 54.6249C19.567 54.8473 19.1509 54.8217 18.4654 54.5086C17.2279 53.9435 16.6217 52.6873 16.9408 51.3495C17.0895 50.7263 17.3131 50.3998 18.3086 49.3524C19.8826 47.6966 20.5661 47.2609 21.5892 47.2609C22.0214 47.2609 22.5532 47.3546 22.7713 47.4691ZM30.4033 54.6042C31.3308 55.031 32.0039 56.4001 31.807 57.4589C31.6618 58.239 31.2769 58.7656 29.8081 60.1945C28.2443 61.7155 27.571 62.0175 26.426 61.7112C25.1251 61.3633 24.4149 60.4314 24.4149 59.0723C24.4149 58.0686 24.6807 57.5931 26.0119 56.2152C27.9126 54.2476 28.8672 53.8975 30.4033 54.6042ZM39.9318 60.1914C40.2357 60.4355 40.5998 60.8629 40.7408 61.1412C41.0274 61.7064 41.0779 62.8183 40.8449 63.4346C40.6195 64.0306 38.0842 66.5834 37.4025 66.9006C36.02 67.5442 34.455 66.9301 33.7909 65.4835C33.2013 64.1989 33.5007 63.362 35.1732 61.6193C36.7581 59.9678 37.3696 59.6178 38.5376 59.6932C39.2043 59.7362 39.494 59.8397 39.9318 60.1914Z" stroke="#DADADA" stroke-width="0.2" mask="url(#path-1-outside-1_309_13012)"/>
</svg>
